<svg xmlns="http://www.w3.org/2000/svg" xmlns:xlink="http://www.w3.org/1999/xlink" width="103" height="103" viewBox="0 0 103 103">
  <defs>
    <filter id="Trazado_978624" x="0" y="0" width="103" height="103" filterUnits="userSpaceOnUse">
      <feOffset dy="3" input="SourceAlpha"/>
      <feGaussianBlur stdDeviation="3" result="blur"/>
      <feFlood flood-opacity="0.161"/>
      <feComposite operator="in" in2="blur"/>
      <feComposite in="SourceGraphic"/>
    </filter>
  </defs>
  <g id="Grupo_1164359" data-name="Grupo 1164359" transform="translate(9 6)">
    <g id="Grupo_1144531" data-name="Grupo 1144531">
      <g transform="matrix(1, 0, 0, 1, -9, -6)" filter="url(#Trazado_978624)">
        <g id="Trazado_978624-2" data-name="Trazado 978624" transform="translate(9 6)" fill="#fcf9e5">
          <path d="M 42.5 83.5 C 36.96437835693359 83.5 31.59512901306152 82.41617584228516 26.54141235351562 80.27863311767578 C 21.65934181213379 78.21369171142578 17.27447128295898 75.25723266601562 13.50862312316895 71.49137878417969 C 9.742764472961426 67.72553253173828 6.786305904388428 63.34066009521484 4.721364498138428 58.45858764648438 C 2.583823442459106 53.40486907958984 1.5 48.03562164306641 1.5 42.5 C 1.5 36.96437835693359 2.583823442459106 31.59512901306152 4.721364498138428 26.54141235351562 C 6.786305904388428 21.65934181213379 9.742764472961426 17.27447128295898 13.50862312316895 13.50862312316895 C 17.27447128295898 9.742764472961426 21.65934181213379 6.786305904388428 26.54141235351562 4.721364498138428 C 31.59512901306152 2.583823442459106 36.96437835693359 1.5 42.5 1.5 C 48.03562164306641 1.5 53.40486907958984 2.583823442459106 58.45858764648438 4.721364498138428 C 63.34066009521484 6.786305904388428 67.72553253173828 9.742764472961426 71.49137878417969 13.50862312316895 C 75.25723266601562 17.27447128295898 78.21369171142578 21.65934181213379 80.27863311767578 26.54141235351562 C 82.41617584228516 31.59512901306152 83.5 36.96437835693359 83.5 42.5 C 83.5 48.03562164306641 82.41617584228516 53.40486907958984 80.27863311767578 58.45858764648438 C 78.21369171142578 63.34066009521484 75.25723266601562 67.72553253173828 71.49137878417969 71.49137878417969 C 67.72553253173828 75.25723266601562 63.34066009521484 78.21369171142578 58.45858764648438 80.27863311767578 C 53.40486907958984 82.41617584228516 48.03562164306641 83.5 42.5 83.5 Z" stroke="none"/>
          <path d="M 42.5 3 C 37.16621398925781 3 31.99356079101562 4.043960571289062 27.125732421875 6.102882385253906 C 22.42246627807617 8.092185974121094 18.19785308837891 10.94070434570312 14.56928253173828 14.56928253173828 C 10.94070434570312 18.19785308837891 8.092185974121094 22.42246627807617 6.102882385253906 27.125732421875 C 4.043960571289062 31.99356079101562 3 37.16621398925781 3 42.5 C 3 47.83378601074219 4.043960571289062 53.00643920898438 6.102882385253906 57.87425231933594 C 8.092185974121094 62.57753372192383 10.94070434570312 66.80213165283203 14.56928253173828 70.43071746826172 C 18.19786834716797 74.05929565429688 22.42246627807617 76.90781402587891 27.125732421875 78.89711761474609 C 31.99356079101562 80.95603942871094 37.16621398925781 82 42.5 82 C 47.83378601074219 82 53.00642395019531 80.95603942871094 57.87425231933594 78.89711761474609 C 62.57753372192383 76.90781402587891 66.80213165283203 74.05929565429688 70.43071746826172 70.43071746826172 C 74.05929565429688 66.80213165283203 76.90781402587891 62.57753372192383 78.89711761474609 57.87425231933594 C 80.95603942871094 53.00642395019531 82 47.83378601074219 82 42.5 C 82 37.16621398925781 80.95603942871094 31.99356079101562 78.89711761474609 27.125732421875 C 76.90781402587891 22.42246627807617 74.05929565429688 18.19786834716797 70.43071746826172 14.56928253173828 C 66.80213165283203 10.94070434570312 62.57753372192383 8.092185974121094 57.87425231933594 6.102882385253906 C 53.00643920898438 4.043960571289062 47.83378601074219 3 42.5 3 M 42.5 0 C 65.97209167480469 0 85 19.02789306640625 85 42.5 C 85 65.97209167480469 65.97209167480469 85 42.5 85 C 19.02789306640625 85 0 65.97209167480469 0 42.5 C 0 19.02789306640625 19.02789306640625 0 42.5 0 Z" stroke="none" fill="#bcac89"/>
        </g>
      </g>
    </g>
    <g id="programmer_8083321" transform="translate(9.179 9.18)">
      <path id="Trazado_1026286" data-name="Trazado 1026286" d="M16.892,222.124H7.845a.345.345,0,0,1-.345-.345v-5.544a.345.345,0,0,1,.345-.345h9.047a.345.345,0,0,1,.345.345v5.544A.345.345,0,0,1,16.892,222.124Z" transform="translate(0 -186.737)" fill="#fe7ab6"/>
      <path id="Trazado_1026287" data-name="Trazado 1026287" d="M71.008,215.889H67.891a.345.345,0,0,1,.345.345v5.544a.345.345,0,0,1-.345.345h3.117a.345.345,0,0,0,.345-.345v-5.544A.345.345,0,0,0,71.008,215.889Z" transform="translate(-54.116 -186.736)" fill="#fe5ca7"/>
      <path id="Trazado_1026288" data-name="Trazado 1026288" d="M110.793,265.039l-5.939-1.7a2.279,2.279,0,0,1-1.652-2.191v-3.206H96.969v3.206a2.279,2.279,0,0,1-1.652,2.191l-5.939,1.7a6.73,6.73,0,0,0-4.878,6.47v6.217h31.172v-6.217A6.729,6.729,0,0,0,110.793,265.039Z" transform="translate(-68.999 -224.42)" fill="#ffb09e"/>
      <g id="Grupo_1172320" data-name="Grupo 1172320" transform="translate(18.098 20.223)">
        <path id="Trazado_1026289" data-name="Trazado 1026289" d="M114.728,133.657c0,2.047-1.249,3.707-2.791,3.707s-2.437-1.906-2.437-3.954.9-3.461,2.437-3.461S114.728,131.61,114.728,133.657Z" transform="translate(-109.5 -129.95)" fill="#ffb09e"/>
        <path id="Trazado_1026290" data-name="Trazado 1026290" d="M309.19,133.657c0,2.047,1.249,3.707,2.791,3.707s2.437-1.906,2.437-3.954-.9-3.461-2.437-3.461S309.19,131.61,309.19,133.657Z" transform="translate(-288.441 -129.95)" fill="#ffb09e"/>
      </g>
      <path id="Trazado_1026291" data-name="Trazado 1026291" d="M147.629,55.145V49a9.026,9.026,0,0,1,9.026-9.026h0A9.026,9.026,0,0,1,165.682,49v6.108a9.044,9.044,0,0,1-9.043,9.043h0A9.009,9.009,0,0,1,147.629,55.145Z" transform="translate(-125.569 -29.102)" fill="#ffcebf"/>
      <path id="Trazado_1026292" data-name="Trazado 1026292" d="M220.924,39.976h0a9.085,9.085,0,0,0-1.559.134A9.029,9.029,0,0,1,226.833,49v6.108a9.046,9.046,0,0,1-7.483,8.909,9.068,9.068,0,0,0,1.557.134h0a9.043,9.043,0,0,0,9.043-9.043V49A9.026,9.026,0,0,0,220.924,39.976Z" transform="translate(-189.837 -29.102)" fill="#ffb09e"/>
      <path id="Trazado_1026293" data-name="Trazado 1026293" d="M107.75,314.04v7.112A1.247,1.247,0,0,1,106.5,322.4H75.747a1.247,1.247,0,0,1-1.247-1.247V314.04a7.023,7.023,0,0,1,4.918-6.7l6.665-2.094a.445.445,0,0,1,.567.323c.305,1.319,1.424,4.956,4.474,4.956s4.169-3.637,4.474-4.956a.445.445,0,0,1,.567-.323l6.665,2.094A7.023,7.023,0,0,1,107.75,314.04Z" transform="translate(-60.038 -266.79)" fill="#fdb441"/>
      <g id="Grupo_1172321" data-name="Grupo 1172321" transform="translate(35.449 38.436)">
        <path id="Trazado_1026294" data-name="Trazado 1026294" d="M283.823,307.34l-6.665-2.094a.445.445,0,0,0-.567.323c-.03.128-.067.277-.113.443l4.228,1.328a7.023,7.023,0,0,1,4.918,6.7v7.112a1.247,1.247,0,0,1-1.247,1.247h3.117a1.247,1.247,0,0,0,1.247-1.247V314.04A7.023,7.023,0,0,0,283.823,307.34Z" transform="translate(-276.478 -305.226)" fill="#fe9738"/>
      </g>
      <path id="Trazado_1026295" data-name="Trazado 1026295" d="M94.906,407.52v4.211a1.662,1.662,0,0,1-1.662,1.662h0a1.662,1.662,0,0,1-1.663-1.662V407.52a1.662,1.662,0,0,1,1.663-1.662h0A1.662,1.662,0,0,1,94.906,407.52Z" transform="translate(-75.344 -356.966)" fill="#ffb09e"/>
      <path id="Trazado_1026296" data-name="Trazado 1026296" d="M313.267,441.825h3.741V438.5h-3.741a1.662,1.662,0,0,0-1.663,1.663h0A1.663,1.663,0,0,0,313.267,441.825Z" transform="translate(-272.507 -386.216)" fill="#ffb09e"/>
      <path id="Trazado_1026297" data-name="Trazado 1026297" d="M350.278,423.655h6.84a1.36,1.36,0,0,0,1.36-1.36v-1.5a2.572,2.572,0,0,0-2.572-2.572h-4.415a2.572,2.572,0,0,0-2.572,2.572v1.5A1.359,1.359,0,0,0,350.278,423.655Z" transform="translate(-305.943 -368.046)" fill="#ffcebf"/>
      <path id="Trazado_1026298" data-name="Trazado 1026298" d="M389.279,418.222h-3.117a2.572,2.572,0,0,1,2.572,2.572v1.5a1.36,1.36,0,0,1-1.36,1.359h3.117a1.36,1.36,0,0,0,1.36-1.359v-1.5A2.572,2.572,0,0,0,389.279,418.222Z" transform="translate(-339.317 -368.045)" fill="#ffb09e"/>
      <path id="Trazado_1026299" data-name="Trazado 1026299" d="M361.5,74V94.5a2.228,2.228,0,0,1-2.237,2.22h-8.1a2.228,2.228,0,0,1-2.237-2.22V92.2a.458.458,0,0,0-.2-.381l-3.7-2.465a.227.227,0,0,1,0-.379l3.7-2.465a.458.458,0,0,0,.2-.381V74a2.228,2.228,0,0,1,2.237-2.22h8.1A2.228,2.228,0,0,1,361.5,74Z" transform="translate(-302.361 -57.604)" fill="#eaf6ff"/>
      <path id="Trazado_1026300" data-name="Trazado 1026300" d="M456.088,71.784h-3.117A2.228,2.228,0,0,1,455.208,74V94.5a2.228,2.228,0,0,1-2.237,2.22h3.117a2.228,2.228,0,0,0,2.237-2.22V74A2.228,2.228,0,0,0,456.088,71.784Z" transform="translate(-399.184 -57.604)" fill="#d8ecfe"/>
      <path id="Trazado_1026301" data-name="Trazado 1026301" d="M413.478,223.29v-5.2a.75.75,0,0,1,.75-.75h4.84a.75.75,0,0,1,.75.75v5.2a.75.75,0,0,1-.75.75h-4.84A.75.75,0,0,1,413.478,223.29Z" transform="translate(-363.794 -188.04)" fill="#fdb441"/>
      <path id="Trazado_1026302" data-name="Trazado 1026302" d="M440.4,217.343H437.28a.75.75,0,0,1,.75.75v5.2a.75.75,0,0,1-.75.75H440.4a.75.75,0,0,0,.75-.75v-5.2A.75.75,0,0,0,440.4,217.343Z" transform="translate(-385.123 -188.039)" fill="#fe9738"/>
      <path id="Trazado_1026303" data-name="Trazado 1026303" d="M63.14,319.89h0a1.559,1.559,0,0,1-1.559-1.559V304.824a1.559,1.559,0,0,1,1.559-1.559h0a1.559,1.559,0,0,1,1.559,1.559v13.508A1.559,1.559,0,0,1,63.14,319.89Z" transform="translate(-48.462 -265.033)" fill="#d8ecfe"/>
      <path id="Trazado_1026304" data-name="Trazado 1026304" d="M44.736,379.86v6.84a1.36,1.36,0,0,1-1.36,1.359h-1.5a2.572,2.572,0,0,1-2.572-2.572v-4.415a2.572,2.572,0,0,1,2.572-2.572h1.5A1.359,1.359,0,0,1,44.736,379.86Z" transform="translate(-28.499 -332.452)" fill="#ffcebf"/>
      <path id="Trazado_1026305" data-name="Trazado 1026305" d="M52.585,474.032h-43A2.089,2.089,0,0,1,7.5,471.943v-.608a.836.836,0,0,1,.836-.836h45.5a.836.836,0,0,1,.836.836v.608A2.089,2.089,0,0,1,52.585,474.032Z" transform="translate(0 -414.89)" fill="#3692bc"/>
      <path id="Trazado_1026306" data-name="Trazado 1026306" d="M415.766,470.5h-3.117a.836.836,0,0,1,.836.836v.608a2.089,2.089,0,0,1-2.089,2.089h3.117a2.089,2.089,0,0,0,2.089-2.089v-.608A.836.836,0,0,0,415.766,470.5Z" transform="translate(-361.929 -414.891)" fill="#0681af"/>
      <path id="Trazado_1026307" data-name="Trazado 1026307" d="M154.686,30.034c-.132,1.3-1.682,3.053-2.433,3.831a.2.2,0,0,1-.333-.158,40.629,40.629,0,0,0-2.274-17.431.334.334,0,0,0-.374-.211,25.223,25.223,0,0,1-3.963.4,16.885,16.885,0,0,1-3.812-.386.332.332,0,0,0-.384.208,40.611,40.611,0,0,0-2.27,17.42.2.2,0,0,1-.333.158c-.751-.778-2.3-2.528-2.434-3.831C135.9,28.31,130.979,7.5,145.381,7.5S154.863,28.31,154.686,30.034Z" transform="translate(-114.364 0)" fill="#ae6c6c"/>
      <g id="Grupo_1172322" data-name="Grupo 1172322" transform="translate(29.459 7.5)">
        <path id="Trazado_1026308" data-name="Trazado 1026308" d="M220.389,7.5a13.351,13.351,0,0,0-1.559.088c10.036,1.179,9.049,13.911,8.19,19.711a34.06,34.06,0,0,1-.092,6.408.2.2,0,0,0,.333.158c.751-.778,2.3-2.528,2.433-3.831C229.87,28.31,234.791,7.5,220.389,7.5Z" transform="translate(-218.83 -7.5)" fill="#9b5e5e"/>
      </g>
      <g id="Grupo_1172323" data-name="Grupo 1172323" transform="translate(25.962 46.716)">
        <path id="Trazado_1026309" data-name="Trazado 1026309" d="M188.132,390.877h-2.374a.576.576,0,0,1-.576-.576V385.5a.576.576,0,0,1,.576-.575h2.374a.576.576,0,0,1,.576.575V390.3A.576.576,0,0,1,188.132,390.877Z" transform="translate(-185.182 -384.92)" fill="#6c7fd8"/>
        <path id="Trazado_1026310" data-name="Trazado 1026310" d="M242.5,390.3V385.5a.576.576,0,0,1,.576-.575h4.265a.576.576,0,0,1,.576.575V390.3a.576.576,0,0,1-.576.576h-4.265A.576.576,0,0,1,242.5,390.3Z" transform="translate(-236.545 -384.92)" fill="#eaf6ff"/>
      </g>
      <g id="Grupo_1172335" data-name="Grupo 1172335" transform="translate(7.5 7.5)">
        <path id="Trazado_1026311" data-name="Trazado 1026311" d="M16.892,222.124H7.845a.345.345,0,0,1-.345-.345v-5.544a.345.345,0,0,1,.345-.345h9.047a.345.345,0,0,1,.345.345v5.544A.345.345,0,0,1,16.892,222.124Z" transform="translate(-7.5 -194.237)" fill="none" stroke="#000" stroke-linecap="round" stroke-linejoin="round" stroke-miterlimit="10" stroke-width="1.5"/>
        <path id="Trazado_1026312" data-name="Trazado 1026312" d="M192.9,272.171a2.279,2.279,0,0,0,1.206-2.01V268" transform="translate(-173.634 -240.932)" fill="none" stroke="#000" stroke-linecap="round" stroke-linejoin="round" stroke-miterlimit="10" stroke-width="1.5"/>
        <path id="Trazado_1026313" data-name="Trazado 1026313" d="M264.5,268.333v2.126a2.279,2.279,0,0,0,1.206,2.011" transform="translate(-237.796 -241.231)" fill="none" stroke="#000" stroke-linecap="round" stroke-linejoin="round" stroke-miterlimit="10" stroke-width="1.5"/>
        <g id="Grupo_1172324" data-name="Grupo 1172324" transform="translate(10.598 12.723)">
          <path id="Trazado_1026314" data-name="Trazado 1026314" d="M112.551,137.274a2.143,2.143,0,0,1-.615.09c-1.541,0-2.437-1.906-2.437-3.954s.9-3.461,2.437-3.461" transform="translate(-109.5 -129.95)" fill="none" stroke="#000" stroke-linecap="round" stroke-linejoin="round" stroke-miterlimit="10" stroke-width="1.5"/>
          <path id="Trazado_1026315" data-name="Trazado 1026315" d="M328.056,137.2a2.164,2.164,0,0,0,.831.167c1.541,0,2.437-1.906,2.437-3.954s-.9-3.461-2.437-3.461a2.123,2.123,0,0,0-.249.015" transform="translate(-305.347 -129.951)" fill="none" stroke="#000" stroke-linecap="round" stroke-linejoin="round" stroke-miterlimit="10" stroke-width="1.5"/>
        </g>
        <path id="Trazado_1026316" data-name="Trazado 1026316" d="M169.52,243.53q.176.2.365.389a9.025,9.025,0,0,0,12.991-.245" transform="translate(-152.685 -219.005)" fill="none" stroke="#000" stroke-linecap="round" stroke-linejoin="round" stroke-miterlimit="10" stroke-width="1.5"/>
        <g id="Grupo_1172330" data-name="Grupo 1172330" transform="translate(18.365 13.131)">
          <g id="Grupo_1172325" data-name="Grupo 1172325" transform="translate(4.66 7.069)">
            <path id="Trazado_1026317" data-name="Trazado 1026317" d="M229.1,201.913a1.866,1.866,0,0,0,1.123,0" transform="translate(-229.096 -201.913)" fill="none" stroke="#000" stroke-linecap="round" stroke-linejoin="round" stroke-miterlimit="10" stroke-width="1.5"/>
          </g>
          <g id="Grupo_1172327" data-name="Grupo 1172327" transform="translate(3.457 9.403)">
            <g id="Grupo_1172326" data-name="Grupo 1172326">
              <path id="Trazado_1026318" data-name="Trazado 1026318" d="M221.051,224.375a3.663,3.663,0,0,1-3.528,0" transform="translate(-217.523 -224.375)" fill="none" stroke="#000" stroke-linecap="round" stroke-linejoin="round" stroke-miterlimit="10" stroke-width="1.5"/>
            </g>
          </g>
          <g id="Grupo_1172328" data-name="Grupo 1172328" transform="translate(1.291 2.954)">
            <line id="Línea_733" data-name="Línea 733" y2="0.561" fill="none" stroke="#000" stroke-linecap="round" stroke-linejoin="round" stroke-miterlimit="10" stroke-width="1.5"/>
            <line id="Línea_734" data-name="Línea 734" y2="0.561" transform="translate(7.861)" fill="none" stroke="#000" stroke-linecap="round" stroke-linejoin="round" stroke-miterlimit="10" stroke-width="1.5"/>
          </g>
          <g id="Grupo_1172329" data-name="Grupo 1172329" transform="translate(0)">
            <path id="Trazado_1026319" data-name="Trazado 1026319" d="M187.37,134.091a4.823,4.823,0,0,0-3.12.089" transform="translate(-184.25 -133.878)" fill="none" stroke="#000" stroke-linecap="round" stroke-linejoin="round" stroke-miterlimit="10" stroke-width="1.5"/>
            <path id="Trazado_1026320" data-name="Trazado 1026320" d="M254.724,134.091a4.823,4.823,0,0,1,3.12.089" transform="translate(-247.401 -133.878)" fill="none" stroke="#000" stroke-linecap="round" stroke-linejoin="round" stroke-miterlimit="10" stroke-width="1.5"/>
          </g>
        </g>
        <path id="Trazado_1026321" data-name="Trazado 1026321" d="M92.8,309.235a7.009,7.009,0,0,1,3.017-1.895l6.665-2.094a.445.445,0,0,1,.567.323c.305,1.319,1.424,4.956,4.474,4.956s4.169-3.637,4.474-4.956a.445.445,0,0,1,.567-.323l6.665,2.094a7.023,7.023,0,0,1,4.918,6.7v2.808" transform="translate(-83.934 -274.29)" fill="none" stroke="#000" stroke-linecap="round" stroke-linejoin="round" stroke-miterlimit="10" stroke-width="1.5"/>
        <path id="Trazado_1026322" data-name="Trazado 1026322" d="M91.716,412.389a1.656,1.656,0,0,1-.135-.657V407.52a1.662,1.662,0,0,1,1.663-1.663h0a1.662,1.662,0,0,1,1.662,1.663v4.211a1.659,1.659,0,0,1-.131.647" transform="translate(-82.844 -364.466)" fill="none" stroke="#000" stroke-linecap="round" stroke-linejoin="round" stroke-miterlimit="10" stroke-width="1.5"/>
        <path id="Trazado_1026323" data-name="Trazado 1026323" d="M315.353,438.5h-2.085a1.662,1.662,0,0,0-1.662,1.663h0a1.662,1.662,0,0,0,1.662,1.663h3.741" transform="translate(-280.007 -393.716)" fill="none" stroke="#000" stroke-linecap="round" stroke-linejoin="round" stroke-miterlimit="10" stroke-width="1.5"/>
        <path id="Trazado_1026324" data-name="Trazado 1026324" d="M350.278,423.655h6.84a1.36,1.36,0,0,0,1.36-1.36v-1.5a2.572,2.572,0,0,0-2.572-2.572h-4.415a2.572,2.572,0,0,0-2.572,2.572v1.5A1.359,1.359,0,0,0,350.278,423.655Z" transform="translate(-313.443 -375.546)" fill="none" stroke="#000" stroke-linecap="round" stroke-linejoin="round" stroke-miterlimit="10" stroke-width="1.5"/>
        <g id="Grupo_1172331" data-name="Grupo 1172331" transform="translate(38.667 46.377)">
          <line id="Línea_735" data-name="Línea 735" y2="1.593" transform="translate(3.013)" fill="none" stroke="#000" stroke-linecap="round" stroke-linejoin="round" stroke-miterlimit="10" stroke-width="1.5"/>
          <line id="Línea_736" data-name="Línea 736" y2="1.593" fill="none" stroke="#000" stroke-linecap="round" stroke-linejoin="round" stroke-miterlimit="10" stroke-width="1.5"/>
        </g>
        <path id="Trazado_1026325" data-name="Trazado 1026325" d="M361.5,74V94.5a2.228,2.228,0,0,1-2.237,2.22h-8.1a2.228,2.228,0,0,1-2.237-2.22V92.2a.458.458,0,0,0-.2-.381l-3.7-2.465a.227.227,0,0,1,0-.379l3.7-2.465a.458.458,0,0,0,.2-.381V74a2.228,2.228,0,0,1,2.237-2.22h8.1A2.228,2.228,0,0,1,361.5,74Z" transform="translate(-309.861 -65.104)" fill="none" stroke="#000" stroke-linecap="round" stroke-linejoin="round" stroke-miterlimit="10" stroke-width="1.5"/>
        <path id="Trazado_1026326" data-name="Trazado 1026326" d="M413.478,223.29v-5.2a.75.75,0,0,1,.75-.75h4.84a.75.75,0,0,1,.75.75v5.2a.75.75,0,0,1-.75.75h-4.84A.75.75,0,0,1,413.478,223.29Z" transform="translate(-371.294 -195.54)" fill="none" stroke="#000" stroke-linecap="round" stroke-linejoin="round" stroke-miterlimit="10" stroke-width="1.5"/>
        <g id="Grupo_1172332" data-name="Grupo 1172332" transform="translate(42.795 11.95)">
          <line id="Línea_737" data-name="Línea 737" x2="1.642" fill="none" stroke="#000" stroke-linecap="round" stroke-linejoin="round" stroke-miterlimit="10" stroke-width="1.5"/>
          <line id="Línea_738" data-name="Línea 738" x2="4.967" transform="translate(0 2.494)" fill="none" stroke="#000" stroke-linecap="round" stroke-linejoin="round" stroke-miterlimit="10" stroke-width="1.5"/>
          <line id="Línea_739" data-name="Línea 739" x2="4.967" transform="translate(0 4.988)" fill="none" stroke="#000" stroke-linecap="round" stroke-linejoin="round" stroke-miterlimit="10" stroke-width="1.5"/>
        </g>
        <path id="Trazado_1026327" data-name="Trazado 1026327" d="M61.581,310.915v-6.091a1.559,1.559,0,0,1,1.559-1.559h0a1.559,1.559,0,0,1,1.559,1.559v7.618" transform="translate(-55.962 -272.533)" fill="none" stroke="#000" stroke-linecap="round" stroke-linejoin="round" stroke-miterlimit="10" stroke-width="1.5"/>
        <path id="Trazado_1026328" data-name="Trazado 1026328" d="M44.736,379.86v6.84a1.36,1.36,0,0,1-1.36,1.359h-1.5a2.572,2.572,0,0,1-2.572-2.572v-4.415a2.572,2.572,0,0,1,2.572-2.572h1.5A1.359,1.359,0,0,1,44.736,379.86Z" transform="translate(-35.999 -339.952)" fill="none" stroke="#000" stroke-linecap="round" stroke-linejoin="round" stroke-miterlimit="10" stroke-width="1.5"/>
        <path id="Trazado_1026329" data-name="Trazado 1026329" d="M44.854,474.032H9.589A2.089,2.089,0,0,1,7.5,471.943v-.608a.836.836,0,0,1,.836-.836h45.5a.836.836,0,0,1,.836.836v.608a2.089,2.089,0,0,1-2.089,2.089H48.56" transform="translate(-7.5 -422.39)" fill="none" stroke="#000" stroke-linecap="round" stroke-linejoin="round" stroke-miterlimit="10" stroke-width="1.5"/>
        <path id="Trazado_1026330" data-name="Trazado 1026330" d="M139.049,9.522A9.566,9.566,0,0,1,145.382,7.5c14.4,0,9.482,20.81,9.306,22.534-.133,1.3-1.682,3.053-2.433,3.831a.2.2,0,0,1-.333-.158,40.629,40.629,0,0,0-2.274-17.431.334.334,0,0,0-.374-.211,25.224,25.224,0,0,1-3.963.4,16.885,16.885,0,0,1-3.812-.386.332.332,0,0,0-.384.208,40.612,40.612,0,0,0-2.27,17.42.2.2,0,0,1-.333.158c-.751-.778-2.3-2.528-2.434-3.831-.122-1.193-2.516-11.526.794-17.778" transform="translate(-121.865 -7.5)" fill="none" stroke="#000" stroke-linecap="round" stroke-linejoin="round" stroke-miterlimit="10" stroke-width="1.5"/>
        <g id="Grupo_1172333" data-name="Grupo 1172333" transform="translate(18.462 39.216)">
          <path id="Trazado_1026331" data-name="Trazado 1026331" d="M188.132,390.877h-2.374a.576.576,0,0,1-.576-.576V385.5a.576.576,0,0,1,.576-.575h2.374a.576.576,0,0,1,.576.575V390.3A.576.576,0,0,1,188.132,390.877Z" transform="translate(-185.182 -384.92)" fill="none" stroke="#000" stroke-linecap="round" stroke-linejoin="round" stroke-miterlimit="10" stroke-width="1.5"/>
          <path id="Trazado_1026332" data-name="Trazado 1026332" d="M242.5,390.3V385.5a.576.576,0,0,1,.576-.575h4.265a.576.576,0,0,1,.576.575V390.3a.576.576,0,0,1-.576.576h-4.265A.576.576,0,0,1,242.5,390.3Z" transform="translate(-236.545 -384.92)" fill="none" stroke="#000" stroke-linecap="round" stroke-linejoin="round" stroke-miterlimit="10" stroke-width="1.5"/>
        </g>
        <g id="Grupo_1172334" data-name="Grupo 1172334" transform="translate(2.673 24.77)">
          <line id="Línea_740" data-name="Línea 740" x2="0.854" fill="none" stroke="#000" stroke-linecap="round" stroke-linejoin="round" stroke-miterlimit="10" stroke-width="1.5"/>
          <line id="Línea_741" data-name="Línea 741" x2="0.854" transform="translate(3.369)" fill="none" stroke="#000" stroke-linecap="round" stroke-linejoin="round" stroke-miterlimit="10" stroke-width="1.5"/>
        </g>
      </g>
    </g>
  </g>
</svg>
