<svg xmlns="http://www.w3.org/2000/svg" xmlns:xlink="http://www.w3.org/1999/xlink" width="113" height="113" viewBox="0 0 113 113">
  <defs>
    <filter id="Trazado_982547" x="0" y="0" width="113" height="113" filterUnits="userSpaceOnUse">
      <feOffset dy="3" input="SourceAlpha"/>
      <feGaussianBlur stdDeviation="3" result="blur"/>
      <feFlood flood-opacity="0.161"/>
      <feComposite operator="in" in2="blur"/>
      <feComposite in="SourceGraphic"/>
    </filter>
    <clipPath id="clip-path">
      <path id="path19764" d="M0-682.665H60v60H0Z" transform="translate(0 682.665)"/>
    </clipPath>
  </defs>
  <g id="Grupo_1174863" data-name="Grupo 1174863" transform="translate(-1164 -5948.015)">
    <g id="Grupo_1174056" data-name="Grupo 1174056" transform="translate(1173 5954.015)">
      <g id="Grupo_1172010" data-name="Grupo 1172010">
        <g id="Grupo_1171046" data-name="Grupo 1171046">
          <g id="Grupo_1148525" data-name="Grupo 1148525">
            <g transform="matrix(1, 0, 0, 1, -9, -6)" filter="url(#Trazado_982547)">
              <g id="Trazado_982547-2" data-name="Trazado 982547" transform="translate(9 6)" fill="#f4fdfe">
                <path d="M 47.5 93.5 C 41.28937149047852 93.5 35.26533508300781 92.28397369384766 29.59518623352051 89.88570404052734 C 24.11771965026855 87.56893157958984 19.19813346862793 84.25196075439453 14.97309303283691 80.02691650390625 C 10.74804019927979 75.80186462402344 7.431066513061523 70.88229370117188 5.114293098449707 65.40481567382812 C 2.716026782989502 59.73468017578125 1.5 53.71062850952148 1.5 47.5 C 1.5 41.28937149047852 2.716026782989502 35.26533508300781 5.114293098449707 29.59518623352051 C 7.431066513061523 24.11771965026855 10.74804019927979 19.19813346862793 14.97309303283691 14.97309303283691 C 19.19813346862793 10.74804019927979 24.11771965026855 7.431066513061523 29.59518623352051 5.114293098449707 C 35.26533508300781 2.716026782989502 41.28937149047852 1.5 47.5 1.5 C 53.71062850952148 1.5 59.73468017578125 2.716026782989502 65.40481567382812 5.114293098449707 C 70.88229370117188 7.431066513061523 75.80186462402344 10.74804019927979 80.02691650390625 14.97309303283691 C 84.25196075439453 19.19813346862793 87.56893157958984 24.11771965026855 89.88570404052734 29.59518623352051 C 92.28397369384766 35.26533508300781 93.5 41.28937149047852 93.5 47.5 C 93.5 53.71062850952148 92.28397369384766 59.73468017578125 89.88570404052734 65.40481567382812 C 87.56893157958984 70.88229370117188 84.25196075439453 75.80186462402344 80.02691650390625 80.02691650390625 C 75.80186462402344 84.25196075439453 70.88229370117188 87.56893157958984 65.40481567382812 89.88570404052734 C 59.73468017578125 92.28397369384766 53.71062850952148 93.5 47.5 93.5 Z" stroke="none"/>
                <path d="M 47.5 3 C 41.49121475219727 3 35.66376876831055 4.176155090332031 30.17950439453125 6.495796203613281 C 24.88084411621094 8.736953735351562 20.12152099609375 11.94598388671875 16.03375244140625 16.03375244140625 C 11.94598388671875 20.12152099609375 8.736953735351562 24.88084411621094 6.495796203613281 30.17950439453125 C 4.176155090332031 35.66376876831055 3 41.49121475219727 3 47.5 C 3 53.50878524780273 4.176155090332031 59.33623123168945 6.495796203613281 64.82049560546875 C 8.736953735351562 70.11915588378906 11.94598388671875 74.87847900390625 16.03375244140625 78.96624755859375 C 20.12152099609375 83.05401611328125 24.88084411621094 86.26304626464844 30.17950439453125 88.50419616699219 C 35.66376876831055 90.82384490966797 41.49121475219727 92 47.5 92 C 53.50878524780273 92 59.33623123168945 90.82384490966797 64.82049560546875 88.50419616699219 C 70.11915588378906 86.26304626464844 74.87847900390625 83.05401611328125 78.96624755859375 78.96624755859375 C 83.05401611328125 74.87847900390625 86.26304626464844 70.11915588378906 88.50419616699219 64.82049560546875 C 90.82384490966797 59.33623123168945 92 53.50878524780273 92 47.5 C 92 41.49121475219727 90.82384490966797 35.66376876831055 88.50419616699219 30.17950439453125 C 86.26304626464844 24.88084411621094 83.05401611328125 20.12152099609375 78.96624755859375 16.03375244140625 C 74.87847900390625 11.94598388671875 70.11915588378906 8.736953735351562 64.82049560546875 6.495796203613281 C 59.33623123168945 4.176155090332031 53.50878524780273 3 47.5 3 M 47.5 0 C 73.7335205078125 0 95 21.2664794921875 95 47.5 C 95 73.7335205078125 73.7335205078125 95 47.5 95 C 21.2664794921875 95 0 73.7335205078125 0 47.5 C 0 21.2664794921875 21.2664794921875 0 47.5 0 Z" stroke="none" fill="#56838a"/>
              </g>
            </g>
          </g>
        </g>
      </g>
    </g>
    <g id="g19758" transform="translate(1191.501 6653.182)">
      <g id="g19760" transform="translate(0 -682.665)">
        <g id="g19762" clip-path="url(#clip-path)">
          <g id="g19768" transform="translate(4.12 22.948)">
            <path id="path19770" d="M-73.587-16.648H-76.11a2.375,2.375,0,0,0-.008-1.6h-4.56v7.959h4.56A2.377,2.377,0,0,0-76-11.451a.392.392,0,0,1,.388-.447h2.024A2.379,2.379,0,0,0-71.2-14.273a2.379,2.379,0,0,0-2.384-2.375" transform="translate(80.677 18.252)" fill="#fce3a0"/>
          </g>
          <g id="g19772" transform="translate(0.879 21.386)">
            <path id="path19774" d="M-43.73-74.946a2.364,2.364,0,0,1-.7-1.68,2.364,2.364,0,0,1,.7-1.68l1.4-1.4a3.1,3.1,0,0,1,2.184-.9,2.389,2.389,0,0,0-.552-.867,2.377,2.377,0,0,0-1.68-.7,2.388,2.388,0,0,0-1.692.7l-3.179,3.167a2.364,2.364,0,0,0-.7,1.68,2.364,2.364,0,0,0,.7,1.68l3.179,3.167a2.388,2.388,0,0,0,1.692.7,2.377,2.377,0,0,0,1.68-.7,2.389,2.389,0,0,0,.552-.867,3.1,3.1,0,0,1-2.184-.9Z" transform="translate(47.944 82.168)" fill="#ffce71"/>
          </g>
          <g id="g19776" transform="translate(4.12 38.533)">
            <path id="path19778" d="M-73.587-16.648H-76.11a2.375,2.375,0,0,0-.008-1.6h-4.56v7.959h4.56A2.377,2.377,0,0,0-76-11.451a.392.392,0,0,1,.388-.447h2.024A2.379,2.379,0,0,0-71.2-14.273a2.379,2.379,0,0,0-2.384-2.375" transform="translate(80.677 18.252)" fill="#ffb39d"/>
          </g>
          <g id="g19780" transform="translate(0.879 36.971)">
            <path id="path19782" d="M-43.73-74.946a2.364,2.364,0,0,1-.7-1.68,2.364,2.364,0,0,1,.7-1.68l1.4-1.4a3.1,3.1,0,0,1,2.184-.9,2.389,2.389,0,0,0-.552-.867,2.377,2.377,0,0,0-1.68-.7,2.388,2.388,0,0,0-1.692.7l-3.179,3.167a2.364,2.364,0,0,0-.7,1.68,2.364,2.364,0,0,0,.7,1.68l3.179,3.167a2.388,2.388,0,0,0,1.692.7,2.377,2.377,0,0,0,1.68-.7,2.389,2.389,0,0,0,.552-.867,3.1,3.1,0,0,1-2.184-.9Z" transform="translate(47.944 82.168)" fill="#ff8f71"/>
          </g>
          <g id="g19784" transform="translate(4.12 43.284)">
            <path id="path19786" d="M-73.587-16.648H-76.11a2.375,2.375,0,0,0-.008-1.6h-4.56v7.959h4.56A2.377,2.377,0,0,0-76-11.451a.392.392,0,0,1,.388-.447h2.024A2.379,2.379,0,0,0-71.2-14.273a2.379,2.379,0,0,0-2.384-2.375" transform="translate(80.677 18.252)" fill="#fce3a0"/>
          </g>
          <g id="g19788" transform="translate(0.879 41.721)">
            <path id="path19790" d="M-43.73-74.946a2.364,2.364,0,0,1-.7-1.68,2.364,2.364,0,0,1,.7-1.68l1.4-1.4a3.1,3.1,0,0,1,2.184-.9,2.389,2.389,0,0,0-.552-.867,2.377,2.377,0,0,0-1.68-.7,2.388,2.388,0,0,0-1.692.7l-3.179,3.167a2.364,2.364,0,0,0-.7,1.68,2.364,2.364,0,0,0,.7,1.68l3.179,3.167a2.388,2.388,0,0,0,1.692.7,2.377,2.377,0,0,0,1.68-.7,2.389,2.389,0,0,0,.552-.867,3.1,3.1,0,0,1-2.184-.9Z" transform="translate(47.944 82.168)" fill="#ffce71"/>
          </g>
          <g id="g19792" transform="translate(4.12 2.442)">
            <path id="path19794" d="M-73.587-16.649H-76.11a2.375,2.375,0,0,0-.008-1.6h-4.56v7.959h4.56a2.376,2.376,0,0,0,.008-1.6h2.523A2.379,2.379,0,0,0-71.2-14.274a2.379,2.379,0,0,0-2.384-2.375" transform="translate(80.677 18.253)" fill="#fce3a0"/>
          </g>
          <g id="g19796" transform="translate(0.879 0.879)">
            <path id="path19798" d="M-43.73-74.946a2.364,2.364,0,0,1-.7-1.68,2.364,2.364,0,0,1,.7-1.68l1.4-1.4a3.1,3.1,0,0,1,2.184-.9,2.389,2.389,0,0,0-.552-.867,2.377,2.377,0,0,0-1.68-.7,2.388,2.388,0,0,0-1.692.7l-3.179,3.167a2.364,2.364,0,0,0-.7,1.68,2.364,2.364,0,0,0,.7,1.68l3.179,3.167a2.389,2.389,0,0,0,1.692.7,2.377,2.377,0,0,0,1.68-.7,2.39,2.39,0,0,0,.552-.867,3.1,3.1,0,0,1-2.184-.9Z" transform="translate(47.944 82.168)" fill="#ffce71"/>
          </g>
          <g id="g19800" transform="translate(15.811 47.61)">
            <path id="path19802" d="M-61.249,0a14.258,14.258,0,0,0-4.726,5.858,14.1,14.1,0,0,0-1.176,5.65h4.729l2.488-2.488V1.316Z" transform="translate(67.15)" fill="#ffcbbe"/>
          </g>
          <g id="g19804" transform="translate(36.619 47.608)">
            <path id="path19806" d="M-78.53-119.454a14.1,14.1,0,0,0-1.176-5.65,14.293,14.293,0,0,0-4.728-5.86L-86.1-129.3v7.011l2.835,2.835Z" transform="translate(86.097 130.964)" fill="#ffcbbe"/>
          </g>
          <g id="g19808" transform="translate(24.132 44.93)">
            <path id="path19810" d="M-146.862-27.788a14.237,14.237,0,0,0-3.523-1.866,14.094,14.094,0,0,0-4.762-.812,14.106,14.106,0,0,0-4.769.812l-1.1,1.067v12.309h15.323v0a57.189,57.189,0,0,0-1.172-11.509" transform="translate(161.013 30.465)" fill="#ff8e9e"/>
          </g>
          <g id="g19812" transform="translate(20.54 45.742)">
            <path id="path19814" d="M-48.668,0a14.251,14.251,0,0,0-3.517,1.868,57.17,57.17,0,0,0-1.172,11.509h3.591a15.124,15.124,0,0,1,3-9.044V0Z" transform="translate(53.357)" fill="#ea5b70"/>
          </g>
          <g id="g19816" transform="translate(25.23 43.191)">
            <path id="path19818" d="M0-26.479c1.68,7.812,7.851,7.811,9.531,0L4.769-29.031Z" transform="translate(0 29.031)" fill="#ffddcf"/>
          </g>
          <g id="g19820" transform="translate(8.764 25.199)">
            <path id="path19822" d="M-49.264-.334a4.229,4.229,0,0,0-4.747,4.2,4.228,4.228,0,0,0,4.228,4.228,4.228,4.228,0,0,0,4.228-4.228,4.229,4.229,0,0,0-3.709-4.2" transform="translate(54.011 0.366)" fill="#ffcbbe"/>
          </g>
          <g id="g19824" transform="translate(42.777 25.2)">
            <path id="path19826" d="M-43.881,0a4.228,4.228,0,0,0-4.228,4.228,4.228,4.228,0,0,0,4.228,4.228,4.228,4.228,0,0,0,4.228-4.228A4.228,4.228,0,0,0-43.881,0" transform="translate(48.109)" fill="#ffcbbe"/>
          </g>
          <g id="g19828" transform="translate(12.992 12.655)">
            <path id="path19830" d="M-205.54,0h-5.4l-14.409,16.758,14.409,16.758h5.4a17,17,0,0,0,1.964-.428,17.005,17.005,0,0,0,12.214-16.329A17,17,0,0,0-205.54,0" transform="translate(225.345)" fill="#ffddcf"/>
          </g>
          <g id="g19832" transform="translate(12.983 22.409)">
            <path id="path19834" d="M-63.939-29.287l-2.839-2.822-2.794,2.822A17.02,17.02,0,0,0-57.853-8.776a17.033,17.033,0,0,0,4.754.662,17.062,17.062,0,0,0,2.814-.234A17,17,0,0,1-63.939-29.287" transform="translate(70.1 32.109)" fill="#ffcbbe"/>
          </g>
          <g id="g19836" transform="translate(19.566 9.327)">
            <path id="path19838" d="M-155.836,0l-15.016,6.671v6.412H-144.2v-.138A16.557,16.557,0,0,0-155.836,0" transform="translate(170.852)" fill="#676fb2"/>
          </g>
          <g id="g19840" transform="translate(13.523 8.665)">
            <path id="path19842" d="M-136.639-65.368l7.893-5.637a16.537,16.537,0,0,0-4.641-.661h-3.043a7.332,7.332,0,0,0-7.332,7.332A6.052,6.052,0,0,0-149.8-58.6l1.746,1.746h3.5l1.758-1.758a20.212,20.212,0,0,1,6.161-6.752" transform="translate(149.805 71.666)" fill="#4c5699"/>
          </g>
          <g id="g19844" transform="translate(16.548 32.108)">
            <path id="path19846" d="M-75.249-29.963c0,1.594-1.623,2.887-3.625,2.887S-82.5-28.369-82.5-29.963s1.623-2.887,3.625-2.887,3.625,1.293,3.625,2.887" transform="translate(82.5 32.851)" fill="#ff8e9e"/>
          </g>
          <g id="g19848" transform="translate(36.198 32.108)">
            <path id="path19850" d="M0-29.963c0,1.594,1.623,2.887,3.625,2.887s3.625-1.293,3.625-2.887-1.623-2.887-3.625-2.887S0-31.558,0-29.963" transform="translate(0 32.851)" fill="#ff8e9e"/>
          </g>
          <g id="g19852" transform="translate(19.144 21.716)">
            <path id="path19854" d="M-14.366,0H9.97a2.14,2.14,0,0,1,2.14,2.14V3.515H-15.751V.842Z" transform="translate(15.751)" fill="#efedff"/>
          </g>
          <g id="g19856" transform="translate(13.511 21.716)">
            <path id="path19858" d="M0,0V3.515H5.633A16.412,16.412,0,0,1,7.017,0Z" fill="#d4d4ff"/>
          </g>
          <g id="g19860" transform="translate(41.323 18.902)">
            <path id="path19862" d="M-70.073-80.5a4,4,0,0,0,.275-1.458c0-2.032-1.8-4.411-3.3-5.975a1.058,1.058,0,0,0-1.527.007c-.1.1-.2.207-.295.317l-1.9,2.862v5.113h5.844Z" transform="translate(76.825 88.251)" fill="#b9f0ff"/>
          </g>
          <g id="g19864" transform="translate(40.231 19.548)">
            <path id="path19866" d="M-25.425-23.318a4.865,4.865,0,0,1,.547-2.247c-1.408,1.545-3,3.8-3,5.652a4.013,4.013,0,0,0,4.059,4.034,4.06,4.06,0,0,0,3.785-2.576,4.992,4.992,0,0,1-.5.026,4.889,4.889,0,0,1-4.889-4.889" transform="translate(27.875 25.565)" fill="#7ce3ff"/>
          </g>
          <g id="g19868" transform="translate(21.651 40.965)">
            <path id="path19870" d="M-61.092-53.321a2.391,2.391,0,0,0-2.481-.557v-2.513a2.371,2.371,0,0,0-1.212-2.067h-2.193v12.05h2.193a2.376,2.376,0,0,0,.515-.387l3.179-3.167a2.37,2.37,0,0,0,.7-1.686,2.359,2.359,0,0,0-.7-1.673" transform="translate(66.979 58.459)" fill="#c9aaf2"/>
          </g>
          <g id="g19872" transform="translate(17.11 40.657)">
            <path id="path19874" d="M-57.316-106.813v-7.917A2.371,2.371,0,0,1-56.1-116.8a2.378,2.378,0,0,0-1.172-.308,2.379,2.379,0,0,0-2.384,2.375v2.513a2.389,2.389,0,0,0-2.481.557,2.359,2.359,0,0,0-.7,1.673,2.37,2.37,0,0,0,.7,1.686l3.179,3.167a2.383,2.383,0,0,0,1.686.7,2.389,2.389,0,0,0,1.171-.309,2.371,2.371,0,0,1-1.212-2.067" transform="translate(62.839 117.105)" fill="#b28ae4"/>
          </g>
          <g id="g19876" transform="translate(36.302 2.359)">
            <path id="path19878" d="M-61.092-71.744a2.391,2.391,0,0,1-2.481.557v2.513a2.371,2.371,0,0,1-1.212,2.067h-2.193V-78.657h2.193a2.383,2.383,0,0,1,.515.387l3.179,3.167a2.37,2.37,0,0,1,.7,1.686,2.359,2.359,0,0,1-.7,1.673" transform="translate(66.979 78.657)" fill="#ff8e9e"/>
          </g>
          <g id="g19880" transform="translate(31.761 2.051)">
            <path id="path19882" d="M-57.316-24.65v7.917A2.371,2.371,0,0,0-56.1-14.666a2.378,2.378,0,0,1-1.172.308,2.379,2.379,0,0,1-2.384-2.375v-2.513A2.389,2.389,0,0,1-62.14-19.8a2.358,2.358,0,0,1-.7-1.673,2.37,2.37,0,0,1,.7-1.686l3.179-3.167a2.383,2.383,0,0,1,1.686-.7,2.39,2.39,0,0,1,1.171.308,2.371,2.371,0,0,0-1.212,2.067" transform="translate(62.839 27.025)" fill="#ea5b70"/>
          </g>
          <g id="g19884" transform="translate(36.302 7.398)">
            <path id="path19886" d="M-61.092-71.744a2.391,2.391,0,0,1-2.481.557v1.341a2.371,2.371,0,0,1-1.212,2.067h-2.193V-78.657h2.193a2.386,2.386,0,0,1,.515.387l3.179,3.167a2.37,2.37,0,0,1,.7,1.686,2.359,2.359,0,0,1-.7,1.673" transform="translate(66.979 78.657)" fill="#c9aaf2"/>
          </g>
          <g id="g19888" transform="translate(31.761 7.089)">
            <path id="path19890" d="M-57.316-24.649V-17.9A2.371,2.371,0,0,0-56.1-15.837a2.378,2.378,0,0,1-1.172.308A2.379,2.379,0,0,1-59.659-17.9v-1.341A2.39,2.39,0,0,1-62.14-19.8a2.359,2.359,0,0,1-.7-1.673,2.37,2.37,0,0,1,.7-1.686l3.179-3.167a2.383,2.383,0,0,1,1.686-.7,2.39,2.39,0,0,1,1.171.308,2.371,2.371,0,0,0-1.212,2.067" transform="translate(62.839 27.024)" fill="#b28ae4"/>
          </g>
          <g id="g19892" transform="translate(52.515 5.882)">
            <path id="path19894" d="M-61.283-32.864l-3.179-3.167h-2.726v9.692h2.726l3.179-3.167a2.364,2.364,0,0,0,.7-1.679,2.364,2.364,0,0,0-.7-1.68" transform="translate(67.188 36.031)" fill="#b0ebd8"/>
          </g>
          <g id="g19896" transform="translate(46.403 5.186)">
            <path id="path19898" d="M-91.729-7.219a2.388,2.388,0,0,0-1.692-.7,2.377,2.377,0,0,0-1.68.7,2.367,2.367,0,0,0-.56,2.471h-2.523a2.379,2.379,0,0,0-2.384,2.375A2.379,2.379,0,0,0-98.184,0h2.523a2.367,2.367,0,0,0,.56,2.471,2.377,2.377,0,0,0,1.68.7,2.388,2.388,0,0,0,1.692-.7,6.854,6.854,0,0,1,0-9.693" transform="translate(100.568 7.915)" fill="#70dcba"/>
          </g>
          <g id="g19900" transform="translate(52.515 37.521)">
            <path id="path19902" d="M-61.283-32.864l-3.179-3.167h-2.726v9.692h2.726l3.179-3.167a2.364,2.364,0,0,0,.7-1.68,2.364,2.364,0,0,0-.7-1.68" transform="translate(67.188 36.031)" fill="#b0ebd8"/>
          </g>
          <g id="g19904" transform="translate(46.403 36.825)">
            <path id="path19906" d="M-91.729-7.22a2.388,2.388,0,0,0-1.692-.7,2.377,2.377,0,0,0-1.68.7,2.367,2.367,0,0,0-.56,2.471h-2.523a2.379,2.379,0,0,0-2.384,2.375A2.379,2.379,0,0,0-98.184,0h2.523a2.367,2.367,0,0,0,.56,2.471,2.377,2.377,0,0,0,1.68.7,2.388,2.388,0,0,0,1.692-.7,6.854,6.854,0,0,1,0-9.693" transform="translate(100.568 7.916)" fill="#70dcba"/>
          </g>
          <g id="g19908" transform="translate(28.074 30.623)">
            <path id="path19910" d="M-19.973,0A2.049,2.049,0,0,0-21.9,2.153a2.049,2.049,0,0,0,1.924,2.153,2.049,2.049,0,0,0,1.924-2.153A2.049,2.049,0,0,0-19.973,0" transform="translate(21.897 0)" fill="#4c5699"/>
          </g>
          <g id="g19912" transform="translate(0 36.09)">
            <path id="path19914" d="M-100.674-82.186a3.265,3.265,0,0,0-5.565-2.215l-1.86,1.853a1.5,1.5,0,0,1-.078-2.191L-105-87.906a1.505,1.505,0,0,1,2.568,1.03,1.744,1.744,0,0,0,1.741,1.7h1.525a1.5,1.5,0,0,1,1.505,1.5,1.5,1.5,0,0,1-1.505,1.5Zm3.015,3.254a1.5,1.5,0,0,1-1.505,1.5h-2.024a1.271,1.271,0,0,0-1.258,1.453A1.5,1.5,0,0,1-105-74.708l-3.179-3.166a1.49,1.49,0,0,1,0-2.114L-105-83.155a1.5,1.5,0,0,1,2.483,1.555.879.879,0,0,0,.828,1.172h2.523a1.5,1.5,0,0,1,1.505,1.5m1.758-4.75a3.262,3.262,0,0,0-3.263-3.254h-1.51a3.264,3.264,0,0,0-5.565-2.215l-3.179,3.167a3.229,3.229,0,0,0-.957,2.3,3.24,3.24,0,0,0,1.03,2.375,3.24,3.24,0,0,0-1.03,2.375,3.229,3.229,0,0,0,.957,2.3l3.179,3.167a3.264,3.264,0,0,0,5.565-2.215h1.51A3.262,3.262,0,0,0-95.9-78.932a3.241,3.241,0,0,0-1.036-2.375A3.241,3.241,0,0,0-95.9-83.682" transform="translate(110.374 90.105)"/>
          </g>
          <g id="g19916" transform="translate(0 0)">
            <path id="path19918" d="M-22.8-55.667l3.179-3.167a1.5,1.5,0,0,1,2.483,1.555.879.879,0,0,0,.829,1.172h2.523a1.5,1.5,0,0,1,1.505,1.5,1.5,1.5,0,0,1-1.505,1.5h-2.523a.879.879,0,0,0-.829,1.172,1.5,1.5,0,0,1-2.483,1.555L-22.8-53.553a1.49,1.49,0,0,1,0-2.114m1.938,6.526h0a3.255,3.255,0,0,0,2.312.952A3.253,3.253,0,0,0-15.3-51.356h1.51a3.262,3.262,0,0,0,3.263-3.254,3.262,3.262,0,0,0-3.263-3.254H-15.3a3.253,3.253,0,0,0-3.252-3.167,3.254,3.254,0,0,0-2.312.952l-3.179,3.167A3.229,3.229,0,0,0-25-54.61a3.229,3.229,0,0,0,.957,2.3Z" transform="translate(25.001 61.031)"/>
          </g>
          <g id="g19920" transform="translate(45.524 4.303)">
            <path id="path19922" d="M-33.865-51.152h2.523a.879.879,0,0,0,.828-1.172,1.5,1.5,0,0,1,2.483-1.555l3.179,3.166a1.49,1.49,0,0,1,0,2.114l-3.179,3.167a1.5,1.5,0,0,1-2.483-1.555.879.879,0,0,0-.828-1.172h-2.523a1.5,1.5,0,0,1-1.505-1.5,1.5,1.5,0,0,1,1.505-1.5m0,4.75h1.511a3.263,3.263,0,0,0,5.564,2.215l3.179-3.167a3.229,3.229,0,0,0,.957-2.3,3.229,3.229,0,0,0-.957-2.3l-3.179-3.167a3.264,3.264,0,0,0-5.564,2.215h-1.511a3.262,3.262,0,0,0-3.263,3.254A3.262,3.262,0,0,0-33.865-46.4" transform="translate(37.128 56.081)"/>
          </g>
          <g id="g19924" transform="translate(45.524 35.942)">
            <path id="path19926" d="M-127.4-77.649l-3.179,3.167a1.5,1.5,0,0,1-2.483-1.555.879.879,0,0,0-.828-1.172h-2.523a1.5,1.5,0,0,1-1.505-1.5,1.5,1.5,0,0,1,1.505-1.5h2.523a.879.879,0,0,0,.828-1.172,1.5,1.5,0,0,1,2.483-1.555l3.179,3.166a1.49,1.49,0,0,1,0,2.114m-1.938-6.526h0a3.264,3.264,0,0,0-5.564,2.215h-1.511a3.262,3.262,0,0,0-3.263,3.254,3.262,3.262,0,0,0,3.263,3.254h1.511a3.263,3.263,0,0,0,5.564,2.215l3.179-3.167a3.229,3.229,0,0,0,.957-2.3,3.229,3.229,0,0,0-.957-2.3Z" transform="translate(139.681 85.131)"/>
          </g>
          <g id="g19928" transform="translate(27.195 29.744)">
            <path id="path19930" d="M-29.094-18.242a1.179,1.179,0,0,1,1.046,1.275,1.179,1.179,0,0,1-1.046,1.274,1.179,1.179,0,0,1-1.046-1.274,1.179,1.179,0,0,1,1.046-1.275m0,4.307a2.928,2.928,0,0,0,2.8-3.032A2.928,2.928,0,0,0-29.094-20a2.928,2.928,0,0,0-2.8,3.032,2.928,2.928,0,0,0,2.8,3.032" transform="translate(31.897 20)"/>
          </g>
          <g id="g19932" transform="translate(19.9 29.226)">
            <path id="path19934" d="M-9.121-32.836a.879.879,0,0,0,.879-.879v-1.406A.879.879,0,0,0-9.121-36a.879.879,0,0,0-.879.879v1.406a.879.879,0,0,0,.879.879" transform="translate(10 36)"/>
          </g>
          <g id="g19936" transform="translate(38.339 29.226)">
            <path id="path19938" d="M-9.121-32.836a.879.879,0,0,0,.879-.879v-1.406A.879.879,0,0,0-9.121-36a.879.879,0,0,0-.879.879v1.406a.879.879,0,0,0,.879.879" transform="translate(10 36)"/>
          </g>
          <g id="g19940" transform="translate(0 1.174)">
            <path id="path19942" d="M-493.45-327.538a18.03,18.03,0,0,0,.289-4.114,4.9,4.9,0,0,0,1.149-1.895,3.345,3.345,0,0,1,1.37,2.7,3.352,3.352,0,0,1-2.808,3.306m-3.256-4.378a3.138,3.138,0,0,1-3.18-3.134v-.029c0-1.6,1.577-3.813,3.049-5.355a.179.179,0,0,1,.257-.006c1.942,2.03,3.055,3.987,3.055,5.368a3.168,3.168,0,0,1-3.181,3.156m-16.2,17.061a3.282,3.282,0,0,0-2.155-.883v-1.5a3.264,3.264,0,0,0-3.263-3.254,3.268,3.268,0,0,0-3.017,2.015,16.206,16.206,0,0,1-5.447-15.683h25.227a4.876,4.876,0,0,0,4.854,4,4.949,4.949,0,0,0,1.8-.338,16.089,16.089,0,0,1-18,15.641m.98,1.842a17.958,17.958,0,0,0,4.459-.326c-.686,2.073-1.781,3.436-3.049,3.733a2.448,2.448,0,0,1-2.218-.69,3.232,3.232,0,0,0,.808-2.717m8.417.866a56.03,56.03,0,0,1,1.081,10.115H-519.57c.021-1.422.1-2.811.223-4.2a3.28,3.28,0,0,0,3.33-.788l2.041-2.033a4.2,4.2,0,0,0,3.862,1.158c2.025-.475,3.629-2.437,4.487-5.443a13.465,13.465,0,0,1,2.12,1.191m-17.82,10.115h-2.95a13.121,13.121,0,0,1,2.18-6.451l1.1,1.1c-.2,1.776-.306,3.539-.332,5.353M-521-313.9a.879.879,0,0,0,1.17-.829v-2.513a1.5,1.5,0,0,1,1.505-1.5,1.5,1.5,0,0,1,1.505,1.5v2.513a.879.879,0,0,0,1.17.829,1.5,1.5,0,0,1,1.569,2.465l-3.179,3.167a1.513,1.513,0,0,1-2.132,0h0l-3.178-3.166A1.5,1.5,0,0,1-521-313.9m-5.608-23.78h25.641a7.2,7.2,0,0,0-.6,1.758h-25.046Zm-4.7,7.384a3.351,3.351,0,0,1,2.725-3.851,17.756,17.756,0,0,0,.015,6.6,3.336,3.336,0,0,1-2.74-2.751m-1.713.4c-.168.225-.144.448-.469.771a1.511,1.511,0,0,1-2.132,0l-3.179-3.166a1.49,1.49,0,0,1,0-2.114l3.179-3.167a1.5,1.5,0,0,1,2.483,1.555.879.879,0,0,0,.829,1.172h1.128a5.072,5.072,0,0,0-1.839,4.948M-501-346.233a.879.879,0,0,0-1.17.829v1.341a1.5,1.5,0,0,1-1.505,1.5,1.5,1.5,0,0,1-1.505-1.5V-345.4a.879.879,0,0,0-1.17-.829,1.5,1.5,0,0,1-1.569-2.465l3.179-3.166a1.514,1.514,0,0,1,2.132,0l3.179,3.167A1.5,1.5,0,0,1-501-346.233m-6.92-7.5,3.179-3.167a1.514,1.514,0,0,1,2.132,0l3.179,3.167a1.492,1.492,0,0,1-.246,2.312l-1.692-1.685a3.275,3.275,0,0,0-4.612,0h0l-1.69,1.684a1.492,1.492,0,0,1-.248-2.31m16.131,18.286c-.172-2.015-1.661-4.1-2.878-5.5a17.285,17.285,0,0,0-2.947-5.186,3.18,3.18,0,0,0-.576-3.81l-.227-.226a3.252,3.252,0,0,0,.227-4.813l-3.179-3.167a3.275,3.275,0,0,0-4.612,0l-3.179,3.167a3.207,3.207,0,0,0-.948,2.525c-.319-.018-.636-.029-.95-.029H-514.1a8.222,8.222,0,0,0-8.169,7.383,6.914,6.914,0,0,0-2.651.89.879.879,0,0,0-.316,1.2.879.879,0,0,0,1.2.316,5.161,5.161,0,0,1,2.25-.689l1.031,1.031a.879.879,0,0,0,1.243,0,.879.879,0,0,0,0-1.243l-1.033-1.033a6.461,6.461,0,0,1,6.443-6.1h3.043a15.7,15.7,0,0,1,1.662.091,3.177,3.177,0,0,0,.463.468l-.227.226a3.261,3.261,0,0,0,2.222,5.561v.319a3.262,3.262,0,0,0,3.263,3.254,3.264,3.264,0,0,0,3.263-3.254v-.319a3.151,3.151,0,0,0,1.586-.458,15.54,15.54,0,0,1,1.7,2.635,1.923,1.923,0,0,0-.99.557,19.214,19.214,0,0,0-1.819,2.213h-26.531a5.115,5.115,0,0,1,.4-1.1.879.879,0,0,0-.393-1.179.878.878,0,0,0-1.179.393c-.885,1.77-.732,3.14-.732,5.047a3.251,3.251,0,0,0-1.422-.327h-1.51a3.265,3.265,0,0,0-5.565-2.215l-3.179,3.167a3.229,3.229,0,0,0-.957,2.3,3.229,3.229,0,0,0,.957,2.3l3.179,3.167a3.266,3.266,0,0,0,4.66-.051,5.093,5.093,0,0,0,4.075,2.186,17.95,17.95,0,0,0,6.539,9.3v.7a3.252,3.252,0,0,0-2.222,5.551l.445.443a14.888,14.888,0,0,0-2.7,8.591.879.879,0,0,0,.879.879h28.375a.879.879,0,0,0,.879-.879,14.987,14.987,0,0,0-.8-4.844.88.88,0,0,0-1.115-.548.879.879,0,0,0-.548,1.115,13.208,13.208,0,0,1,.678,3.4h-2.952a56.144,56.144,0,0,0-.737-8.336,13.4,13.4,0,0,1,1.573,1.98.879.879,0,0,0,1.216.258.879.879,0,0,0,.258-1.216,15.2,15.2,0,0,0-5.548-5.1,17.847,17.847,0,0,0,10.025-11.293,5.1,5.1,0,0,0,5-5.1,5.1,5.1,0,0,0-2.9-4.606" transform="translate(540.996 359.098)"/>
          </g>
        </g>
      </g>
    </g>
  </g>
</svg>
