<svg xmlns="http://www.w3.org/2000/svg" xmlns:xlink="http://www.w3.org/1999/xlink" width="103" height="103" viewBox="0 0 103 103">
  <defs>
    <filter id="Trazado_978624" x="0" y="0" width="103" height="103" filterUnits="userSpaceOnUse">
      <feOffset dy="3" input="SourceAlpha"/>
      <feGaussianBlur stdDeviation="3" result="blur"/>
      <feFlood flood-opacity="0.161"/>
      <feComposite operator="in" in2="blur"/>
      <feComposite in="SourceGraphic"/>
    </filter>
  </defs>
  <g id="Grupo_1174864" data-name="Grupo 1174864" transform="translate(-171 -6370)">
    <g id="Grupo_1174058" data-name="Grupo 1174058" transform="translate(-3 1564)">
      <g id="Grupo_1171925" data-name="Grupo 1171925" transform="translate(-22 -2246)">
        <g id="Grupo_1164524" data-name="Grupo 1164524" transform="translate(205 7058)">
          <g id="Grupo_1144123" data-name="Grupo 1144123">
            <g transform="matrix(1, 0, 0, 1, -9, -6)" filter="url(#Trazado_978624)">
              <g id="Trazado_978624-2" data-name="Trazado 978624" transform="translate(9 6)" fill="#edf3fc">
                <path d="M 42.5 83.5 C 36.96437835693359 83.5 31.59512901306152 82.41617584228516 26.54141235351562 80.27863311767578 C 21.65934181213379 78.21369171142578 17.27447128295898 75.25723266601562 13.50862312316895 71.49137878417969 C 9.742764472961426 67.72553253173828 6.786305904388428 63.34066009521484 4.721364498138428 58.45858764648438 C 2.583823442459106 53.40486907958984 1.5 48.03562164306641 1.5 42.5 C 1.5 36.96437835693359 2.583823442459106 31.59512901306152 4.721364498138428 26.54141235351562 C 6.786305904388428 21.65934181213379 9.742764472961426 17.27447128295898 13.50862312316895 13.50862312316895 C 17.27447128295898 9.742764472961426 21.65934181213379 6.786305904388428 26.54141235351562 4.721364498138428 C 31.59512901306152 2.583823442459106 36.96437835693359 1.5 42.5 1.5 C 48.03562164306641 1.5 53.40486907958984 2.583823442459106 58.45858764648438 4.721364498138428 C 63.34066009521484 6.786305904388428 67.72553253173828 9.742764472961426 71.49137878417969 13.50862312316895 C 75.25723266601562 17.27447128295898 78.21369171142578 21.65934181213379 80.27863311767578 26.54141235351562 C 82.41617584228516 31.59512901306152 83.5 36.96437835693359 83.5 42.5 C 83.5 48.03562164306641 82.41617584228516 53.40486907958984 80.27863311767578 58.45858764648438 C 78.21369171142578 63.34066009521484 75.25723266601562 67.72553253173828 71.49137878417969 71.49137878417969 C 67.72553253173828 75.25723266601562 63.34066009521484 78.21369171142578 58.45858764648438 80.27863311767578 C 53.40486907958984 82.41617584228516 48.03562164306641 83.5 42.5 83.5 Z" stroke="none"/>
                <path d="M 42.5 3 C 37.16621398925781 3 31.99356079101562 4.043960571289062 27.125732421875 6.102882385253906 C 22.42246627807617 8.092185974121094 18.19785308837891 10.94070434570312 14.56928253173828 14.56928253173828 C 10.94070434570312 18.19785308837891 8.092185974121094 22.42246627807617 6.102882385253906 27.125732421875 C 4.043960571289062 31.99356079101562 3 37.16621398925781 3 42.5 C 3 47.83378601074219 4.043960571289062 53.00643920898438 6.102882385253906 57.87425231933594 C 8.092185974121094 62.57753372192383 10.94070434570312 66.80213165283203 14.56928253173828 70.43071746826172 C 18.19786834716797 74.05929565429688 22.42246627807617 76.90781402587891 27.125732421875 78.89711761474609 C 31.99356079101562 80.95603942871094 37.16621398925781 82 42.5 82 C 47.83378601074219 82 53.00642395019531 80.95603942871094 57.87425231933594 78.89711761474609 C 62.57753372192383 76.90781402587891 66.80213165283203 74.05929565429688 70.43071746826172 70.43071746826172 C 74.05929565429688 66.80213165283203 76.90781402587891 62.57753372192383 78.89711761474609 57.87425231933594 C 80.95603942871094 53.00642395019531 82 47.83378601074219 82 42.5 C 82 37.16621398925781 80.95603942871094 31.99356079101562 78.89711761474609 27.125732421875 C 76.90781402587891 22.42246627807617 74.05929565429688 18.19786834716797 70.43071746826172 14.56928253173828 C 66.80213165283203 10.94070434570312 62.57753372192383 8.092185974121094 57.87425231933594 6.102882385253906 C 53.00643920898438 4.043960571289062 47.83378601074219 3 42.5 3 M 42.5 0 C 65.97209167480469 0 85 19.02789306640625 85 42.5 C 85 65.97209167480469 65.97209167480469 85 42.5 85 C 19.02789306640625 85 0 65.97209167480469 0 42.5 C 0 19.02789306640625 19.02789306640625 0 42.5 0 Z" stroke="none" fill="#5692e8"/>
              </g>
            </g>
          </g>
        </g>
      </g>
    </g>
    <g id="inspire-idea_14781822" transform="translate(189.171 6385.395)">
      <g id="Grupo_1173645" data-name="Grupo 1173645" transform="translate(7.75 7.5)">
        <path id="Trazado_1029719" data-name="Trazado 1029719" d="M118.589,345.542v-3.747a2.278,2.278,0,0,0,1.852-2.238v-6.443h11.768v6.443a2.279,2.279,0,0,0,1.852,2.238l.32,3.227Z" transform="translate(-107.168 -299.563)" fill="#ca6e59"/>
        <path id="Trazado_1029720" data-name="Trazado 1029720" d="M60.49,17.641c0,7.414-3.99,16.22-14.146,13.307l-8.475-3.855a3.347,3.347,0,0,1-.22-4.949l.855-.236.591-.588a3.536,3.536,0,0,1,.709-6.066.312.312,0,0,0,.183-.363,3.357,3.357,0,0,1-.094-.79,3.267,3.267,0,0,1,3.231-3.3,3.234,3.234,0,0,1,.629.063A1.534,1.534,0,0,1,44,10.616a1.3,1.3,0,0,0,.542-1.139,3.642,3.642,0,0,1,5.1-.36.307.307,0,0,0,.461-.074,3.2,3.2,0,0,1,5.472,0,.308.308,0,0,0,.462.074,3.63,3.63,0,0,1,.726-.482C60.49,9.765,60.49,14.966,60.49,17.641Z" transform="translate(-33.681 -7.5)" fill="#73788c"/>
        <path id="Trazado_1029721" data-name="Trazado 1029721" d="M153.312,30.978a3.321,3.321,0,0,1-1.209,2.574l-9.693,5.267h-8.665l-3.106-1.413a15.225,15.225,0,0,0,10.417-22.314,3.607,3.607,0,0,1,1.64-.393,3.656,3.656,0,0,1,2.736,1.235l.17.832.616.554a3.231,3.231,0,0,1,.628-.063,3.267,3.267,0,0,1,3.232,3.3,3.376,3.376,0,0,1-.17,1.056,3.532,3.532,0,0,1,.967,6.163A3.291,3.291,0,0,1,153.312,30.978Z" transform="translate(-117.978 -13.958)" fill="#5e6577"/>
        <path id="Trazado_1029722" data-name="Trazado 1029722" d="M68.27,200.271a5.641,5.641,0,0,0,4.3-5.479h0a2.243,2.243,0,0,0-2.243-2.243H68.27l-22.6,0H43.618a2.243,2.243,0,0,0-2.243,2.243h0a5.641,5.641,0,0,0,4.3,5.479Z" transform="translate(-37.91 -173.482)" fill="#ca6e59"/>
        <path id="Trazado_1029723" data-name="Trazado 1029723" d="M100.064,130.952a2.232,2.232,0,0,1,2.915.96,8.961,8.961,0,0,0,.747,1.136l.487.648c.206.6.665,3.412,1.3,3.412v8.558a7.139,7.139,0,0,1-2.438,5.374l-4.433,3.88A4.759,4.759,0,0,1,95.51,156.1H92.88a4.759,4.759,0,0,1-3.134-1.177l-4.433-3.88a7.139,7.139,0,0,1-2.438-5.374v-8.558a1.515,1.515,0,0,0,1.408-1.035l.976-3.809a2.232,2.232,0,0,1,3.074-1.29l.143.068,1.149.44a12.717,12.717,0,0,0,9.1,0l1.149-.44Z" transform="translate(-75.134 -118.041)" fill="#d78878"/>
        <path id="Trazado_1029724" data-name="Trazado 1029724" d="M170.68,300.127c-2.444,0-2.553-2.256-2.512-3.075a.308.308,0,0,1,.309-.292h4.4a.308.308,0,0,1,.309.3C173.206,297.885,173.044,300.127,170.68,300.127Z" transform="translate(-151.633 -266.955)" fill="#eaf6ff"/>
        <path id="Trazado_1029725" data-name="Trazado 1029725" d="M14.527,439.778l-6.468-.015a.309.309,0,0,1-.309-.309v-5.742a.31.31,0,0,1,.166-.275,10,10,0,0,1,2.694-.927l.745-.149,6.572,2.438Z" transform="translate(-7.75 -388.583)" fill="#9be69d"/>
        <path id="Trazado_1029726" data-name="Trazado 1029726" d="M298,435.262l-2.495,4.071-8.612.006-3.116-5.457c.034-.035,6.3-2,6.3-2l.426.081a10,10,0,0,1,2.816.991Z" transform="translate(-255.331 -388.152)" fill="#9be69d"/>
        <path id="Trazado_1029727" data-name="Trazado 1029727" d="M122.315,418.39l.941,4.728-3.4,4.118-10.329.012-3.918-4.319,1.461-4.515A10.58,10.58,0,0,0,122.315,418.39Z" transform="translate(-95.524 -376.052)" fill="#eaf6ff"/>
        <path id="Trazado_1029728" data-name="Trazado 1029728" d="M49.293,409.07l-2.814-10.117a1.132,1.132,0,0,0-1.42-.78L38.8,400.079a.49.49,0,0,0-.306.668l1.32,2.988a.309.309,0,0,0,.214.176l3.215.737a.309.309,0,0,1,.184.478l-1.744,2.5a.309.309,0,0,0-.038.281l.42,1.161Z" transform="translate(-35.292 -357.874)" fill="#bbf49b"/>
        <path id="Trazado_1029729" data-name="Trazado 1029729" d="M243.879,408.853l2.817-10.129a1.132,1.132,0,0,1,1.42-.779l6.255,1.905a.491.491,0,0,1,.306.669l-1.319,2.988a.309.309,0,0,1-.214.176l-3.215.737a.309.309,0,0,0-.184.478l1.745,2.5a.309.309,0,0,1,.037.281l-.422,1.176Z" transform="translate(-219.549 -357.669)" fill="#bbf49b"/>
        <g id="Grupo_1173642" data-name="Grupo 1173642" transform="translate(38.143 27.951)">
          <path id="Trazado_1029730" data-name="Trazado 1029730" d="M390.176,387.922v3.963a12.07,12.07,0,0,1-.272,2.4,8.438,8.438,0,0,1-.976,1.756c-.624,1.051-.351,2.133-.347,3.355l-.792.506H379.98v-1.7a4.261,4.261,0,0,0-1.121-2.88,3.527,3.527,0,0,1-.926-2.38v-1.707a2.09,2.09,0,0,1,.892-1.713Z" transform="translate(-377.933 -376.675)" fill="#d78878"/>
          <g id="Grupo_1173641" data-name="Grupo 1173641" transform="translate(9.53 6.653)">
            <path id="Trazado_1029731" data-name="Trazado 1029731" d="M473.138,344.015v3.929a.824.824,0,0,1-.331.738c-.247.247-1.116-.131-1.493-.128l-.672-.718-.217-2.554.713-.551a1.382,1.382,0,0,1,1.346-1.38C472.937,343.519,473.138,343.752,473.138,344.015Z" transform="translate(-470.425 -343.35)" fill="#d78878"/>
            <path id="Trazado_1029732" data-name="Trazado 1029732" d="M481.643,344.721v3.1a1.383,1.383,0,0,1-2.5.812l-.089-.094a1.383,1.383,0,0,0,1.37-1.383v-3.1a1.374,1.374,0,0,0-.2-.718h.037A1.382,1.382,0,0,1,481.643,344.721Z" transform="translate(-478.165 -343.34)" fill="#ca6e59"/>
          </g>
          <path id="Trazado_1029733" data-name="Trazado 1029733" d="M476.71,386.87V391a6.739,6.739,0,0,1-.948,3.447,6.742,6.742,0,0,0-.947,3.472l0,.728a.309.309,0,0,1-.309.31h-.951l0-1.039a6.751,6.751,0,0,1,.948-3.472A6.738,6.738,0,0,0,475.45,391v-3.955Z" transform="translate(-463.701 -375.731)" fill="#ca6e59"/>
          <path id="Trazado_1029734" data-name="Trazado 1029734" d="M391.426,281.357v11.161c0,.8-1.312,1.457-2.113,1.457l.681-1.821-.942-.9v-9.9a1.459,1.459,0,0,1,.859-1.327A1.348,1.348,0,0,1,391.426,281.357Z" transform="translate(-387.906 -279.9)" fill="#d78878"/>
          <path id="Trazado_1029735" data-name="Trazado 1029735" d="M417.695,332.178v3.662c0,.59-.959,1.1-1.466,1.329a1.461,1.461,0,0,1-.862-1.329l-.356-.079V332.3l.356-.126a1.46,1.46,0,0,1,.862-1.328C417.452,331.006,417.695,331.589,417.695,332.178Z" transform="translate(-411.19 -325.484)" fill="#d78878"/>
          <path id="Trazado_1029736" data-name="Trazado 1029736" d="M447.3,332.178v3.884c0,.589-1.066,1.1-1.573,1.328a1.459,1.459,0,0,1-.862-1.328l-.347-.222v-3.5l.347-.158a1.46,1.46,0,0,1,.862-1.328C447.105,331.038,447.3,331.589,447.3,332.178Z" transform="translate(-437.654 -325.484)" fill="#d78878"/>
          <path id="Trazado_1029737" data-name="Trazado 1029737" d="M399.565,280.227v10.567a.659.659,0,0,1-1.313,0V280.227a1.461,1.461,0,0,0-.858-1.327,1.435,1.435,0,0,1,.6-.13h.116A1.461,1.461,0,0,1,399.565,280.227Z" transform="translate(-395.389 -278.77)" fill="#ca6e59"/>
          <path id="Trazado_1029738" data-name="Trazado 1029738" d="M429,331.057v3.662a1.462,1.462,0,0,1-1.457,1.458h-.117a1.423,1.423,0,0,1-.595-.129,1.46,1.46,0,0,0,.862-1.329v-3.662a1.46,1.46,0,0,0-.862-1.328,1.423,1.423,0,0,1,.595-.129h.117A1.462,1.462,0,0,1,429,331.057Z" transform="translate(-421.795 -324.363)" fill="#ca6e59"/>
          <path id="Trazado_1029739" data-name="Trazado 1029739" d="M458.423,331.057v3.884a1.462,1.462,0,0,1-1.458,1.457h-.116a1.419,1.419,0,0,1-.595-.129,1.459,1.459,0,0,0,.861-1.328v-3.884a1.46,1.46,0,0,0-.861-1.328,1.42,1.42,0,0,1,.595-.129h.116A1.462,1.462,0,0,1,458.423,331.057Z" transform="translate(-448.184 -324.363)" fill="#ca6e59"/>
          <path id="Trazado_1029740" data-name="Trazado 1029740" d="M399.281,367.074a3.128,3.128,0,0,1-.067.641c-.271,1.3-2.2,1.457-3.565,1.6a4.36,4.36,0,0,0-2.583-.352c-.817.253-1.33,1.565-1.342,1.556l-2.675-1.4V367.8l2.583-1.857a2.894,2.894,0,0,1,1.654-.538l4.288-.04A1.71,1.71,0,0,1,399.281,367.074Z" transform="translate(-387.905 -356.443)" fill="#ca6e59"/>
          <path id="Trazado_1029741" data-name="Trazado 1029741" d="M390.523,380.958l1.22-1.641a.309.309,0,0,1,.211-.123l2.636-.32a2.093,2.093,0,0,0,1.442-2.007.7.7,0,0,0-.708-.689h-3.879a2.618,2.618,0,0,0-1.5.473L386.595,379Z" transform="translate(-385.702 -366.142)" fill="#d78878"/>
        </g>
        <g id="Grupo_1173644" data-name="Grupo 1173644" transform="translate(28.312 1.456)">
          <path id="Trazado_1029742" data-name="Trazado 1029742" d="M303.184,29.891a12,12,0,0,1-11.918,12.188c-2.174,0-6.948-1.6-7.569-3.328l.117-.474a.306.306,0,0,0-.027-.215A11.251,11.251,0,0,1,301.21,24.44,10.68,10.68,0,0,1,303.184,29.891Z" transform="translate(-282.517 -21.635)" fill="#eaf6ff"/>
          <path id="Trazado_1029743" data-name="Trazado 1029743" d="M305.99,59.687a11.268,11.268,0,0,1-16.888,7.2.307.307,0,0,0-.218-.04l-4.64.884a.31.31,0,0,1-.359-.378l1.031-4.173a12.134,12.134,0,0,0,17.513-14.31A11.224,11.224,0,0,1,305.99,59.687Z" transform="translate(-283.736 -46.059)" fill="#d8ecfe"/>
        </g>
        <path id="Trazado_1030505" data-name="Trazado 1030505" d="M2.773-2.916H1.821l-.4-9.219H3.175ZM1.245-.28a1.1,1.1,0,0,1,.3-.869,1.092,1.092,0,0,1,.742-.258,1.1,1.1,0,0,1,.738.258,1.09,1.09,0,0,1,.3.869,1.136,1.136,0,0,1-.3.877,1.054,1.054,0,0,1-.738.275A1.05,1.05,0,0,1,1.542.6,1.146,1.146,0,0,1,1.245-.28Z" transform="translate(37.284 17.642)" fill="#0b0a0a"/>
      </g>
      <g id="Grupo_1173654" data-name="Grupo 1173654" transform="translate(7.75 7.5)">
        <g id="Grupo_1173646" data-name="Grupo 1173646" transform="translate(3.465 19.07)">
          <path id="Trazado_1029750" data-name="Trazado 1029750" d="M45.621,200.286a5.641,5.641,0,0,1-4.245-5.466h0a2.243,2.243,0,0,1,2.243-2.243h2.054" transform="translate(-41.376 -192.577)" fill="none" stroke="#000" stroke-linecap="round" stroke-linejoin="round" stroke-miterlimit="10" stroke-width="1.3"/>
          <path id="Trazado_1029751" data-name="Trazado 1029751" d="M306.984,232.041a5.651,5.651,0,0,1-3.927,3.635" transform="translate(-276.094 -227.975)" fill="none" stroke="#000" stroke-linecap="round" stroke-linejoin="round" stroke-miterlimit="10" stroke-width="1.3"/>
        </g>
        <path id="Trazado_1029752" data-name="Trazado 1029752" d="M209.872,132.2a12.714,12.714,0,0,0,2.764-.716l1.149-.44.191-.09a2.231,2.231,0,0,1,3.061,1.3" transform="translate(-189.046 -118.041)" fill="none" stroke="#000" stroke-linecap="round" stroke-linejoin="round" stroke-miterlimit="10" stroke-width="1.3"/>
        <path id="Trazado_1029753" data-name="Trazado 1029753" d="M105.515,141.4v4.4a7.139,7.139,0,0,1-2.438,5.374l-4.433,3.88a4.759,4.759,0,0,1-3.134,1.177H92.88a4.759,4.759,0,0,1-3.134-1.177l-4.433-3.88a7.139,7.139,0,0,1-2.438-5.374v-8.559a1.515,1.515,0,0,0,1.408-1.035l.976-3.809a2.232,2.232,0,0,1,3.074-1.29l.143.068,1.149.44a12.712,12.712,0,0,0,2.747.713" transform="translate(-75.134 -118.173)" fill="none" stroke="#000" stroke-linecap="round" stroke-linejoin="round" stroke-miterlimit="10" stroke-width="1.3"/>
        <g id="Grupo_1173648" data-name="Grupo 1173648" transform="translate(12.521 18.091)">
          <g id="Grupo_1173647" data-name="Grupo 1173647">
            <path id="Trazado_1029754" data-name="Trazado 1029754" d="M184.255,262.089a2.389,2.389,0,0,1-2.166,0" transform="translate(-176.646 -253.947)" fill="none" stroke="#000" stroke-linecap="round" stroke-linejoin="round" stroke-miterlimit="10" stroke-width="1.3"/>
            <path id="Trazado_1029755" data-name="Trazado 1029755" d="M133.228,183.581a4.121,4.121,0,0,0-3.962,0" transform="translate(-129.266 -183.073)" fill="none" stroke="#000" stroke-linecap="round" stroke-linejoin="round" stroke-miterlimit="10" stroke-width="1.3"/>
            <path id="Trazado_1029756" data-name="Trazado 1029756" d="M221.448,183.581a4.121,4.121,0,0,0-3.962,0" transform="translate(-208.396 -183.073)" fill="none" stroke="#000" stroke-linecap="round" stroke-linejoin="round" stroke-miterlimit="10" stroke-width="1.3"/>
            <line id="Línea_797" data-name="Línea 797" y1="1.755" transform="translate(11.071 2.975)" fill="none" stroke="#000" stroke-linecap="round" stroke-linejoin="round" stroke-miterlimit="10" stroke-width="1.3"/>
            <line id="Línea_798" data-name="Línea 798" y1="1.755" transform="translate(1.981 2.975)" fill="none" stroke="#000" stroke-linecap="round" stroke-linejoin="round" stroke-miterlimit="10" stroke-width="1.3"/>
          </g>
          <path id="Trazado_1029757" data-name="Trazado 1029757" d="M170.68,300.127c-2.986,0-2.487-3.367-2.487-3.367h4.974S173.577,300.127,170.68,300.127Z" transform="translate(-164.154 -285.046)" fill="none" stroke="#000" stroke-linecap="round" stroke-linejoin="round" stroke-miterlimit="10" stroke-width="1.3"/>
        </g>
        <path id="Trazado_1029758" data-name="Trazado 1029758" d="M65.011,11.956a3.186,3.186,0,0,0-3.085-1.093A3.709,3.709,0,0,0,58.4,8.242a3.65,3.65,0,0,0-2.646,1.139,3.2,3.2,0,0,0-5.836,0,3.649,3.649,0,0,0-2.646-1.139,3.709,3.709,0,0,0-3.521,2.622,3.184,3.184,0,0,0-.629-.063A3.267,3.267,0,0,0,39.9,14.1a3.36,3.36,0,0,0,.17,1.056,3.533,3.533,0,0,0-.968,6.163,3.329,3.329,0,0,0-1.226,5.773" transform="translate(-33.685 -7.5)" fill="none" stroke="#000" stroke-linecap="round" stroke-linejoin="round" stroke-miterlimit="10" stroke-width="1.3"/>
        <path id="Trazado_1029759" data-name="Trazado 1029759" d="M61.785,142.232a3.235,3.235,0,0,1-1.458-.591" transform="translate(-54.91 -127.819)" fill="none" stroke="#000" stroke-linecap="round" stroke-linejoin="round" stroke-miterlimit="10" stroke-width="1.3"/>
        <path id="Trazado_1029760" data-name="Trazado 1029760" d="M105.6,40.2a3.067,3.067,0,0,1,1.944,1.291" transform="translate(-95.518 -36.83)" fill="none" stroke="#000" stroke-linecap="round" stroke-linejoin="round" stroke-miterlimit="10" stroke-width="1.3"/>
        <path id="Trazado_1029761" data-name="Trazado 1029761" d="M268.107,40.183a3.071,3.071,0,0,0-1.561,1.189" transform="translate(-239.88 -36.815)" fill="none" stroke="#000" stroke-linecap="round" stroke-linejoin="round" stroke-miterlimit="10" stroke-width="1.3"/>
        <path id="Trazado_1029762" data-name="Trazado 1029762" d="M302.328,33.215q-.052.326-.123.654a11.6,11.6,0,0,1-17.49,7.343l-5.385,1.026,1.33-5.382A11.57,11.57,0,0,1,288.938,20" transform="translate(-251.315 -18.714)" fill="none" stroke="#000" stroke-linecap="round" stroke-linejoin="round" stroke-miterlimit="10" stroke-width="1.3"/>
        <path id="Trazado_1029763" data-name="Trazado 1029763" d="M407.545,19.544q.416.059.833.15a11.583,11.583,0,0,1,8.988,9.5" transform="translate(-366.351 -18.303)" fill="none" stroke="#000" stroke-linecap="round" stroke-linejoin="round" stroke-miterlimit="10" stroke-width="1.3"/>
        <path id="Trazado_1029767" data-name="Trazado 1029767" d="M346.53,432.195l.259.049a9.975,9.975,0,0,1,2.815.991" transform="translate(-311.623 -388.435)" fill="none" stroke="#000" stroke-linecap="round" stroke-linejoin="round" stroke-miterlimit="10" stroke-width="1.3"/>
        <path id="Trazado_1029768" data-name="Trazado 1029768" d="M250.768,358.351v3.842a2.279,2.279,0,0,0,1.852,2.238" transform="translate(-225.728 -322.2)" fill="none" stroke="#000" stroke-linecap="round" stroke-linejoin="round" stroke-miterlimit="10" stroke-width="1.3"/>
        <path id="Trazado_1029769" data-name="Trazado 1029769" d="M118.589,417.362h0a10.582,10.582,0,0,0,15.471,0h0" transform="translate(-107.168 -375.13)" fill="none" stroke="#000" stroke-linecap="round" stroke-linejoin="round" stroke-miterlimit="10" stroke-width="1.3"/>
        <path id="Trazado_1029770" data-name="Trazado 1029770" d="M11.016,366.045l-.405.081a9.979,9.979,0,0,0-2.861,1.015m13.272-8.79v3.842a2.279,2.279,0,0,1-1.852,2.238l-.118.023" transform="translate(-7.75 -322.2)" fill="none" stroke="#000" stroke-linecap="round" stroke-linejoin="round" stroke-miterlimit="10" stroke-width="1.3"/>
        <g id="Grupo_1173650" data-name="Grupo 1173650" transform="translate(2.88 40.249)">
          <path id="Trazado_1029771" data-name="Trazado 1029771" d="M45.344,404.766l-1.617-5.814a1.132,1.132,0,0,0-1.42-.78l-6.255,1.906a.49.49,0,0,0-.306.668l1.382,3.129,3.812.875-2.1,3.007.476,1.326" transform="translate(-35.703 -398.124)" fill="none" stroke="#000" stroke-linecap="round" stroke-linejoin="round" stroke-miterlimit="10" stroke-width="1.3"/>
          <line id="Línea_801" data-name="Línea 801" x1="0.235" y1="0.844" transform="translate(10.607 10.117)" fill="none" stroke="#000" stroke-linecap="round" stroke-linejoin="round" stroke-miterlimit="10" stroke-width="1.3"/>
          <path id="Trazado_1029772" data-name="Trazado 1029772" d="M244.868,409.086l2.818-10.132a1.132,1.132,0,0,1,1.42-.779l6.255,1.905a.491.491,0,0,1,.306.669l-1.382,3.13-3.812.874,2.1,3.007-.476,1.326" transform="translate(-223.316 -398.125)" fill="none" stroke="#000" stroke-linecap="round" stroke-linejoin="round" stroke-miterlimit="10" stroke-width="1.3"/>
        </g>
        <g id="Grupo_1173653" data-name="Grupo 1173653" transform="translate(38.15 27.981)">
          <g id="Grupo_1173651" data-name="Grupo 1173651" transform="translate(10.243 6.653)">
            <path id="Trazado_1029773" data-name="Trazado 1029773" d="M480.177,345.007a1.381,1.381,0,0,0-1.381-1.381h0a1.383,1.383,0,0,0-1.383,1.383v3.1a1.383,1.383,0,0,0,1.383,1.383h0a1.383,1.383,0,0,0,1.383-1.383Z" transform="translate(-477.412 -343.626)" fill="none" stroke="#000" stroke-linecap="round" stroke-linejoin="round" stroke-miterlimit="10" stroke-width="1.3"/>
            <path id="Trazado_1029774" data-name="Trazado 1029774" d="M490.831,400.563" transform="translate(-489.448 -394.696)" fill="none" stroke="#000" stroke-linecap="round" stroke-linejoin="round" stroke-miterlimit="10" stroke-width="1.3"/>
          </g>
          <g id="Grupo_1173652" data-name="Grupo 1173652" transform="translate(11.114 11.177)">
            <path id="Trazado_1029775" data-name="Trazado 1029775" d="M487.753,387.53v4.132a6.712,6.712,0,0,1-.948,3.409h0a6.745,6.745,0,0,0-.948,3.472l0,1.039" transform="translate(-485.857 -387.53)" fill="none" stroke="#000" stroke-linecap="round" stroke-linejoin="round" stroke-miterlimit="10" stroke-width="1.3"/>
          </g>
          <path id="Trazado_1029776" data-name="Trazado 1029776" d="M433.859,414.75a5.653,5.653,0,0,1,1.207,5.169l-.043.165" transform="translate(-428.103 -400.768)" fill="none" stroke="#000" stroke-linecap="round" stroke-linejoin="round" stroke-miterlimit="10" stroke-width="1.3"/>
          <path id="Trazado_1029777" data-name="Trazado 1029777" d="M389.115,291.668V280.514a1.461,1.461,0,0,1,1.457-1.457h.117a1.461,1.461,0,0,1,1.457,1.457v9.063" transform="translate(-387.97 -279.057)" fill="none" stroke="#000" stroke-linecap="round" stroke-linejoin="round" stroke-miterlimit="10" stroke-width="1.3"/>
          <path id="Trazado_1029778" data-name="Trazado 1029778" d="M418.532,331.35a1.461,1.461,0,0,1,1.457-1.457h.117a1.461,1.461,0,0,1,1.457,1.457v3.317" transform="translate(-414.355 -324.655)" fill="none" stroke="#000" stroke-linecap="round" stroke-linejoin="round" stroke-miterlimit="10" stroke-width="1.3"/>
          <path id="Trazado_1029779" data-name="Trazado 1029779" d="M447.947,334.631V331.35a1.461,1.461,0,0,1,1.457-1.457h.117a1.461,1.461,0,0,1,1.457,1.457v1.391" transform="translate(-440.74 -324.655)" fill="none" stroke="#000" stroke-linecap="round" stroke-linejoin="round" stroke-miterlimit="10" stroke-width="1.3"/>
          <path id="Trazado_1029780" data-name="Trazado 1029780" d="M382.82,381.247l1.3-1.748,2.6-.336a2.092,2.092,0,0,0,1.442-1.988.708.708,0,0,0-.708-.708h-3.714a2.618,2.618,0,0,0-1.5.473l-3.348,2.343A2.091,2.091,0,0,0,378,381V382.7a3.523,3.523,0,0,0,.927,2.38,4.262,4.262,0,0,1,1.121,2.88v1.7" transform="translate(-377.999 -366.431)" fill="none" stroke="#000" stroke-linecap="round" stroke-linejoin="round" stroke-miterlimit="10" stroke-width="1.3"/>
        </g>
      </g>
    </g>
  </g>
</svg>
