<svg xmlns="http://www.w3.org/2000/svg" xmlns:xlink="http://www.w3.org/1999/xlink" width="103" height="103" viewBox="0 0 103 103">
  <defs>
    <filter id="Trazado_978624" x="0" y="0" width="103" height="103" filterUnits="userSpaceOnUse">
      <feOffset dy="3" input="SourceAlpha"/>
      <feGaussianBlur stdDeviation="3" result="blur"/>
      <feFlood flood-opacity="0.161"/>
      <feComposite operator="in" in2="blur"/>
      <feComposite in="SourceGraphic"/>
    </filter>
  </defs>
  <g id="Grupo_1174821" data-name="Grupo 1174821" transform="translate(-171 -2952.876)">
    <g id="Grupo_1173992" data-name="Grupo 1173992" transform="translate(-3 -1853.124)">
      <g id="Grupo_1171925" data-name="Grupo 1171925" transform="translate(-22 -2246)">
        <g id="Grupo_1164524" data-name="Grupo 1164524" transform="translate(205 7058)">
          <g id="Grupo_1144123" data-name="Grupo 1144123">
            <g transform="matrix(1, 0, 0, 1, -9, -6)" filter="url(#Trazado_978624)">
              <g id="Trazado_978624-2" data-name="Trazado 978624" transform="translate(9 6)" fill="#edf3fc">
                <path d="M 42.5 83.5 C 36.96437835693359 83.5 31.59512901306152 82.41617584228516 26.54141235351562 80.27863311767578 C 21.65934181213379 78.21369171142578 17.27447128295898 75.25723266601562 13.50862312316895 71.49137878417969 C 9.742764472961426 67.72553253173828 6.786305904388428 63.34066009521484 4.721364498138428 58.45858764648438 C 2.583823442459106 53.40486907958984 1.5 48.03562164306641 1.5 42.5 C 1.5 36.96437835693359 2.583823442459106 31.59512901306152 4.721364498138428 26.54141235351562 C 6.786305904388428 21.65934181213379 9.742764472961426 17.27447128295898 13.50862312316895 13.50862312316895 C 17.27447128295898 9.742764472961426 21.65934181213379 6.786305904388428 26.54141235351562 4.721364498138428 C 31.59512901306152 2.583823442459106 36.96437835693359 1.5 42.5 1.5 C 48.03562164306641 1.5 53.40486907958984 2.583823442459106 58.45858764648438 4.721364498138428 C 63.34066009521484 6.786305904388428 67.72553253173828 9.742764472961426 71.49137878417969 13.50862312316895 C 75.25723266601562 17.27447128295898 78.21369171142578 21.65934181213379 80.27863311767578 26.54141235351562 C 82.41617584228516 31.59512901306152 83.5 36.96437835693359 83.5 42.5 C 83.5 48.03562164306641 82.41617584228516 53.40486907958984 80.27863311767578 58.45858764648438 C 78.21369171142578 63.34066009521484 75.25723266601562 67.72553253173828 71.49137878417969 71.49137878417969 C 67.72553253173828 75.25723266601562 63.34066009521484 78.21369171142578 58.45858764648438 80.27863311767578 C 53.40486907958984 82.41617584228516 48.03562164306641 83.5 42.5 83.5 Z" stroke="none"/>
                <path d="M 42.5 3 C 37.16621398925781 3 31.99356079101562 4.043960571289062 27.125732421875 6.102882385253906 C 22.42246627807617 8.092185974121094 18.19785308837891 10.94070434570312 14.56928253173828 14.56928253173828 C 10.94070434570312 18.19785308837891 8.092185974121094 22.42246627807617 6.102882385253906 27.125732421875 C 4.043960571289062 31.99356079101562 3 37.16621398925781 3 42.5 C 3 47.83378601074219 4.043960571289062 53.00643920898438 6.102882385253906 57.87425231933594 C 8.092185974121094 62.57753372192383 10.94070434570312 66.80213165283203 14.56928253173828 70.43071746826172 C 18.19786834716797 74.05929565429688 22.42246627807617 76.90781402587891 27.125732421875 78.89711761474609 C 31.99356079101562 80.95603942871094 37.16621398925781 82 42.5 82 C 47.83378601074219 82 53.00642395019531 80.95603942871094 57.87425231933594 78.89711761474609 C 62.57753372192383 76.90781402587891 66.80213165283203 74.05929565429688 70.43071746826172 70.43071746826172 C 74.05929565429688 66.80213165283203 76.90781402587891 62.57753372192383 78.89711761474609 57.87425231933594 C 80.95603942871094 53.00642395019531 82 47.83378601074219 82 42.5 C 82 37.16621398925781 80.95603942871094 31.99356079101562 78.89711761474609 27.125732421875 C 76.90781402587891 22.42246627807617 74.05929565429688 18.19786834716797 70.43071746826172 14.56928253173828 C 66.80213165283203 10.94070434570312 62.57753372192383 8.092185974121094 57.87425231933594 6.102882385253906 C 53.00643920898438 4.043960571289062 47.83378601074219 3 42.5 3 M 42.5 0 C 65.97209167480469 0 85 19.02789306640625 85 42.5 C 85 65.97209167480469 65.97209167480469 85 42.5 85 C 19.02789306640625 85 0 65.97209167480469 0 42.5 C 0 19.02789306640625 19.02789306640625 0 42.5 0 Z" stroke="none" fill="#5692e8"/>
              </g>
            </g>
          </g>
        </g>
      </g>
    </g>
    <g id="compliant_4252360_3_" data-name="compliant_4252360 (3)" transform="translate(183.468 2975.923)">
      <g id="Grupo_1174797" data-name="Grupo 1174797" transform="translate(25.144 0.746)">
        <path id="Trazado_1032070" data-name="Trazado 1032070" d="M148.474,7.5H116.812a.5.5,0,0,0-.5.5V21.78h3.26a2.436,2.436,0,0,1,.17,4.867V29.67h0a.994.994,0,0,1,.843.982v6.172a.994.994,0,0,1-.843.982h0v3.023a2.436,2.436,0,0,1-.17,4.867h-3.26v4.08h6.861a.994.994,0,0,1,.994.994v1.981h.758a.994.994,0,0,1,.994.994v3.171h23.049V8A.5.5,0,0,0,148.474,7.5Z" transform="translate(-116.315 -7.5)" fill="#fff3de"/>
      </g>
      <g id="Grupo_1174798" data-name="Grupo 1174798" transform="translate(25.144 0.746)">
        <path id="Trazado_1032071" data-name="Trazado 1032071" d="M119.575,21.78l.089,0V8a.5.5,0,0,1,.5-.5h-3.349a.5.5,0,0,0-.5.5V21.78Z" transform="translate(-116.315 -7.5)" fill="#ffe5c2"/>
        <path id="Trazado_1032072" data-name="Trazado 1032072" d="M119.575,391.629h-3.26v4.08h3.349v-4.082Z" transform="translate(-116.315 -353.435)" fill="#ffe5c2"/>
      </g>
      <g id="Grupo_1174816" data-name="Grupo 1174816" transform="translate(15.824 15.026)">
        <g id="Grupo_1174799" data-name="Grupo 1174799" transform="translate(13.593 10.257)">
          <path id="Trazado_1032073" data-name="Trazado 1032073" d="M159.3,254.29h4.6v3.4h-4.6Z" transform="translate(-159.296 -254.29)" fill="#883f2e"/>
          <path id="Trazado_1032074" data-name="Trazado 1032074" d="M237.5,254.29h6.574v3.4H237.5Z" transform="translate(-229.726 -254.29)" fill="#883f2e"/>
        </g>
        <g id="Grupo_1174800" data-name="Grupo 1174800" transform="translate(13.593 12.018)">
          <path id="Trazado_1032075" data-name="Trazado 1032075" d="M159.3,272h4.6v1.639h-4.6Z" transform="translate(-159.296 -272)" fill="#6d3326"/>
          <path id="Trazado_1032076" data-name="Trazado 1032076" d="M237.5,272h6.574v1.639H237.5Z" transform="translate(-229.726 -272)" fill="#6d3326"/>
        </g>
        <g id="Grupo_1174801" data-name="Grupo 1174801" transform="translate(27.942 9.463)">
          <path id="Trazado_1032077" data-name="Trazado 1032077" d="M322.09,248.8A2.493,2.493,0,0,1,319.6,251.3H304.183a.567.567,0,0,1-.567-.567v-3.853a.567.567,0,0,1,.567-.567H319.6A2.494,2.494,0,0,1,322.09,248.8Z" transform="translate(-303.616 -246.31)" fill="#ca6e59"/>
        </g>
        <g id="Grupo_1174802" data-name="Grupo 1174802" transform="translate(27.942 9.463)">
          <path id="Trazado_1032078" data-name="Trazado 1032078" d="M307,249.162a.567.567,0,0,1-.567-.567V246.31h-2.255a.567.567,0,0,0-.567.567v3.853a.567.567,0,0,0,.567.567H319.6a2.494,2.494,0,0,0,2.467-2.134Z" transform="translate(-303.616 -246.31)" fill="#bb5d4c"/>
        </g>
        <g id="Grupo_1174803" data-name="Grupo 1174803" transform="translate(18.195 9.464)">
          <path id="Trazado_1032079" data-name="Trazado 1032079" d="M208.758,246.808V250.8a.5.5,0,0,1-.5.5h-2.179a.5.5,0,0,1-.5-.5v-3.993a.5.5,0,0,1,.5-.5h2.179A.5.5,0,0,1,208.758,246.808Z" transform="translate(-205.585 -246.311)" fill="#ca6e59"/>
        </g>
        <g id="Grupo_1174804" data-name="Grupo 1174804" transform="translate(18.195 9.464)">
          <path id="Trazado_1032080" data-name="Trazado 1032080" d="M207.026,250.8v-3.993a.5.5,0,0,1,.5-.5h-1.441a.5.5,0,0,0-.5.5V250.8a.5.5,0,0,0,.5.5h1.441A.5.5,0,0,1,207.026,250.8Z" transform="translate(-205.585 -246.311)" fill="#bb5d4c"/>
        </g>
        <g id="Grupo_1174805" data-name="Grupo 1174805" transform="translate(6.177 4.867)">
          <path id="Trazado_1032081" data-name="Trazado 1032081" d="M91.125,312.31H84.854a1,1,0,0,1-.151-.013v3.023c.056,0,.113-.007.17-.007h6.233c.057,0,.114,0,.17.007V312.3A.986.986,0,0,1,91.125,312.31Z" transform="translate(-84.703 -301.14)" fill="#883f2e"/>
          <path id="Trazado_1032082" data-name="Trazado 1032082" d="M84.854,312.31a1,1,0,0,1-.151-.013v3.023c.056,0,.113-.007.17-.007h2.334v-3H84.854Z" transform="translate(-84.703 -301.14)" fill="#6d3326"/>
          <path id="Trazado_1032083" data-name="Trazado 1032083" d="M84.854,203.089h6.271a1,1,0,0,1,.151.013v-3.023c-.056,0-.113.007-.17.007H84.873c-.057,0-.114,0-.17-.007V203.1A1,1,0,0,1,84.854,203.089Z" transform="translate(-84.703 -200.079)" fill="#883f2e"/>
          <path id="Trazado_1032084" data-name="Trazado 1032084" d="M84.854,203.088h2.352v-3H84.873c-.057,0-.114,0-.17-.007V203.1A1.009,1.009,0,0,1,84.854,203.088Z" transform="translate(-84.703 -200.078)" fill="#6d3326"/>
        </g>
        <g id="Grupo_1174806" data-name="Grupo 1174806" transform="translate(5.334 7.877)">
          <path id="Trazado_1032085" data-name="Trazado 1032085" d="M84.484,231.346v6.172a.994.994,0,0,1-.994.994H77.219a.994.994,0,0,1-.994-.994v-6.172a.994.994,0,0,1,.994-.994H83.49A.994.994,0,0,1,84.484,231.346Z" transform="translate(-76.225 -230.352)" fill="#ca6e59"/>
        </g>
        <g id="Grupo_1174807" data-name="Grupo 1174807" transform="translate(5.334 7.877)">
          <path id="Trazado_1032086" data-name="Trazado 1032086" d="M79.583,237.518v-6.172a.994.994,0,0,1,.994-.994H77.219a.994.994,0,0,0-.994.994v6.172a.994.994,0,0,0,.994.994h3.358A.994.994,0,0,1,79.583,237.518Z" transform="translate(-76.225 -230.352)" fill="#bb5d4c"/>
        </g>
        <g id="Grupo_1174810" data-name="Grupo 1174810" transform="translate(0 27.994)">
          <path id="Trazado_1032087" data-name="Trazado 1032087" d="M55.614,435.76a1.019,1.019,0,0,0,.005-.1v-1.978a.994.994,0,0,0-.994-.994H41.189a.994.994,0,0,0-.994.994v1.978a1.018,1.018,0,0,0,.005.1Z" transform="translate(-38.443 -432.685)" fill="#ca6e59"/>
          <path id="Trazado_1032088" data-name="Trazado 1032088" d="M43.561,435.76a1.019,1.019,0,0,1-.005-.1v-1.978a.994.994,0,0,1,.994-.994H41.189a.994.994,0,0,0-.994.994v1.978a1.018,1.018,0,0,0,.005.1Z" transform="translate(-38.443 -432.685)" fill="#bb5d4c"/>
          <g id="Grupo_1174808" data-name="Grupo 1174808" transform="translate(0 2.975)">
            <path id="Trazado_1032089" data-name="Trazado 1032089" d="M41.505,466.773H23.075a.5.5,0,0,1-.5-.5V463.6a.994.994,0,0,1,.994-.994H40.511a.994.994,0,0,1,.994.994Z" transform="translate(-22.578 -462.608)" fill="#883f2e"/>
          </g>
          <g id="Grupo_1174809" data-name="Grupo 1174809" transform="translate(0 2.975)">
            <path id="Trazado_1032090" data-name="Trazado 1032090" d="M25.9,466.276V463.6a.994.994,0,0,1,.994-.994H23.572a.994.994,0,0,0-.994.994v2.674a.5.5,0,0,0,.5.5H26.4A.5.5,0,0,1,25.9,466.276Z" transform="translate(-22.578 -462.608)" fill="#6d3326"/>
          </g>
        </g>
        <g id="Grupo_1174815" data-name="Grupo 1174815" transform="translate(3.91)">
          <g id="Grupo_1174811" data-name="Grupo 1174811" transform="translate(0 19.04)">
            <path id="Trazado_1032091" data-name="Trazado 1032091" d="M73.012,345.07a2.437,2.437,0,0,1-2.437,2.437H64.342a2.437,2.437,0,1,1,0-4.873h6.233A2.437,2.437,0,0,1,73.012,345.07Z" transform="translate(-61.905 -342.633)" fill="#ca6e59"/>
          </g>
          <g id="Grupo_1174812" data-name="Grupo 1174812" transform="translate(0 19.04)">
            <path id="Trazado_1032092" data-name="Trazado 1032092" d="M65.224,345.07a2.437,2.437,0,0,1,2.437-2.437H64.342a2.437,2.437,0,1,0,0,4.873h3.319A2.437,2.437,0,0,1,65.224,345.07Z" transform="translate(-61.905 -342.633)" fill="#bb5d4c"/>
          </g>
          <g id="Grupo_1174813" data-name="Grupo 1174813" transform="translate(0)">
            <path id="Trazado_1032093" data-name="Trazado 1032093" d="M73.012,153.565A2.437,2.437,0,0,1,70.575,156H64.342a2.437,2.437,0,0,1,0-4.873h6.233A2.437,2.437,0,0,1,73.012,153.565Z" transform="translate(-61.905 -151.128)" fill="#ca6e59"/>
          </g>
          <g id="Grupo_1174814" data-name="Grupo 1174814">
            <path id="Trazado_1032094" data-name="Trazado 1032094" d="M65.224,153.565a2.437,2.437,0,0,1,2.437-2.437H64.342a2.437,2.437,0,1,0,0,4.873h3.319A2.437,2.437,0,0,1,65.224,153.565Z" transform="translate(-61.905 -151.128)" fill="#bb5d4c"/>
          </g>
        </g>
      </g>
      <g id="Grupo_1174819" data-name="Grupo 1174819" transform="translate(34.495 5.38)">
        <g id="Grupo_1174817" data-name="Grupo 1174817">
          <circle id="Elipse_12372" data-name="Elipse 12372" cx="6.977" cy="6.977" r="6.977" fill="#4fc123"/>
        </g>
        <g id="Grupo_1174818" data-name="Grupo 1174818" transform="translate(0)">
          <path id="Trazado_1032095" data-name="Trazado 1032095" d="M213.715,61.084a6.978,6.978,0,0,1,5.3-6.774,6.977,6.977,0,1,0,0,13.547A6.978,6.978,0,0,1,213.715,61.084Z" transform="translate(-210.372 -54.107)" fill="#47a920"/>
        </g>
      </g>
      <g id="Grupo_1174820" data-name="Grupo 1174820" transform="translate(15.078 0)">
        <path id="Trazado_1032096" data-name="Trazado 1032096" d="M59.746,23.744h-1.2V10.837a.746.746,0,0,0-.769-.745.766.766,0,0,0-.723.777V23.744h-5a.746.746,0,1,0,0,1.491h7.69a1.748,1.748,0,0,1,0,3.5H44.512v-3.5h4.065a.746.746,0,1,0,0-1.491H44.333a1.314,1.314,0,0,0-1.2.793H37.853a1.244,1.244,0,0,0-1.157-.793H34.516a1.244,1.244,0,0,0-1.157.793h-3.2V23.9a1.739,1.739,0,0,0-.843-1.488v-1.9a3.182,3.182,0,0,0-.916-6.23H25.889V1.491H57.054V7.357a.746.746,0,0,0,.769.745.766.766,0,0,0,.723-.777V1.243A1.243,1.243,0,0,0,57.3,0H25.641A1.243,1.243,0,0,0,24.4,1.243V14.28H22.17a3.182,3.182,0,0,0-.916,6.23v1.9a1.739,1.739,0,0,0-.843,1.488v6.172a1.739,1.739,0,0,0,.843,1.488v1.9a3.182,3.182,0,0,0,.916,6.23H24.4v2.589H18.57a1.742,1.742,0,0,0-1.74,1.74v1.235h-.012a1.742,1.742,0,0,0-1.74,1.74v2.674a1.244,1.244,0,0,0,1.243,1.243H57.3a1.243,1.243,0,0,0,1.243-1.243V30.222h1.2a3.239,3.239,0,0,0,0-6.478ZM37.938,26.029H43.02v1.909H37.938Zm-3.173-.793h1.682v3.5H34.765Zm-4.6.793h3.111v1.909H30.163Zm-9.683-8.566a1.693,1.693,0,0,1,1.691-1.691H28.4a1.691,1.691,0,0,1,0,3.382H22.17A1.693,1.693,0,0,1,20.479,17.463Zm1.672,12.855a.249.249,0,0,1-.249-.249V23.9a.249.249,0,0,1,.249-.249h6.271a.249.249,0,0,1,.249.249v6.172a.249.249,0,0,1-.249.249Zm5.676,1.491v1.512H22.746V31.809Zm-5.082-9.651V20.645h5.082v1.512ZM22.17,38.194a1.691,1.691,0,1,1,0-3.382H28.4a1.691,1.691,0,1,1,0,3.382Zm11.835,11.22H16.569V46.989a.249.249,0,0,1,.249-.249h4.616a.746.746,0,0,0,0-1.491H18.321V44.014a.249.249,0,0,1,.249-.249H32a.249.249,0,0,1,.249.249v1.235h-7.34a.746.746,0,0,0,0,1.491h8.843a.249.249,0,0,1,.249.249Zm23.049,0H35.5V46.989a1.742,1.742,0,0,0-1.74-1.74h-.012V44.014A1.742,1.742,0,0,0,32,42.274H25.889V39.685H28.4a3.182,3.182,0,0,0,.916-6.23v-1.9a1.739,1.739,0,0,0,.843-1.488v-.64h3.2a1.244,1.244,0,0,0,1.157.793H36.7a1.244,1.244,0,0,0,1.157-.793h5.275a1.314,1.314,0,0,0,1.2.793H57.054V49.414Z" transform="translate(-15.078 0)"/>
        <path id="Trazado_1032097" data-name="Trazado 1032097" d="M202.872,54.329a7.722,7.722,0,1,0,7.722-7.722A7.731,7.731,0,0,0,202.872,54.329Zm13.953,0a6.231,6.231,0,1,1-6.231-6.231A6.238,6.238,0,0,1,216.825,54.329Z" transform="translate(-184.201 -41.973)"/>
        <path id="Trazado_1032098" data-name="Trazado 1032098" d="M247.616,102.639a.746.746,0,1,0-1.055,1.055l2.294,2.294a.746.746,0,0,0,1.055,0l3.555-3.555a.746.746,0,1,0-1.055-1.054l-3.028,3.028Z" transform="translate(-223.35 -91.101)"/>
        <path id="Trazado_1032099" data-name="Trazado 1032099" d="M243.681,327.815a.746.746,0,0,0,.746.746H258.14a.746.746,0,0,0,0-1.491H244.427A.746.746,0,0,0,243.681,327.815Z" transform="translate(-220.952 -294.55)"/>
        <path id="Trazado_1032100" data-name="Trazado 1032100" d="M318.316,363.546h-7.07a.746.746,0,1,0,0,1.491h7.07a.746.746,0,1,0,0-1.491Z" transform="translate(-281.128 -327.4)"/>
        <path id="Trazado_1032101" data-name="Trazado 1032101" d="M244.427,365.037h4.058a.746.746,0,1,0,0-1.491h-4.058a.746.746,0,1,0,0,1.491Z" transform="translate(-220.952 -327.4)"/>
        <path id="Trazado_1032102" data-name="Trazado 1032102" d="M258.139,400.023H244.426a.746.746,0,1,0,0,1.491h13.714a.746.746,0,1,0,0-1.491Z" transform="translate(-220.951 -360.251)"/>
        <path id="Trazado_1032103" data-name="Trazado 1032103" d="M349.836,436.5h-3.59a.746.746,0,0,0,0,1.491h3.59a.746.746,0,1,0,0-1.491Z" transform="translate(-312.648 -393.101)"/>
        <path id="Trazado_1032104" data-name="Trazado 1032104" d="M252.263,436.5h-7.837a.746.746,0,0,0,0,1.491h7.837a.746.746,0,1,0,0-1.491Z" transform="translate(-220.952 -393.101)"/>
      </g>
    </g>
  </g>
</svg>
