<svg xmlns="http://www.w3.org/2000/svg" xmlns:xlink="http://www.w3.org/1999/xlink" width="108" height="108" viewBox="0 0 108 108">
  <defs>
    <filter id="Trazado_904820" x="0" y="0" width="108" height="108" filterUnits="userSpaceOnUse">
      <feOffset dy="3" input="SourceAlpha"/>
      <feGaussianBlur stdDeviation="3" result="blur"/>
      <feFlood flood-opacity="0.161"/>
      <feComposite operator="in" in2="blur"/>
      <feComposite in="SourceGraphic"/>
    </filter>
  </defs>
  <g id="Grupo_1174729" data-name="Grupo 1174729" transform="translate(-200.455 -755.67)">
    <g id="Grupo_1173787" data-name="Grupo 1173787" transform="translate(209.455 761.67)">
      <g id="Grupo_1171910" data-name="Grupo 1171910" transform="translate(0)">
        <g id="Grupo_1167341" data-name="Grupo 1167341">
          <g id="Grupo_1166792" data-name="Grupo 1166792">
            <g transform="matrix(1, 0, 0, 1, -9, -6)" filter="url(#Trazado_904820)">
              <g id="Trazado_904820-2" data-name="Trazado 904820" transform="translate(9 6)" fill="#f6f5f8">
                <path d="M 44.99999618530273 88.50003051757812 C 39.12687301635742 88.50003051757812 33.43022155761719 87.35010528564453 28.06829643249512 85.08219909667969 C 22.88852119445801 82.89134216308594 18.23629570007324 79.75461578369141 14.24084663391113 75.75916290283203 C 10.24540901184082 71.76371765136719 7.108683586120605 67.11150360107422 4.917821407318115 61.93172836303711 C 2.649921178817749 56.56978988647461 1.499996185302734 50.87313842773438 1.499996185302734 45.00001525878906 C 1.499996185302734 39.12689208984375 2.649921178817749 33.43024063110352 4.917821407318115 28.06831550598145 C 7.108683586120605 22.88854026794434 10.24540901184082 18.23631477355957 14.24084663391113 14.24086570739746 C 18.23629570007324 10.24541568756104 22.88852119445801 7.10869026184082 28.06829643249512 4.917840480804443 C 33.43022155761719 2.649927854537964 39.12687301635742 1.50000274181366 44.99999618530273 1.50000274181366 C 50.87311935424805 1.50000274181366 56.56977081298828 2.649927854537964 61.93169784545898 4.917840480804443 C 67.11147308349609 7.10869026184082 71.76369476318359 10.24541568756104 75.75914764404297 14.24086570739746 C 79.75458526611328 18.23631477355957 82.89131164550781 22.88854026794434 85.08216857910156 28.06831550598145 C 87.35007476806641 33.43024063110352 88.5 39.12689208984375 88.5 45.00001525878906 C 88.5 50.87313842773438 87.35007476806641 56.56978988647461 85.08216857910156 61.93172836303711 C 82.89131164550781 67.11150360107422 79.75458526611328 71.76371765136719 75.75914764404297 75.75916290283203 C 71.76369476318359 79.75461578369141 67.11147308349609 82.89134216308594 61.93169784545898 85.08219909667969 C 56.56977081298828 87.35010528564453 50.87311935424805 88.50003051757812 44.99999618530273 88.50003051757812 Z" stroke="none"/>
                <path d="M 44.99999618530273 3 C 39.32870864868164 3 33.82865142822266 4.110061645507812 28.65262603759766 6.299346923828125 C 23.65165710449219 8.414573669433594 19.15968322753906 11.44334411621094 15.301513671875 15.301513671875 C 11.44333648681641 19.15968322753906 8.414566040039062 23.65165710449219 6.299339294433594 28.65262985229492 C 4.110054016113281 33.82867050170898 2.999992370605469 39.32872772216797 2.999992370605469 45.00001525878906 C 2.999992370605469 50.67130279541016 4.110054016113281 56.17136001586914 6.299339294433594 61.34738922119141 C 8.414566040039062 66.34837341308594 11.44333648681641 70.84033203125 15.301513671875 74.69850158691406 C 19.15968322753906 78.55668640136719 23.65165710449219 81.58545684814453 28.65262603759766 83.70068359375 C 33.82865142822266 85.88996887207031 39.32870864868164 87.00003051757812 44.99999618530273 87.00003051757812 C 50.67128372192383 87.00003051757812 56.17134094238281 85.88996887207031 61.34736633300781 83.70068359375 C 66.34834289550781 81.58545684814453 70.84030914306641 78.55668640136719 74.69847869873047 74.69850158691406 C 78.55665588378906 70.84033203125 81.58542633056641 66.34837341308594 83.70065307617188 61.34738922119141 C 85.88993835449219 56.17136001586914 87 50.67130279541016 87 45.00001525878906 C 87 39.32872772216797 85.88993835449219 33.82867050170898 83.70065307617188 28.65262985229492 C 81.58542633056641 23.65165710449219 78.55665588378906 19.15968322753906 74.69847869873047 15.301513671875 C 70.84030914306641 11.44334411621094 66.34834289550781 8.414573669433594 61.34736633300781 6.299346923828125 C 56.17134094238281 4.110061645507812 50.67128372192383 3 44.99999618530273 3 M 44.99999618530273 0 C 69.85281372070312 0 90 20.14718627929688 90 45.00001525878906 C 90 69.85282897949219 69.85281372070312 90.00003051757812 44.99999618530273 90.00003051757812 C 20.14717864990234 90.00003051757812 -7.62939453125e-06 69.85282897949219 -7.62939453125e-06 45.00001525878906 C -7.62939453125e-06 20.14718627929688 20.14717864990234 0 44.99999618530273 0 Z" stroke="none" fill="#453179"/>
              </g>
            </g>
          </g>
        </g>
      </g>
    </g>
    <g id="learning_3200615" transform="translate(222 771)">
      <g id="Grupo_1172346" data-name="Grupo 1172346">
        <g id="Grupo_1172336" data-name="Grupo 1172336">
          <path id="Trazado_1026333" data-name="Trazado 1026333" d="M57,32v8l-2.5.78a22.75,22.75,0,0,1-3.21,7.74l1.22,2.33-5.66,5.66-2.33-1.22a22.9,22.9,0,0,1-5.12,2.49h-.01A14.25,14.25,0,0,1,37.01,52H38a9,9,0,0,0,9-9V40h2a4,4,0,1,0,0-8H47V28h1a2.006,2.006,0,0,0,2-2V21.22l1.29,2.26a22.75,22.75,0,0,1,3.21,7.74Z" fill="#fcd770"/>
        </g>
        <g id="Grupo_1172337" data-name="Grupo 1172337">
          <path id="Trazado_1026334" data-name="Trazado 1026334" d="M26,52h.99a14.25,14.25,0,0,1-2.38,5.78H24.6a23.111,23.111,0,0,1-5.12-2.49l-2.33,1.22-5.66-5.66,1.22-2.33A22.75,22.75,0,0,1,9.5,40.78L7,40V32l2.5-.78a22.75,22.75,0,0,1,3.21-7.74L14,21.59V26a2.006,2.006,0,0,0,2,2h1v4H15a4,4,0,1,0,0,8h2v3A9,9,0,0,0,26,52Z" fill="#fcd770"/>
        </g>
        <g id="Grupo_1172338" data-name="Grupo 1172338">
          <path id="Trazado_1026335" data-name="Trazado 1026335" d="M51.83,33.17A4,4,0,0,1,49,40H47V32h2A4.025,4.025,0,0,1,51.83,33.17Z" fill="#f0d0b4"/>
        </g>
        <g id="Grupo_1172339" data-name="Grupo 1172339">
          <path id="Trazado_1026336" data-name="Trazado 1026336" d="M44,62H20l.89-.59a13.933,13.933,0,0,0,3.71-3.63h.01A14.25,14.25,0,0,0,26.99,52H37.01a14.25,14.25,0,0,0,2.38,5.78h.01a13.933,13.933,0,0,0,3.71,3.63Z" fill="#f0d0b4"/>
        </g>
        <g id="Grupo_1172340" data-name="Grupo 1172340">
          <path id="Trazado_1026337" data-name="Trazado 1026337" d="M37.01,52H26a9,9,0,0,1-9-9V28H28a4,4,0,1,0,8,0H47V43a9,9,0,0,1-9,9Z" fill="#f0d0b4"/>
        </g>
        <g id="Grupo_1172341" data-name="Grupo 1172341">
          <path id="Trazado_1026338" data-name="Trazado 1026338" d="M17,32v8H15a4,4,0,0,1,0-8Z" fill="#f0d0b4"/>
        </g>
        <g id="Grupo_1172342" data-name="Grupo 1172342">
          <path id="Trazado_1026339" data-name="Trazado 1026339" d="M14,8V26a2.006,2.006,0,0,0,2,2H28a4,4,0,1,0,8,0H48a2.006,2.006,0,0,0,2-2V8Z" fill="#5cd6b3"/>
        </g>
        <g id="Grupo_1172343" data-name="Grupo 1172343">
          <path id="Trazado_1026340" data-name="Trazado 1026340" d="M36,2a4,4,0,0,0-4,4,4,4,0,0,0-4-4H18V24H46V2Z" fill="#e6e9ed"/>
        </g>
        <g id="Grupo_1172344" data-name="Grupo 1172344">
          <path id="Trazado_1026341" data-name="Trazado 1026341" d="M36,6h6v6H36Z" fill="#ff826e"/>
        </g>
        <g id="Grupo_1172345" data-name="Grupo 1172345">
          <path id="Trazado_1026342" data-name="Trazado 1026342" d="M22,14h6v6H22Z" fill="#ff826e"/>
        </g>
      </g>
      <g id="Grupo_1172347" data-name="Grupo 1172347">
        <path id="Trazado_1026343" data-name="Trazado 1026343" d="M35,19h8v2H35Z"/>
        <path id="Trazado_1026344" data-name="Trazado 1026344" d="M35,15h8v2H35Z"/>
        <path id="Trazado_1026345" data-name="Trazado 1026345" d="M43,5H35v8h8Zm-2,6H37V7h4Z"/>
        <path id="Trazado_1026346" data-name="Trazado 1026346" d="M21,5h8V7H21Z"/>
        <path id="Trazado_1026347" data-name="Trazado 1026347" d="M21,9h8v2H21Z"/>
        <path id="Trazado_1026348" data-name="Trazado 1026348" d="M21,21h8V13H21Zm2-6h4v4H23Z"/>
        <path id="Trazado_1026349" data-name="Trazado 1026349" d="M44.3,61l-.636-.424a13.068,13.068,0,0,1-2.63-2.343,23.976,23.976,0,0,0,3.53-1.791l2.469,1.29,6.695-6.695-1.289-2.469a23.731,23.731,0,0,0,2.9-7L58,40.734V31.265l-2.652-.833a23.644,23.644,0,0,0-3.189-7.449L51,20.954V7H47V1H36a4.982,4.982,0,0,0-4,2.031A4.982,4.982,0,0,0,28,1H17V7H13V21.283l-1.128,1.652a23.781,23.781,0,0,0-3.22,7.5L6,31.266v9.469l2.653.832a23.758,23.758,0,0,0,2.9,7l-1.289,2.469,6.695,6.695,2.469-1.29a23.936,23.936,0,0,0,3.531,1.791,13.1,13.1,0,0,1-2.63,2.343L19.7,61H1v2H63V61ZM53.52,31.422l.121.572,2.359.74v6.531l-2.359.74-.121.572a21.794,21.794,0,0,1-3.068,7.4l-.319.489,1.147,2.2-4.619,4.617-2.2-1.147-.49.319A21.933,21.933,0,0,1,39.8,56.56a13.167,13.167,0,0,1-1.548-3.575A10,10,0,0,0,48,43V41h1a5,5,0,1,0,0-10H48V29a3,3,0,0,0,3-3V24.959a21.722,21.722,0,0,1,2.52,6.463ZM26,51a8.009,8.009,0,0,1-8-8V29h9.1a5,5,0,0,0,9.8,0H46V43a8.009,8.009,0,0,1-8,8ZM16,39H15a3,3,0,0,1,0-6h1Zm32-6h1a3,3,0,0,1,0,6H48ZM36,3h9V23H33V6A3,3,0,0,1,36,3ZM19,3h9a3,3,0,0,1,3,3V23H19ZM15,9h2V25H47V9h2V26a1,1,0,0,1-1,1H35v1a3,3,0,0,1-6,0V27H16a1,1,0,0,1-1-1Zm5.025,45.451-.49-.319-2.2,1.147L12.72,50.662l1.147-2.2-.319-.489a21.762,21.762,0,0,1-3.068-7.4l-.121-.572L8,39.266V32.735l2.359-.741.121-.572A21.721,21.721,0,0,1,13,24.957V26a3,3,0,0,0,3,3v2H15a5,5,0,0,0,0,10h1v2a10,10,0,0,0,9.748,9.987A13.158,13.158,0,0,1,24.2,56.561,21.936,21.936,0,0,1,20.025,54.451ZM27.79,53h8.42a15.194,15.194,0,0,0,4.76,8H23.03a15.194,15.194,0,0,0,4.76-8Z"/>
      </g>
    </g>
  </g>
</svg>
