<svg xmlns="http://www.w3.org/2000/svg" xmlns:xlink="http://www.w3.org/1999/xlink" width="400" height="396" viewBox="0 0 400 396">
  <defs>
    <clipPath id="clip-path">
      <rect id="Rect치ngulo_414762" data-name="Rect치ngulo 414762" width="400" height="396" transform="translate(1020 393)" fill="#fff" stroke="#707070" stroke-width="1"/>
    </clipPath>
    <filter id="Trazado_1032040" x="13.193" y="333.879" width="377.227" height="74.078" filterUnits="userSpaceOnUse">
      <feOffset dy="3" input="SourceAlpha"/>
      <feGaussianBlur stdDeviation="3" result="blur"/>
      <feFlood flood-opacity="0.161"/>
      <feComposite operator="in" in2="blur"/>
      <feComposite in="SourceGraphic"/>
    </filter>
    <clipPath id="clip-path-2">
      <rect id="Rect치ngulo_415113" data-name="Rect치ngulo 415113" width="329.049" height="404.402" fill="none"/>
    </clipPath>
  </defs>
  <g id="Enmascarar_grupo_1098732" data-name="Enmascarar grupo 1098732" transform="translate(-1020 -393)" clip-path="url(#clip-path)">
    <g id="Grupo_1174789" data-name="Grupo 1174789" transform="translate(1055.476 398.441)">
      <g transform="matrix(1, 0, 0, 1, -35.48, -5.44)" filter="url(#Trazado_1032040)">
        <path id="Trazado_1032040-2" data-name="Trazado 1032040" d="M-13.282,390.516l39.824-56.078H305.073l40.871,56.078H-13.282" transform="translate(35.48 5.44)" fill="#edda8e"/>
      </g>
      <g id="Grupo_1174789-2" data-name="Grupo 1174789" clip-path="url(#clip-path-2)">
        <path id="Trazado_1031962" data-name="Trazado 1031962" d="M329.049,189.616A164.525,164.525,0,1,1,164.525,25.091,164.525,164.525,0,0,1,329.049,189.616" transform="translate(0 1.53)" fill="#edda8e"/>
        <path id="Trazado_1031963" data-name="Trazado 1031963" d="M283.721,187.152a121.66,121.66,0,1,1-121.66-121.66,121.661,121.661,0,0,1,121.66,121.66" transform="translate(2.464 3.993)" fill="#fceb99"/>
        <path id="Trazado_1031965" data-name="Trazado 1031965" d="M121.284,158.29s-35.48-18.145-39.261-53.6S89.585,43,113.432,31.836c0,0-8.724.559-8.724-7.815s29.082-4.746,29.082-4.746,28.5-23.17,40.134-18.7,6.688,17.307,6.688,17.307,24.429-8.374,33.445,0-4.072,14.516-4.072,14.516,22.394.558,26.465,10.049-7.562,10.608-7.562,10.608,15.7,25.4,2.617,59.459-24.72,44.712-41.3,48.619-68.053-3.955-68.925-2.839" transform="translate(4.958 0)" fill="#3f243a"/>
        <path id="Trazado_1031966" data-name="Trazado 1031966" d="M97.585,283.6a46.4,46.4,0,0,0-44.173-6.178c-25.721,9.37-42.049,37.518-21.762,58.519S107,369.542,107,369.542Z" transform="translate(1.374 16.733)" fill="#3f243a"/>
        <path id="Trazado_1031967" data-name="Trazado 1031967" d="M114.337,337.634c-8.043-11.3-34.065-5.856-43.585,3.22s-9.12,22.637,6.526,26.738,35.8-.333,43.074-12.861c4.954-8.536-6.015-17.1-6.015-17.1" transform="translate(3.927 20.2)" fill="#5f4b75"/>
        <path id="Trazado_1031968" data-name="Trazado 1031968" d="M219.671,283.6a46.4,46.4,0,0,1,44.173-6.178c25.721,9.37,42.049,37.518,21.762,58.519s-75.354,33.6-75.354,33.6Z" transform="translate(12.82 16.733)" fill="#3f243a"/>
        <path id="Trazado_1031969" data-name="Trazado 1031969" d="M201.354,337.634c8.043-11.3,34.065-5.856,43.585,3.22s9.12,22.637-6.526,26.738-35.8-.333-43.074-12.861c-4.954-8.536,6.015-17.1,6.015-17.1" transform="translate(11.833 20.2)" fill="#5f4b75"/>
        <path id="Trazado_1031970" data-name="Trazado 1031970" d="M235.223,314.8c9.567-3.207,23.89-24.816,23.89-50.232,0-8.9-9.529-54.336-9.529-54.336l-32.05,15.1s11.63,42.913,11.63,50.269-4.8,18.133-4.8,18.133Z" transform="translate(13.264 12.819)" fill="#e2a782"/>
        <path id="Trazado_1031971" data-name="Trazado 1031971" d="M67.676,211.22s-6.215,41.945-1.706,58.8,40.345-12.994,38.889-18.21,8-31.836,2.573-34.639-39.756-5.954-39.756-5.954" transform="translate(3.923 12.879)" fill="#e2a782"/>
        <path id="Trazado_1031972" data-name="Trazado 1031972" d="M99.457,230.7c-6.305,4.2-28.373,21.367-32.575,30.825S72.136,292,86.147,291.646s32.575-38.53,32.225-39.581S99.457,230.7,99.457,230.7" transform="translate(4.017 14.067)" fill="#e2a782"/>
        <path id="Trazado_1031973" data-name="Trazado 1031973" d="M160.62,147.173c-37.461,1.17-56.044,10.683-66.2,21.191-7.262,7.514-31.366,45.224-32.066,50.478s24.412,20.8,31.525,20.666l.191,81.05s88.269,20.666,131.352-2.1l.509-78.948s39.816-12.735,38.108-17.07c0,0-26.219-45.342-41.069-58.276-10.858-9.458-51.14-17.339-62.348-16.988" transform="translate(3.801 8.973)" fill="#fff"/>
        <path id="Trazado_1031974" data-name="Trazado 1031974" d="M110.237,225.024c-9.175,1.127-16.21,6.224-17.658,13.951s17.175,7.62,17.014,6.976,6.922-11.268,6.118-12.717-5.474-8.21-5.474-8.21" transform="translate(5.64 13.721)" fill="#e2a782"/>
        <path id="Trazado_1031975" data-name="Trazado 1031975" d="M156.524,305.118H89.838a3.05,3.05,0,0,1-3.042-3.041V235.39a3.05,3.05,0,0,1,3.042-3.041h66.687a3.05,3.05,0,0,1,3.041,3.041v66.688a3.05,3.05,0,0,1-3.041,3.041" transform="translate(5.293 14.168)" fill="#ca445f"/>
        <path id="Trazado_1031976" data-name="Trazado 1031976" d="M225.111,305.118H158.425a3.05,3.05,0,0,1-3.042-3.041V235.39a3.05,3.05,0,0,1,3.042-3.041h66.687a3.05,3.05,0,0,1,3.041,3.041v66.688a3.05,3.05,0,0,1-3.041,3.041" transform="translate(9.475 14.168)" fill="#5990cd"/>
        <path id="Trazado_1031977" data-name="Trazado 1031977" d="M156.524,373.705H89.838a3.05,3.05,0,0,1-3.042-3.041V303.977a3.05,3.05,0,0,1,3.042-3.041h66.687a3.05,3.05,0,0,1,3.041,3.041v66.688a3.05,3.05,0,0,1-3.041,3.041" transform="translate(5.293 18.35)" fill="#73b8c0"/>
        <path id="Trazado_1031978" data-name="Trazado 1031978" d="M225.111,373.705H158.425a3.05,3.05,0,0,1-3.042-3.041V303.977a3.05,3.05,0,0,1,3.042-3.041h66.687a3.05,3.05,0,0,1,3.041,3.041v66.688a3.05,3.05,0,0,1-3.041,3.041" transform="translate(9.475 18.35)" fill="#ffca0c"/>
        <path id="Trazado_1031979" data-name="Trazado 1031979" d="M154.378,300.936H122.933c6.171,22.579,34.429,31.264,34.429,31.264v-28.28a2.992,2.992,0,0,0-2.983-2.983" transform="translate(7.496 18.35)" fill="#fff"/>
        <path id="Trazado_1031980" data-name="Trazado 1031980" d="M121.866,295.8A33.289,33.289,0,0,0,123,302.733h31.445a2.993,2.993,0,0,0,2.983-2.985v-19.4c-5.46-11.275-37.4-16.985-35.565,15.459" transform="translate(7.426 16.553)" fill="#fff"/>
        <path id="Trazado_1031981" data-name="Trazado 1031981" d="M189.813,300.936H158.367a2.992,2.992,0,0,0-2.983,2.983V332.2s28.257-8.685,34.429-31.264" transform="translate(9.475 18.35)" fill="#fff"/>
        <path id="Trazado_1031982" data-name="Trazado 1031982" d="M158.367,302.733h31.445a33.348,33.348,0,0,0,1.136-6.929c1.835-32.445-30.105-26.734-35.565-15.459v19.4a2.993,2.993,0,0,0,2.983,2.985" transform="translate(9.475 16.553)" fill="#fff"/>
        <path id="Trazado_1031983" data-name="Trazado 1031983" d="M86.54,247.316c-1.636.552-2.576,2.158-3.632,3.463-1.15,1.42-2.3,2.84-3.418,4.284q-3.388,4.37-6.672,8.819c-.648.88-2.783,2.974-1.946,4.2.814,1.184,2.3-.922,2.715-1.484,2.2-3,4.347-6.047,6.574-9.031q1.875-2.511,3.755-5.017c1.13-1.5,2.792-3.029,3-4.944a.3.3,0,0,0-.373-.284" transform="translate(4.31 15.08)" fill="#d98761"/>
        <path id="Trazado_1031984" data-name="Trazado 1031984" d="M242.763,256.975a4.965,4.965,0,0,0-2.916.228,15,15,0,0,0-2.8,1.495,10.981,10.981,0,0,0-4.1,4.566c-.156.366.266.787.59.456a24.559,24.559,0,0,1,4.255-3.748,14.525,14.525,0,0,1,2.473-1.256,11.125,11.125,0,0,0,1.365-.606c.412-.229.79-.469,1.186-.726a.227.227,0,0,0-.053-.41" transform="translate(14.202 15.662)" fill="#d98761"/>
        <path id="Trazado_1031985" data-name="Trazado 1031985" d="M150.772,150.284c-.223.028-.451.051-.672.08s-.423.059-.637.087a69.307,69.307,0,0,0-21.435,6.154c-.641.316,6.619,9.489,7.35,10.246a35.367,35.367,0,0,0,11.213,7.956c16.5,7.179,34.219-4.112,39.447-19.172-9.282-3.41-19.279-5.7-24.643-6.036-.146-.008-.279-.013-.418-.018-.177-.008-.359-.018-.524-.021-.315-.006-.609,0-.874.007-.825.035-1.636.079-2.436.128-2.2.14-4.32.341-6.372.589" transform="translate(7.804 9.119)" fill="#d98761"/>
        <path id="Trazado_1031986" data-name="Trazado 1031986" d="M209.5,100.787s13.307-.823,13.655,12.048c.4,14.859-15.223,13.87-15.223,13.87s-7.678,46.482-48.008,46.482c-41.877,0-51.518-46.482-51.518-46.482s-15.624.989-15.222-13.87c.348-12.872,13.655-12.048,13.655-12.048S122.6,94.9,127.317,87.435s12.181-7.072,16.9-16.5c0,0,12.966,10.216,21.611,11.789s9.824-3.93,9.824-3.93,9.036,11.789,16.895,13.36,7.466-6.287,7.466-6.287,7.065,7.042,9.486,14.924" transform="translate(5.681 4.325)" fill="#e2a782"/>
        <path id="Trazado_1031987" data-name="Trazado 1031987" d="M106.862,114.168a13.875,13.875,0,0,0-.815-3.113,10.3,10.3,0,0,0-1.615-2.966,5.878,5.878,0,0,0-2.806-1.938,4.06,4.06,0,0,0-1.856-.184,3.4,3.4,0,0,0-1.426.681c-.484.34-.37,1.263.33,1.216.067,0,.5.025.343-.015.207.054.411.135.621.188a7.834,7.834,0,0,1,.923.273A4.249,4.249,0,0,1,102.1,109.5a8.231,8.231,0,0,1,1.423,3,3.191,3.191,0,0,0-1.85.4c-2.26,1.334-1.46,4.937.982,5.519a3.52,3.52,0,0,0,3.251-.99,3.951,3.951,0,0,0,.957-3.259" transform="translate(5.979 6.459)" fill="#d98761"/>
        <path id="Trazado_1031988" data-name="Trazado 1031988" d="M208.441,113.031a2.5,2.5,0,0,0-1.616.036c-.062.023-.12.055-.181.081V113.1a7.142,7.142,0,0,1,2.007-4.868c.238-.242.5-.457.716-.719a2.125,2.125,0,0,0,.414-.974.556.556,0,0,0-.379-.667c-1.608-.491-3.041,1.4-3.821,2.572a9.441,9.441,0,0,0-1.525,4.583c-.117,1.739.283,3.85,1.923,4.788a2.8,2.8,0,0,0,4.3-2.227,2.681,2.681,0,0,0-1.833-2.552" transform="translate(12.441 6.45)" fill="#d98761"/>
        <path id="Trazado_1031989" data-name="Trazado 1031989" d="M228.574,100.483c-3.447.228-6.971.412-10.424.42-3.009.005-5.515-.44-7-3.3-1.272-2.444-1.976-5.04-3.658-7.277-1.1-1.464-3.148-4.039-5.258-4.364a1.413,1.413,0,0,0-.866-.821,1.347,1.347,0,0,0-1.3.346c-1.031.934-.563,2.077-1.08,3.177s-2.622,1.083-3.633,1.067a20.339,20.339,0,0,1-8.112-2.154,27.911,27.911,0,0,1-6.49-4.2,33.859,33.859,0,0,1-2.852-2.9c-.084-.093-.166-.194-.247-.293.477-1.3-.086-2.344-.53-3.768a.3.3,0,0,0-.533-.071c-.343.695-.974.867-1.527,1.285a2.641,2.641,0,0,0-.373.356,1.027,1.027,0,0,0-.571.754,5.1,5.1,0,0,1-.327.417,4.829,4.829,0,0,1-3.8,1.667,28.026,28.026,0,0,1-9.376-2.092,42.2,42.2,0,0,1-8.045-4.075,43,43,0,0,1-3.839-2.726c-.807-.642-1.57-1.376-2.424-1.954a3.41,3.41,0,0,0-.273-1.284.794.794,0,0,0-1.085-.283c-1.757,1.308-2.3,3.79-3.692,5.483a27.692,27.692,0,0,1-5.375,4.815c-4.267,3.038-8.7,5.672-12.022,9.811a58.339,58.339,0,0,1-4.884,5.876,15.178,15.178,0,0,1-6.213,3.495c-4.421,1.335-9.086,1.42-13.574,2.429-4.856,1.095-10.226,3.749-12.53,8.436-.546,1.113.856,2.38,1.8,1.387,1.769-1.865,3.259-3.7,5.55-4.989a22.284,22.284,0,0,1,6.653-2.214c4.645-.917,9.5-1.021,13.984-2.639,4.818-1.737,7.7-5.195,10.768-9.112,3.5-4.474,8.109-7.151,12.615-10.463a28.826,28.826,0,0,0,5.753-5.354,21.162,21.162,0,0,0,1.538-2.177c.531.568,1.109,1.094,1.649,1.593a38,38,0,0,0,4.385,3.484,39.066,39.066,0,0,0,10.442,4.9c3.516,1.088,8.033,2.344,11.593.91A8.7,8.7,0,0,0,175.9,82.5c.182.22.36.428.512.612a27.085,27.085,0,0,0,3.451,3.446,28.77,28.77,0,0,0,8.952,5.122c3.369,1.184,7.576,2.1,10.965.512a4.27,4.27,0,0,0,2.452-3.263c.353.315.716.621,1.033.952a16.683,16.683,0,0,1,2.722,3.742c1.388,2.629,1.665,5.772,3.687,8.069,2.153,2.444,5.64,2.983,8.732,2.889a19.1,19.1,0,0,0,10.387-3.271c.34-.224.244-.854-.223-.823" transform="translate(5.276 4.165)" fill="#2e1829"/>
        <path id="Trazado_1031990" data-name="Trazado 1031990" d="M134.691,55.352a.363.363,0,0,0-.6-.157c-1.6,1.3-2.5,3.312-3.362,5.118a34.552,34.552,0,0,1-3.392,5.61,46.752,46.752,0,0,1-9.584,9.43A88.485,88.485,0,0,1,105.865,82.5c-4.42,2.343-8.417,5.38-11,9.766a.876.876,0,0,0,1.369,1.057c2.133-1.838,3.832-4.072,6.158-5.707a45.1,45.1,0,0,1,6.921-3.642,64.756,64.756,0,0,0,11.81-7.145,46.578,46.578,0,0,0,9.463-9.554c2.231-3.066,5.657-7.926,4.1-11.928" transform="translate(5.777 3.36)" fill="#2e1829"/>
        <path id="Trazado_1031991" data-name="Trazado 1031991" d="M128.383,42.22c-.019-.3-.451-.472-.609-.166-1.742,3.381-3.536,6.849-5.584,10.073a47.952,47.952,0,0,1-7.91,9.242A115.09,115.09,0,0,1,104.2,69.448c-1.675,1.242-3.353,2.486-5.048,3.7a27.523,27.523,0,0,1-2.763,1.74,8.772,8.772,0,0,0-2.382,1.373.52.52,0,0,0,.1.81c1.612.71,3.673-.31,5.135-1.052A59.218,59.218,0,0,0,105.2,72.3a100.8,100.8,0,0,0,11.141-8.458c6.1-5.431,12.587-12.949,12.042-21.62" transform="translate(5.724 2.554)" fill="#2e1829"/>
        <path id="Trazado_1031992" data-name="Trazado 1031992" d="M120.947,33.278c-.924,1.346-2.023,2.588-2.957,3.943s-1.74,2.762-2.648,4.121a74.18,74.18,0,0,1-6.136,7.819c-2.145,2.431-4.441,4.708-6.721,7.009-1.169,1.179-2.357,2.336-3.516,3.526-.576.592-1.159,1.179-1.734,1.772-.41.422-1.159,1.5-1.84,1.417-.364-.045-.491.45-.28.677.89.953,1.937.63,2.925-.06a54.767,54.767,0,0,0,4.35-3.55c2.825-2.452,5.547-5.014,8.129-7.723a71.054,71.054,0,0,0,6.975-8.5,28.594,28.594,0,0,0,2.778-4.61,23.352,23.352,0,0,0,1.472-5.508.438.438,0,0,0-.8-.336" transform="translate(5.794 2.017)" fill="#2e1829"/>
        <path id="Trazado_1031993" data-name="Trazado 1031993" d="M221.156,83.292a48.943,48.943,0,0,1-7.252-1.555,28.122,28.122,0,0,1-6.421-2.356,23.044,23.044,0,0,1-9.781-9.964,1.592,1.592,0,0,0-2.489-.321c-3.746,4.789-10.555,3.612-15.071.689a42.12,42.12,0,0,1-7.129-6.328q-3.944-4.073-7.874-8.16a1.432,1.432,0,0,0-2.372.627c-1.284,4.954-5.983,9.746-11.133,6.251-2.228-1.511-3.851-3.818-5.486-5.912-2.094-2.683-4.1-5.491-6.425-7.975a.865.865,0,0,0-1.354,1.044c2.158,3.537,4.823,6.833,7.324,10.134,1.82,2.4,3.871,4.874,6.742,6.028,5.445,2.19,10.129-1.791,12.261-6.555,2.387,2.508,4.765,5.024,7.178,7.506a36.672,36.672,0,0,0,8.529,6.981c4.765,2.579,11.324,3.01,15.584-.585a26.612,26.612,0,0,0,10.063,9.441,23.47,23.47,0,0,0,7.443,2.654,16.75,16.75,0,0,0,7.763-.905.378.378,0,0,0-.1-.74" transform="translate(8.43 2.929)" fill="#2e1829"/>
        <path id="Trazado_1031994" data-name="Trazado 1031994" d="M221.167,71.459a27.8,27.8,0,0,0-5.834-3.5,42.16,42.16,0,0,1-6.383-3.9,36.208,36.208,0,0,1-9.711-11.169,1.543,1.543,0,0,0-2.088-.547c-7.3,4.594-17.968,2.232-22.539-5.135-1.113-1.793-2.21-3.859-4.092-4.97a4.161,4.161,0,0,0-5.324.928c-1.847,2-3.456,3.7-6.383,3.868a8.6,8.6,0,0,1-6.054-2.308c-3.725-3.22-5.682-8.086-9.605-11.081-.849-.647-1.623.666-1.057,1.37,5.067,6.283,11.029,18.59,21.093,13.535a9.9,9.9,0,0,0,2.919-2.259c.762-.857,1.52-2.353,2.86-1.78,2.034.87,3.026,3.943,4.283,5.608a19.757,19.757,0,0,0,24.1,5.588,40.41,40.41,0,0,0,9.632,10.9,36.554,36.554,0,0,0,6.658,4.248,18.876,18.876,0,0,0,3.54,1.371,9,9,0,0,0,3.752.119.527.527,0,0,0,.231-.877" transform="translate(8.653 2.041)" fill="#2e1829"/>
        <path id="Trazado_1031995" data-name="Trazado 1031995" d="M220.118,53.651c-2.322-1.25-4.858-2.053-7.227-3.2a24.221,24.221,0,0,1-6.493-4.578,21.806,21.806,0,0,1-2.536-3,11.041,11.041,0,0,0-2.177-2.849c-2.214-1.623-4.981.4-7.419.406-5.714.014-9.7-4.1-12.851-8.335-1.645-2.211-3.954-2.066-6.144-.732-2.535,1.544-4.727,2.538-7.775,1.927a14.758,14.758,0,0,1-8.174-5.185,32.472,32.472,0,0,1-2.926-4.09,12.344,12.344,0,0,0-2.7-3.652.527.527,0,0,0-.79.453c.224,2.643,2.421,5.457,3.953,7.53a19.828,19.828,0,0,0,6.155,5.729,13.756,13.756,0,0,0,7.446,1.816,10.593,10.593,0,0,0,3.613-.871c1.223-.546,2.7-2.13,4.07-2.1,1.246.025,2.153,2.165,2.883,3.081a20.388,20.388,0,0,0,3.01,3.056,18.12,18.12,0,0,0,6.75,3.6,13.291,13.291,0,0,0,7.667-.227c.868-.286,1.422-.5,2.012.31.406.555.729,1.179,1.121,1.745a27.146,27.146,0,0,0,2.635,3.235c3.806,3.988,9.985,8.175,15.778,6.88a.52.52,0,0,0,.123-.941" transform="translate(9.323 1.236)" fill="#2e1829"/>
        <path id="Trazado_1031996" data-name="Trazado 1031996" d="M113.3,198.414c-1.741,1.344-2.5,4.2-3.344,6.177-.952,2.232-1.831,4.491-2.655,6.775q-1.268,3.516-2.363,7.093a50.078,50.078,0,0,0-2.02,7.464,1.235,1.235,0,0,0,2.379.657c.819-2.237,1.263-4.664,1.941-6.953q1.063-3.582,2.3-7.112c.8-2.269,1.651-4.518,2.528-6.756q.676-1.727,1.4-3.439a7.563,7.563,0,0,0,.956-3.265c-.027-.5-.638-1.013-1.118-.642" transform="translate(6.275 12.091)" fill="#dce5eb"/>
        <path id="Trazado_1031997" data-name="Trazado 1031997" d="M216.249,231.838A91.208,91.208,0,0,0,211,214.111c-.619-1.527-6.021-14.536-7.869-13.089l-.087.068a.841.841,0,0,0-.265.792,13.6,13.6,0,0,0,1.413,3.636q.891,1.9,1.7,3.839c1.1,2.62,2.14,5.269,3.036,7.968.882,2.653,1.707,5.326,2.408,8.033q.527,2.032.971,4.084c.147.684.285,1.371.422,2.056.065.345.133.688.2,1.03.052.156.084.254.108.324a.907.907,0,0,0,.831.872l-.229-.134a1.709,1.709,0,0,0,2.6-1.751" transform="translate(12.364 12.251)" fill="#dce5eb"/>
        <path id="Trazado_1031998" data-name="Trazado 1031998" d="M86.779,290.626c-5.818-2.353-12.349-3.29-18.541-4.076a40.681,40.681,0,0,0-9.671-.177c-2.714.3-6.336.765-8.486,2.6-.352.3-.046.835.354.856a18.367,18.367,0,0,0,4.154-.625,42.834,42.834,0,0,1,4.783-.592,40.423,40.423,0,0,1,9.329.535c5.884.966,12.023,2.051,17.556,4.334,2,.824,2.37-2.9.521-2.853" transform="translate(3.044 17.449)" fill="#2e1829"/>
        <path id="Trazado_1031999" data-name="Trazado 1031999" d="M267.131,289.263c-1.067-.983-2.628-.853-3.952-.647-1.472.229-2.946.506-4.391.868s-2.884.777-4.3,1.237a15.307,15.307,0,0,0-4.2,1.857c-.636.457-.519,1.743.447,1.653a25.185,25.185,0,0,0,4.433-1.048q2.08-.589,4.2-1.041c1.409-.3,2.819-.6,4.242-.835,1.306-.215,2.768-.5,3.578-1.664a.315.315,0,0,0-.049-.38" transform="translate(15.237 17.59)" fill="#2e1829"/>
        <path id="Trazado_1032000" data-name="Trazado 1032000" d="M155.677,241.942a1,1,0,0,1-.309-.174,1.114,1.114,0,0,0-1.324-.172c-.073.049-.129.108-.2.16a6.547,6.547,0,0,1-2.766-1.424c-1.059-.723-2.106-1.467-3.157-2.2a68.333,68.333,0,0,0-6.278-4.36,3.061,3.061,0,0,0-4.652,2.727c.025,2.295,2.4,3.865,3.843,5.331.272.276.529.564.8.845a39.671,39.671,0,0,0-9.307-7.05c-1.162-.574-2.979.093-2.837,1.628a13.34,13.34,0,0,0,2.575,6.384c-1.544-1.578-3.1-3.139-4.6-4.756-1.032-1.111-3.238.039-2.656,1.546,1.046,2.708,1.974,5.55,3.108,8.271-.307-.259-.608-.526-.9-.807a73.026,73.026,0,0,0-5.658-5.53c-2.433-1.877-5.461-2.338-8.025-3.947a14.566,14.566,0,0,1-3.177-2.744c-.839-.956-1.654-2.575-2.988-2.867a1.021,1.021,0,0,0-1.132.462c-1.278,2.7,2.506,6.1,4.4,7.521a17.152,17.152,0,0,0,4.069,2.229,18.238,18.238,0,0,1,4.421,2.075c2.153,1.6,3.762,3.822,5.7,5.658,1.823,1.726,5.01,4.35,7.651,3.185a1.733,1.733,0,0,0,.64-2.406c.047.01-.005-.08-.158-.272-.029-.037-.058-.073-.09-.108l-.028-.035-.065-.051a1.463,1.463,0,0,0-.471-.309,1.752,1.752,0,0,0-.167-.066c-.033-.01-.057-.03-.091-.037l.024.021c-.012,0-.021,0-.032-.005-.249-1-.546-1.984-.88-2.967.628.72,1.245,1.448,1.887,2.155,1.043,1.15,2.137,2.838,3.671,3.363a2.914,2.914,0,0,0,3.617-1.34c1.152-2.415-1.611-5.778-2.977-7.585-.46-.61-.962-1.238-1.45-1.885,2,1.657,3.857,3.5,5.775,5.268,1.638,1.512,3.71,3.878,6.2,3.357a3.136,3.136,0,0,0,2-4.9,37.107,37.107,0,0,0-4.625-5.417q1.389.964,2.778,1.928c2.049,1.423,4.234,3.177,6.89,2.84,1.672-.212,2.825-2.578.959-3.537" transform="translate(6.45 14.194)" fill="#993829"/>
        <path id="Trazado_1032001" data-name="Trazado 1032001" d="M113.144,239.772c8.417,3.394,13.2,10.72,14.488,12.652s4.675,1.211,4.186-.805-3.863-10.142-7.4-13.361c0,0,8.947,6.878,11.429,11.429,1.932,3.542,5.312,4.025,4.991.484S136,239.063,131.5,235.038c0,0,11.59,8.371,14.649,13.683,1.56,2.709,4.773,1.452,4.668-.965-.161-3.7-10.3-13.683-10.3-13.683s11.07,6.786,12.557,9.015c1.609,2.415,5.151,2.254,3.7-1.449s-4.184-9.175-14.326-13.2-29.472-4.664-33-3.38c-5.312,1.931-6.117,10.754,3.7,14.714" transform="translate(6.437 13.687)" fill="#e2a782"/>
        <path id="Trazado_1032002" data-name="Trazado 1032002" d="M110.993,237.63c-.137-.176-.245-.367-.4-.537-.294-.334-.6-.659-.893-.993a11.575,11.575,0,0,1-1.5-2.05,11.409,11.409,0,0,1-.941-2.372,13.367,13.367,0,0,1-.592-2.62.2.2,0,0,0-.387-.052,7.133,7.133,0,0,0-.309,2.846,8.995,8.995,0,0,0,.921,2.885,8.737,8.737,0,0,0,1.737,2.44,5.5,5.5,0,0,0,1.165.852,2.834,2.834,0,0,0,.692.247c.223.056.4.162.625.077a.243.243,0,0,0,.162-.286c-.029-.206-.155-.279-.279-.437" transform="translate(6.459 13.955)" fill="#d98761"/>
        <path id="Trazado_1032003" data-name="Trazado 1032003" d="M190.81,301.137q-7.66.054-15.319.071l-7.529.014c-1.212,0-2.423.005-3.635.017a6.944,6.944,0,0,0-3.279.351,3.986,3.986,0,0,0-1.629.382c-.089.034-.171.083-.259.12a.391.391,0,0,0-.144-.067l-.047-.012c.034.016.036.016,0,0a.363.363,0,0,0-.136-.032.23.23,0,0,0-.024-.055.469.469,0,0,0-.024-.086.6.6,0,0,0-.17-.388c-.024-.023-.049-.048-.072-.073l-.079-.087a.958.958,0,0,1-.075-.121c-.017-.035-.036-.069-.055-.1a.856.856,0,0,1-.042-.155l-.058-.138a.434.434,0,0,0-.135-.146c.1-3.431,0-6.876-.018-10.308-.018-3.495.089-7.018-.18-10.5a.513.513,0,0,0-1.025,0c-.27,3.485-.162,7.009-.18,10.5-.016,3.311-.106,6.633-.024,9.945a.851.851,0,0,0-.167.08,4.222,4.222,0,0,0-.869.822c-.066.063-.135.122-.2.18a.232.232,0,0,0-.028.025c-.029.021-.064.041-.086.056a4.335,4.335,0,0,1-.5.294l-.109.053c-.011,0-.151.059-.08.035l-.055.019-.015.005a.76.76,0,0,0-.714-.435c-6.956-.005-13.935-.134-20.895.017l-9.7.008a.83.83,0,0,0,0,1.659l9.7.007c6.438.14,12.892.043,19.329.023a.727.727,0,0,0,.418.349,3.254,3.254,0,0,0,1.393.162,5.236,5.236,0,0,0,.921-.194c.037.017.123.059.051.018s.064.032.08.041c.037.019.074.04.11.062.019.011.112.059.169.1,0,0,0,.012.046.046l.1.077c-.044-.034-.044-.033,0,0,.065.057.129.112.19.174s.117.126.173.191l0,0c.029.041.057.082.085.124.048.072.091.146.132.223.02.038.038.077.057.116l.01.015s0,0,0,0c.041.117.071.237.1.356-.157.629-.208,1.6.467,1.895l.016,0c-.151,3.816-.092,7.658-.108,11.476-.017,4.443-.123,8.9-.015,13.344.029,1.156,1.387,1.159,1.415,0,.108-4.441,0-8.9-.015-13.344s.089-8.916-.18-13.344a.733.733,0,0,0-.065-.215c.054-.092.108-.182.169-.271.019-.028.028-.04.031-.047a.477.477,0,0,0,.034-.036c.046-.053.09-.105.138-.156a3.578,3.578,0,0,1,.327-.308q.054-.045,0,0l.062-.045a.59.59,0,0,0,.449-.28c.068-.038.135-.081.2-.116a4.757,4.757,0,0,1,.755-.312,4.413,4.413,0,0,0,1.487-.6,9.572,9.572,0,0,0,2.835.163c1.212.011,2.423.014,3.635.017l7.529.014q7.661.014,15.319.071a.879.879,0,0,0,0-1.757" transform="translate(7.467 17.032)" fill="#dce5eb"/>
        <path id="Trazado_1032004" data-name="Trazado 1032004" d="M225.911,308.355c-.111-.8-1.281-.91-1.877-.773a9.36,9.36,0,0,0-2.659,1.274,15.749,15.749,0,0,0-2.348,1.8c-1.39,1.288-2.639,3.136-4.539,3.7-.525.155-2.167.424-1.932-.514a10,10,0,0,1,1.53-2.8,20.706,20.706,0,0,1,2.1-2.653q.559-.6,1.161-1.158c.407-.379.907-.727.993-1.311a.82.82,0,0,0-.109-.567,12.012,12.012,0,0,1,1.979-.3c.772-.046,3.312.255,2.948-1.233-.242-.987-1.486-1.057-2.571-.961a4.818,4.818,0,0,0,.686-1.243.273.273,0,0,0-.3-.395,1.467,1.467,0,0,1-.773-.166,2.889,2.889,0,0,0-1.257-.013,16.211,16.211,0,0,0-2.541.634,19.446,19.446,0,0,0-4.778,2.645c-1.421,1.032-2.721,2.319-4.216,3.234a2.036,2.036,0,0,1-2.249.2c-.262-.142-1.213-.684-1.465-.248-1.038,1.792,1.845,2.793,3.17,2.647a7.668,7.668,0,0,0,3.735-1.92c.162-.075.321-.147.473-.21,1.491-.616,2.973-1.26,4.48-1.837.089-.035.18-.064.271-.1-.167.168-.324.332-.468.473a22.5,22.5,0,0,0-1.953,2.178,23.869,23.869,0,0,0-1.741,2.509,6.788,6.788,0,0,0-1.121,2.623c-.243,2.225,2.154,3.089,3.986,2.821,2.09-.306,3.688-1.713,5.115-3.165a16.893,16.893,0,0,1,3.3-2.692c-.073.141-.147.283-.223.421q-.563,1.025-1.119,2.052c-.758,1.4-1.531,2.789-2.253,4.207a2.757,2.757,0,0,0-.395,1.912,1.522,1.522,0,0,0,1.628,1.11,10,10,0,0,0,2.157-.487,4.124,4.124,0,0,0,1.072-.493c.019-.011.04-.02.058-.031a1.667,1.667,0,0,0,1.044-1.274,1,1,0,0,0-1.13-.978,1.762,1.762,0,0,0-.852.477l.206-.158a3.77,3.77,0,0,1-.751.437c-.051.018-.1.039-.152.055a5.076,5.076,0,0,0-.507.2l.225-.094a3.476,3.476,0,0,0-.376.154,1.336,1.336,0,0,0-.109.083c-.1.021-.2.04-.3.059.293-.513.591-1.024.876-1.543l1.833-3.325c.62-1.125,1.336-2.252,1.845-3.43a1.2,1.2,0,0,0-.007-1.027,1.069,1.069,0,0,0,.216-.8" transform="translate(12.407 18.352)" fill="#e09b28"/>
        <path id="Trazado_1032005" data-name="Trazado 1032005" d="M169.8,262.123a10.151,10.151,0,0,0-4.959-6.816c-3.081-1.584-6.057-.21-8.9,1.2-.212.106-.453.227-.7.349-.049.023-.1.046-.144.07-1.048.5-2.318.98-3.3.5a.913.913,0,0,0-.922,1.576,4.28,4.28,0,0,0,1.429.624,7.485,7.485,0,0,0-.752,1.74,6.562,6.562,0,0,0,.191,4.8,5.46,5.46,0,0,0,3.462,2.307,17.33,17.33,0,0,1,3.472,1.515c2.633,1.426,5.588,1.773,8.108-.109a7.855,7.855,0,0,0,3.017-7.758" transform="translate(9.173 15.525)" fill="#ca445f"/>
        <path id="Trazado_1032006" data-name="Trazado 1032006" d="M198.5,316.338a10.151,10.151,0,0,0,6.816-4.959c1.584-3.081.211-6.057-1.2-8.9-.106-.212-.227-.452-.349-.7-.023-.048-.046-.1-.07-.144-.5-1.048-.98-2.317-.5-3.3a.913.913,0,0,0-1.576-.922A4.279,4.279,0,0,0,201,298.84a7.487,7.487,0,0,0-1.74-.752,6.562,6.562,0,0,0-4.8.191,5.459,5.459,0,0,0-2.307,3.463,17.348,17.348,0,0,1-1.515,3.47c-1.426,2.633-1.773,5.588.11,8.108a7.854,7.854,0,0,0,7.757,3.017" transform="translate(11.552 18.108)" fill="#5990cd"/>
        <path id="Trazado_1032007" data-name="Trazado 1032007" d="M141.648,348.005a10.153,10.153,0,0,0,4.958,6.816c3.082,1.584,6.058.21,8.9-1.2.213-.106.453-.227.7-.349.048-.023.1-.046.144-.07,1.048-.5,2.317-.98,3.3-.5a.913.913,0,0,0,.922-1.576,4.278,4.278,0,0,0-1.429-.624,7.485,7.485,0,0,0,.752-1.74,6.557,6.557,0,0,0-.192-4.8,5.457,5.457,0,0,0-3.462-2.307,17.345,17.345,0,0,1-3.47-1.515c-2.633-1.426-5.588-1.773-8.109.109a7.857,7.857,0,0,0-3.016,7.758" transform="translate(8.63 20.668)" fill="#ffca0c"/>
        <path id="Trazado_1032008" data-name="Trazado 1032008" d="M111.3,287.026a10.152,10.152,0,0,0-6.817,4.958c-1.583,3.082-.21,6.058,1.2,8.9.106.212.228.452.349.7.023.048.046.1.07.144.5,1.048.98,2.317.5,3.3a.913.913,0,0,0,1.576.922,4.279,4.279,0,0,0,.624-1.429,7.484,7.484,0,0,0,1.74.752,6.556,6.556,0,0,0,4.8-.192,5.46,5.46,0,0,0,2.308-3.462,17.283,17.283,0,0,1,1.514-3.47c1.426-2.633,1.773-5.588-.109-8.108a7.854,7.854,0,0,0-7.757-3.017" transform="translate(6.328 17.494)" fill="#73b8c0"/>
        <path id="Trazado_1032009" data-name="Trazado 1032009" d="M240.157,307.308c-6.051,7.314-11.272,6.683-17.6,13.583-1.774,1.932-4.956-.6-3.554-2.573s8.369-9.345,13.2-11.368c0,0-11.617,3.759-16.075,7.648-3.469,3.026-6.87,2.168-4.911-1.515s9.727-9.99,15.84-12.487c0,0-14.8,4.288-20.151,8.762-2.731,2.281-5.161-.383-3.932-2.943,1.882-3.921,16.071-10.533,16.071-10.533s-13.567,2.794-16,4.588c-2.641,1.944-5.891.327-2.8-3.069s8.219-8.173,19.624-8.372,18.979-4.232,21.692-1.412c4.086,4.245,6.281,10.414-1.394,19.694" transform="translate(12.133 17.477)" fill="#e2a782"/>
        <path id="Trazado_1032010" data-name="Trazado 1032010" d="M239.572,289.91c-.255-.154-.41-.412-.672-.573a3.553,3.553,0,0,0-.921-.359c-.557-.16-1.1-.349-1.64-.555a17.665,17.665,0,0,0-3.7-1.051c-2.339-.346-5.322-.421-7.4.9a.683.683,0,0,0,.342,1.263c1.225-.005,2.442-.244,3.672-.271a14.64,14.64,0,0,1,3.546.329,27.094,27.094,0,0,1,3.422,1.121,6.872,6.872,0,0,0,1.7.483,2.32,2.32,0,0,0,1.648-.609.4.4,0,0,0,0-.68" transform="translate(13.715 17.51)" fill="#d98761"/>
        <path id="Trazado_1032011" data-name="Trazado 1032011" d="M139.708,112.5c-.008-.017-.02-.034-.03-.051a5.352,5.352,0,0,0-1.117-1.708,3.544,3.544,0,0,0-3.582-.919c-5.967,1.983-4.65,15.258,2.274,13.534,2.238-.557,3.02-2.976,3.267-4.931a10.026,10.026,0,0,0-.812-5.924" transform="translate(7.999 6.686)" fill="#3f243a"/>
        <path id="Trazado_1032012" data-name="Trazado 1032012" d="M171.248,112.5c.008-.017.02-.034.03-.051a5.352,5.352,0,0,1,1.117-1.708,3.544,3.544,0,0,1,3.582-.919c5.967,1.983,4.65,15.258-2.274,13.534-2.238-.557-3.02-2.976-3.267-4.931a10.026,10.026,0,0,1,.812-5.924" transform="translate(10.386 6.686)" fill="#3f243a"/>
        <path id="Trazado_1032013" data-name="Trazado 1032013" d="M160.816,129.889a1.556,1.556,0,0,0-1.5-.338,5.23,5.23,0,0,0-1.057.5l-.11.05-.122.049q-.255.1-.515.176a8.352,8.352,0,0,1-.923.225l-.2.035-.079.01-.169.016c-.091.007-.181.014-.272.019a8.454,8.454,0,0,1-1.087-.012,4.2,4.2,0,0,1-.855-.135,9.9,9.9,0,0,1-1.971-.6,1.131,1.131,0,0,0-1.141,1.951,8.745,8.745,0,0,0,8.007.941,3.784,3.784,0,0,0,2.091-1.328,1.29,1.29,0,0,0-.1-1.557" transform="translate(9.164 7.896)" fill="#d98761"/>
        <path id="Trazado_1032014" data-name="Trazado 1032014" d="M142.439,93.67a9.238,9.238,0,0,0-1.778-1.154,8.409,8.409,0,0,0-7.98.226,6.806,6.806,0,0,0-2.946,2.9A2.074,2.074,0,0,0,133.095,98c.168-.141.337-.281.5-.433.086-.083.175-.168.26-.254.168-.118.328-.244.5-.353.1-.066.208-.124.313-.187a4.044,4.044,0,0,0,.545-.229c.213-.073.432-.123.648-.182.082-.01.163-.021.245-.028.232-.02.462-.019.694-.019a.563.563,0,0,1-.125-.021.586.586,0,0,0,.15.02h.007c.216,0,.126.008.01,0,.051,0,.1.014.145.021.208.034.415.076.619.128.107.028.212.063.318.092.167.075.334.145.5.23s.349.231.528.318c.068.055.137.109.2.167a4.212,4.212,0,0,0,1.936,1.141,2.24,2.24,0,0,0,2.708-2.265,3.329,3.329,0,0,0-1.355-2.479" transform="translate(7.897 5.587)" fill="#3f243a"/>
        <path id="Trazado_1032015" data-name="Trazado 1032015" d="M136.378,96.046h.041l-.017,0h-.024" transform="translate(8.316 5.856)" fill="#3f243a"/>
        <path id="Trazado_1032016" data-name="Trazado 1032016" d="M132.9,97.63l-.005,0-.045.038c-.188.158-.063.058.05-.042" transform="translate(8.095 5.953)" fill="#3f243a"/>
        <path id="Trazado_1032017" data-name="Trazado 1032017" d="M168.164,96.15a2.241,2.241,0,0,0,2.708,2.265,4.212,4.212,0,0,0,1.936-1.141c.067-.057.136-.111.2-.168.179-.086.356-.227.528-.317s.331-.155.5-.23c.106-.03.211-.066.318-.093.2-.052.411-.093.619-.127.044-.007.094-.017.145-.021-.117.006-.207,0,.01,0h.007a.541.541,0,0,0,.15-.021.5.5,0,0,1-.125.022c.232,0,.462,0,.694.018.082.007.163.019.245.029.216.059.435.108.648.181a4.045,4.045,0,0,0,.545.23c.105.062.21.121.313.186.173.11.333.237.5.354.085.086.174.171.26.254.158.152.328.292.5.432a2.074,2.074,0,0,0,3.36-2.363,6.8,6.8,0,0,0-2.946-2.9,8.413,8.413,0,0,0-7.98-.225,9.236,9.236,0,0,0-1.778,1.154,3.329,3.329,0,0,0-1.355,2.479" transform="translate(10.254 5.587)" fill="#3f243a"/>
        <path id="Trazado_1032018" data-name="Trazado 1032018" d="M174.761,96.046h-.041l.017,0h.024" transform="translate(10.654 5.856)" fill="#3f243a"/>
        <path id="Trazado_1032019" data-name="Trazado 1032019" d="M178.244,97.63l.005,0,.045.038c.188.158.063.058-.05-.042" transform="translate(10.869 5.953)" fill="#3f243a"/>
        <path id="Trazado_1032020" data-name="Trazado 1032020" d="M127.154,122.846a8.848,8.848,0,0,0-4.922.137,5.526,5.526,0,0,0-3.988,4.008,4.156,4.156,0,0,0,1.334,3.774,5.789,5.789,0,0,0,2.054,1.176,9.879,9.879,0,0,0,3,.56,6.924,6.924,0,0,0,1.565-.135c.139.012.275.023.425.027a5.413,5.413,0,0,0,1.719-.277,4.883,4.883,0,0,0,3.359-4.945c-.253-2.45-2.415-3.707-4.548-4.325" transform="translate(7.206 7.473)" fill="#d5796f"/>
        <path id="Trazado_1032021" data-name="Trazado 1032021" d="M189.376,122.846a8.848,8.848,0,0,0-4.922.137,5.526,5.526,0,0,0-3.988,4.008,4.156,4.156,0,0,0,1.334,3.774,5.789,5.789,0,0,0,2.054,1.176,9.879,9.879,0,0,0,3,.56,6.924,6.924,0,0,0,1.565-.135c.139.012.275.023.425.027a5.413,5.413,0,0,0,1.719-.277,4.883,4.883,0,0,0,3.359-4.945c-.253-2.45-2.415-3.707-4.548-4.325" transform="translate(11 7.473)" fill="#d5796f"/>
        <path id="Trazado_1032022" data-name="Trazado 1032022" d="M144.156,139.1c2.617-1.891,4.944.145,12.215-.145s9.18-2.045,12.359,0c4.072,2.617.727,16.274-12.069,16.141-13.959-.145-16.1-13.4-12.506-16" transform="translate(8.696 8.413)" fill="#aa4344"/>
        <path id="Trazado_1032023" data-name="Trazado 1032023" d="M157.858,147.94c-3.8.04-8.772.149-12.516,1.968,2.223,2.554,5.826,4.52,11.154,4.575a13.332,13.332,0,0,0,11-4.939,35.6,35.6,0,0,0-9.638-1.6" transform="translate(8.862 9.021)" fill="#d5796f"/>
        <path id="Trazado_1032024" data-name="Trazado 1032024" d="M156.3,138.951c-7.271.291-9.6-1.745-12.215.145a2.7,2.7,0,0,0-.214.185c1.039,1.308,2.374,3.107,4.141,3.693,2.892.96,6.759,1.019,9.888,1.017,4.769,0,8.706-1.484,11.073-4.8a2.725,2.725,0,0,0-.313-.241c-3.181-2.045-5.09-.291-12.36,0" transform="translate(8.772 8.413)" fill="#fff"/>
        <path id="Trazado_1032025" data-name="Trazado 1032025" d="M96.9,260.42q0-9.837-.011-19.672a3.458,3.458,0,1,0-6.915,0q-.006,9.835-.011,19.672a3.358,3.358,0,0,0,.294,1.347,3.406,3.406,0,0,0,3.174,2.15,3.61,3.61,0,0,0,3.178-2.122,3.359,3.359,0,0,0,.291-1.375" transform="translate(5.486 14.469)" fill="#d26e75"/>
        <path id="Trazado_1032026" data-name="Trazado 1032026" d="M96.619,274.425q-.016-2.575-.031-5.148a3.261,3.261,0,0,0-.928-2.242,3.17,3.17,0,0,0-5.41,2.242q-.016,2.573-.031,5.148a3.218,3.218,0,0,0,.394,1.491,3.173,3.173,0,0,0,.718,1.211,2.955,2.955,0,0,0,4.177,0,3.191,3.191,0,0,0,.666-1.114,3.026,3.026,0,0,0,.445-1.587" transform="translate(5.501 16.226)" fill="#d26e75"/>
        <path id="Trazado_1032027" data-name="Trazado 1032027" d="M217.645,236.479a5.535,5.535,0,0,0-.907-.389,3.117,3.117,0,0,0-1.739-.525l-18.738.024a3.22,3.22,0,1,0,0,6.44l18.738.024a3.215,3.215,0,0,0,1.7-.512,5.569,5.569,0,0,0,.947-.4,2.721,2.721,0,0,0,0-4.66" transform="translate(11.771 14.364)" fill="#76a6da"/>
        <path id="Trazado_1032028" data-name="Trazado 1032028" d="M188.6,235.83l-1.235-.027a2.338,2.338,0,0,0-.66.1c-1.149.05-2.3.108-3.446.162a2.4,2.4,0,0,0-2.381,2.382,2.433,2.433,0,0,0,2.381,2.381c1.145.055,2.291.112,3.435.162a2.283,2.283,0,0,0,.671.1l1.235-.027a2.614,2.614,0,1,0,0-5.227" transform="translate(11.029 14.378)" fill="#76a6da"/>
        <path id="Trazado_1032029" data-name="Trazado 1032029" d="M116.262,363.274a3.3,3.3,0,0,0-.728-1.927,2.929,2.929,0,0,0-2.356-1.158c-5.689-.076-11.367-.222-17.057-.2a3.4,3.4,0,0,0-2.384,1.054,3.648,3.648,0,0,0-1.589,1.324,1.754,1.754,0,0,0,0,1.823,3.591,3.591,0,0,0,1.624,1.347,3.187,3.187,0,0,0,2.349,1.03c5.69.018,11.368-.127,17.057-.2a3.137,3.137,0,0,0,2.429-1.215,2.755,2.755,0,0,0,.656-1.869" transform="translate(5.603 21.951)" fill="#a4cfd9"/>
        <path id="Trazado_1032030" data-name="Trazado 1032030" d="M128.256,360.506a3.137,3.137,0,0,0-2.1-.868c-1.8-.043-3.623-.153-5.428-.119a3.083,3.083,0,1,0,0,6.165c1.8.035,3.623-.074,5.428-.118a2.963,2.963,0,0,0,2.964-2.964,2.993,2.993,0,0,0-.868-2.1" transform="translate(7.174 21.922)" fill="#a4cfd9"/>
        <path id="Trazado_1032031" data-name="Trazado 1032031" d="M219.869,332.66a3.275,3.275,0,0,0-.891-2.21,4.816,4.816,0,0,0-.691-2.407,1.956,1.956,0,0,0-2.526-.821c-1.188.646-1.529,1.954-1.655,3.287a3.26,3.26,0,0,0-.839,2.152q0,9.132-.011,18.263a3.312,3.312,0,1,0,6.624,0q0-9.13-.011-18.263" transform="translate(13.004 19.94)" fill="#fae26f"/>
        <path id="Trazado_1032032" data-name="Trazado 1032032" d="M219.288,362.867q-.016-2.486-.033-4.972a2.8,2.8,0,0,0-.8-1.923,2.718,2.718,0,0,0-3.845,0,2.842,2.842,0,0,0-.8,1.923q-.017,2.486-.033,4.972a2.81,2.81,0,0,0,.585,1.672,2.441,2.441,0,0,0,.33.417,2.6,2.6,0,0,0,3.675,0,3.15,3.15,0,0,0,.32-.413,2.742,2.742,0,0,0,.594-1.676" transform="translate(13.036 21.657)" fill="#fae26f"/>
        <path id="Trazado_1032033" data-name="Trazado 1032033" d="M79.722,338.056a3.171,3.171,0,0,0-1.032.188,6.247,6.247,0,0,0-1.131.587,16.989,16.989,0,0,0-1.691,1.344,35.421,35.421,0,0,0-2.6,2.465,5.462,5.462,0,0,0-.807.966,2.167,2.167,0,0,0-.166,1.887,1.519,1.519,0,0,0,1.284.939,2.288,2.288,0,0,0,1.887-.735c.855-.835,1.64-1.732,2.523-2.54.508-.466,1.04-.9,1.561-1.35a8.427,8.427,0,0,0,.694-.668l.18-.233c.077-.1.161-.206.241-.309a3.134,3.134,0,0,0,.377-.805,1.377,1.377,0,0,0-1.321-1.735" transform="translate(4.399 20.613)" fill="#7a638f"/>
        <path id="Trazado_1032034" data-name="Trazado 1032034" d="M71.883,347.734a.944.944,0,0,0-.473-.2.511.511,0,0,0-.265,0,.745.745,0,0,0-.371.119,2.319,2.319,0,0,0-1.155,1.067,6.025,6.025,0,0,0-.316.754,1.486,1.486,0,0,0-.064.278,1.6,1.6,0,0,0-.005.713,1.255,1.255,0,0,0,.083.194c.02.064.038.128.063.191a1.24,1.24,0,0,0,.268.462,1.032,1.032,0,0,0,.6.288,1.049,1.049,0,0,0,1.042-.5c.014-.023.03-.045.045-.069l.011-.009a1.414,1.414,0,0,0,.336-.6c.024-.071.049-.141.068-.213.031-.111.072-.22.112-.327.012-.024.022-.048.034-.071a4.423,4.423,0,0,0,.2-.527c.058-.167.1-.336.149-.506a1,1,0,0,0-.359-1.05" transform="translate(4.219 21.19)" fill="#7a638f"/>
        <path id="Trazado_1032035" data-name="Trazado 1032035" d="M241.555,344.586a4.517,4.517,0,0,0-1.05-1.252q-.452-.436-.921-.855c-.738-.66-1.51-1.28-2.3-1.881a14.327,14.327,0,0,0-2.175-1.378,6.974,6.974,0,0,0-2.832-1.011,1.181,1.181,0,0,0-1.012,1.764,8.666,8.666,0,0,0,1.88,1.792c.316.266.621.545.935.813.215.184.448.35.675.52l.084.066c.1.076.193.153.289.23q.977.786,1.892,1.648c.3.286.6.579.9.877a5.259,5.259,0,0,0,1.23,1.073,1.8,1.8,0,0,0,2.13-.275,1.858,1.858,0,0,0,.275-2.13" transform="translate(14.092 20.623)" fill="#7a638f"/>
        <path id="Trazado_1032036" data-name="Trazado 1032036" d="M244.649,350.132a5.181,5.181,0,0,0-.553-1.014,2.509,2.509,0,0,0-.7-.771c-.1-.063-.2-.12-.3-.192a1.278,1.278,0,0,0-1.924,1.1,2.435,2.435,0,0,1,0,.363,2.023,2.023,0,0,0,.142.669c.076.253.123.516.213.764s.164.486.23.733c.033.124.065.249.092.375a2.129,2.129,0,0,0,.519.989,1.6,1.6,0,0,0,1.568.414,1.646,1.646,0,0,0,1.125-1.125,3.71,3.71,0,0,0-.411-2.309" transform="translate(14.705 21.218)" fill="#7a638f"/>
        <path id="Trazado_1032037" data-name="Trazado 1032037" d="M247.462,149.4c-3.427-1.687-6.391-.46-9.664.675-.633-3.452-1.77-6.706-4.294-8.675a5.841,5.841,0,0,0-8.088.944c-3.743,4.865-1.539,12.783-.988,18.454.5,5.1,5.588,7.2,9.982,5.912,5.373-1.569,14.1-3.057,16.381-8.793a6.616,6.616,0,0,0-3.329-8.516" transform="translate(13.615 8.548)" fill="#ffca0c"/>
        <path id="Trazado_1032038" data-name="Trazado 1032038" d="M258.477,101.547a6.312,6.312,0,0,0-5.934-4.518,12.016,12.016,0,0,0-4.356.8l-.092-1.012c-.647-7.025-10.52-7.145-11.017,0-.329,4.725-1.827,11.274,3.155,14.19,2.485,1.454,5.173.795,7.754.117s5.481-1.032,7.662-2.625c2.238-1.632,3.605-4.125,2.829-6.949" transform="translate(14.428 5.579)" fill="#c9435f"/>
        <path id="Trazado_1032039" data-name="Trazado 1032039" d="M286.57,146.96a7.074,7.074,0,0,0-5.049-1.875,7.345,7.345,0,0,0-.919-4.54,4.785,4.785,0,0,0-6.463-1.55c-2.6,1.516-3.136,4.431-4.012,7.092-.946,2.879-1.56,6.254.943,8.6,2.005,1.881,4.385,1.9,6.952,1.845,3.2-.075,6.286.2,8.729-2.265a5.227,5.227,0,0,0-.18-7.309" transform="translate(16.421 8.435)" fill="#73b8c0"/>
      </g>
      <path id="Trazado_1030861" data-name="Trazado 1030861" d="M925.378,1112.226q-.813-.564-.339-1.247l2.389-3.444a4.6,4.6,0,0,0-1.044-1.374,18.663,18.663,0,0,0-1.574-1.436,5.433,5.433,0,0,0-1.376,1.033q-.782.757-1.587,1.516a5.6,5.6,0,0,1-1.472,1.061q-1.032-.716-.794-1.334.719-.265,4.833-4.461t6.5-6.523a45.362,45.362,0,0,1,4.265-3.738q1.877-1.411,2.431-1.026a1.652,1.652,0,0,1,.69.823q-.653.941-3.019,5.453t-3.211,5.73q-.845,1.219-2.532,4.242t-2.671,4.442a.95.95,0,0,1-1.494.282m4.872-9.392q1.392-2.5,2.677-4.754t1.594-2.7a6,6,0,0,1,.366-.5q-.708.139-4.477,3.906t-4.617,4.879a8.865,8.865,0,0,0,1.632,1.572,5.964,5.964,0,0,0,1.105.652q.328-.556,1.72-3.058" transform="translate(-847.363 -944.523)" fill="#3c3c3b"/>
      <path id="Trazado_1030864" data-name="Trazado 1030864" d="M1099.835,1171.013l-.009-.679a14.688,14.688,0,0,1,1.749-5.218,11.6,11.6,0,0,1,3.758-4.649,3.59,3.59,0,0,1,2.274-.636,2.167,2.167,0,0,1,1.05.384.89.89,0,0,1,.4.87q-.778.662-1.088,3.691-.182,1.781-.245,5.324t-.242,5.293l-.451,3.488a10.14,10.14,0,0,0,.119,2.308,9.986,9.986,0,0,1,.144,2.058q-.113,1.109-2.565.858l-.484-.05q-3.264-.334-4.358-4.138a19.354,19.354,0,0,1-.312-7.133l.152-1.484a.6.6,0,0,0,.108-.289m6.6-6.332.313-3.061a7.1,7.1,0,0,0-2.315,1.965,11.513,11.513,0,0,0-1.671,2.914,23.822,23.822,0,0,0-1.521,6.235,14.789,14.789,0,0,0,.321,5.808,5.387,5.387,0,0,0,1.99,3.075,3.969,3.969,0,0,0,1.862.616l0-.031q.3-2.89.507-8.738t.512-8.784" transform="translate(-1018.121 -971.87)" fill="#3c3c3b"/>
      <path id="Trazado_1030865" data-name="Trazado 1030865" d="M631.735,1194.362l-.734.322a.8.8,0,0,0-.489.5l4.346,8.918q1.44-.807,1.567-.869,1.651-.8,2.022-.042l.048.1a1.458,1.458,0,0,1-.382.937,2.951,2.951,0,0,1-.73.653q-.353.207-.932.489l-.9.44q-1.073.523-1.533.223a1.166,1.166,0,0,1-.367-.467l-8.183-16.793a9.025,9.025,0,0,0-.913-1.371,8.991,8.991,0,0,1-.919-1.385l-.048-.1a6.262,6.262,0,0,1,.224-1.367l2.021-1.3a1.925,1.925,0,0,1,1.009-.169.863.863,0,0,1,.778.467q.42.861-.893,1.5l-.846.377a2.779,2.779,0,0,0-.3.166l2.55,4.66q.282.579.751,1.721t.717,1.65q.142-.1.375-.3a4.364,4.364,0,0,1,.849-.606.95.95,0,0,1,.709-.049.845.845,0,0,1,.543.451,1.061,1.061,0,0,1,.084.71.742.742,0,0,1-.419.536" transform="translate(-619.346 -999.101)" fill="#3c3c3b"/>
      <path id="Trazado_1030868" data-name="Trazado 1030868" d="M788.384,1084.907l-1.929,5.794a33.838,33.838,0,0,0-.919,3.6q-.425,2.074-.626,2.693a1.462,1.462,0,0,1-.542.831.818.818,0,0,1-.714.09q-1.134-.368-.33-2.847l2.174-6.242q-.187.22-1.067,1.3t-1.795,2.174q-.924,1.07-1.943,2.225-2.292,2.589-2.89,2.4a.93.93,0,0,1-.53-.428.751.751,0,0,1-.082-.637,28.975,28.975,0,0,1,2.9-3.275,31.917,31.917,0,0,0,3.313-3.827l.174-.538q-.08-1.28-.034-8.213t.17-7.314a.841.841,0,0,1,.5-.538,1.064,1.064,0,0,1,.754-.036l.678.352q-.648,4.592-.876,8.091a38.659,38.659,0,0,0,.152,6.857,10.118,10.118,0,0,0,1.6-1.661q.39-.9.565-1.434l1.647-5.737.814-2.509q.528-1.627,1.573-1.288.9.291.394,1.836t-1.595,4.227q-1.093,2.681-1.539,4.056" transform="translate(-736.737 -908.294)" fill="#3c3c3b"/>
    </g>
    <path id="Trazado_1030863" data-name="Trazado 1030863" d="M360.837,15.875l1.585-1.615.466-.612a45.97,45.97,0,0,0,2.865-4.034q.6-1.062,1.044-1.928a8.248,8.248,0,0,0,.633-1.57,8.022,8.022,0,0,0,.252-1.406,2.347,2.347,0,0,0-.938-2.214,2.571,2.571,0,0,0-1.434-.372,2.55,2.55,0,0,1-1.334-.3,1.361,1.361,0,0,1-.43-.939,2.4,2.4,0,0,1,2.859-.723,5.769,5.769,0,0,1,1.773.936,3.607,3.607,0,0,1,1.187,1.447,4.014,4.014,0,0,1,.324,1.647,6.726,6.726,0,0,1-.361,1.925,16.441,16.441,0,0,1-.809,2.047q-.5.963-1.234,2.139-1.258,1.962-2.919,4.17l-2.355,3.04a16.068,16.068,0,0,1-1.972,2.227,5.594,5.594,0,0,1-.534.856,3.806,3.806,0,0,1-3.081,1.61,5.681,5.681,0,0,1-3.606-1.276,2.954,2.954,0,0,1-.937-1.257,1.29,1.29,0,0,1,.1-1.353.616.616,0,0,1,.536-.263,1.626,1.626,0,0,1,.832.4.931.931,0,0,1,.455.84l.01-.012.35.266-.048.062a2.685,2.685,0,0,0,2.727.617,7.741,7.741,0,0,0,2.725-2.542Z" transform="translate(752.247 493.834)" fill="#3c3c3b"/>
    <path id="Trazado_1030873" data-name="Trazado 1030873" d="M271.781,464.577q-2.552-7.819.82-8.92a3.434,3.434,0,0,1,3.086.347,7.767,7.767,0,0,1,2.347,2.636,21.62,21.62,0,0,1,1.607,3.406q.512,1.468.873,2.473.18.5.341.995.141.483.3.96.282.965.438,1.393l.448,1.373a22.1,22.1,0,0,1,1.026,4.256,9.222,9.222,0,0,1-.485,3.775q.069.11.312.575t.478.884a9.508,9.508,0,0,0,.541.847q.669.987,1.131.836l.119-.039q.955-.312,1.215-.124a.886.886,0,0,1,.342.442q.307.94-1.051,1.383a2.8,2.8,0,0,1-1.41-.019l0-.015a2.3,2.3,0,0,1-1.607-.978,9.1,9.1,0,0,1-.887-1.478q-.385-.8-.532-1.048l-1.253.409q-3.543-.99-5.3-5.305-.332-.816-.683-1.891l-1.478-5.033Zm7.3,1.267q-.185-.617-.375-1.2-2.742-8.4-5.861-7.384-.552.18-.424,1.889a23.893,23.893,0,0,0,.749,4.115q1.022,4.042,1.587,5.748t.814,2.368q.249.662.677,1.67a14.742,14.742,0,0,0,.917,1.823,16.578,16.578,0,0,0,1.05,1.548,3.728,3.728,0,0,0,1.227,1.077,1.889,1.889,0,0,0,1.312.2l-.01-.03a.926.926,0,0,1,.709-.661l0,.015a4.483,4.483,0,0,0,.078-3.658Z" transform="translate(825.26 158.778)" fill="#3c3c3b"/>
    <path id="Trazado_1030876" data-name="Trazado 1030876" d="M166.791,727.261l2.7-4.237a.961.961,0,0,1,.151-.683.989.989,0,0,1,.6-.439.857.857,0,0,1,.71.094q.983.618-.236,2.559l-5.694,9.622a6.723,6.723,0,0,1-.638,1.62q-.572,1.161-.952,1.766a8.483,8.483,0,0,0-.743,1.61,15.214,15.214,0,0,0-.592,2.122,5.6,5.6,0,0,0-.052,2.118,1.865,1.865,0,0,0,.7,1.327,1.26,1.26,0,0,0,.926.239,1.557,1.557,0,0,0,.784-.481,8.877,8.877,0,0,0,1.09-1.41l3.341-5.317q.543-.864,1.439-2.674t1.439-2.674l.117-.186.941-1.615,2.732-4.791a.728.728,0,0,1,.671-.33,1.529,1.529,0,0,1,.821.229l.264,1.056-.284.452-1.243,1.536q-1.428,2.273-4.055,7t-3.642,6.342q-1.015,1.615-1.4,2.124a8.19,8.19,0,0,1-.929,1.02,3.7,3.7,0,0,1-1.073.735,2.68,2.68,0,0,1-2.578-.322,3.631,3.631,0,0,1-1.762-3.128,11.528,11.528,0,0,1,.833-4.63,38.259,38.259,0,0,1,2.186-4.837q1.652-2.984,3.432-5.816" transform="translate(902.306 -72.087)" fill="#3c3c3b"/>
    <path id="Trazado_1030877" data-name="Trazado 1030877" d="M118.121,213.873a1.269,1.269,0,0,1-.7.456.849.849,0,0,1-.749-.219q-.89-.748,5.715-11.335.98-1.556,1.113-1.812-3.214,2.9-5.46,5.08a61.555,61.555,0,0,0-4.215,4.526.837.837,0,0,1-.622.288.91.91,0,0,1-.663-.2q-.9-.758.675-2.632.97-1.154,6.071-9.283t5.4-9.046a1.258,1.258,0,0,1,1.372.149q.564.474-1.124,3.423t-4.424,6.873q-2.736,3.925-2.764,3.983.319-.306,1.989-1.866t2.679-2.516q3.047-2.893,4.179-4.239l.394-.469a1.053,1.053,0,0,1,.628-.344.75.75,0,0,1,.658.132q.877.737.271,1.458l-.313.373a41.091,41.091,0,0,0-4.683,7.814q-1.176,2.375-1.972,3.736,1.274-1.247,3.784-3.525a90.493,90.493,0,0,0,8.01-7.991,1.764,1.764,0,0,1,.842-.635.89.89,0,0,1,.8.248,1.288,1.288,0,0,1,.481.733.8.8,0,0,1-.18.69,1.006,1.006,0,0,1-.717.341,64.789,64.789,0,0,1-8.23,7.9,64.814,64.814,0,0,0-8.24,7.911" transform="translate(940.03 345.221)" fill="#3c3c3b"/>
    <path id="Trazado_1030879" data-name="Trazado 1030879" d="M.746,524.411q.932-.137,1.043.624a14.089,14.089,0,0,0,.711,2.894q.469,1.248.975,2.483t.664,1.656q.03-.338.05-1.5t.076-2.3q.053-1.15.164-2.341.258-2.672,1.157-2.82a.97.97,0,0,1,.612.116.622.622,0,0,1,.347.473,14.614,14.614,0,0,1-.143,3.67q-.321,2.459-.63,5a15.651,15.651,0,0,0-.121,3.817,12.852,12.852,0,0,0,.707,2.657q.556,1.41,1.093,2.473a15.955,15.955,0,0,1,1.742,4.837l.011.078q-.2.7-.658.763a.923.923,0,0,1-.856-.43,6.152,6.152,0,0,1-.782-1.385q-.384-.887-.675-1.678t-.6-1.745q-.307-.955-.383-1.15-.039.164-.08,2.265-.122,5.111-1.07,5.25a1.209,1.209,0,0,1-.68-.09.817.817,0,0,1-.4-.694,47.271,47.271,0,0,1,.435-5.3,34.177,34.177,0,0,0,.357-5.836q-.055-.373-1.446-4.23T.916,527.94l-.027-.186a6.043,6.043,0,0,0-.453-1.139,4.47,4.47,0,0,1-.423-1.152.9.9,0,0,1,.167-.7.84.84,0,0,1,.567-.353" transform="translate(1040.423 92.788)" fill="#3c3c3b"/>
  </g>
</svg>
