<svg xmlns="http://www.w3.org/2000/svg" xmlns:xlink="http://www.w3.org/1999/xlink" width="400" height="231" viewBox="0 0 400 231">
  <defs>
    <clipPath id="clip-path">
      <rect id="Rectángulo_415246" data-name="Rectángulo 415246" width="400" height="231" transform="translate(915 5376)" fill="#fff" stroke="#707070" stroke-width="1" opacity="0.45"/>
    </clipPath>
    <clipPath id="clip-path-2">
      <rect id="Rectángulo_415245" data-name="Rectángulo 415245" width="263.959" height="349.2" transform="translate(-4 18)" fill="none"/>
    </clipPath>
    <clipPath id="clip-path-3">
      <rect id="Rectángulo_415208" data-name="Rectángulo 415208" width="259.959" height="367.2" fill="none"/>
    </clipPath>
    <clipPath id="clip-path-4">
      <rect id="Rectángulo_415184" data-name="Rectángulo 415184" width="247.483" height="246.9" fill="none"/>
    </clipPath>
    <clipPath id="clip-path-5">
      <rect id="Rectángulo_415187" data-name="Rectángulo 415187" width="11.508" height="11.509" fill="none"/>
    </clipPath>
    <clipPath id="clip-path-6">
      <rect id="Rectángulo_415190" data-name="Rectángulo 415190" width="11.508" height="11.508" fill="none"/>
    </clipPath>
    <clipPath id="clip-path-9">
      <rect id="Rectángulo_415197" data-name="Rectángulo 415197" width="41.445" height="22.448" fill="none"/>
    </clipPath>
    <clipPath id="clip-path-10">
      <rect id="Rectángulo_415198" data-name="Rectángulo 415198" width="29.673" height="16.364" fill="none"/>
    </clipPath>
    <clipPath id="clip-path-11">
      <rect id="Rectángulo_415200" data-name="Rectángulo 415200" width="11.197" height="8.425" fill="none"/>
    </clipPath>
    <clipPath id="clip-path-12">
      <rect id="Rectángulo_415202" data-name="Rectángulo 415202" width="176.155" height="106.426" fill="none"/>
    </clipPath>
    <clipPath id="clip-path-13">
      <rect id="Rectángulo_415204" data-name="Rectángulo 415204" width="170.605" height="98.533" fill="none"/>
    </clipPath>
    <clipPath id="clip-path-14">
      <rect id="Rectángulo_415231" data-name="Rectángulo 415231" width="269.941" height="255.941" transform="translate(-14)" fill="none"/>
    </clipPath>
    <clipPath id="clip-path-15">
      <rect id="Rectángulo_415209" data-name="Rectángulo 415209" width="60.696" height="39.002" fill="none"/>
    </clipPath>
    <clipPath id="clip-path-16">
      <rect id="Rectángulo_415210" data-name="Rectángulo 415210" width="19.756" height="17.091" fill="none"/>
    </clipPath>
    <clipPath id="clip-path-17">
      <rect id="Rectángulo_415211" data-name="Rectángulo 415211" width="21.488" height="11.812" fill="none"/>
    </clipPath>
    <clipPath id="clip-path-18">
      <rect id="Rectángulo_415212" data-name="Rectángulo 415212" width="36.442" height="40.288" fill="none"/>
    </clipPath>
    <clipPath id="clip-path-19">
      <rect id="Rectángulo_415213" data-name="Rectángulo 415213" width="9.94" height="15.333" fill="none"/>
    </clipPath>
    <clipPath id="clip-path-20">
      <rect id="Rectángulo_415214" data-name="Rectángulo 415214" width="4.493" height="6.065" fill="none"/>
    </clipPath>
    <clipPath id="clip-path-21">
      <rect id="Rectángulo_415215" data-name="Rectángulo 415215" width="11.9" height="14.154" fill="none"/>
    </clipPath>
    <clipPath id="clip-path-22">
      <rect id="Rectángulo_415216" data-name="Rectángulo 415216" width="5.852" height="4.812" fill="none"/>
    </clipPath>
    <clipPath id="clip-path-23">
      <rect id="Rectángulo_415229" data-name="Rectángulo 415229" width="32.151" height="10.89" fill="none"/>
    </clipPath>
    <clipPath id="clip-path-24">
      <rect id="Rectángulo_415217" data-name="Rectángulo 415217" width="0.512" height="0.513" fill="none"/>
    </clipPath>
    <clipPath id="clip-path-27">
      <rect id="Rectángulo_415220" data-name="Rectángulo 415220" width="0.513" height="0.513" fill="none"/>
    </clipPath>
    <clipPath id="clip-path-32">
      <rect id="Rectángulo_415225" data-name="Rectángulo 415225" width="0.513" height="0.512" fill="none"/>
    </clipPath>
    <clipPath id="clip-path-36">
      <rect id="Rectángulo_415230" data-name="Rectángulo 415230" width="53.154" height="24.815" fill="none"/>
    </clipPath>
    <clipPath id="clip-path-37">
      <path id="Trazado_1032907" data-name="Trazado 1032907" d="M159.711,326.665a4.82,4.82,0,1,0,1.363-.2,4.826,4.826,0,0,0-1.363.2" transform="translate(-156.243 -326.468)" fill="none"/>
    </clipPath>
    <clipPath id="clip-path-38">
      <rect id="Rectángulo_415232" data-name="Rectángulo 415232" width="255.941" height="255.941" fill="none"/>
    </clipPath>
    <clipPath id="clip-path-39">
      <path id="Trazado_1032914" data-name="Trazado 1032914" d="M124.612,335.978a4.821,4.821,0,1,0,1.459-.227,4.826,4.826,0,0,0-1.459.227" transform="translate(-121.243 -335.751)" fill="none"/>
    </clipPath>
    <clipPath id="clip-path-41">
      <rect id="Rectángulo_415233" data-name="Rectángulo 415233" width="10.138" height="11.433" fill="none"/>
    </clipPath>
    <clipPath id="clip-path-42">
      <rect id="Rectángulo_415234" data-name="Rectángulo 415234" width="84.361" height="90.021" fill="none"/>
    </clipPath>
    <clipPath id="clip-path-43">
      <rect id="Rectángulo_415235" data-name="Rectángulo 415235" width="18.091" height="21.7" fill="none"/>
    </clipPath>
    <clipPath id="clip-path-44">
      <path id="Trazado_1032935" data-name="Trazado 1032935" d="M368.385,146.855a5.561,5.561,0,1,0,5.77-5.343c-.073,0-.145,0-.217,0a5.561,5.561,0,0,0-5.553,5.347" transform="translate(-368.381 -141.508)" fill="none"/>
    </clipPath>
    <clipPath id="clip-path-46">
      <path id="Trazado_1032942" data-name="Trazado 1032942" d="M326.746,144.272a5.561,5.561,0,1,0,5.655-5.465h-.1a5.56,5.56,0,0,0-5.557,5.466" transform="translate(-326.745 -138.806)" fill="none"/>
    </clipPath>
    <clipPath id="clip-path-48">
      <rect id="Rectángulo_415238" data-name="Rectángulo 415238" width="11.77" height="11.77" fill="none"/>
    </clipPath>
    <clipPath id="clip-path-49">
      <rect id="Rectángulo_415239" data-name="Rectángulo 415239" width="9.854" height="9.854" fill="none"/>
    </clipPath>
    <clipPath id="clip-path-50">
      <rect id="Rectángulo_415240" data-name="Rectángulo 415240" width="88.973" height="86.987" fill="none"/>
    </clipPath>
    <clipPath id="clip-path-51">
      <rect id="Rectángulo_415241" data-name="Rectángulo 415241" width="14.117" height="19.972" fill="none"/>
    </clipPath>
    <clipPath id="clip-path-52">
      <rect id="Rectángulo_415242" data-name="Rectángulo 415242" width="7.176" height="7.2" fill="none"/>
    </clipPath>
    <clipPath id="clip-path-53">
      <rect id="Rectángulo_415243" data-name="Rectángulo 415243" width="13.005" height="11.837" fill="none"/>
    </clipPath>
  </defs>
  <g id="Enmascarar_grupo_1098737" data-name="Enmascarar grupo 1098737" transform="translate(-915 -5376)" clip-path="url(#clip-path)">
    <g id="Grupo_1175130" data-name="Grupo 1175130" transform="translate(980.021 5358)" clip-path="url(#clip-path-2)">
      <g id="Grupo_1175018" data-name="Grupo 1175018">
        <g id="Grupo_1175017" data-name="Grupo 1175017" clip-path="url(#clip-path-3)">
          <g id="Grupo_1174989" data-name="Grupo 1174989" transform="translate(8.247 3.538)" opacity="0.25" style="mix-blend-mode: screen;isolation: isolate">
            <g id="Grupo_1174988" data-name="Grupo 1174988">
              <g id="Grupo_1174987" data-name="Grupo 1174987" clip-path="url(#clip-path-4)">
                <path id="Trazado_1032834" data-name="Trazado 1032834" d="M16.441,130.864c-1.76-11.761,3.609-24.566,14.615-30.72,8.8-4.919,18.909-6.451,21.294-17.829,3.166-15.109,1.054-30.937,5.033-45.877C61.158,22.265,69.86,6.371,86.633,6.927c12.082.4,22.509,7.885,34.16,10.253,16.409,3.334,33.147-3.951,49.884-3.442,9.544.29,15.841,3.992,19.91,12.751,3.212,6.915,5.032,14.727,7.464,21.955,2.006,5.963,4.844,9.913,10.981,12.058,16.491,5.766,34.663,11.205,46.163,25.537,5.806,7.234,8.166,15.48,5.608,24.574-3.548,12.612-13.51,22.284-16.925,34.924-1.815,6.718,1.542,10.692,6.924,14.335,31.517,21.332-2.566,59.464-23.34,73.205-6.042,4-12.771,7.952-19.806,9.911-12.319,3.431-25.362-1.185-37.879.5-13.742,1.852-26.709,7.332-40.482,9.02-16.668,2.043-37.985,3.148-51.536-8.328-11.81-10-16.679-25.965-20.114-40.49-2.553-10.789-5-22.212-9.8-32.471-2.3-4.925-5.166-10.255-9.083-14.1-4.088-4.011-9.614-6.189-13.825-10.062a27.263,27.263,0,0,1-8.493-16.2" transform="translate(-16.112 -6.912)" fill="#583266"/>
              </g>
            </g>
          </g>
          <g id="Grupo_1174992" data-name="Grupo 1174992" transform="translate(18.807 50.582)" opacity="0.35">
            <g id="Grupo_1174991" data-name="Grupo 1174991">
              <g id="Grupo_1174990" data-name="Grupo 1174990" clip-path="url(#clip-path-5)">
                <rect id="Rectángulo_415185" data-name="Rectángulo 415185" width="11.014" height="3.336" transform="translate(2.529 10.52) rotate(-72.766)" fill="#ce88c4"/>
                <rect id="Rectángulo_415186" data-name="Rectángulo 415186" width="3.336" height="11.014" transform="translate(0 5.716) rotate(-72.766)" fill="#ce88c4"/>
              </g>
            </g>
          </g>
          <g id="Grupo_1174995" data-name="Grupo 1174995" transform="translate(236.844 31.632)" opacity="0.35">
            <g id="Grupo_1174994" data-name="Grupo 1174994">
              <g id="Grupo_1174993" data-name="Grupo 1174993" clip-path="url(#clip-path-6)">
                <rect id="Rectángulo_415188" data-name="Rectángulo 415188" width="11.014" height="3.336" transform="translate(2.529 10.52) rotate(-72.766)" fill="#ce88c4"/>
                <rect id="Rectángulo_415189" data-name="Rectángulo 415189" width="3.336" height="11.014" transform="translate(0 5.716) rotate(-72.766)" fill="#ce88c4"/>
              </g>
            </g>
          </g>
          <g id="Grupo_1174998" data-name="Grupo 1174998" transform="translate(153.323 194.67)" opacity="0.35">
            <g id="Grupo_1174997" data-name="Grupo 1174997">
              <g id="Grupo_1174996" data-name="Grupo 1174996" clip-path="url(#clip-path-6)">
                <rect id="Rectángulo_415191" data-name="Rectángulo 415191" width="11.014" height="3.336" transform="translate(2.529 10.52) rotate(-72.766)" fill="#ce88c4"/>
                <rect id="Rectángulo_415192" data-name="Rectángulo 415192" width="3.336" height="11.014" transform="translate(0 5.716) rotate(-72.766)" fill="#ce88c4"/>
              </g>
            </g>
          </g>
          <g id="Grupo_1175001" data-name="Grupo 1175001" transform="translate(14.288 212.999)" opacity="0.35">
            <g id="Grupo_1175000" data-name="Grupo 1175000">
              <g id="Grupo_1174999" data-name="Grupo 1174999" clip-path="url(#clip-path-6)">
                <rect id="Rectángulo_415194" data-name="Rectángulo 415194" width="11.014" height="3.336" transform="translate(2.529 10.52) rotate(-72.766)" fill="#ce88c4"/>
                <rect id="Rectángulo_415195" data-name="Rectángulo 415195" width="3.337" height="11.014" transform="translate(0 5.716) rotate(-72.769)" fill="#ce88c4"/>
              </g>
            </g>
          </g>
          <g id="Grupo_1175004" data-name="Grupo 1175004" transform="translate(38.913 23.735)" opacity="0.35">
            <g id="Grupo_1175003" data-name="Grupo 1175003">
              <g id="Grupo_1175002" data-name="Grupo 1175002" clip-path="url(#clip-path-9)">
                <path id="Trazado_1032835" data-name="Trazado 1032835" d="M75.291,56.955,68.7,58.566q-.7.17-1.3-1.112a6.72,6.72,0,0,1-.411-1.078.75.75,0,0,1,0-.525q3.325-5.673,2.923-7.32a1.143,1.143,0,0,0-.492-.764,1.318,1.318,0,0,0-.981-.054,3.6,3.6,0,0,0-1.192.544,3.965,3.965,0,0,0-.856.757,5.592,5.592,0,0,1-1.553-1.7,2.308,2.308,0,0,1-.252-.6,1.55,1.55,0,0,1-.034-.57q.033-.555,1.241-1.334a8.714,8.714,0,0,1,2.677-1.138q4.446-1.086,5.413,2.864a6.581,6.581,0,0,1-.326,3.834,14.487,14.487,0,0,1-2.019,3.786l3.971-1.138q.356,1.028.546,1.8a2.607,2.607,0,0,1,0,1.388,1.019,1.019,0,0,1-.763.755" transform="translate(-64.536 -36.138)" fill="#ce88c4"/>
                <path id="Trazado_1032836" data-name="Trazado 1032836" d="M99.659,41.233l.815,3.335,3.355-.82q.357-.088.657.449a2.182,2.182,0,0,1,.281,1.151q-.018.615-.375.7l-3.355.82.83,3.394q.088.358-.449.657a2.132,2.132,0,0,1-.556.22l-.595.061q-.615-.018-.7-.375l-.83-3.395-3.375.825q-.357.088-.657-.449a2.2,2.2,0,0,1-.282-1.151q.018-.614.375-.7l3.375-.825L97.357,41.8c-.058-.239.091-.457.449-.657a2.139,2.139,0,0,1,.556-.22l.6-.061c.41.013.643.137.7.376" transform="translate(-79.123 -34.882)" fill="#ce88c4"/>
                <path id="Trazado_1032837" data-name="Trazado 1032837" d="M133.575,42.708l-6.59,1.611q-.7.17-1.3-1.112a6.77,6.77,0,0,1-.411-1.077.756.756,0,0,1,0-.525q3.325-5.673,2.923-7.32a1.143,1.143,0,0,0-.491-.764,1.32,1.32,0,0,0-.981-.054,3.6,3.6,0,0,0-1.192.544,3.966,3.966,0,0,0-.856.757,5.592,5.592,0,0,1-1.553-1.7,2.308,2.308,0,0,1-.252-.6,1.55,1.55,0,0,1-.034-.57q.033-.555,1.241-1.334a8.714,8.714,0,0,1,2.677-1.138q4.446-1.086,5.413,2.864a6.581,6.581,0,0,1-.326,3.834,14.473,14.473,0,0,1-2.019,3.786l3.971-1.138q.356,1.028.546,1.8a2.607,2.607,0,0,1,0,1.388,1.018,1.018,0,0,1-.763.755" transform="translate(-92.986 -29.184)" fill="#ce88c4"/>
              </g>
            </g>
          </g>
          <g id="Grupo_1175007" data-name="Grupo 1175007" transform="translate(123.848 26.777)" opacity="0.35">
            <g id="Grupo_1175006" data-name="Grupo 1175006">
              <g id="Grupo_1175005" data-name="Grupo 1175005" clip-path="url(#clip-path-10)">
                <path id="Trazado_1032838" data-name="Trazado 1032838" d="M297.069,37.992q-.052.255-1.578-.056t-1.473-.567l1.513-7.41-1.627-.316q-.451-.093-.157-1.535a4.776,4.776,0,0,1,.295-.942c.128-.3.273-.429.433-.4l4.119.841a.713.713,0,0,1,.391.2.338.338,0,0,1,.1.31Z" transform="translate(-293.631 -26.762)" fill="#ce88c4"/>
                <path id="Trazado_1032839" data-name="Trazado 1032839" d="M302.688,38.971a2.7,2.7,0,0,1,.405-.911,5.921,5.921,0,0,1,.581-.774c.174-.189.271-.282.291-.277a3.557,3.557,0,0,0,1.727.9,1.778,1.778,0,0,0,1.019-.042.773.773,0,0,0,.505-.593.529.529,0,0,0-.227-.618,4.358,4.358,0,0,0-1.042-.385l-.541-.11c-.12-.025-.2-.2-.247-.513a2.606,2.606,0,0,1,.019-.9q.144-.706.568-.635l.439.074a1.864,1.864,0,0,0,.9-.06.7.7,0,0,0,.565-.5q.129-.633-1-.862a4.2,4.2,0,0,0-1.691,0,4.448,4.448,0,0,1-.288-2.039q.14-.684,1.165-.835a7.268,7.268,0,0,1,2.468.144,3.8,3.8,0,0,1,2.132,1.062,1.969,1.969,0,0,1,.477,1.8,3.175,3.175,0,0,1-2.135,2.477,2.718,2.718,0,0,1,1.364,2.987,2.973,2.973,0,0,1-1.479,2.1,4.341,4.341,0,0,1-3.065.29,6.691,6.691,0,0,1-2.1-.78q-.909-.538-.813-1" transform="translate(-298.048 -28.264)" fill="#ce88c4"/>
                <path id="Trazado_1032840" data-name="Trazado 1032840" d="M326.52,32.612a.3.3,0,0,1,.328-.105,1.16,1.16,0,0,1,.437.2,1.432,1.432,0,0,1,.6.749.406.406,0,0,1,.02.207.323.323,0,0,1-.061.144l-9.509,10.758a.347.347,0,0,1-.347.086,1.1,1.1,0,0,1-.429-.2,1.532,1.532,0,0,1-.614-.752.394.394,0,0,1-.01-.182.3.3,0,0,1,.077-.148Z" transform="translate(-305.002 -29.561)" fill="#ce88c4"/>
                <path id="Trazado_1032841" data-name="Trazado 1032841" d="M341.5,47.873l-4.99-1.019q-.527-.107-.528-1.172a4.959,4.959,0,0,1,.067-.864.56.56,0,0,1,.166-.357q4.075-2.786,4.331-4.033a.856.856,0,0,0-.089-.676.987.987,0,0,0-.648-.352,2.7,2.7,0,0,0-.984-.012,2.95,2.95,0,0,0-.824.239,4.211,4.211,0,0,1-.508-1.654,1.722,1.722,0,0,1,.021-.489,1.167,1.167,0,0,1,.159-.4q.2-.367,1.271-.508a6.55,6.55,0,0,1,2.182.085q3.367.687,2.756,3.679a4.936,4.936,0,0,1-1.45,2.5,10.9,10.9,0,0,1-2.585,1.924l3.061.5q-.088.813-.207,1.4a1.966,1.966,0,0,1-.443.943.767.767,0,0,1-.76.268" transform="translate(-314.303 -31.527)" fill="#ce88c4"/>
              </g>
            </g>
          </g>
          <g id="Grupo_1175010" data-name="Grupo 1175010" transform="translate(244.533 68.209)" opacity="0.46">
            <g id="Grupo_1175009" data-name="Grupo 1175009">
              <g id="Grupo_1175008" data-name="Grupo 1175008" clip-path="url(#clip-path-11)">
                <rect id="Rectángulo_415199" data-name="Rectángulo 415199" width="3.336" height="11.014" transform="translate(0 2.884) rotate(-59.796)" fill="#ce88c4"/>
              </g>
            </g>
          </g>
          <g id="Grupo_1175013" data-name="Grupo 1175013" transform="translate(12.671 86.85)" style="isolation: isolate">
            <g id="Grupo_1175012" data-name="Grupo 1175012">
              <g id="Grupo_1175011" data-name="Grupo 1175011" clip-path="url(#clip-path-12)">
                <rect id="Rectángulo_415201" data-name="Rectángulo 415201" width="176.156" height="106.426" transform="translate(0)" fill="#7168ba"/>
              </g>
            </g>
          </g>
          <g id="Grupo_1175016" data-name="Grupo 1175016" transform="translate(15.446 90.796)" style="isolation: isolate">
            <g id="Grupo_1175015" data-name="Grupo 1175015">
              <g id="Grupo_1175014" data-name="Grupo 1175014" clip-path="url(#clip-path-13)">
                <rect id="Rectángulo_415203" data-name="Rectángulo 415203" width="170.605" height="98.533" transform="translate(0)" fill="#f4eaef"/>
              </g>
            </g>
          </g>
          <path id="Trazado_1032842" data-name="Trazado 1032842" d="M63.533,364.495H38.969V360.25a2.075,2.075,0,0,1,2.075-2.075H61.458a2.075,2.075,0,0,1,2.075,2.075Z" transform="translate(-19.022 -174.832)" fill="#c9358f"/>
          <rect id="Rectángulo_415205" data-name="Rectángulo 415205" width="11.014" height="3.336" transform="translate(144.543 138.165) rotate(-72.766)" fill="#ebca4f"/>
          <rect id="Rectángulo_415206" data-name="Rectángulo 415206" width="3.336" height="11.014" transform="translate(142.013 133.361) rotate(-72.766)" fill="#ebca4f"/>
          <path id="Trazado_1032843" data-name="Trazado 1032843" d="M85.744,281.764c-.877.14-1.316.211-2.193.355l.5,3.046c.973-.159,1.459-.238,2.432-.393.059.366.088.549.146.915-1.261.2-1.892.3-3.152.511-.556-3.379-.834-5.069-1.391-8.447,1.227-.2,1.841-.3,3.068-.5.059.366.088.549.146.915-.933.149-1.4.225-2.332.377.175,1.068.262,1.6.437,2.669.878-.143,1.317-.214,2.2-.355l.144.9" transform="translate(-40.067 -135.333)" fill="#7168ba"/>
          <path id="Trazado_1032844" data-name="Trazado 1032844" d="M90.788,283.914l-.119-.752c1.731-.274,2.6-.409,4.33-.671.046.3.068.452.114.754-1.731.262-2.6.4-4.325.67m.39,2.459-.119-.752c1.725-.273,2.587-.407,4.313-.669l.114.754c-1.724.261-2.586.395-4.308.667" transform="translate(-44.257 -137.889)" fill="#7168ba"/>
          <path id="Trazado_1032845" data-name="Trazado 1032845" d="M105.718,278.723c-.21-1.176-.463-2.59-.6-3.648l-.026,0c-.053,1.021-.138,2.111-.255,3.321-.163,1.7-.244,2.553-.4,4.255l-.55.08c-.6-1.56-.9-2.34-1.5-3.9-.445-1.154-.834-2.213-1.143-3.195l-.017,0c.14,1.058.309,2.484.447,3.76.156,1.461.234,2.191.391,3.653l-.692.1c-.352-3.41-.527-5.115-.874-8.525l.937-.139c.631,1.581.945,2.372,1.571,3.954.387,1.008.716,1.91.985,2.769l.026,0c.017-.875.083-1.835.181-2.939.166-1.7.25-2.547.422-4.244l.938-.133c.621,3.37.931,5.056,1.549,8.427l-.709.1c-.268-1.481-.4-2.221-.671-3.7" transform="translate(-49.051 -133.695)" fill="#7168ba"/>
          <path id="Trazado_1032846" data-name="Trazado 1032846" d="M118.532,280.655a2.62,2.62,0,0,1-1.433.6c-1.586.214-2.99-1.128-3.378-3.908-.37-2.654.589-4.623,2.358-4.861a2.252,2.252,0,0,1,1.4.2l-.059.918a1.973,1.973,0,0,0-1.2-.2c-1.335.18-2.047,1.574-1.739,3.8.287,2.076,1.265,3.3,2.636,3.114a2.133,2.133,0,0,0,1.141-.511l.266.849" transform="translate(-55.471 -132.992)" fill="#7168ba"/>
          <path id="Trazado_1032847" data-name="Trazado 1032847" d="M124.681,272.812l-.058-.353c.108-.2.163-.3.273-.493.666-1.166.986-1.771.9-2.41-.059-.432-.285-.811-.793-.735a1.047,1.047,0,0,0-.665.472c-.084-.153-.126-.229-.212-.381a1.334,1.334,0,0,1,.9-.583c.739-.111,1.136.481,1.217,1.091a3.96,3.96,0,0,1-.817,2.45l-.212.354,0,.013c.583-.09.874-.133,1.457-.209l.064.479c-.823.109-1.235.17-2.055.306" transform="translate(-60.588 -130.97)" fill="#7168ba"/>
          <path id="Trazado_1032848" data-name="Trazado 1032848" d="M68.9,284.307a.512.512,0,0,1-.444-.258L63.4,275.187a.512.512,0,1,1,.889-.508l4.3,7.528,1.628-13.013a.512.512,0,0,1,.419-.441l15.843-2.785a.512.512,0,1,1,.177,1.008L71.179,269.7l-1.772,14.162A.511.511,0,0,1,69,284.3a.475.475,0,0,1-.1.01" transform="translate(-30.912 -129.82)" fill="#7168ba"/>
          <path id="Trazado_1032849" data-name="Trazado 1032849" d="M184.263,288.526l-4.121,1.008q-.435.107-.815-.7a4.259,4.259,0,0,1-.257-.674.472.472,0,0,1,0-.329q2.08-3.547,1.828-4.578a.714.714,0,0,0-.308-.478.825.825,0,0,0-.614-.034,2.244,2.244,0,0,0-.745.34,2.472,2.472,0,0,0-.535.473,3.487,3.487,0,0,1-.971-1.065,1.43,1.43,0,0,1-.158-.376.968.968,0,0,1-.021-.357q.021-.347.776-.834a5.452,5.452,0,0,1,1.674-.712q2.781-.68,3.385,1.791a4.115,4.115,0,0,1-.2,2.4,9.045,9.045,0,0,1-1.263,2.367l2.484-.712q.223.643.341,1.127a1.627,1.627,0,0,1,0,.868.637.637,0,0,1-.477.472" transform="translate(-86.659 -136.707)" fill="#ce88c4"/>
          <path id="Trazado_1032850" data-name="Trazado 1032850" d="M199.5,278.694l.51,2.085,2.1-.513q.223-.055.411.281a1.367,1.367,0,0,1,.176.72c-.008.256-.086.4-.235.439l-2.1.512.519,2.123c.037.149-.057.287-.281.411a1.344,1.344,0,0,1-.348.138l-.372.038q-.385-.011-.439-.235l-.519-2.123-2.11.516c-.149.036-.286-.057-.411-.281a1.448,1.448,0,0,1-.138-.348,1.428,1.428,0,0,1-.038-.372q.012-.384.234-.439l2.111-.516-.51-2.085c-.036-.149.057-.286.281-.411a1.332,1.332,0,0,1,.348-.138l.372-.038c.256.008.4.085.439.235" transform="translate(-95.782 -135.921)" fill="#ce88c4"/>
          <path id="Trazado_1032851" data-name="Trazado 1032851" d="M220.714,279.616l-4.121,1.008q-.435.107-.815-.7a4.237,4.237,0,0,1-.257-.673.472.472,0,0,1,0-.329q2.08-3.547,1.828-4.578a.714.714,0,0,0-.308-.478.825.825,0,0,0-.614-.034,2.252,2.252,0,0,0-.745.34,2.474,2.474,0,0,0-.535.473,3.5,3.5,0,0,1-.971-1.065,1.423,1.423,0,0,1-.158-.376.968.968,0,0,1-.022-.357q.021-.347.776-.834a5.442,5.442,0,0,1,1.674-.713q2.781-.68,3.385,1.791a4.12,4.12,0,0,1-.2,2.4,9.077,9.077,0,0,1-1.263,2.367l2.483-.712q.223.643.341,1.127a1.627,1.627,0,0,1,0,.868.638.638,0,0,1-.477.472" transform="translate(-104.452 -132.358)" fill="#ce88c4"/>
          <path id="Trazado_1032852" data-name="Trazado 1032852" d="M159.639,227.764q-.04.2-1.218-.044t-1.137-.438l1.168-5.72-1.256-.245q-.349-.071-.121-1.184a3.713,3.713,0,0,1,.227-.727c.1-.23.211-.332.335-.307l3.179.649a.549.549,0,0,1,.3.153.261.261,0,0,1,.078.239Z" transform="translate(-76.628 -106.945)" fill="#c9358f"/>
          <path id="Trazado_1032853" data-name="Trazado 1032853" d="M163.976,228.519a2.085,2.085,0,0,1,.313-.7,4.587,4.587,0,0,1,.448-.6q.2-.219.225-.214a2.74,2.74,0,0,0,1.332.695,1.366,1.366,0,0,0,.786-.033.6.6,0,0,0,.39-.458.408.408,0,0,0-.175-.477,3.382,3.382,0,0,0-.8-.3l-.418-.084c-.093-.019-.157-.151-.191-.4a2.038,2.038,0,0,1,.014-.692q.112-.544.438-.49l.339.057a1.443,1.443,0,0,0,.693-.046.539.539,0,0,0,.436-.388q.1-.488-.771-.665a3.252,3.252,0,0,0-1.306,0,3.443,3.443,0,0,1-.222-1.575q.107-.527.9-.644a5.6,5.6,0,0,1,1.9.111,2.93,2.93,0,0,1,1.646.82,1.518,1.518,0,0,1,.369,1.392,2.451,2.451,0,0,1-1.647,1.912,2.1,2.1,0,0,1,1.052,2.305,2.3,2.3,0,0,1-1.141,1.622,3.351,3.351,0,0,1-2.366.224,5.151,5.151,0,0,1-1.617-.6q-.7-.415-.628-.775" transform="translate(-80.037 -108.104)" fill="#c9358f"/>
          <path id="Trazado_1032854" data-name="Trazado 1032854" d="M182.372,223.612a.229.229,0,0,1,.253-.081.9.9,0,0,1,.337.153,1.106,1.106,0,0,1,.462.578.316.316,0,0,1,.016.16.258.258,0,0,1-.047.111l-7.34,8.3a.266.266,0,0,1-.267.066.844.844,0,0,1-.331-.152,1.185,1.185,0,0,1-.474-.58.311.311,0,0,1-.008-.141.233.233,0,0,1,.06-.114Z" transform="translate(-85.405 -109.106)" fill="#c9358f"/>
          <path id="Trazado_1032855" data-name="Trazado 1032855" d="M193.932,235.39l-3.852-.787c-.271-.055-.406-.356-.408-.9a4.028,4.028,0,0,1,.052-.667.436.436,0,0,1,.129-.275q3.146-2.15,3.343-3.113a.66.66,0,0,0-.069-.522.761.761,0,0,0-.5-.271,2.06,2.06,0,0,0-.759-.01,2.266,2.266,0,0,0-.636.184,3.238,3.238,0,0,1-.392-1.277,1.348,1.348,0,0,1,.016-.378.892.892,0,0,1,.123-.307q.154-.283.981-.393a5.06,5.06,0,0,1,1.684.066q2.6.531,2.127,2.84a3.81,3.81,0,0,1-1.119,1.929,8.411,8.411,0,0,1-1.995,1.484l2.363.385q-.068.628-.16,1.08a1.516,1.516,0,0,1-.342.728.591.591,0,0,1-.587.207" transform="translate(-92.582 -110.622)" fill="#c9358f"/>
          <rect id="Rectángulo_415207" data-name="Rectángulo 415207" width="11.014" height="3.336" transform="translate(132.356 104.742) rotate(-24.316)" fill="#9a92de"/>
          <path id="Trazado_1032856" data-name="Trazado 1032856" d="M62.288,206.375H48.89v-13.4h13.4ZM49.4,205.863H61.777V193.489H49.4Z" transform="translate(-23.864 -94.196)" fill="#9a92de"/>
          <path id="Trazado_1032857" data-name="Trazado 1032857" d="M96.09,206.046H83.152L89.621,192.3Zm-12.132-.512H95.284L89.621,193.5Z" transform="translate(-40.588 -93.867)" fill="#9a92de"/>
          <path id="Trazado_1032858" data-name="Trazado 1032858" d="M118.8,206.374a6.7,6.7,0,1,1,6.7-6.7,6.706,6.706,0,0,1-6.7,6.7m0-12.886a6.187,6.187,0,1,0,6.187,6.187,6.194,6.194,0,0,0-6.187-6.187" transform="translate(-54.719 -94.195)" fill="#9a92de"/>
        </g>
      </g>
      <g id="Grupo_1175086" data-name="Grupo 1175086" transform="translate(4.019 0)">
        <g id="Grupo_1175085" data-name="Grupo 1175085" clip-path="url(#clip-path-14)">
          <path id="Trazado_1032859" data-name="Trazado 1032859" d="M50.212,480.16c-4.821-.492-30.749,4.965-31.786,10.524a2.165,2.165,0,0,0,.226,1.47c1.11,2.071,6.282,3.061,11.168,3.52s9.5.395,9.5.395l11.535-5.289s2.342-5.708,1.484-8.757a2.319,2.319,0,0,0-2.126-1.863" transform="translate(-12.993 -234.361)" fill="#fff"/>
          <path id="Trazado_1032860" data-name="Trazado 1032860" d="M50.212,480.16c-4.821-.492-30.749,4.965-31.786,10.524a2.165,2.165,0,0,0,.226,1.47c4.518-2.9,16.256-9.123,33.686-10.131a2.319,2.319,0,0,0-2.126-1.863" transform="translate(-12.993 -234.361)" fill="#ebca4f"/>
          <path id="Trazado_1032861" data-name="Trazado 1032861" d="M46.964,501.633a15.192,15.192,0,0,1-2.507,4.286c-.708.849-2.056-.09-1.368-1A15.588,15.588,0,0,0,45.257,501a.91.91,0,1,1,1.707.633" transform="translate(-24.959 -244.255)" fill="#ebca4f"/>
          <path id="Trazado_1032862" data-name="Trazado 1032862" d="M41.132,500.8a12.138,12.138,0,0,1-2.7,4.666.643.643,0,0,1-1-.732c.612-1.554,1.534-2.941,2.108-4.529a.852.852,0,1,1,1.6.6" transform="translate(-22.265 -243.886)" fill="#ebca4f"/>
          <path id="Trazado_1032863" data-name="Trazado 1032863" d="M91.778,474.453l-6.434,1.617L68.265,491.931s4.488,15.423,16.481,20.434l9.584-5.243-3.115,8.583s17.6,8.724,27.233,4.624l7.486-17.041a31.311,31.311,0,0,0,2.563-14.776l-.122-3.786Z" transform="translate(-37.34 -231.59)" fill="#ebca4f"/>
          <g id="Grupo_1175021" data-name="Grupo 1175021" transform="translate(-4.019 213.605)" style="isolation: isolate">
            <g id="Grupo_1175020" data-name="Grupo 1175020">
              <g id="Grupo_1175019" data-name="Grupo 1175019" clip-path="url(#clip-path-15)">
                <path id="Trazado_1032864" data-name="Trazado 1032864" d="M60.7,427.866c-.371-.307-.745-.608-1.113-.922A66.253,66.253,0,0,1,48.821,417.3c-.753.73-2,1.512-2.833,2.313-9.467,9.111-27.179,16.767-27.179,16.767s-9.54-1.69-11.141.343,3.982,2.777,3.982,2.777S-.656,441.657.028,443.668s10.14.141,10.14.141-11.353,3.676-9.682,6.064c1.04,1.368,10.335-2.76,10.335-2.76S1.8,451.9,2.815,453.419s9.477-3.449,9.477-3.449-6.672,4.611-5.519,6.1,12.959-4.692,16.285-7.371c0,0,20.183-7.379,37.638-20.834" transform="translate(0 -417.296)" fill="#e7b69c"/>
              </g>
            </g>
          </g>
          <path id="Trazado_1032865" data-name="Trazado 1032865" d="M27.331,473.3a.3.3,0,0,0-.141-.222c-.059-.038-6.024-3.846-4.526-8.782a.3.3,0,0,0-.581-.178c-1.639,5.385,4.72,9.435,4.785,9.475a.3.3,0,0,0,.418-.1.3.3,0,0,0,.045-.2" transform="translate(-14.667 -226.44)" fill="#be696d"/>
          <path id="Trazado_1032866" data-name="Trazado 1032866" d="M76.988,403.131a3.847,3.847,0,0,0-.868.172c-10.406,5.586-42.291,21.155-42.291,21.155l15.7,14.482L78.89,423.156,77.175,404.3Z" transform="translate(-20.531 -196.776)" fill="#c9358f"/>
          <g id="Grupo_1175024" data-name="Grupo 1175024" transform="translate(59.885 194.618)" style="isolation: isolate">
            <g id="Grupo_1175023" data-name="Grupo 1175023">
              <g id="Grupo_1175022" data-name="Grupo 1175022" clip-path="url(#clip-path-16)">
                <path id="Trazado_1032867" data-name="Trazado 1032867" d="M126.425,380.2l-.475,5.139-1.109,11.952,17.1-.233s2.732-14.117,2.652-14.624Z" transform="translate(-124.842 -380.202)" fill="#e7b69c"/>
              </g>
            </g>
          </g>
          <path id="Trazado_1032868" data-name="Trazado 1032868" d="M149.317,387.044c-.3,2.464-1.322,4.755-1.816,7.993-.652.451-9.129,2.117-13.376-4.676a59.089,59.089,0,0,0,13.419-2.769c.478-.142,1.079-.319,1.774-.549" transform="translate(-69.487 -188.924)" fill="#be696d"/>
          <g id="Grupo_1175027" data-name="Grupo 1175027" transform="translate(60.316 206.209)" style="isolation: isolate">
            <g id="Grupo_1175026" data-name="Grupo 1175026">
              <g id="Grupo_1175025" data-name="Grupo 1175025" clip-path="url(#clip-path-17)">
                <path id="Trazado_1032869" data-name="Trazado 1032869" d="M125.759,402.846c-.593,5.244,2.247,10.351,9.371,11.581,7.037,1.215,10.728-2.534,12.04-7.564-1.772-.281-3.206-.755-4.992-1.052-7.182-1.2-9.535-1.576-16.419-2.965" transform="translate(-125.683 -402.846)" fill="#e7b69c"/>
              </g>
            </g>
          </g>
          <path id="Trazado_1032870" data-name="Trazado 1032870" d="M137.348,412.684c-.622-1.834-4.288-5.24-5.683-6.441-.984,2.109-1.685,4.485-3.377,6.168-1.877,1.869-4.686,1.92-7.084,1.154a10.241,10.241,0,0,1-4.01-2.514,15.57,15.57,0,0,1-2.742-3.708,17.684,17.684,0,0,1-.932-2.012c-.067-.171-.557-1.908-.613-1.912l-3.894-.289-9.574,40.135,44.153,6.646s-.106-19.181-6.244-37.228" transform="translate(-52.557 -196.776)" fill="#c9358f"/>
          <g id="Grupo_1175030" data-name="Grupo 1175030" transform="translate(99.913 198.477)" style="isolation: isolate">
            <g id="Grupo_1175029" data-name="Grupo 1175029">
              <g id="Grupo_1175028" data-name="Grupo 1175028" clip-path="url(#clip-path-18)">
                <path id="Trazado_1032871" data-name="Trazado 1032871" d="M212.187,428.03a160.012,160.012,0,0,0,15.329-16.7c3.546-2.38,12.958-11.814,11.879-13.358s-7.464,3.456-7.464,3.456,7.256-6.6,6.11-8.023-8.4,5.769-8.4,5.769,6.7-7.647,5.707-9.047c-1.784-2.306-8.669,7.441-8.669,7.441s4.6-8.472,2.88-9.723-7.439,9.857-7.439,9.857.95-5.552-1.468-4.628-3.64,10.535-3.64,10.535-6.32,5.7-13.975,11.353a71.658,71.658,0,0,1,9.149,13.073" transform="translate(-203.039 -387.741)" fill="#e7b69c"/>
              </g>
            </g>
          </g>
          <path id="Trazado_1032872" data-name="Trazado 1032872" d="M250.849,415.617a.3.3,0,0,1-.17-.2c-.019-.068-1.881-6.895-7.04-6.932a.3.3,0,0,1,0-.607c5.629.037,7.6,7.312,7.624,7.385a.3.3,0,0,1-.418.354" transform="translate(-122.797 -199.093)" fill="#be696d"/>
          <path id="Trazado_1032873" data-name="Trazado 1032873" d="M164.051,420.1l-1.657-10.885,2.947.716c4.865,1.433,13.446,7.666,13.446,7.666l5.635,4.309,7.605-6.955,12.74,14.712-9.335,11.164A14.563,14.563,0,0,1,177.44,444.6l-8.378-4.13Z" transform="translate(-83.286 -199.744)" fill="#c9358f"/>
          <path id="Trazado_1032874" data-name="Trazado 1032874" d="M142.892,493.371A256.786,256.786,0,0,1,100.1,482.559l.249-.67a256.028,256.028,0,0,0,42.659,10.777Z" transform="translate(-52.879 -235.22)" fill="#be696d"/>
          <path id="Trazado_1032875" data-name="Trazado 1032875" d="M122.607,515.649l-.516-.494c5.436-5.684,9.679-20.359,9.722-20.506l.687.2c-.175.61-4.334,14.992-9.893,20.8" transform="translate(-63.614 -241.448)" fill="#be696d"/>
          <path id="Trazado_1032876" data-name="Trazado 1032876" d="M132.073,510.119q-.141-.013-.284-.034l.105-.707a4,4,0,0,0,3.066-.817c3.77-2.838,4.978-11.618,4.99-11.707l.708.094c-.05.373-1.26,9.165-5.268,12.183a4.672,4.672,0,0,1-3.318.988" transform="translate(-68.347 -242.524)" fill="#be696d"/>
          <path id="Trazado_1032877" data-name="Trazado 1032877" d="M88.858,491.318a8.758,8.758,0,0,1-2.969-.824l.306-.646c6.676,3.164,12.678-4.2,12.738-4.272l.558.446c-.054.068-4.751,5.833-10.632,5.3" transform="translate(-45.943 -237.019)" fill="#be696d"/>
          <path id="Trazado_1032878" data-name="Trazado 1032878" d="M75.589,384.939l3.537,2.089c.233-.26.471-.507.692-.762.515-.582,1.767-1.54,2.013-2.265a18.54,18.54,0,0,1-1.354,3.83l2.836,1.677,2.972-7.341-1.734,7.747,7.819,3.556s7.147-24.6,7.656-25.714a5.2,5.2,0,0,0-2.677-3.017,5.481,5.481,0,0,0-6.328,2.07q-7.714,9.06-15.431,18.13" transform="translate(-40.915 -177.867)"/>
          <path id="Trazado_1032879" data-name="Trazado 1032879" d="M190.2,381.381l-2.193,3.474c-.327-.125-.651-.236-.964-.363-.724-.282-2.275-.564-2.825-1.1a18.583,18.583,0,0,0,2.953,2.79l-1.758,2.786-6-5.175,5.079,6.1-5.334,6.732s-17.585-18.622-18.548-19.385a5.194,5.194,0,0,1,1-3.906,5.482,5.482,0,0,1,6.576-1.046q11,4.541,22,9.088" transform="translate(-82.395 -181.416)"/>
          <g id="Grupo_1175033" data-name="Grupo 1175033" transform="translate(88.833 168.111)" style="isolation: isolate">
            <g id="Grupo_1175032" data-name="Grupo 1175032">
              <g id="Grupo_1175031" data-name="Grupo 1175031" clip-path="url(#clip-path-19)">
                <path id="Trazado_1032880" data-name="Trazado 1032880" d="M181.848,338.8a13.608,13.608,0,0,1,0-7c.775-2.795,2.52-5.183,6.45-1.5,6.987,6.554.471,15.392-5.285,13.069Z" transform="translate(-181.393 -328.419)" fill="#e7b69c"/>
              </g>
            </g>
          </g>
          <g id="Grupo_1175036" data-name="Grupo 1175036" transform="translate(90.637 172.457)" style="mix-blend-mode: multiply;isolation: isolate">
            <g id="Grupo_1175035" data-name="Grupo 1175035">
              <g id="Grupo_1175034" data-name="Grupo 1175034" clip-path="url(#clip-path-20)">
                <path id="Trazado_1032881" data-name="Trazado 1032881" d="M189.087,337.025a3.4,3.4,0,0,0-3.334.953,3.218,3.218,0,0,0-.621,3.323,3.357,3.357,0,0,0,1.251,1.609.462.462,0,0,0,.625-.168.467.467,0,0,0-.168-.624,2.465,2.465,0,0,1-.919-2.63.321.321,0,0,0,.158.026,2.913,2.913,0,0,1,.406-.016c.065,0,.129.006.193.013l.045.005.089.015a2.956,2.956,0,0,1,.375.1c.061.02.122.044.183.066-.095-.035.024.011.035.016l.088.041a3.185,3.185,0,0,1,.337.193l.08.054c.008.006.058.046.059.045.04.033.08.066.119.1a2.941,2.941,0,0,1,.271.276l.058.071.023.03c.041.058.08.118.117.178a.457.457,0,1,0,.793-.454,3.5,3.5,0,0,0-2.906-1.655,2.478,2.478,0,0,1,2.407-.681.458.458,0,0,0,.24-.882" transform="translate(-184.918 -336.909)" fill="#be696d"/>
              </g>
            </g>
          </g>
          <path id="Trazado_1032882" data-name="Trazado 1032882" d="M97.113,340.669c9.757,6.042,19.841,3.342,25.606,1.8,3.221-.865,13.189-3.532,15.726-10.609.181-.507.283-.934.4-1.391a16.577,16.577,0,0,0,.47-3.536,25.226,25.226,0,0,0-.317-4.419,41.5,41.5,0,0,0-1.417-6.065c-.087-.287-.173-.574-.264-.854-.484-1.5-1.01-2.908-1.556-4.21-.638-1.534-1.307-2.935-1.962-4.2a44.887,44.887,0,0,0-5.249-8.011,30.221,30.221,0,0,0-3.861-3.929,16.1,16.1,0,0,0-2.045-1.458,25,25,0,0,0-8.879-2.983,12.4,12.4,0,0,0-3.233-.147c-16.735.877-23.948,8.842-25.881,18.863a33.75,33.75,0,0,0-.534,7.541c0,.1.011.234.016.41.169,2.976,1.527,16.119,12.977,23.2" transform="translate(-45.068 -141.853)" fill="#e7b69c"/>
          <path id="Trazado_1032883" data-name="Trazado 1032883" d="M125.082,289.843a52.281,52.281,0,0,0,4.446,5.129c.2.206.4.412.614.6a50.387,50.387,0,0,0,5.15,4.455,53.556,53.556,0,0,0,21.7,9.858,21.524,21.524,0,0,0-2.119-11.466,19.974,19.974,0,0,0-1.616-2.68,21.806,21.806,0,0,0-5.445-5.395,20.33,20.33,0,0,0-21.3-1.316c-.561.289-1.044.571-1.436.811" transform="translate(-65.074 -139.911)"/>
          <path id="Trazado_1032884" data-name="Trazado 1032884" d="M76.292,316.894c0,.158.012.319.026.472a17.892,17.892,0,0,0,2.655,9.137c1.834,2.822,3.042,4.145,6.406,4.409a42.3,42.3,0,0,0,19-25.421,41.16,41.16,0,0,0,1.261-7.282c.03-.342.051-.688.073-1.034a39.625,39.625,0,0,0-.1-5.651c-.976-.13-1.956-.23-2.913-.289-6.515-.441-12.571.685-17.545,5.16a26.432,26.432,0,0,0-5.555,7.087,26.914,26.914,0,0,0-3.307,13.413" transform="translate(-41.255 -142.114)"/>
          <g id="Grupo_1175039" data-name="Grupo 1175039" transform="translate(39.629 185.764)" style="isolation: isolate">
            <g id="Grupo_1175038" data-name="Grupo 1175038">
              <g id="Grupo_1175037" data-name="Grupo 1175037" clip-path="url(#clip-path-21)">
                <path id="Trazado_1032885" data-name="Trazado 1032885" d="M95.64,370.317a13.616,13.616,0,0,0-3.836-5.851c-2.179-1.914-4.947-2.956-6.216,2.281-2.256,9.311,8.037,13.136,11.58,8.041Z" transform="translate(-85.269 -362.905)" fill="#e7b69c"/>
              </g>
            </g>
          </g>
          <g id="Grupo_1175042" data-name="Grupo 1175042" transform="translate(42.028 190.128)" style="mix-blend-mode: multiply;isolation: isolate">
            <g id="Grupo_1175041" data-name="Grupo 1175041">
              <g id="Grupo_1175040" data-name="Grupo 1175040" clip-path="url(#clip-path-22)">
                <path id="Trazado_1032886" data-name="Trazado 1032886" d="M90.071,372.554a3.4,3.4,0,0,1,3.312-1.028,3.216,3.216,0,0,1,2.34,2.44A3.354,3.354,0,0,1,95.558,376a.461.461,0,0,1-.614.2.468.468,0,0,1-.2-.615,2.466,2.466,0,0,0-.671-2.7.328.328,0,0,1-.118.108,2.975,2.975,0,0,0-.35.209c-.053.037-.1.076-.155.117l-.034.029c-.023.02-.045.04-.066.061a3.008,3.008,0,0,0-.262.286c-.04.051-.078.1-.117.155.06-.08-.014.022-.02.032q-.026.041-.051.083a3.127,3.127,0,0,0-.176.346c-.013.03-.026.059-.037.09,0,.009-.024.07-.025.07-.016.05-.032.1-.046.149a2.888,2.888,0,0,0-.075.379c0,.03-.007.061-.01.091,0,.009,0,.022,0,.037,0,.071,0,.142,0,.213a.457.457,0,0,1-.913.055,3.5,3.5,0,0,1,1.525-2.977,2.48,2.48,0,0,0-2.387.748.458.458,0,0,1-.684-.607" transform="translate(-89.957 -371.432)" fill="#be696d"/>
              </g>
            </g>
          </g>
          <g id="Grupo_1175081" data-name="Grupo 1175081" transform="translate(56.226 171.504)" opacity="0.38">
            <g id="Grupo_1175080" data-name="Grupo 1175080">
              <g id="Grupo_1175079" data-name="Grupo 1175079" clip-path="url(#clip-path-23)">
                <g id="Grupo_1175045" data-name="Grupo 1175045" transform="translate(31.639)" style="mix-blend-mode: multiply;isolation: isolate">
                  <g id="Grupo_1175044" data-name="Grupo 1175044">
                    <g id="Grupo_1175043" data-name="Grupo 1175043" clip-path="url(#clip-path-24)">
                      <path id="Trazado_1032887" data-name="Trazado 1032887" d="M179.5,335.35a.256.256,0,1,0,.205-.3.256.256,0,0,0-.205.3" transform="translate(-179.501 -335.047)" fill="#be696d"/>
                    </g>
                  </g>
                </g>
                <g id="Grupo_1175048" data-name="Grupo 1175048" transform="translate(14.95 4.143)" style="mix-blend-mode: multiply;isolation: isolate">
                  <g id="Grupo_1175047" data-name="Grupo 1175047">
                    <g id="Grupo_1175046" data-name="Grupo 1175046" clip-path="url(#clip-path-24)">
                      <path id="Trazado_1032888" data-name="Trazado 1032888" d="M146.9,343.444a.256.256,0,1,0,.205-.3.257.257,0,0,0-.205.3" transform="translate(-146.898 -343.14)" fill="#be696d"/>
                    </g>
                  </g>
                </g>
                <g id="Grupo_1175051" data-name="Grupo 1175051" transform="translate(23.087 5.086)" style="mix-blend-mode: multiply;isolation: isolate">
                  <g id="Grupo_1175050" data-name="Grupo 1175050">
                    <g id="Grupo_1175049" data-name="Grupo 1175049" clip-path="url(#clip-path-24)">
                      <path id="Trazado_1032889" data-name="Trazado 1032889" d="M162.8,345.287a.256.256,0,1,0,.205-.3.257.257,0,0,0-.205.3" transform="translate(-162.795 -344.983)" fill="#be696d"/>
                    </g>
                  </g>
                </g>
                <g id="Grupo_1175054" data-name="Grupo 1175054" transform="translate(25.945 3.741)" style="mix-blend-mode: multiply;isolation: isolate">
                  <g id="Grupo_1175053" data-name="Grupo 1175053">
                    <g id="Grupo_1175052" data-name="Grupo 1175052" clip-path="url(#clip-path-27)">
                      <path id="Trazado_1032890" data-name="Trazado 1032890" d="M168.383,342.659a.256.256,0,1,0,.205-.3.257.257,0,0,0-.205.3" transform="translate(-168.378 -342.355)" fill="#be696d"/>
                    </g>
                  </g>
                </g>
                <g id="Grupo_1175057" data-name="Grupo 1175057" transform="translate(22.96 2.868)" style="mix-blend-mode: multiply;isolation: isolate">
                  <g id="Grupo_1175056" data-name="Grupo 1175056">
                    <g id="Grupo_1175055" data-name="Grupo 1175055" clip-path="url(#clip-path-27)">
                      <path id="Trazado_1032891" data-name="Trazado 1032891" d="M162.551,340.954a.256.256,0,1,0,.205-.3.257.257,0,0,0-.205.3" transform="translate(-162.546 -340.65)" fill="#be696d"/>
                    </g>
                  </g>
                </g>
                <g id="Grupo_1175060" data-name="Grupo 1175060" transform="translate(28.655 2.001)" style="mix-blend-mode: multiply;isolation: isolate">
                  <g id="Grupo_1175059" data-name="Grupo 1175059">
                    <g id="Grupo_1175058" data-name="Grupo 1175058" clip-path="url(#clip-path-27)">
                      <path id="Trazado_1032892" data-name="Trazado 1032892" d="M173.676,339.259a.256.256,0,1,0,.2-.3.257.257,0,0,0-.2.3" transform="translate(-173.671 -338.956)" fill="#be696d"/>
                    </g>
                  </g>
                </g>
                <g id="Grupo_1175063" data-name="Grupo 1175063" transform="translate(12.159 6.571)" style="mix-blend-mode: multiply;isolation: isolate">
                  <g id="Grupo_1175062" data-name="Grupo 1175062">
                    <g id="Grupo_1175061" data-name="Grupo 1175061" clip-path="url(#clip-path-27)">
                      <path id="Trazado_1032893" data-name="Trazado 1032893" d="M141.451,348.187a.256.256,0,1,0,.205-.3.257.257,0,0,0-.205.3" transform="translate(-141.446 -347.884)" fill="#be696d"/>
                    </g>
                  </g>
                </g>
                <g id="Grupo_1175066" data-name="Grupo 1175066" transform="translate(0 10.377)" style="mix-blend-mode: multiply;isolation: isolate">
                  <g id="Grupo_1175065" data-name="Grupo 1175065">
                    <g id="Grupo_1175064" data-name="Grupo 1175064" clip-path="url(#clip-path-27)">
                      <path id="Trazado_1032894" data-name="Trazado 1032894" d="M117.7,355.624a.256.256,0,1,0,.205-.3.256.256,0,0,0-.205.3" transform="translate(-117.692 -355.32)" fill="#be696d"/>
                    </g>
                  </g>
                </g>
                <g id="Grupo_1175069" data-name="Grupo 1175069" transform="translate(0.622 7.379)" style="mix-blend-mode: multiply;isolation: isolate">
                  <g id="Grupo_1175068" data-name="Grupo 1175068">
                    <g id="Grupo_1175067" data-name="Grupo 1175067" clip-path="url(#clip-path-32)">
                      <path id="Trazado_1032895" data-name="Trazado 1032895" d="M118.911,349.766a.256.256,0,1,0,.205-.3.257.257,0,0,0-.205.3" transform="translate(-118.907 -349.463)" fill="#be696d"/>
                    </g>
                  </g>
                </g>
                <g id="Grupo_1175072" data-name="Grupo 1175072" transform="translate(12.104 4.134)" style="mix-blend-mode: multiply;isolation: isolate">
                  <g id="Grupo_1175071" data-name="Grupo 1175071">
                    <g id="Grupo_1175070" data-name="Grupo 1175070" clip-path="url(#clip-path-24)">
                      <path id="Trazado_1032896" data-name="Trazado 1032896" d="M141.342,343.427a.256.256,0,1,0,.2-.3.257.257,0,0,0-.2.3" transform="translate(-141.338 -343.123)" fill="#be696d"/>
                    </g>
                  </g>
                </g>
                <path id="Trazado_1032897" data-name="Trazado 1032897" d="M124.686,354.818a.256.256,0,1,0,.205-.3.257.257,0,0,0-.205.3" transform="translate(-121.104 -344.549)" fill="#be696d"/>
                <g id="Grupo_1175075" data-name="Grupo 1175075" transform="translate(9.289 7.943)" style="mix-blend-mode: multiply;isolation: isolate">
                  <g id="Grupo_1175074" data-name="Grupo 1175074">
                    <g id="Grupo_1175073" data-name="Grupo 1175073" clip-path="url(#clip-path-27)">
                      <path id="Trazado_1032898" data-name="Trazado 1032898" d="M135.842,350.869a.256.256,0,1,0,.205-.3.257.257,0,0,0-.205.3" transform="translate(-135.838 -350.565)" fill="#be696d"/>
                    </g>
                  </g>
                </g>
                <g id="Grupo_1175078" data-name="Grupo 1175078" transform="translate(20.246 1.752)" style="mix-blend-mode: multiply;isolation: isolate">
                  <g id="Grupo_1175077" data-name="Grupo 1175077">
                    <g id="Grupo_1175076" data-name="Grupo 1175076" clip-path="url(#clip-path-27)">
                      <path id="Trazado_1032899" data-name="Trazado 1032899" d="M157.25,338.773a.256.256,0,1,0,.205-.3.256.256,0,0,0-.205.3" transform="translate(-157.245 -338.47)" fill="#be696d"/>
                    </g>
                  </g>
                </g>
              </g>
            </g>
          </g>
          <g id="Grupo_1175084" data-name="Grupo 1175084" transform="translate(35.03 150.436)" opacity="0.43">
            <g id="Grupo_1175083" data-name="Grupo 1175083">
              <g id="Grupo_1175082" data-name="Grupo 1175082" clip-path="url(#clip-path-36)">
                <path id="Trazado_1032900" data-name="Trazado 1032900" d="M134.969,299.118a50.321,50.321,0,0,0,5.15,4.455c.186-.156.368-.3.554-.459a14.23,14.23,0,0,0,1.648-1.667,19.5,19.5,0,0,0,8.887.516c.614-.108,1.218-.241,1.83-.413a17.9,17.9,0,0,0,5.047-2.266,21.8,21.8,0,0,0-5.445-5.394A9.864,9.864,0,0,1,151.172,295a12.257,12.257,0,0,1-9.062,1.319,10.416,10.416,0,0,1-3.579-1.586,8.751,8.751,0,0,1-1.892,2.989,9.76,9.76,0,0,1-1.67,1.4" transform="translate(-104.93 -293.89)" fill="#fff"/>
                <path id="Trazado_1032901" data-name="Trazado 1032901" d="M76.292,322.939c0,.158.012.319.026.472.469-.435.921-.9,1.36-1.38l0-.009a23.187,23.187,0,0,0,3.571-5.3,9.5,9.5,0,0,0,8.479.446c2.687-1.194,5.156-3.586,5.425-6.247a16.179,16.179,0,0,0,9.218.615,41.16,41.16,0,0,0,1.261-7.282,10.275,10.275,0,0,1-2.38.978,10.685,10.685,0,0,1-7.635-.9,8.423,8.423,0,0,1-1.236-.8,9.912,9.912,0,0,1-.811,1.462l0,.009a11.981,11.981,0,0,1-6.818,4.755,12.614,12.614,0,0,1-7.155-.23,26.914,26.914,0,0,0-3.307,13.413" transform="translate(-76.285 -298.596)" fill="#fff"/>
              </g>
            </g>
          </g>
          <path id="Trazado_1032902" data-name="Trazado 1032902" d="M142.353,366.377a7.627,7.627,0,0,0,4.451.8c3.459-.344,5.33-2.028,6.017-3.729.624-1.529.3-3.059-.658-3.643a1.976,1.976,0,0,0-1.683-.12c-3.8,1.23-9.571.771-9.571.771a1.463,1.463,0,0,0-.714.1c-1.564.625-.867,4.169,2.157,5.822" transform="translate(-72.056 -175.509)" fill="#222221"/>
          <path id="Trazado_1032903" data-name="Trazado 1032903" d="M140.967,360.556a5.044,5.044,0,0,0,2.22,1.107,12.02,12.02,0,0,0,9.747-1.853,1.976,1.976,0,0,0-1.683-.12c-3.8,1.23-9.571.771-9.571.771a1.464,1.464,0,0,0-.714.1" transform="translate(-72.827 -175.509)" fill="#fff"/>
          <path id="Trazado_1032904" data-name="Trazado 1032904" d="M145.181,369.492a7.627,7.627,0,0,0,4.451.8c3.459-.344,5.33-2.028,6.017-3.729a7.907,7.907,0,0,0-2.7-.614,10.132,10.132,0,0,0-4.921,1.1,7.246,7.246,0,0,0-2.037,1.4,5.292,5.292,0,0,0-.811,1.039" transform="translate(-74.884 -178.624)" fill="#be696d"/>
          <path id="Trazado_1032905" data-name="Trazado 1032905" d="M165.7,329.935a4.826,4.826,0,1,0-3.27,5.991,4.826,4.826,0,0,0,3.27-5.991" transform="translate(-80.284 -159.356)" fill="#fff"/>
        </g>
      </g>
      <g id="Grupo_1175088" data-name="Grupo 1175088" transform="translate(79.978 167.113)">
        <g id="Grupo_1175087" data-name="Grupo 1175087" clip-path="url(#clip-path-37)">
          <path id="Trazado_1032906" data-name="Trazado 1032906" d="M165.646,330.254l1.415-1.243a2.954,2.954,0,1,1-1.2-.59Z" transform="translate(-159.169 -327.384)"/>
        </g>
      </g>
      <g id="Grupo_1175090" data-name="Grupo 1175090" transform="translate(4.019 0)">
        <g id="Grupo_1175089" data-name="Grupo 1175089" clip-path="url(#clip-path-38)">
          <path id="Trazado_1032908" data-name="Trazado 1032908" d="M165.608,329.711a4.832,4.832,0,0,0-9.261,2.721,4.832,4.832,0,1,1,9.261-2.721" transform="translate(-80.191 -159.132)"/>
          <path id="Trazado_1032909" data-name="Trazado 1032909" d="M169.911,325.57a2.07,2.07,0,0,0,1.623-.572,1.945,1.945,0,0,0,.491-.769,1.306,1.306,0,0,0-.026-.9,5.133,5.133,0,0,1-.938,1.171c-.348.334-.736.636-1.151,1.069" transform="translate(-86.956 -157.824)"/>
          <path id="Trazado_1032910" data-name="Trazado 1032910" d="M172.476,327.6a2.07,2.07,0,0,0,1.695-.3,1.951,1.951,0,0,0,.612-.677,1.308,1.308,0,0,0,.124-.891,5.126,5.126,0,0,1-1.118,1c-.4.271-.832.506-1.312.864" transform="translate(-88.208 -158.997)"/>
          <path id="Trazado_1032911" data-name="Trazado 1032911" d="M173.965,330.388a2.068,2.068,0,0,0,1.717-.105,1.942,1.942,0,0,0,.684-.6,1.311,1.311,0,0,0,.222-.871,5.155,5.155,0,0,1-1.223.869c-.426.225-.883.41-1.4.713" transform="translate(-88.934 -160.497)"/>
          <path id="Trazado_1032912" data-name="Trazado 1032912" d="M121.47,342.037a4.826,4.826,0,1,1,6.059,3.142,4.825,4.825,0,0,1-6.059-3.142" transform="translate(-63.2 -163.887)" fill="#fff"/>
        </g>
      </g>
      <g id="Grupo_1175092" data-name="Grupo 1175092" transform="translate(62.062 171.865)">
        <g id="Grupo_1175091" data-name="Grupo 1175091" clip-path="url(#clip-path-39)">
          <path id="Trazado_1032913" data-name="Trazado 1032913" d="M131.783,339.211l.121-1.88a2.954,2.954,0,1,0,1.2.593Z" transform="translate(-124.675 -336.484)"/>
        </g>
      </g>
      <g id="Grupo_1175103" data-name="Grupo 1175103" transform="translate(4.019 0)">
        <g id="Grupo_1175102" data-name="Grupo 1175102" clip-path="url(#clip-path-38)">
          <path id="Trazado_1032915" data-name="Trazado 1032915" d="M121.373,341.815a4.832,4.832,0,1,1,9.2-2.917,4.832,4.832,0,0,0-9.2,2.917" transform="translate(-63.103 -163.665)"/>
          <path id="Trazado_1032916" data-name="Trazado 1032916" d="M119.2,341.462c-.6-.007-1.087.057-1.569.073a5.115,5.115,0,0,1-1.492-.151,1.306,1.306,0,0,0,.624.648,1.944,1.944,0,0,0,.893.187,2.068,2.068,0,0,0,1.545-.757" transform="translate(-60.707 -166.636)"/>
          <path id="Trazado_1032917" data-name="Trazado 1032917" d="M118.729,343.885c-.592.092-1.063.236-1.536.331a5.133,5.133,0,0,1-1.5.1,1.308,1.308,0,0,0,.723.535,1.938,1.938,0,0,0,.912.037,2.069,2.069,0,0,0,1.4-1" transform="translate(-60.493 -167.857)"/>
          <path id="Trazado_1032918" data-name="Trazado 1032918" d="M118.787,346.653c-.526.143-.937.322-1.355.455a4.651,4.651,0,0,1-1.344.241,1.192,1.192,0,0,0,.707.412,1.773,1.773,0,0,0,.829-.059,1.885,1.885,0,0,0,1.162-1.048" transform="translate(-60.684 -169.208)"/>
          <line id="Línea_902" data-name="Línea 902" y1="7.136" x2="2.477" transform="translate(50.662 222.835)" fill="none" stroke="#f4eaef" stroke-linecap="round" stroke-miterlimit="10" stroke-width="1"/>
          <line id="Línea_903" data-name="Línea 903" x1="2.836" y1="17.125" transform="translate(87.437 221.01)" fill="none" stroke="#f4eaef" stroke-linecap="round" stroke-miterlimit="10" stroke-width="1"/>
          <line id="Línea_904" data-name="Línea 904" x1="3.884" y2="3.304" transform="translate(97.251 222.157)" fill="none" stroke="#f4eaef" stroke-linecap="round" stroke-miterlimit="10" stroke-width="1"/>
          <path id="Trazado_1032919" data-name="Trazado 1032919" d="M151.206,343.064a1.646,1.646,0,0,1,.156.384,11.824,11.824,0,0,0,.488,1.6c.021.054.253.715.337.707,1.881-.174,2.6.8,1.656,1.9a3.133,3.133,0,0,1-1.83.859,1.745,1.745,0,0,1-1.988-1.313c-.189-.79-.339-1.591-.473-2.393-.114-.674-.513-2.112.233-2.584.524-.332,1.132.307,1.423.847" transform="translate(-76.915 -166.998)" fill="#be696d"/>
          <path id="Trazado_1032920" data-name="Trazado 1032920" d="M142.3,434l3.333,6.5,7.453-.616-4.557,5.094,4.062,4.895-7.511-1.478-4.246,4.649-.652-7.213-5.791-2.329,6.465-2.234Z" transform="translate(-69.62 -211.845)" fill="#ebca4f"/>
          <path id="Trazado_1032921" data-name="Trazado 1032921" d="M241.15,87.849s.33,3.632-.918,5.631c-.577.924-2,1.114-3.034,1.125a3.729,3.729,0,0,1,3.222,1.647,15.074,15.074,0,0,1,1.049,5.387c.171-2.176-.068-4.433.646-5.764.53-.987,1.826-1.288,2.934-1.587,0,0-2.28.319-2.96-.565-.776-1.008-.861-2.934-.939-5.873" transform="translate(-119.8 -42.881)" fill="#fff"/>
          <path id="Trazado_1032922" data-name="Trazado 1032922" d="M176.333,55.136s.465,5.131-1.3,7.954c-.815,1.305-2.82,1.574-4.286,1.589,0,0,3.241-.116,4.552,2.327.8,1.5,1.258,4.259,1.482,7.61.242-3.074-.1-6.264.913-8.142.748-1.395,2.579-1.82,4.144-2.243,0,0-3.221.451-4.182-.8-1.1-1.425-1.217-4.144-1.326-8.3" transform="translate(-87.365 -26.913)" fill="#fff"/>
          <path id="Trazado_1032923" data-name="Trazado 1032923" d="M142.525,124.032s.33,3.632-.918,5.631c-.577.924-2,1.114-3.034,1.125a3.728,3.728,0,0,1,3.222,1.647,15.069,15.069,0,0,1,1.049,5.387c.171-2.176-.068-4.434.646-5.764.53-.987,1.826-1.288,2.934-1.587,0,0-2.28.319-2.96-.565-.775-1.008-.861-2.934-.939-5.873" transform="translate(-71.659 -60.543)" fill="#fff"/>
          <g id="Grupo_1175095" data-name="Grupo 1175095" transform="translate(99.005 87.882)" style="isolation: isolate">
            <g id="Grupo_1175094" data-name="Grupo 1175094">
              <g id="Grupo_1175093" data-name="Grupo 1175093" clip-path="url(#clip-path-41)">
                <path id="Trazado_1032924" data-name="Trazado 1032924" d="M211.4,182.758a34,34,0,0,1-5.641-3.859c-.287-.6-1.949-3.7-2.406-4.7-.24-.527-.959-2.6-1.854-2.506-.928.093,1.139,7.027,1.45,7.85.453,1.2,1.065,2.4,1.609,3.581" transform="translate(-201.266 -171.686)" fill="#e7b69c"/>
              </g>
            </g>
          </g>
          <path id="Trazado_1032925" data-name="Trazado 1032925" d="M361.96,52.686c-.191-2.972,2.651-6.507,4.378-8.856,2.04-2.776,5.706-4.63,8.961-5.629a22.456,22.456,0,0,1,23.776,6.641c4.669,5.167,6.038,12.164,6.038,18.922,0,2.666-.031,5.335,0,8,.038,3.387,1.35,6.4,2.321,9.583,2.585,8.478,3.558,16.335,1.539,25.08-1.4,6.079-5.525,11.107-7.444,16.943-1.6,4.86.377,9.944-4.32,13.638-6.307,4.959-17.354,3.453-24.463,1.755-6.074-1.45-10.677-5.574-10.332-12.214.147-2.829,1.1-5.388,1.71-8.162,1.385-6.267,1.6-12.526,1.873-18.956.465-10.97,1.843-23.322-.572-34.052-.44-1.956-1.557-3.773-1.874-5.654" transform="translate(-180.694 -18.13)" fill="#c9358f"/>
          <path id="Trazado_1032926" data-name="Trazado 1032926" d="M381.936,58.008s11.56-10.562,19.521,5.281l-7.525,1.305Z" transform="translate(-190.449 -26.632)" fill="#ebca4f"/>
          <path id="Trazado_1032927" data-name="Trazado 1032927" d="M316.9,100.589c-.356-2.681-2.3-4.877-3.23-7.444a19.826,19.826,0,0,1-.974-9.95c.728-4.243,3.989-7.6,7.383-9.967,3.479-2.428,6.865-3,10.674-4.424,3.162-1.179,5.983-3.763,9.052-5.227A25.2,25.2,0,0,1,350.74,61.3c6.68.015,11.3,1.77,16.8,5.281,11.419,7.3,11.354,21.532,11.368,33.9.006,5.744-2.381,12.156-5.507,16.914-1.385,2.108-2.655,4.379-4.2,6.371-1.79,2.305-4.519,2.878-6.37,4.594-2.313,2.144.373,5.585-.949,8.125a3.377,3.377,0,0,1-3.838,1.424c-1.972-.42-4.163-2.071-5.923-3.008-2.241-1.192-4.762-2.3-6.677-3.993-5.268-4.666-9.094-11.246-13.774-16.509-3.39-3.811-6.535-7.807-10.449-11.079a24.375,24.375,0,0,0-4.315-2.725" transform="translate(-156.527 -29.921)" fill="#c9358f"/>
          <g id="Grupo_1175098" data-name="Grupo 1175098" transform="translate(169.643 123.731)" style="isolation: isolate">
            <g id="Grupo_1175097" data-name="Grupo 1175097">
              <g id="Grupo_1175096" data-name="Grupo 1175096" clip-path="url(#clip-path-42)">
                <path id="Trazado_1032928" data-name="Trazado 1032928" d="M370.878,241.719s-2.624,8.68-.222,13.451c2.524,5.014,32.979,36.9,34.947,41.026l-40.324,9.257s-17.062-2.838-20,2.142-6.869,14.879-5.859,18.045,5.638,4.7,5.99,6.1a5.928,5.928,0,0,0,.4-4.268,6.686,6.686,0,0,0-2.6-3.828s5.484-4,6.962-7.8c4.568,4.849-4.158,9.721-.988,15.309a32.609,32.609,0,0,1,3.487-5.872,49.43,49.43,0,0,1,6.422-6.055s1.3-.8,5.62-3.459c0,0,50.458-5.506,57.7-11.649s-20.506-44.405-20.506-44.405Z" transform="translate(-339.261 -241.719)" fill="#e7b69c"/>
              </g>
            </g>
          </g>
          <g id="Grupo_1175101" data-name="Grupo 1175101" transform="translate(185.848 94.255)" style="isolation: isolate">
            <g id="Grupo_1175100" data-name="Grupo 1175100">
              <g id="Grupo_1175099" data-name="Grupo 1175099" clip-path="url(#clip-path-43)">
                <path id="Trazado_1032929" data-name="Trazado 1032929" d="M370.919,194.749l.547,11.086,17.544-1.755-.76-19.945s-8.342,10.439-17.331,10.614" transform="translate(-370.919 -184.135)" fill="#e7b69c"/>
              </g>
            </g>
          </g>
          <path id="Trazado_1032930" data-name="Trazado 1032930" d="M346.538,84.314S326.018,80.789,323,103.444s2.814,45.1,20.315,45.884,23.253-16.237,23.253-16.237,8.436-17.486,6.186-17.869-3.605,2.933-3.605,2.933,3.4-29.354-22.606-33.841" transform="translate(-161.308 -41.059)" fill="#e7b69c"/>
          <path id="Trazado_1032931" data-name="Trazado 1032931" d="M382.763,111.02s-36.113-6.205-32.351-33.749c0,0,3.984-10.41,16.94-7.136,17.013,4.3,21.294,23.9,19.048,37.233,0,0-2.491.149-3.636,3.652" transform="translate(-174.927 -33.924)" fill="#c9358f"/>
          <path id="Trazado_1032932" data-name="Trazado 1032932" d="M418.493,153.206c-2.076.743-3.005,3-3.572,4.967l-.218.888-.163-.288a2.518,2.518,0,0,1,1.1,4.013,2.2,2.2,0,0,1-1.369.662,2.2,2.2,0,0,0,.1-4.2l-.212-.083.049-.2c.5-2.327,1.667-5.258,4.282-5.752" transform="translate(-206.179 -74.783)" fill="#be696d"/>
          <path id="Trazado_1032933" data-name="Trazado 1032933" d="M379.5,147.282a5.561,5.561,0,1,0-5.77,5.344,5.561,5.561,0,0,0,5.77-5.344" transform="translate(-183.832 -69.073)" fill="#fff"/>
        </g>
      </g>
      <g id="Grupo_1175105" data-name="Grupo 1175105" transform="translate(188.567 72.435)">
        <g id="Grupo_1175104" data-name="Grupo 1175104" clip-path="url(#clip-path-44)">
          <path id="Trazado_1032934" data-name="Trazado 1032934" d="M371.857,151.541l2-.839a3.4,3.4,0,1,1-1.1-1.086Z" transform="translate(-367.987 -145.219)" fill="#222221"/>
        </g>
      </g>
      <g id="Grupo_1175107" data-name="Grupo 1175107" transform="translate(4.019 0)">
        <g id="Grupo_1175106" data-name="Grupo 1175106" clip-path="url(#clip-path-38)">
          <path id="Trazado_1032936" data-name="Trazado 1032936" d="M379.5,147.053a5.566,5.566,0,0,0-11.114-.426,5.566,5.566,0,1,1,11.114.426" transform="translate(-183.832 -68.844)" fill="#222221"/>
          <path id="Trazado_1032937" data-name="Trazado 1032937" d="M386.879,143.375a2.385,2.385,0,0,0,1.982-.03,2.252,2.252,0,0,0,.819-.66,1.507,1.507,0,0,0,.3-.991,5.924,5.924,0,0,1-1.453.935c-.5.236-1.039.425-1.65.746" transform="translate(-192.862 -69.164)" fill="#222221"/>
          <path id="Trazado_1032938" data-name="Trazado 1032938" d="M389.069,146.651a2.385,2.385,0,0,0,1.96.3,2.237,2.237,0,0,0,.917-.514,1.506,1.506,0,0,0,.462-.928,5.908,5.908,0,0,1-1.588.681c-.535.15-1.094.248-1.751.463" transform="translate(-193.931 -71.025)" fill="#222221"/>
          <path id="Trazado_1032939" data-name="Trazado 1032939" d="M389.77,150.311a2.383,2.383,0,0,0,1.914.515,2.239,2.239,0,0,0,.968-.41,1.51,1.51,0,0,0,.563-.871,5.9,5.9,0,0,1-1.654.5c-.548.09-1.115.124-1.791.265" transform="translate(-194.273 -72.997)" fill="#222221"/>
          <path id="Trazado_1032940" data-name="Trazado 1032940" d="M326.745,144.272a5.561,5.561,0,1,1,5.466,5.655,5.561,5.561,0,0,1-5.466-5.655" transform="translate(-163.509 -67.755)" fill="#fff"/>
        </g>
      </g>
      <g id="Grupo_1175109" data-name="Grupo 1175109" transform="translate(167.255 71.052)">
        <g id="Grupo_1175108" data-name="Grupo 1175108" clip-path="url(#clip-path-46)">
          <path id="Trazado_1032941" data-name="Trazado 1032941" d="M331.581,148.9l.822-2.009a3.4,3.4,0,1,0,1.1,1.089Z" transform="translate(-326.97 -142.502)" fill="#222221"/>
        </g>
      </g>
      <g id="Grupo_1175129" data-name="Grupo 1175129" transform="translate(4.019 0)">
        <g id="Grupo_1175128" data-name="Grupo 1175128" clip-path="url(#clip-path-38)">
          <path id="Trazado_1032943" data-name="Trazado 1032943" d="M326.737,144.045a5.566,5.566,0,1,1,11.121.19,5.566,5.566,0,0,0-11.121-.19" transform="translate(-163.5 -67.527)" fill="#222221"/>
          <path id="Trazado_1032944" data-name="Trazado 1032944" d="M326.438,141.4c-.652-.228-1.209-.336-1.741-.5a5.912,5.912,0,0,1-1.575-.712,1.508,1.508,0,0,0,.443.936,2.243,2.243,0,0,0,.907.533,2.385,2.385,0,0,0,1.965-.261" transform="translate(-161.741 -68.429)" fill="#222221"/>
          <path id="Trazado_1032945" data-name="Trazado 1032945" d="M324.887,144.318c-.681-.117-1.247-.132-1.8-.2a5.917,5.917,0,0,1-1.671-.441,1.511,1.511,0,0,0,.593.85,2.247,2.247,0,0,0,.982.375,2.385,2.385,0,0,0,1.9-.582" transform="translate(-160.908 -70.131)" fill="#222221"/>
          <path id="Trazado_1032946" data-name="Trazado 1032946" d="M323.841,147.64c-.627-.037-1.142.008-1.647,0a5.389,5.389,0,0,1-1.556-.23,1.375,1.375,0,0,0,.622.709,2.042,2.042,0,0,0,.927.24,2.173,2.173,0,0,0,1.654-.719" transform="translate(-160.528 -71.954)" fill="#222221"/>
          <path id="Trazado_1032947" data-name="Trazado 1032947" d="M335.68,125.951a4.319,4.319,0,0,0-1.72-3.318,4.714,4.714,0,0,0-4.12-.748,4.793,4.793,0,0,0-3.167,2.693,4.419,4.419,0,0,0,.044,3.726,12.909,12.909,0,0,1,1.958-2.433,4.755,4.755,0,0,1,1.967-1.076,4.3,4.3,0,0,1,2.2-.081,10.76,10.76,0,0,1,2.834,1.238" transform="translate(-163.284 -59.406)" fill="#222221"/>
          <path id="Trazado_1032948" data-name="Trazado 1032948" d="M370.678,129.9a4.319,4.319,0,0,1,1.454-3.443,4.713,4.713,0,0,1,4.048-1.069,4.8,4.8,0,0,1,3.369,2.435,4.419,4.419,0,0,1,.249,3.718,12.93,12.93,0,0,0-2.143-2.272,4.751,4.751,0,0,0-2.045-.918,4.286,4.286,0,0,0-2.2.092,10.744,10.744,0,0,0-2.728,1.457" transform="translate(-184.95 -61.159)" fill="#222221"/>
          <g id="Grupo_1175112" data-name="Grupo 1175112" transform="translate(184.251 84.506)" opacity="0.25" style="isolation: isolate">
            <g id="Grupo_1175111" data-name="Grupo 1175111">
              <g id="Grupo_1175110" data-name="Grupo 1175110" clip-path="url(#clip-path-48)">
                <path id="Trazado_1032949" data-name="Trazado 1032949" d="M379.326,172.646a5.883,5.883,0,1,0-7.312,3.97,5.883,5.883,0,0,0,7.312-3.97" transform="translate(-367.8 -165.09)" fill="#be696d"/>
              </g>
            </g>
          </g>
          <g id="Grupo_1175115" data-name="Grupo 1175115" transform="translate(163.472 82.795)" opacity="0.25" style="isolation: isolate">
            <g id="Grupo_1175114" data-name="Grupo 1175114">
              <g id="Grupo_1175113" data-name="Grupo 1175113" clip-path="url(#clip-path-49)">
                <path id="Trazado_1032950" data-name="Trazado 1032950" d="M336.857,168.074a4.926,4.926,0,1,0-6.122,3.324,4.926,4.926,0,0,0,6.122-3.324" transform="translate(-327.206 -161.748)" fill="#be696d"/>
              </g>
            </g>
          </g>
          <path id="Trazado_1032951" data-name="Trazado 1032951" d="M349.914,127.434c2.9.9,2.439,17.509,1.459,24.562a3.526,3.526,0,0,1-3.743,3.034,6.339,6.339,0,0,1-3.853-1.368c-2.115-2.019-.86-4.121,2.96-4.142,0,0,2.423-4.139,1.867-22.079a4.1,4.1,0,0,1,1.31-.007" transform="translate(-171.324 -62.176)" fill="#be696d"/>
          <path id="Trazado_1032952" data-name="Trazado 1032952" d="M314.495,167.17a8.537,8.537,0,1,0,5.593,14.1l.651.87a9.6,9.6,0,1,1-6.445-16.061Z" transform="translate(-152.431 -81.059)" fill="#ebca4f"/>
          <g id="Grupo_1175118" data-name="Grupo 1175118" transform="translate(86.14 89.444)" style="isolation: isolate">
            <g id="Grupo_1175117" data-name="Grupo 1175117">
              <g id="Grupo_1175116" data-name="Grupo 1175116" clip-path="url(#clip-path-50)">
                <path id="Trazado_1032953" data-name="Trazado 1032953" d="M260.411,206.053s5.713,3.385,4.534,15.718S258.506,238,258.506,238s-33.055,23.17-43.121,23.714-15.916-59.338-19.045-65.445c-2.892-5.646-12.441-6.767-19.884-15.768-.736-.889-.126-1.66.921-1.177,3.157,1.457,8.175,3.844,8.851,4.6,0,0,8.367-5.082,14.805-1.455,0,0,4.957.883,3.971-6.5a1.091,1.091,0,0,1,1.909-.856,8.847,8.847,0,0,1,2.168,7.113,49.247,49.247,0,0,1-2.63,10.7s4.307,33.281,14.1,48.789c28.43-13.331,28.294-36.106,39.857-35.669" transform="translate(-176.133 -174.736)" fill="#e7b69c"/>
              </g>
            </g>
          </g>
          <path id="Trazado_1032954" data-name="Trazado 1032954" d="M366.886,380.488s25.3,79.532,27.75,97.216c2.046,14.78,2.382,60.421,2.438,75.013H358.427c1.865-16.577,7.977-73.434,5.194-83.174C360.356,458.116,347.3,430.96,347.3,430.96l-3.02,4.926-3.509,106.433H306.761s5.67-96.445,4.467-112.769,7.685-41.716,12.763-46.7c0,0,26.027-4.081,42.895-2.358" transform="translate(-153.755 -185.517)" fill="#ce88c4"/>
          <path id="Trazado_1032955" data-name="Trazado 1032955" d="M387.465,429.432s3.307-34,2.128-40.725" transform="translate(-193.148 -189.736)" fill="none" stroke="#583266" stroke-linecap="round" stroke-miterlimit="10" stroke-width="1"/>
          <path id="Trazado_1032956" data-name="Trazado 1032956" d="M377.8,393.25a1.9,1.9,0,1,1,1.9,1.9,1.9,1.9,0,0,1-1.9-1.9" transform="translate(-188.432 -191.024)" fill="#583266"/>
          <path id="Trazado_1032957" data-name="Trazado 1032957" d="M317.415,234.793s-6.392-3.272-9.681,1.089l-14.817,20.93,10.735,20.123,11.781-7.953,7.187-9.744,1.1-7.046V239.76l-2.566-4.873Z" transform="translate(-146.997 -114.032)" fill="#efd860"/>
          <path id="Trazado_1032958" data-name="Trazado 1032958" d="M406.112,226.527S420,228.158,422,231.427l10.54,17.3,2.49,3.084-15.853,16.76-3.078-5.032-1.715-9.6-2.679-6.811-3.452-5.417-1.6-4.41-.547-4.881Z" transform="translate(-202.25 -110.573)" fill="#efd860"/>
          <path id="Trazado_1032959" data-name="Trazado 1032959" d="M351.518,216.812,371.165,219a84.707,84.707,0,0,0,4.716,12.969c2.9,6.076,13.512,13.875,12.877,21.583s-6.167,13.966-7.164,16.415-4.535,22.036-2.449,30.833c0,0-37.737,1.64-42.895,2.358,0,0-2.2-34.63-4.374-42.792,0,0,8.546-17.362,4.556-33.776l9.959-2.4a6.56,6.56,0,0,0,5.006-5.859Z" transform="translate(-166.014 -105.831)" fill="#efd860"/>
          <path id="Trazado_1032960" data-name="Trazado 1032960" d="M347.248,193.026a7.4,7.4,0,0,0,4.193,1.285c3.37.067,5.365-1.339,6.221-2.9.777-1.4.643-2.911-.215-3.583a1.916,1.916,0,0,0-1.606-.309c-3.8.747-9.3-.359-9.3-.359a1.428,1.428,0,0,0-.7.01c-1.578.421-1.314,3.914,1.407,5.853" transform="translate(-172.357 -91.339)" fill="#222221"/>
          <path id="Trazado_1032961" data-name="Trazado 1032961" d="M346.765,187.172a4.88,4.88,0,0,0,2.01,1.321,11.652,11.652,0,0,0,9.6-.662,1.916,1.916,0,0,0-1.606-.309c-3.8.747-9.3-.359-9.3-.359a1.421,1.421,0,0,0-.7.01" transform="translate(-173.281 -91.339)" fill="#fff"/>
          <path id="Trazado_1032962" data-name="Trazado 1032962" d="M349.514,196.144a7.4,7.4,0,0,0,4.193,1.285c3.37.067,5.365-1.339,6.221-2.9a7.672,7.672,0,0,0-2.528-.9,9.82,9.82,0,0,0-4.864.493,7.024,7.024,0,0,0-2.123,1.114,5.133,5.133,0,0,0-.9.907" transform="translate(-174.623 -94.458)" fill="#be696d"/>
          <g id="Grupo_1175121" data-name="Grupo 1175121" transform="translate(203.884 73.879)" style="isolation: isolate">
            <g id="Grupo_1175120" data-name="Grupo 1175120">
              <g id="Grupo_1175119" data-name="Grupo 1175119" clip-path="url(#clip-path-51)">
                <path id="Trazado_1032963" data-name="Trazado 1032963" d="M406.756,156.232a18.223,18.223,0,0,1,3.177-8.81c2.243-3.169,5.524-5.385,8.8,1.04,5.83,11.423-6.385,19.6-12.582,14.067Z" transform="translate(-406.154 -144.33)" fill="#e7b69c"/>
              </g>
            </g>
          </g>
          <g id="Grupo_1175124" data-name="Grupo 1175124" transform="translate(207.196 80.033)" style="mix-blend-mode: multiply;isolation: isolate">
            <g id="Grupo_1175123" data-name="Grupo 1175123">
              <g id="Grupo_1175122" data-name="Grupo 1175122" clip-path="url(#clip-path-52)">
                <path id="Trazado_1032964" data-name="Trazado 1032964" d="M419.547,157.152a4.549,4.549,0,0,0-4.632-.311,4.307,4.307,0,0,0-2.289,3.9,4.49,4.49,0,0,0,.846,2.594.617.617,0,0,0,.863.071.625.625,0,0,0,.071-.863,3.3,3.3,0,0,1,.034-3.729.443.443,0,0,0,.187.1,3.824,3.824,0,0,1,.52.163c.08.032.159.067.237.1l.054.027c.035.019.07.038.1.058a4,4,0,0,1,.429.291c.069.053.134.11.2.165-.1-.086.025.025.037.036l.092.092a4.275,4.275,0,0,1,.336.4c.026.035.051.07.076.1.007.01.053.083.054.083.036.06.072.119.105.181a3.861,3.861,0,0,1,.215.471c.015.038.028.077.041.116,0,.011.009.027.014.048.026.092.047.184.066.277a.612.612,0,1,0,1.205-.212,4.683,4.683,0,0,0-2.911-3.4,3.317,3.317,0,0,1,3.341.232.612.612,0,0,0,.7-1" transform="translate(-412.625 -156.352)" fill="#be696d"/>
              </g>
            </g>
          </g>
          <path id="Trazado_1032965" data-name="Trazado 1032965" d="M409.789,192.744a9.6,9.6,0,1,0,2.275-18.8l.049,1.065a8.538,8.538,0,1,1-2.021,16.715,8.47,8.47,0,0,1-4.279-2.9q-.208-.265-.4-.544a5.275,5.275,0,0,0,.065,1.8,9.53,9.53,0,0,0,4.307,2.67" transform="translate(-201.887 -84.9)" fill="#ebca4f"/>
          <path id="Trazado_1032966" data-name="Trazado 1032966" d="M198.675,108.616a3.306,3.306,0,0,0-3.656-2.3L188.248,83.9a3.3,3.3,0,1,0-5.031-2.857L158.481,88.52a3.3,3.3,0,1,0-5.381,3.7l-1.741,2.844a3.3,3.3,0,1,0-.846,6.422l6.773,22.416a3.3,3.3,0,1,0,4.814,3.216l25.731-7.775a3.3,3.3,0,1,0,4.94-3.9l1.681-2.746a3.3,3.3,0,0,0,4.224-4.076m-1.208,2a2.213,2.213,0,1,1-2.591-3.164,2.226,2.226,0,0,1,.641-.1,2.213,2.213,0,0,1,1.949,3.26m-4.6,8.589a2.213,2.213,0,1,1-2.591-3.163,2.2,2.2,0,0,1,1.685.168,2.2,2.2,0,0,1,1.074,1.31h0a2.2,2.2,0,0,1-.168,1.685m-34.049,5.4a2.218,2.218,0,0,1,2.12,1.573,2.213,2.213,0,1,1-2.12-1.573M158.8,89.56l24.583-7.428a3.28,3.28,0,0,0,.867,1.362l-1.437,2.347A3.291,3.291,0,0,0,178.3,89.09l-21.112,6.38-.7-2.332A3.285,3.285,0,0,0,158.8,89.56m25.6-7.823a2.212,2.212,0,1,1,2.759,1.479,2.2,2.2,0,0,1-2.759-1.479m-4.92,7.806a2.213,2.213,0,1,1,2.759,1.479,2.2,2.2,0,0,1-2.759-1.479M162.512,117.99a2.21,2.21,0,1,1-.168,1.685,2.2,2.2,0,0,1,.168-1.685m5-.2a3.325,3.325,0,0,0-3.064-2.048,3.24,3.24,0,0,0-.941.139c-.047.014-.094.03-.139.046L157.5,96.509l21.039-6.358a3.283,3.283,0,0,0,3.7,1.984l5.87,19.425ZM192.3,110.3l-3.148.951-5.892-19.5a3.289,3.289,0,0,0,.479-5.346l1.41-2.3a3.269,3.269,0,0,0,2.089.216l6.75,22.335A3.3,3.3,0,0,0,192.3,110.3m-36.909-17.02.759,2.509-2.9.877a3.282,3.282,0,0,0-.924-1.093l1.641-2.682a3.293,3.293,0,0,0,1.428.39m-1.807,4.418,2.879-.87,5.935,19.641a3.289,3.289,0,0,0-.31,4.858l-1.62,2.646a3.307,3.307,0,0,0-1.656-.444,3.271,3.271,0,0,0-.494.037l-6.744-22.32a3.323,3.323,0,0,0,2.009-3.548m2.579-5.593a2.212,2.212,0,1,1,1.479-2.759,2.216,2.216,0,0,1-1.479,2.759m-3.888,7.136a2.211,2.211,0,1,1,.168-1.685,2.2,2.2,0,0,1-.168,1.685m10.691,22.734a3.291,3.291,0,0,0,4.788-3.122l20.673-6.247.82,2.716a3.321,3.321,0,0,0-1.629,2.953l-25.6,7.737c-.012-.047-.025-.094-.039-.141a3.238,3.238,0,0,0-.66-1.2Zm27.945-7.107a3.28,3.28,0,0,0-.647.065l-.8-2.641,3.245-.981a3.3,3.3,0,0,0,.782.87l-1.717,2.8a3.276,3.276,0,0,0-.866-.117" transform="translate(-75.785 -37.974)" fill="#ebca4f"/>
          <path id="Trazado_1032967" data-name="Trazado 1032967" d="M332.689,290.042s5.783-7.151,6.236-16.265" transform="translate(-166.411 -133.636)" fill="none" stroke="#853b35" stroke-linecap="round" stroke-miterlimit="10" stroke-width="1"/>
          <path id="Trazado_1032968" data-name="Trazado 1032968" d="M409.34,319.646s-11.056-1.587-15.492,0" transform="translate(-196.263 -155.682)" fill="none" stroke="#853b35" stroke-linecap="round" stroke-miterlimit="10" stroke-width="1"/>
          <path id="Trazado_1032969" data-name="Trazado 1032969" d="M420.071,71.613C428,76.249,430.977,85.7,431.974,94.3c.978,8.441.3,17.8-4.307,25.162" transform="translate(-209.063 -34.956)" fill="none" stroke="#ff6e93" stroke-linecap="round" stroke-miterlimit="10" stroke-width="1"/>
          <path id="Trazado_1032970" data-name="Trazado 1032970" d="M372.19,61.291s-3.965-.3-10.22,3.18" transform="translate(-180.703 -29.914)" fill="none" stroke="#ff6e93" stroke-linecap="round" stroke-miterlimit="10" stroke-width="1"/>
          <path id="Trazado_1032971" data-name="Trazado 1032971" d="M417.842,246.427c6.631,6.538,16.033,16.8,11.643,27.019" transform="translate(-207.975 -120.286)" fill="none" stroke="#853b35" stroke-linecap="round" stroke-miterlimit="10" stroke-width="1"/>
          <line id="Línea_905" data-name="Línea 905" x1="3.002" y2="1.403" transform="translate(127.559 156.43)" fill="none" stroke="#853b35" stroke-linecap="round" stroke-miterlimit="10" stroke-width="1"/>
          <line id="Línea_906" data-name="Línea 906" y1="0.584" x2="2.698" transform="translate(235.985 177.624)" fill="none" stroke="#853b35" stroke-linecap="round" stroke-miterlimit="10" stroke-width="1"/>
          <path id="Trazado_1032972" data-name="Trazado 1032972" d="M371.233,203.734a21.878,21.878,0,0,0,14.345-7.875c-2.239,2.736-3.723,5.8-6.961,7.633a29.921,29.921,0,0,1-7.243,3.093Z" transform="translate(-185.225 -95.603)" fill="#be696d"/>
          <g id="Grupo_1175127" data-name="Grupo 1175127" transform="translate(90.383 88.839)" style="isolation: isolate">
            <g id="Grupo_1175126" data-name="Grupo 1175126">
              <g id="Grupo_1175125" data-name="Grupo 1175125" clip-path="url(#clip-path-53)">
                <path id="Trazado_1032973" data-name="Trazado 1032973" d="M197.426,183.227a12.807,12.807,0,0,1-2.684-1.777c-1.613-1.5-2.484-3.5-3.8-5.223a15.227,15.227,0,0,0-2.247-2.216,1.458,1.458,0,0,0-1.306-.443c-.261.024-.505.063-.635.32-.117.23-.3,1.209-.024,1.273-1.2-.856-2.546-.565-2.27.822A12.692,12.692,0,0,0,185.6,178.8c.512,1.068,1.1,2.125,1.62,3.2a13.969,13.969,0,0,0,1.136,2.149c.754,1.038,1.166,1.119,2.55,1.163a26.2,26.2,0,0,0,5.421-.124c.276-.051.772-.12.893-.394" transform="translate(-184.42 -173.555)" fill="#e7b69c"/>
              </g>
            </g>
          </g>
          <path id="Trazado_1032974" data-name="Trazado 1032974" d="M330.635,149.936a8.374,8.374,0,1,1,7.806-8.525,8.188,8.188,0,0,1-7.806,8.525m-.309-15.226a6.876,6.876,0,1,0,6.615,6.732,6.688,6.688,0,0,0-6.615-6.732" transform="translate(-161.43 -65.022)" fill="#583266"/>
          <path id="Trazado_1032975" data-name="Trazado 1032975" d="M372.049,152.626a8.375,8.375,0,1,1,7.807-8.525,8.186,8.186,0,0,1-7.807,8.525M371.74,137.4a6.876,6.876,0,1,0,6.616,6.732,6.687,6.687,0,0,0-6.616-6.732" transform="translate(-181.646 -66.334)" fill="#583266"/>
          <path id="Trazado_1032976" data-name="Trazado 1032976" d="M358.318,152.494a.749.749,0,0,1-.548-.221,4.8,4.8,0,0,0-5.877-.562.75.75,0,0,1-.845-1.241,6.284,6.284,0,0,1,7.787.745.75.75,0,0,1-.517,1.279" transform="translate(-175.212 -72.951)" fill="#583266"/>
          <path id="Trazado_1032977" data-name="Trazado 1032977" d="M401.674,153.112c.009-.019.017-.039.027-.059a10.286,10.286,0,0,1,.739-1.234,10.527,10.527,0,0,0-3.134-.97,10.693,10.693,0,0,0-7.4,1.725.75.75,0,1,0,.843,1.241,9.172,9.172,0,0,1,6.346-1.479,9.023,9.023,0,0,1,2.575.776" transform="translate(-195.157 -73.585)" fill="#583266"/>
        </g>
      </g>
    </g>
  </g>
</svg>
