<svg xmlns="http://www.w3.org/2000/svg" xmlns:xlink="http://www.w3.org/1999/xlink" width="113" height="113" viewBox="0 0 113 113">
  <defs>
    <filter id="Trazado_982547" x="0" y="0" width="113" height="113" filterUnits="userSpaceOnUse">
      <feOffset dy="3" input="SourceAlpha"/>
      <feGaussianBlur stdDeviation="3" result="blur"/>
      <feFlood flood-opacity="0.161"/>
      <feComposite operator="in" in2="blur"/>
      <feComposite in="SourceGraphic"/>
    </filter>
  </defs>
  <g id="Grupo_1174861" data-name="Grupo 1174861" transform="translate(-324 -5948.015)">
    <g id="Grupo_1174057" data-name="Grupo 1174057" transform="translate(333 5954.015)">
      <g id="Grupo_1172010" data-name="Grupo 1172010">
        <g id="Grupo_1171046" data-name="Grupo 1171046">
          <g id="Grupo_1148525" data-name="Grupo 1148525">
            <g transform="matrix(1, 0, 0, 1, -9, -6)" filter="url(#Trazado_982547)">
              <g id="Trazado_982547-2" data-name="Trazado 982547" transform="translate(9 6)" fill="#f4fdfe">
                <path d="M 47.5 93.5 C 41.28937149047852 93.5 35.26533508300781 92.28397369384766 29.59518623352051 89.88570404052734 C 24.11771965026855 87.56893157958984 19.19813346862793 84.25196075439453 14.97309303283691 80.02691650390625 C 10.74804019927979 75.80186462402344 7.431066513061523 70.88229370117188 5.114293098449707 65.40481567382812 C 2.716026782989502 59.73468017578125 1.5 53.71062850952148 1.5 47.5 C 1.5 41.28937149047852 2.716026782989502 35.26533508300781 5.114293098449707 29.59518623352051 C 7.431066513061523 24.11771965026855 10.74804019927979 19.19813346862793 14.97309303283691 14.97309303283691 C 19.19813346862793 10.74804019927979 24.11771965026855 7.431066513061523 29.59518623352051 5.114293098449707 C 35.26533508300781 2.716026782989502 41.28937149047852 1.5 47.5 1.5 C 53.71062850952148 1.5 59.73468017578125 2.716026782989502 65.40481567382812 5.114293098449707 C 70.88229370117188 7.431066513061523 75.80186462402344 10.74804019927979 80.02691650390625 14.97309303283691 C 84.25196075439453 19.19813346862793 87.56893157958984 24.11771965026855 89.88570404052734 29.59518623352051 C 92.28397369384766 35.26533508300781 93.5 41.28937149047852 93.5 47.5 C 93.5 53.71062850952148 92.28397369384766 59.73468017578125 89.88570404052734 65.40481567382812 C 87.56893157958984 70.88229370117188 84.25196075439453 75.80186462402344 80.02691650390625 80.02691650390625 C 75.80186462402344 84.25196075439453 70.88229370117188 87.56893157958984 65.40481567382812 89.88570404052734 C 59.73468017578125 92.28397369384766 53.71062850952148 93.5 47.5 93.5 Z" stroke="none"/>
                <path d="M 47.5 3 C 41.49121475219727 3 35.66376876831055 4.176155090332031 30.17950439453125 6.495796203613281 C 24.88084411621094 8.736953735351562 20.12152099609375 11.94598388671875 16.03375244140625 16.03375244140625 C 11.94598388671875 20.12152099609375 8.736953735351562 24.88084411621094 6.495796203613281 30.17950439453125 C 4.176155090332031 35.66376876831055 3 41.49121475219727 3 47.5 C 3 53.50878524780273 4.176155090332031 59.33623123168945 6.495796203613281 64.82049560546875 C 8.736953735351562 70.11915588378906 11.94598388671875 74.87847900390625 16.03375244140625 78.96624755859375 C 20.12152099609375 83.05401611328125 24.88084411621094 86.26304626464844 30.17950439453125 88.50419616699219 C 35.66376876831055 90.82384490966797 41.49121475219727 92 47.5 92 C 53.50878524780273 92 59.33623123168945 90.82384490966797 64.82049560546875 88.50419616699219 C 70.11915588378906 86.26304626464844 74.87847900390625 83.05401611328125 78.96624755859375 78.96624755859375 C 83.05401611328125 74.87847900390625 86.26304626464844 70.11915588378906 88.50419616699219 64.82049560546875 C 90.82384490966797 59.33623123168945 92 53.50878524780273 92 47.5 C 92 41.49121475219727 90.82384490966797 35.66376876831055 88.50419616699219 30.17950439453125 C 86.26304626464844 24.88084411621094 83.05401611328125 20.12152099609375 78.96624755859375 16.03375244140625 C 74.87847900390625 11.94598388671875 70.11915588378906 8.736953735351562 64.82049560546875 6.495796203613281 C 59.33623123168945 4.176155090332031 53.50878524780273 3 47.5 3 M 47.5 0 C 73.7335205078125 0 95 21.2664794921875 95 47.5 C 95 73.7335205078125 73.7335205078125 95 47.5 95 C 21.2664794921875 95 0 73.7335205078125 0 47.5 C 0 21.2664794921875 21.2664794921875 0 47.5 0 Z" stroke="none" fill="#56838a"/>
              </g>
            </g>
          </g>
        </g>
      </g>
    </g>
    <g id="exam_9523855" transform="translate(341.787 5963.666)">
      <g id="Grupo_1174860" data-name="Grupo 1174860" transform="translate(10.225 8.963)">
        <g id="Grupo_1174857" data-name="Grupo 1174857" transform="translate(4.556 4.297)">
          <path id="Trazado_1032329" data-name="Trazado 1032329" d="M58.24,51.7H91.29a1.041,1.041,0,0,1,.762.316l6.053,6.053a1.042,1.042,0,0,1,.316.762V104.1a1.08,1.08,0,0,1-1.078,1.078H58.24a1.08,1.08,0,0,1-1.078-1.078V52.781A1.08,1.08,0,0,1,58.24,51.7Z" transform="translate(-57.162 -51.703)" fill="#eceff1" fill-rule="evenodd"/>
          <path id="Trazado_1032330" data-name="Trazado 1032330" d="M58.24,51.7h1.972v53.476H58.24a1.08,1.08,0,0,1-1.078-1.078V52.78A1.08,1.08,0,0,1,58.24,51.7Z" transform="translate(-57.162 -51.702)" fill="#d1d1d6" fill-rule="evenodd"/>
          <path id="Trazado_1032331" data-name="Trazado 1032331" d="M344.422,52.479a1.084,1.084,0,0,1,.316.222l6.053,6.053a1.082,1.082,0,0,1,.222.316h-6.052a.54.54,0,0,1-.539-.539V52.479Z" transform="translate(-309.847 -52.385)" fill="#a79ba7" fill-rule="evenodd"/>
        </g>
        <g id="Grupo_1174858" data-name="Grupo 1174858" transform="translate(0 0)">
          <path id="Trazado_1032332" data-name="Trazado 1032332" d="M261.166,121.075l1.935,1.074v5.671l-1.935-1.4-1.935,1.4v-5.671Z" transform="translate(-230.354 -108.428)" fill="#ffd064" fill-rule="evenodd"/>
          <path id="Trazado_1032333" data-name="Trazado 1032333" d="M68.219,45.733l11.06.272v9.838a.956.956,0,0,1-.788.947c-11.99,2.221-8.554,2.221-20.544,0a.956.956,0,0,1-.788-.947V46.005Z" transform="translate(-52.603 -42.154)" fill="#837683" fill-rule="evenodd"/>
          <path id="Trazado_1032334" data-name="Trazado 1032334" d="M79.279,55.844v1.721a.956.956,0,0,1-.788.947c-11.99,2.221-8.554,2.221-20.544,0a.956.956,0,0,1-.788-.947V47.727l1.485-.037v9.231c11.16,2.09,8.1,2.046,19.847-.13A.956.956,0,0,0,79.279,55.844Z" transform="translate(-52.603 -43.876)" fill="#685e68" fill-rule="evenodd"/>
          <path id="Trazado_1032335" data-name="Trazado 1032335" d="M34.925,16,50.4,20.108a.193.193,0,0,1,0,.373l-15.473,4.11-15.473-4.11a.193.193,0,0,1,0-.373Z" transform="translate(-19.31 -15.998)" fill="#837683" fill-rule="evenodd"/>
          <path id="Trazado_1032336" data-name="Trazado 1032336" d="M47.478,43.7l2.921.776a.193.193,0,0,1,0,.373L34.925,48.96,19.452,44.85a.193.193,0,0,1,0-.373l2.921-.776,12.552,3.334Z" transform="translate(-19.31 -40.367)" fill="#685e68" fill-rule="evenodd"/>
        </g>
        <g id="Grupo_1174859" data-name="Grupo 1174859" transform="translate(30.19 30.987)">
          <circle id="Elipse_12373" data-name="Elipse 12373" cx="13.393" cy="13.393" r="13.393" transform="translate(0 0)" fill="#ffd064"/>
          <path id="Trazado_1032337" data-name="Trazado 1032337" d="M374.82,273.45a13.393,13.393,0,0,1,0,26.786c-.3,0-.6-.011-.9-.031a13.393,13.393,0,0,0,0-26.724C374.216,273.461,374.517,273.45,374.82,273.45Z" transform="translate(-361.427 -273.45)" fill="#ffc338" fill-rule="evenodd"/>
          <circle id="Elipse_12374" data-name="Elipse 12374" cx="10.227" cy="10.227" r="10.227" transform="translate(3.166 3.166)" fill="#eceff1"/>
          <path id="Trazado_1032338" data-name="Trazado 1032338" d="M306.672,299.755a10.227,10.227,0,1,0,0,20.454q.416,0,.825-.033a10.227,10.227,0,0,1,0-20.388Q307.089,299.756,306.672,299.755Z" transform="translate(-293.279 -296.589)" fill="#d1d1d6" fill-rule="evenodd"/>
        </g>
      </g>
      <path id="Trazado_1032339" data-name="Trazado 1032339" d="M47.647,53.344a.966.966,0,0,0-.963-.963h-.9a.963.963,0,1,0,0,1.926h.9A.967.967,0,0,0,47.647,53.344Zm6.441,6.442a.963.963,0,0,0-.963.963v.9a.963.963,0,0,0,1.926,0v-.9A.966.966,0,0,0,54.089,59.786Zm8.305-7.4h-.9a.963.963,0,1,0,0,1.926h.9a.963.963,0,1,0,0-1.926Zm-13.5-5.591a.962.962,0,1,0-1.36,1.361l.635.637a.964.964,0,1,0,1.365-1.362ZM48.168,57.9l-.635.637a.962.962,0,1,0,1.36,1.361l.64-.636A.964.964,0,1,0,48.168,57.9ZM60,57.9a.962.962,0,1,0-1.36,1.362l.635.636a.958.958,0,0,0,.68.283.963.963,0,0,0,.685-1.644Zm-.68-8.829a.95.95,0,0,0,.68-.282l.64-.637a.964.964,0,1,0-1.365-1.361l-.635.636a.963.963,0,0,0,.68,1.644ZM54.089,46.9a.966.966,0,0,0,.963-.963v-.9a.963.963,0,1,0-1.926,0v.9A.963.963,0,0,0,54.089,46.9Zm3.116,7.13-2.153-1.244V49.4a.963.963,0,0,0-1.926,0v3.946a.958.958,0,0,0,.482.833L56.241,55.7a.963.963,0,0,0,.963-1.667Zm6.351-.688a9.469,9.469,0,1,1-9.467-9.468,9.479,9.479,0,0,1,9.467,9.468Zm1.926,0A11.4,11.4,0,1,1,54.089,41.949,11.406,11.406,0,0,1,65.481,53.344Zm1.037,0a12.429,12.429,0,1,1-12.43-12.431,12.443,12.443,0,0,1,12.43,12.431ZM46.911,65.774H16.137a.116.116,0,0,1-.113-.116V24.611c1.377.257,2.555.485,3.546.675a35.706,35.706,0,0,0,6.549.942,35.817,35.817,0,0,0,6.555-.942c1.246-.241,2.8-.542,4.679-.884a.96.96,0,0,0,.788-.947v-8.1l2.209-.587v6.283l-1.377.794a.972.972,0,0,0-.482.834v5.672a.971.971,0,0,0,.532.862.96.96,0,0,0,1.008-.093l1.28-.963,1.28.963a.958.958,0,0,0,.584.194,1,1,0,0,0,.431-.1.971.971,0,0,0,.533-.862V22.683a.972.972,0,0,0-.482-.834l-1.382-.794V14.26l.142-.037h6.254v5.183a1.5,1.5,0,0,0,1.5,1.5h5.184V39.044c-.419-.037-.844-.057-1.269-.057a14.285,14.285,0,0,0-6.662,1.641H30.119a.963.963,0,1,0,0,1.926H44.628a14.467,14.467,0,0,0-3.155,3.941H30.119a.963.963,0,1,0,0,1.926H40.6a14.146,14.146,0,0,0-.584,2.073h-9.9a.963.963,0,0,0,0,1.926h9.642c-.017.305-.028.614-.028.924a14.3,14.3,0,0,0,.317,3.016H30.119a.963.963,0,1,0,0,1.926H40.605a14.223,14.223,0,0,0,.963,2.074H30.119a.963.963,0,1,0,0,1.926H42.866a14.411,14.411,0,0,0,4.045,3.488Zm-30.887-49.9v6.781c1.541.285,2.838.537,3.909.744,6.186,1.2,6.186,1.2,12.373,0,1.076-.207,2.374-.458,3.909-.744V15.871l-9.846,2.617a.979.979,0,0,1-.5,0ZM13.7,13.26l12.424,3.3,12.424-3.3L26.119,9.96Zm27.618,9.462-.9.517v3.187l.317-.24a.97.97,0,0,1,1.161,0l.317.239V23.239ZM50.6,15.584v3.4h3.393ZM68.444,53.344A14.373,14.373,0,0,1,54.089,67.7H16.137a2.041,2.041,0,0,1-2.04-2.041v-50.3L9.7,14.191a.963.963,0,0,1,0-1.861l16.174-4.3a.967.967,0,0,1,.5,0L42.418,12.3h6.77a2,2,0,0,1,1.445.6l6.05,6.053a2.007,2.007,0,0,1,.6,1.443V39.346A14.385,14.385,0,0,1,68.444,53.344Zm-42.54,3.3a.96.96,0,0,0-1.36,0l-1.32,1.319L21.9,56.643A.962.962,0,0,0,20.545,58l1.32,1.319-1.32,1.319A.962.962,0,0,0,21.9,62l1.32-1.319L24.544,62a.962.962,0,1,0,1.36-1.361l-1.32-1.319L25.9,58A.956.956,0,0,0,25.9,56.643Zm-.215-9.9-3.728,3.384-1.167-1.166a.962.962,0,1,0-1.36,1.361l1.813,1.815a.961.961,0,0,0,1.326.032l4.407-4a.962.962,0,1,0-1.292-1.427Zm0-9.867-3.728,3.383L20.794,39.1a.962.962,0,1,0-1.36,1.361l1.813,1.815a.967.967,0,0,0,.68.282.95.95,0,0,0,.646-.25l4.407-4a.962.962,0,1,0-1.292-1.426Zm3.467.713a.963.963,0,0,0,.963.963H50.78a.963.963,0,1,0,0-1.926H30.119A.962.962,0,0,0,29.156,37.591Z" fill-rule="evenodd"/>
    </g>
  </g>
</svg>
