<svg xmlns="http://www.w3.org/2000/svg" xmlns:xlink="http://www.w3.org/1999/xlink" width="113" height="113" viewBox="0 0 113 113">
  <defs>
    <filter id="Trazado_982547" x="0" y="0" width="113" height="113" filterUnits="userSpaceOnUse">
      <feOffset dy="3" input="SourceAlpha"/>
      <feGaussianBlur stdDeviation="3" result="blur"/>
      <feFlood flood-opacity="0.161"/>
      <feComposite operator="in" in2="blur"/>
      <feComposite in="SourceGraphic"/>
    </filter>
    <clipPath id="clip-path">
      <path id="path7782" d="M0-682.665H69.5v69.5H0Z" transform="translate(0 682.665)"/>
    </clipPath>
  </defs>
  <g id="Grupo_1174862" data-name="Grupo 1174862" transform="translate(-743.5 -5948.015)">
    <g id="Grupo_1174055" data-name="Grupo 1174055" transform="translate(752.5 5954.015)">
      <g id="Grupo_1172010" data-name="Grupo 1172010">
        <g id="Grupo_1171046" data-name="Grupo 1171046">
          <g id="Grupo_1148525" data-name="Grupo 1148525">
            <g transform="matrix(1, 0, 0, 1, -9, -6)" filter="url(#Trazado_982547)">
              <g id="Trazado_982547-2" data-name="Trazado 982547" transform="translate(9 6)" fill="#f4fdfe">
                <path d="M 47.5 93.5 C 41.28937149047852 93.5 35.26533508300781 92.28397369384766 29.59518623352051 89.88570404052734 C 24.11771965026855 87.56893157958984 19.19813346862793 84.25196075439453 14.97309303283691 80.02691650390625 C 10.74804019927979 75.80186462402344 7.431066513061523 70.88229370117188 5.114293098449707 65.40481567382812 C 2.716026782989502 59.73468017578125 1.5 53.71062850952148 1.5 47.5 C 1.5 41.28937149047852 2.716026782989502 35.26533508300781 5.114293098449707 29.59518623352051 C 7.431066513061523 24.11771965026855 10.74804019927979 19.19813346862793 14.97309303283691 14.97309303283691 C 19.19813346862793 10.74804019927979 24.11771965026855 7.431066513061523 29.59518623352051 5.114293098449707 C 35.26533508300781 2.716026782989502 41.28937149047852 1.5 47.5 1.5 C 53.71062850952148 1.5 59.73468017578125 2.716026782989502 65.40481567382812 5.114293098449707 C 70.88229370117188 7.431066513061523 75.80186462402344 10.74804019927979 80.02691650390625 14.97309303283691 C 84.25196075439453 19.19813346862793 87.56893157958984 24.11771965026855 89.88570404052734 29.59518623352051 C 92.28397369384766 35.26533508300781 93.5 41.28937149047852 93.5 47.5 C 93.5 53.71062850952148 92.28397369384766 59.73468017578125 89.88570404052734 65.40481567382812 C 87.56893157958984 70.88229370117188 84.25196075439453 75.80186462402344 80.02691650390625 80.02691650390625 C 75.80186462402344 84.25196075439453 70.88229370117188 87.56893157958984 65.40481567382812 89.88570404052734 C 59.73468017578125 92.28397369384766 53.71062850952148 93.5 47.5 93.5 Z" stroke="none"/>
                <path d="M 47.5 3 C 41.49121475219727 3 35.66376876831055 4.176155090332031 30.17950439453125 6.495796203613281 C 24.88084411621094 8.736953735351562 20.12152099609375 11.94598388671875 16.03375244140625 16.03375244140625 C 11.94598388671875 20.12152099609375 8.736953735351562 24.88084411621094 6.495796203613281 30.17950439453125 C 4.176155090332031 35.66376876831055 3 41.49121475219727 3 47.5 C 3 53.50878524780273 4.176155090332031 59.33623123168945 6.495796203613281 64.82049560546875 C 8.736953735351562 70.11915588378906 11.94598388671875 74.87847900390625 16.03375244140625 78.96624755859375 C 20.12152099609375 83.05401611328125 24.88084411621094 86.26304626464844 30.17950439453125 88.50419616699219 C 35.66376876831055 90.82384490966797 41.49121475219727 92 47.5 92 C 53.50878524780273 92 59.33623123168945 90.82384490966797 64.82049560546875 88.50419616699219 C 70.11915588378906 86.26304626464844 74.87847900390625 83.05401611328125 78.96624755859375 78.96624755859375 C 83.05401611328125 74.87847900390625 86.26304626464844 70.11915588378906 88.50419616699219 64.82049560546875 C 90.82384490966797 59.33623123168945 92 53.50878524780273 92 47.5 C 92 41.49121475219727 90.82384490966797 35.66376876831055 88.50419616699219 30.17950439453125 C 86.26304626464844 24.88084411621094 83.05401611328125 20.12152099609375 78.96624755859375 16.03375244140625 C 74.87847900390625 11.94598388671875 70.11915588378906 8.736953735351562 64.82049560546875 6.495796203613281 C 59.33623123168945 4.176155090332031 53.50878524780273 3 47.5 3 M 47.5 0 C 73.7335205078125 0 95 21.2664794921875 95 47.5 C 95 73.7335205078125 73.7335205078125 95 47.5 95 C 21.2664794921875 95 0 73.7335205078125 0 47.5 C 0 21.2664794921875 21.2664794921875 0 47.5 0 Z" stroke="none" fill="#56838a"/>
              </g>
            </g>
          </g>
        </g>
      </g>
    </g>
    <g id="g7776" transform="translate(765.25 6649.43)">
      <g id="g7778" transform="translate(0 -682.665)">
        <g id="g7780" clip-path="url(#clip-path)">
          <g id="g7786" transform="translate(5.428 37.521)">
            <path id="path7788" d="M0-91.946v3.989A10.586,10.586,0,0,0,10.626-77.332a10.421,10.421,0,0,0,10.217-10.42v-4.194a10.422,10.422,0,0,0-10.422-10.422A10.422,10.422,0,0,0,0-91.946" transform="translate(0 102.368)" fill="#ffcec0"/>
          </g>
          <g id="g7790" transform="translate(5.428 37.521)">
            <path id="path7792" d="M-174.026-170.371a10.374,10.374,0,0,0,1.118-4.7v-4.194a10.422,10.422,0,0,0-10.422-10.422,10.422,10.422,0,0,0-10.422,10.422v3.988a10.586,10.586,0,0,0,10.626,10.626,10.368,10.368,0,0,0,5.808-1.908" transform="translate(193.751 189.682)" fill="none" stroke="#000" stroke-linecap="round" stroke-linejoin="round" stroke-miterlimit="10" stroke-width="1.2"/>
          </g>
          <g id="g7794" transform="translate(1.018 46.935)">
            <path id="path7796" d="M-53.177-12.824a3.3,3.3,0,0,1-.89,4.574,3.3,3.3,0,0,1-4.574-.89,3.3,3.3,0,0,1,.89-4.574,3.3,3.3,0,0,1,4.574.89" transform="translate(59.204 14.278)" fill="#ffcec0"/>
          </g>
          <g id="g7798" transform="translate(1.018 46.935)">
            <path id="path7800" d="M-45.321-53.177a3.3,3.3,0,0,1-4.574-.89A3.3,3.3,0,0,1-49-58.641a3.3,3.3,0,0,1,4.574.89" transform="translate(50.457 59.204)" fill="none" stroke="#000" stroke-linecap="round" stroke-linejoin="round" stroke-miterlimit="10" stroke-width="1.2"/>
          </g>
          <g id="g7802" transform="translate(13.764 55.432)">
            <path id="path7804" d="M-51.441-13.993a3.472,3.472,0,0,0-2.915-1.586,3.472,3.472,0,0,0-2.915,1.586" transform="translate(57.272 15.579)" fill="none" stroke="#000" stroke-linecap="round" stroke-linejoin="round" stroke-miterlimit="10" stroke-width="1.2"/>
          </g>
          <g id="g7806" transform="translate(1.574 33.788)">
            <path id="path7808" d="M0-81.4a9.2,9.2,0,0,0,.613,3.309,9.2,9.2,0,0,0,3.309.613A9.223,9.223,0,0,0,13.144-86.7a9.2,9.2,0,0,0-.613-3.309,9.175,9.175,0,0,0-3.309-.613A9.223,9.223,0,0,0,0-81.4" transform="translate(0 90.622)" fill="#384848"/>
          </g>
          <g id="g7810" transform="translate(1.574 33.788)">
            <path id="path7812" d="M0-81.4a9.2,9.2,0,0,0,.613,3.309,9.2,9.2,0,0,0,3.309.613A9.223,9.223,0,0,0,13.144-86.7a9.2,9.2,0,0,0-.613-3.309,9.175,9.175,0,0,0-3.309-.613A9.223,9.223,0,0,0,0-81.4Z" transform="translate(0 90.622)" fill="none" stroke="#000" stroke-linecap="round" stroke-linejoin="round" stroke-miterlimit="10" stroke-width="1.2"/>
          </g>
          <g id="g7814" transform="translate(11.587 30.678)">
            <path id="path7816" d="M-159.547-94.11a12.119,12.119,0,0,1-.267,4.425,12.125,12.125,0,0,1-4.227,1.335,12.151,12.151,0,0,1-13.548-10.574l-.006-.046a5.162,5.162,0,0,1,4.454-5.708l.046-.006A12.151,12.151,0,0,1-159.547-94.11" transform="translate(177.631 104.777)" fill="#47666b"/>
          </g>
          <g id="g7818" transform="translate(13.242 30.678)">
            <path id="path7820" d="M-142.587-133.152a12.16,12.16,0,0,1-3.967,1.3,12.122,12.122,0,0,0,.238-4.3,12.151,12.151,0,0,0-12.433-10.66,5.089,5.089,0,0,1,2.835-1.332.439.439,0,0,1,.045-.006,12.15,12.15,0,0,1,13.548,10.574,12.147,12.147,0,0,1-.267,4.426" transform="translate(158.749 148.245)" fill="#3f5958"/>
          </g>
          <g id="g7822" transform="translate(11.587 30.678)">
            <path id="path7824" d="M-159.547-94.11a12.119,12.119,0,0,1-.267,4.425,12.125,12.125,0,0,1-4.227,1.335,12.151,12.151,0,0,1-13.548-10.574l-.006-.046a5.162,5.162,0,0,1,4.454-5.708l.046-.006A12.151,12.151,0,0,1-159.547-94.11Z" transform="translate(177.631 104.777)" fill="none" stroke="#000" stroke-linecap="round" stroke-linejoin="round" stroke-miterlimit="10" stroke-width="1.2"/>
          </g>
          <g id="g7826" transform="translate(11.992 50.818)">
            <path id="path7828" d="M0,0V.728" fill="none" stroke="#000" stroke-linecap="round" stroke-linejoin="round" stroke-miterlimit="10" stroke-width="1.2"/>
          </g>
          <g id="g7830" transform="translate(21.522 50.818)">
            <path id="path7832" d="M0,0V.728" fill="none" stroke="#000" stroke-linecap="round" stroke-linejoin="round" stroke-miterlimit="10" stroke-width="1.2"/>
          </g>
          <g id="g7834" transform="translate(39.84 30.356)">
            <path id="path7836" d="M-181.836-205.681h-13.747a6.864,6.864,0,0,1-6.864-6.864v-2.712a13.737,13.737,0,0,1,13.737-13.737,13.737,13.737,0,0,1,13.737,13.737v2.712a6.864,6.864,0,0,1-6.864,6.864" transform="translate(202.446 228.994)" fill="#fca62f"/>
          </g>
          <g id="g7838" transform="translate(51.314 30.356)">
            <path id="path7840" d="M-141.151-121.2v2.713a6.862,6.862,0,0,1-6.862,6.862h-4.527a6.864,6.864,0,0,0,6.865-6.862V-121.2a13.7,13.7,0,0,0-4.024-9.714,13.677,13.677,0,0,0-7.451-3.837,13.743,13.743,0,0,1,2.263-.187,13.693,13.693,0,0,1,9.714,4.024,13.7,13.7,0,0,1,4.022,9.714" transform="translate(157.15 134.94)" fill="#fb9927"/>
          </g>
          <g id="g7842" transform="translate(39.84 30.356)">
            <path id="path7844" d="M-4.717-87.615a13.741,13.741,0,0,0-.535,3.806V-81.1a6.864,6.864,0,0,0,6.864,6.864H15.358A6.864,6.864,0,0,0,22.222-81.1v-2.712A13.737,13.737,0,0,0,8.485-97.546h0A13.714,13.714,0,0,0-2.461-92.109" transform="translate(5.252 97.546)" fill="none" stroke="#000" stroke-linecap="round" stroke-linejoin="round" stroke-miterlimit="10" stroke-width="1.2"/>
          </g>
          <g id="g7846" transform="translate(42.609 40.601)">
            <path id="path7848" d="M-169.678-79.907v3.283a9.616,9.616,0,0,1-9.616,9.616,9.616,9.616,0,0,1-9.616-9.616v-3.283a9.621,9.621,0,0,1,6.378-9.057,15.535,15.535,0,0,0,12.654,7.1,9.708,9.708,0,0,1,.2,1.961" transform="translate(188.91 88.964)" fill="#ffcec0"/>
          </g>
          <g id="g7850" transform="translate(42.609 40.601)">
            <path id="path7852" d="M-169.678-79.907v3.283a9.616,9.616,0,0,1-9.616,9.616,9.616,9.616,0,0,1-9.616-9.616v-3.283a9.621,9.621,0,0,1,6.378-9.057,15.535,15.535,0,0,0,12.654,7.1A9.708,9.708,0,0,1-169.678-79.907Z" transform="translate(188.91 88.964)" fill="none" stroke="#000" stroke-linecap="round" stroke-linejoin="round" stroke-miterlimit="10" stroke-width="1.2"/>
          </g>
          <g id="g7854" transform="translate(47.733 38.572)">
            <path id="path7856" d="M-11.062-17.9l-1.254-2.029" transform="translate(12.316 19.933)" fill="none" stroke="#000" stroke-linecap="round" stroke-linejoin="round" stroke-miterlimit="10" stroke-width="1.2"/>
          </g>
          <g id="g7858" transform="translate(48.252 55.182)">
            <path id="path7860" d="M0,0A3.909,3.909,0,0,0,3.282,1.785,3.909,3.909,0,0,0,6.564,0" fill="none" stroke="#000" stroke-linecap="round" stroke-linejoin="round" stroke-miterlimit="10" stroke-width="1.2"/>
          </g>
          <g id="g7862" transform="translate(46.685 50.051)">
            <path id="path7864" d="M0,0V.729" fill="none" stroke="#000" stroke-linecap="round" stroke-linejoin="round" stroke-miterlimit="10" stroke-width="1.2"/>
          </g>
          <g id="g7866" transform="translate(56.223 50.051)">
            <path id="path7868" d="M0,0V.729" fill="none" stroke="#000" stroke-linecap="round" stroke-linejoin="round" stroke-miterlimit="10" stroke-width="1.2"/>
          </g>
          <g id="g7870" transform="translate(59.314 46.753)">
            <path id="path7872" d="M-4.972-12.834a3.3,3.3,0,0,0,.891,4.577A3.3,3.3,0,0,0,.5-9.147a3.3,3.3,0,0,0-.891-4.577,3.3,3.3,0,0,0-4.577.891" transform="translate(5.536 14.288)" fill="#ffcec0"/>
          </g>
          <g id="g7874" transform="translate(59.877 46.753)">
            <path id="path7876" d="M-7.861-53.217a3.3,3.3,0,0,0,4.577-.891,3.3,3.3,0,0,0-.891-4.577,3.3,3.3,0,0,0-4.577.891" transform="translate(8.752 59.249)" fill="none" stroke="#000" stroke-linecap="round" stroke-linejoin="round" stroke-miterlimit="10" stroke-width="1.2"/>
          </g>
          <g id="g7878" transform="translate(2.661 6.942)">
            <path id="path7880" d="M-195.879-97.94a11.1,11.1,0,0,0-11.265-11.1,11.147,11.147,0,0,0-10.934,10.86,11.1,11.1,0,0,0,10.811,11.333l2.51,2.51a1.61,1.61,0,0,0,2.749-1.139v-2.541a11.1,11.1,0,0,0,6.129-9.925" transform="translate(218.082 109.041)" fill="#fcdd45"/>
          </g>
          <g id="g7882" transform="translate(14.677 7.051)">
            <path id="path7884" d="M-89.877-96.979a11.1,11.1,0,0,1-6.129,9.925v2.541a1.61,1.61,0,0,1-2.749,1.139l-1.309-1.309a1.574,1.574,0,0,0,.374-1.037v-1.1a2.528,2.528,0,0,1,1.148-2.1,11.085,11.085,0,0,0,4.981-9.26,11.1,11.1,0,0,0-5.851-9.785,11.1,11.1,0,0,1,9.535,10.992" transform="translate(100.064 107.972)" fill="#f8c52d"/>
          </g>
          <g id="g7886" transform="translate(2.661 6.942)">
            <path id="path7888" d="M-195.879-97.94a11.1,11.1,0,0,0-11.265-11.1,11.147,11.147,0,0,0-10.934,10.86,11.1,11.1,0,0,0,10.811,11.333l2.51,2.51a1.61,1.61,0,0,0,2.749-1.139v-2.541A11.1,11.1,0,0,0-195.879-97.94Z" transform="translate(218.082 109.041)" fill="none" stroke="#000" stroke-linecap="round" stroke-linejoin="round" stroke-miterlimit="10" stroke-width="1.2"/>
          </g>
          <g id="g7890" transform="translate(22.988 13.327)">
            <path id="path7892" d="M-338.251,0h-31.185a7.155,7.155,0,0,0-7.155,7.154,7.155,7.155,0,0,0,7.155,7.155h19.054l2.3,3.83a1.358,1.358,0,0,0,2.328,0l2.3-3.83h5.21A7.155,7.155,0,0,0-331.1,7.154,7.155,7.155,0,0,0-338.251,0" transform="translate(376.591)" fill="#23f1a8"/>
          </g>
          <g id="g7894" transform="translate(57.237 13.327)">
            <path id="path7896" d="M-99.214-63.125a7.135,7.135,0,0,0-2.1-5.06,7.136,7.136,0,0,0-5.06-2.1h-4.091a7.134,7.134,0,0,1,5.06,2.1,7.136,7.136,0,0,1,2.1,5.06,7.155,7.155,0,0,1-7.155,7.155h4.091a7.155,7.155,0,0,0,7.155-7.155" transform="translate(110.46 70.28)" fill="#26d192"/>
          </g>
          <g id="g7898" transform="translate(22.988 13.327)">
            <path id="path7900" d="M-101.04,0h-4.3a7.155,7.155,0,0,0-7.154,7.154,7.155,7.155,0,0,0,7.154,7.155h19.054l2.3,3.83a1.358,1.358,0,0,0,2.328,0l2.3-3.83h5.21A7.155,7.155,0,0,0-67,7.154,7.154,7.154,0,0,0-74.153,0H-96.014" transform="translate(112.493 0)" fill="none" stroke="#000" stroke-linecap="round" stroke-linejoin="round" stroke-miterlimit="10" stroke-width="1.2"/>
          </g>
          <g id="g7902" transform="translate(11.039 12.982)">
            <path id="path7904" d="M0-24.885A2.821,2.821,0,0,1,3-27.7a2.834,2.834,0,0,1,2.635,2.635A2.822,2.822,0,0,1,3.9-22.277a1.759,1.759,0,0,0-1.077,1.629" transform="translate(0 27.705)" fill="none" stroke="#000" stroke-linecap="round" stroke-linejoin="round" stroke-miterlimit="10" stroke-width="1.2"/>
          </g>
          <g id="g7906" transform="translate(13.86 23.397)">
            <path id="path7908" d="M0,0V.006" fill="none" stroke="#000" stroke-linecap="round" stroke-linejoin="round" stroke-miterlimit="10" stroke-width="1.2"/>
          </g>
          <g id="g7910" transform="translate(32.587 18.65)">
            <path id="path7912" d="M0,0H3.347" fill="none" stroke="#000" stroke-linecap="round" stroke-linejoin="round" stroke-miterlimit="10" stroke-width="1.2"/>
          </g>
          <g id="g7914" transform="translate(32.587 22.313)">
            <path id="path7916" d="M0,0H27.385" fill="none" stroke="#000" stroke-linecap="round" stroke-linejoin="round" stroke-miterlimit="10" stroke-width="1.2"/>
          </g>
          <g id="g7918" transform="translate(40.083 18.65)">
            <path id="path7920" d="M0,0H19.889" fill="none" stroke="#000" stroke-linecap="round" stroke-linejoin="round" stroke-miterlimit="10" stroke-width="1.2"/>
          </g>
        </g>
      </g>
    </g>
  </g>
</svg>
