<svg xmlns="http://www.w3.org/2000/svg" xmlns:xlink="http://www.w3.org/1999/xlink" width="400" height="294" viewBox="0 0 400 294">
  <defs>
    <clipPath id="clip-path">
      <rect id="Rectángulo_414842" data-name="Rectángulo 414842" width="400" height="294" transform="translate(1020 6628)" fill="#9ef0fd" stroke="#707070" stroke-width="1" opacity="0.38"/>
    </clipPath>
    <clipPath id="clip-path-2">
      <rect id="Rectángulo_415149" data-name="Rectángulo 415149" width="410" height="410" transform="translate(0.259 0.259)" fill="none"/>
    </clipPath>
  </defs>
  <g id="Enmascarar_grupo_1098734" data-name="Enmascarar grupo 1098734" transform="translate(-1020 -6628)" clip-path="url(#clip-path)">
    <g id="Grupo_1174866" data-name="Grupo 1174866" transform="translate(1013.741 6529.741)">
      <g id="Grupo_1174865" data-name="Grupo 1174865" transform="translate(0 0)" clip-path="url(#clip-path-2)">
        <path id="Trazado_1032340" data-name="Trazado 1032340" d="M196.216,190.433l-7.946-20.818-66.159,28.91-59.766,6.232-18.535-7.6.731-4.428c4.806,1.017,24.753,2.912,29.7,2.041,5.267-.927,20.326-47.583,18.729-54.091s-4.1-31.02-9.365-39.8S51.5,90.49,37.382,98.277c-20.676,11.4-15.823,68.1-14.628,70.5l-7.039,13.8L0,182.031V357.856c10.337-22.209,31.856-48.36,42.639-73.607,3.383-7.921,7.539-22.637,11.264-37.235,17.449-2.188,64.042-8.292,70.681-11.883,8.194-4.431,71.633-44.7,71.633-44.7M89.871,138.515s-3.7,7.289-6.016,8.1S77.84,144.3,77.84,144.3Zm-15.236,21.1c8-.016,3.122,20.86-2.732,22.031s-7.219-6.049-7.219-6.049,1.951-15.967,9.95-15.982m-9.95-15.046s-6.243,5.267-10.145,3.9S44.4,134.816,44.4,134.816Z" transform="translate(0 -16.691)" fill="#edcab0"/>
        <path id="Trazado_1032341" data-name="Trazado 1032341" d="M45.892,59.835c-1.174.949-2.363,1.877-3.56,2.8-.346-1.341-.682-2.683-1.039-4.023-.374-1.412-.789-2.82-1.225-4.221q3-2.905,5.944-5.861c1.542-1.556-.866-3.966-2.4-2.4-1.558,1.583-3.135,3.151-4.709,4.72-.435-1.244-.879-2.484-1.319-3.726-.52-1.468-.883-2.888-2.7-2.987a1.967,1.967,0,0,0-1.887,2.477c.85,2.193,1.912,4.351,2.826,6.532.076.179.157.358.233.538q-3.016,2.973-6.065,5.911C28,61.49,26,63.367,24,65.254q-1.174-1.474-2.376-2.929l-2.513-3.06a23.858,23.858,0,0,0-2.566-3.017c-1.746-1.507-4.622.4-3.324,2.565a24.416,24.416,0,0,0,2.609,3.176l2.456,2.85q1.393,1.616,2.8,3.21c-1.644,1.59-3.271,3.2-4.844,4.856-.705.745.24,2.14,1.147,1.486,1.9-1.371,3.743-2.82,5.544-4.317.124.132.241.27.366.4,1.048,1.1,2.133,2.172,3.221,3.241-1.833,1.215-3.645,2.456-5.387,3.792a.578.578,0,0,0,.582,1,57.181,57.181,0,0,0,6.238-3.372,55.975,55.975,0,0,1,5.808,6.485c.322.438,1.044.05.747-.437-1.489-2.449-2.934-4.933-4.453-7.368,1.622-1.047,3.221-2.127,4.815-3.191q3.394-2.262,6.714-4.637c1.173,2.8,2.268,5.634,3.332,8.487.163.437.843.269.712-.2-.739-2.608-1.5-5.211-2.259-7.813-.142-.488-.276-.976-.41-1.465q2.223-1.6,4.427-3.223a1.23,1.23,0,1,0-1.5-1.939M33.675,68.958c-1.546,1.079-3.124,2.113-4.7,3.146-.829-1.278-1.685-2.538-2.591-3.763-.184-.248-.378-.486-.563-.732,2.116-1.85,4.193-3.748,6.26-5.652,1.811-1.668,3.594-3.365,5.375-5.064.5,1.115,1.017,2.224,1.55,3.318.59,1.211,1.149,2.434,1.691,3.664q-3.462,2.6-7.017,5.082" transform="translate(-2.308 -7.897)" fill="#edcab0"/>
        <path id="Trazado_1032342" data-name="Trazado 1032342" d="M153.472,89.747c-.928,4.68-15.633-6.732-15.633-6.732a111.931,111.931,0,0,1-17.775,5.049c-8.194,1.388-16.971-14.417-17.849-18.8s-1.347-7.907-1.347-7.907l-3.342-6.724s-23.408,2.627-31.019-9.368C61.171,36.848,51.072,13.3,45.53,0H98.413c5.575,8.063,11.117,16.618,13.637,22.078a69,69,0,0,1,6.215,24.647l6.166,6.732a18.661,18.661,0,0,1,10.936,3.514c5.181,3.8,6.938,15.214,6.938,15.214S154.4,85.068,153.472,89.747" transform="translate(-8.149 0)" fill="#edcab0"/>
        <path id="Trazado_1032343" data-name="Trazado 1032343" d="M296.178,89.747c.928,4.68,15.633-6.732,15.633-6.732a111.932,111.932,0,0,0,17.775,5.049c8.194,1.388,16.971-14.417,17.849-18.8s1.346-7.907,1.346-7.907l3.342-6.724s23.408,2.627,31.019-9.368C388.479,36.848,398.578,13.3,404.12,0H351.237C345.662,8.063,340.12,16.618,337.6,22.078a69,69,0,0,0-6.215,24.647l-6.166,6.732a18.661,18.661,0,0,0-10.936,3.514c-5.181,3.8-6.938,15.214-6.938,15.214S295.25,85.068,296.178,89.747" transform="translate(-52.996 0)" fill="#edcab0"/>
        <path id="Trazado_1032344" data-name="Trazado 1032344" d="M249,67.727s2.422,21.659-2.085,21.027-8.145-15.46-8.145-15.46a50.221,50.221,0,0,1-12.143,0c-5.476-.879-8.572-11.708-9.327-17.562s.55-16.971.55-16.971L209.66,0h26.3V29.689l10.936,8.178s3.35,7.036,3.6,11.921S249,67.727,249,67.727" transform="translate(-37.522 0)" fill="#edcab0"/>
        <path id="Trazado_1032345" data-name="Trazado 1032345" d="M204.572,106.566c-.984-1.792-1.665-3.718-2.591-5.541-.867-1.7-1.573-3.48-2.514-5.146s-1.892-3.3-2.874-4.934q-.783-1.305-1.567-2.612a9.078,9.078,0,0,0-1.93-2.642,2.422,2.422,0,0,0-2.817-.364,2.366,2.366,0,0,0-1.069,2.626c.568,1.965,2.269,3.654,3.477,5.274s2.434,3.218,3.684,4.8c1.2,1.525,2.591,2.877,3.858,4.346,1.31,1.517,2.8,2.843,4.066,4.4.128.161.369-.044.277-.213" transform="translate(-33.847 -15.215)" fill="#edcab0"/>
        <path id="Trazado_1032346" data-name="Trazado 1032346" d="M206.952,85.32c-.38-2.008-.429-4.052-.745-6.071-.295-1.888-.416-3.8-.792-5.672s-.776-3.726-1.2-5.584q-.341-1.483-.68-2.969a9.07,9.07,0,0,0-1.015-3.109,2.426,2.426,0,0,0-2.567-1.22,2.367,2.367,0,0,0-1.83,2.165c-.068,2.044,1.024,4.177,1.671,6.092s1.314,3.815,2.012,5.709c.671,1.824,1.571,3.539,2.32,5.329.774,1.847,1.784,3.572,2.5,5.447.074.193.366.074.33-.117" transform="translate(-35.456 -10.853)" fill="#edcab0"/>
        <path id="Trazado_1032347" data-name="Trazado 1032347" d="M476.412,148.8l-19.826,4.691-5.852-6.6s-.781-11.241-1.561-17.548-14.047-33.1-23.412-40.516a26.11,26.11,0,0,0-10.779-4.622A41.851,41.851,0,0,0,387.442,88.1c-5.69,2.885-11.94,6.909-14.476,11.564-5.15,9.453-6.089,32.511-3.044,40.824s29.5,42.85,33.6,42.028,26.923-23.064,26.923-23.064l4.682,20.509s-19.51,19.6-21.851,31.933c-.777,4.093,5.918,17.787,15.206,34.256L408.2,255.817l-10.926-2.39s-12.986-.113-17.418,3.846-4.433,18.493-3.262,21.761,7.925,11.852,10.01,12.242,12.231-2.08,12.231-2.08,3.072,10.665,6,12.86a4.754,4.754,0,0,0,5.706,0l-1.9-16.078s6.487-3.457,7.56-6.347a19.223,19.223,0,0,1,2.244-4.455l24.363-4.649c16.439,27.114,33.605,53.2,33.605,53.2ZM416.2,120.631s-1.365,9.364-5.462,11.705-10.926,2.342-10.926,2.342l-2.536-3.9Zm-33.9,23.46c-2.634.292-8.34-4.829-8.34-4.829l12.145-3.439,1.463,3.439s-2.634,4.536-5.268,4.829m10.292,20.436s-.585-7.609,2.926-9.755,25.558-3.608,25.558-3.608Z" transform="translate(-65.893 -14.918)" fill="#edcab0"/>
        <path id="Trazado_1032348" data-name="Trazado 1032348" d="M451.08,35.751a2.312,2.312,0,0,0-2.76-.356l-.254.159a2.21,2.21,0,0,0-1.021,2.092c-1.136,4.549-2.517,9-3.992,13.458-.773,2.333-1.548,4.666-2.347,6.99-.388,1.129-.812,2.25-1.158,3.393-.3,1.007-.913,2.264-.6,3.311a.34.34,0,0,0,.494.2c.911-.507,1.3-1.711,1.759-2.6.544-1.059,1-2.166,1.478-3.256q1.511-3.443,2.971-6.91c1.924-4.58,3.761-9.184,5.783-13.723a2.375,2.375,0,0,0-.356-2.759" transform="translate(-78.541 -6.279)" fill="#edcab0"/>
        <path id="Trazado_1032349" data-name="Trazado 1032349" d="M475.964,52.6a2.211,2.211,0,0,0-3.278-.222l-11.727,9.931c-1.9,1.611-3.807,3.218-5.673,4.87-1.968,1.744-3.769,3.639-5.71,5.4-.453.411.143,1.2.661.856,2.117-1.425,4.328-2.684,6.434-4.136s4.173-2.957,6.245-4.459l12.433-9.015a2.21,2.21,0,0,0,.617-3.228" transform="translate(-80.429 -9.263)" fill="#edcab0"/>
        <path id="Trazado_1032350" data-name="Trazado 1032350" d="M476.036,80.686l-9.776,2.752c-1.6.45-3.179.958-4.765,1.447-1.674.516-3.214,1.326-4.856,1.87a.385.385,0,0,0,.205.742c.919-.125,1.879-.068,2.81-.143.818-.066,1.622-.193,2.432-.32,1.649-.259,3.3-.5,4.944-.8l10.031-1.825c2.413-.439,1.4-4.409-1.026-3.725" transform="translate(-81.673 -14.425)" fill="#edcab0"/>
        <path id="Trazado_1032351" data-name="Trazado 1032351" d="M323.617,35.08a13.519,13.519,0,0,0-2.861-2.415q-1.622-1.244-3.234-2.5-1.9-1.48-3.794-2.961.592-1.336,1.185-2.672.824-1.867,1.642-3.738c.507-1.156,1.538-2.592,1.116-3.87A1.225,1.225,0,0,0,315.9,16.2c-1.152.537-1.485,2.2-1.955,3.3q-.805,1.878-1.609,3.758c-.3.715-.606,1.432-.91,2.148l-.094-.074q-2.376-1.833-4.732-3.685,1.766-4.544,3.457-9.118c.668-1.816-2.268-2.631-2.907-.8q-1.426,4.083-2.779,8.186c-1.847-1.431-3.7-2.85-5.6-4.226-.3-.219-.635.25-.389.5,1.768,1.82,3.6,3.566,5.471,5.273-.121.369-.247.737-.368,1.107-.342,1.049-.664,2.1-.982,3.161l-1.28-1.045c-1.093-.892-2.667.656-1.565,1.565l2.158,1.781,0,0c-.443,1.494-1.19,3.388-.895,4.953a.227.227,0,0,0,.375.1,9.266,9.266,0,0,0,2.156-3.708l4.129,3.406.538.444c-1.745,4.178-3.423,8.371-4.934,12.647a.838.838,0,0,0,1.524.643c1.969-3.794,3.783-7.645,5.54-11.532l1.172.967a29.715,29.715,0,0,0,4.165,3.2.983.983,0,0,0,1.186-1.537,28.248,28.248,0,0,0-3.732-3.278l-1.828-1.493c.155-.348.313-.694.467-1.042q.566-1.276,1.131-2.551,1.616,1.333,3.251,2.642,1.554,1.245,3.117,2.478a13.765,13.765,0,0,0,3.218,2.282,1.083,1.083,0,0,0,1.213-1.577M309.15,30.793c-.039.09-.076.181-.114.273l-4.687-3.828c.545-1.293,1.088-2.588,1.6-3.894q2.052,1.821,4.134,3.615c.168.145.341.284.509.428q-.72,1.7-1.443,3.407" transform="translate(-53.386 -1.915)" fill="#edcab0"/>
        <path id="Trazado_1032352" data-name="Trazado 1032352" d="M438.866,419.574l-2.141,2.556c-2.736-4.2-13.086-19.79-16.882-21.024-4.389-1.428-9.657,1.777-9.657,1.777s-4.682-.048-5.56,2.764-2.927,8.894-2.927,8.894-14.339-8.141-15.8-4.625,16.681,17.491,22.241,19.283c0,0-12.876,5.012-12.584,8.524s21.363-3.219,21.363-3.219l6.723,3.246-2.919,3.484c14.2,13.079,21.963,29.122,26.084,41h32.759V434.164c-17.5-12.669-40.7-14.59-40.7-14.59" transform="translate(-69.047 -71.718)" fill="#edcab0"/>
        <path id="Trazado_1032353" data-name="Trazado 1032353" d="M413.754,469.092c-.261-1.409-2.536-1.078-2.489.337.129,3.831-4.367,4.554-7.258,4.138a26.509,26.509,0,0,1-5.494-1.433,17.791,17.791,0,0,0-1.612-9.525,26.037,26.037,0,0,0-7.447-9.779,8.084,8.084,0,0,0-5.394-2.042,4.736,4.736,0,0,0-3.966,2.644c-1.453,3.085.124,6.733,1.888,9.322a32.807,32.807,0,0,0,8.086,8.223,30.522,30.522,0,0,0,4.3,2.547,3.09,3.09,0,0,1-1.3,1.615,6.353,6.353,0,0,1-4.086.2,29.4,29.4,0,0,1-12.651-6.017,31.549,31.549,0,0,0-4.42-18.16,30.051,30.051,0,0,0-7.1-8.185c-1.676-1.325-3.681-2.961-5.961-2.262-2.026.621-2.806,2.78-2.913,4.7-.234,4.237,1.71,8.382,4.025,11.807a74.625,74.625,0,0,0,7.752,9.456,60.38,60.38,0,0,0,4.918,4.654c-.067.508-.145,1.015-.248,1.52-.26,1.279-.571,2.932-1.852,3.589-2.607,1.338-6.074-.977-8.123-2.416-5.483-3.851-8.815-9.54-12.664-14.851-.959-1.323-1.826-2.709-2.773-4.042-.375-.528-1.436-.222-1.144.482,2.993,7.2,6.994,14.27,12.99,19.414,2.8,2.4,6.27,4.867,10.1,4.957a6.168,6.168,0,0,0,4.928-2.091,9.859,9.859,0,0,0,1.847-4.19,30.923,30.923,0,0,0,12.09,5.374,11.757,11.757,0,0,0,5.942-.094,6.7,6.7,0,0,0,4.046-4.028c.9.319,1.814.6,2.732.833,3.834.983,8.675,1.565,11.691-1.605a5.643,5.643,0,0,0,1.564-5.1M365.7,458.487a28.347,28.347,0,0,1-5.244-8.658,10.966,10.966,0,0,1-.666-4.567,4.552,4.552,0,0,1,.2-.874c.25-.149,1.487.841,1.787,1.057a25.465,25.465,0,0,1,6.035,6.22,28.547,28.547,0,0,1,5.021,14.651c-.134-.127-.27-.253-.4-.381a81.809,81.809,0,0,1-6.732-7.447m21.49,6.2c-1.952-2.03-4.016-4.463-4.705-7.257-.252-1.02-.407-2.394.342-3.256,1.016-1.169,2.557-.526,3.628.187a15.93,15.93,0,0,1,3.39,3.476,30.359,30.359,0,0,1,2.912,4.281,15.744,15.744,0,0,1,2.209,8.416l-.063-.032a30.951,30.951,0,0,1-7.713-5.815" transform="translate(-61.881 -78.843)" fill="#edcab0"/>
        <path id="Trazado_1032354" data-name="Trazado 1032354" d="M439.132,355.082a1.922,1.922,0,0,0-2.779-1.131c-1.182.7-1.209,1.64-1.544,2.838l-.82,2.929q-.765,2.733-1.53,5.466c-1.057,3.775-1.891,7.616-2.966,11.38-.272.951,1.112,1.287,1.453.4,1.393-3.617,3.023-7.15,4.435-10.765l2.078-5.315q.52-1.329,1.039-2.658c.42-1.073,1.117-1.951.635-3.145" transform="translate(-76.858 -63.296)" fill="#edcab0"/>
        <path id="Trazado_1032355" data-name="Trazado 1032355" d="M462.227,364.5a2.359,2.359,0,0,0-3.44.657,124.735,124.735,0,0,1-8.416,10.3,126.224,126.224,0,0,1-9.4,9.668c-.907.81.4,2.052,1.316,1.315,3.56-2.873,7.173-5.676,10.531-8.789,3.337-3.092,6.54-6.339,9.647-9.662a2.347,2.347,0,0,0-.236-3.493" transform="translate(-78.863 -65.144)" fill="#edcab0"/>
        <path id="Trazado_1032356" data-name="Trazado 1032356" d="M469.227,391.007a2.043,2.043,0,0,0-3.822.234,67.611,67.611,0,0,1-6.173,2.965,48.077,48.077,0,0,0-6.581,3.381.644.644,0,0,0,.494,1.172,47.853,47.853,0,0,0,6.92-2.577,66.191,66.191,0,0,1,6.4-2.576,2.036,2.036,0,0,0,2.763-2.6" transform="translate(-80.955 -69.759)" fill="#edcab0"/>
        <path id="Trazado_1032357" data-name="Trazado 1032357" d="M78.434,418.61c-4.064,1.9-7.365,3.177-7.365,3.177l-5.747,4.836s8.071,22.127-1.79,32.349c-3.793,3.933-11.65,10.312-19.894,16.683H0V450.614c13.834-14.278,27.825-28.49,30.263-30.428a68.919,68.919,0,0,1,22.48-11.856l5.09-7.578a18.651,18.651,0,0,1,.837-11.453,8.716,8.716,0,0,1,.788-1.461c.123-.476.3-.985.468-1.552a37.386,37.386,0,0,1,5.2-10.912c.558-.813,1.371-1.7,2.348-1.544,1.322.205,1.585,1.987,1.519,3.325-.057,1.084-1.617,10.682-1.675,11.757C69.066,388,81.48,364.175,86.25,363.97s-2.857,16.782-2.857,16.782A112.052,112.052,0,0,1,92.5,396.836c3.276,7.636-10.008,19.894-14.064,21.774" transform="translate(0 -65.137)" fill="#edcab0"/>
        <path id="Trazado_1032358" data-name="Trazado 1032358" d="M97.558,449.037l19.9-5.268-2.6-9.109,30.4-3.4v16.318l-21.465-3.8,1.109,8.916Z" transform="translate(-17.46 -77.179)" fill="#edcab0"/>
        <path id="Trazado_1032359" data-name="Trazado 1032359" d="M102.135,469.887l10.1,2,.831-4.663,14.406,5.136-3.579,7.333-8.811-6.417-1.457,4.25Z" transform="translate(-18.279 -83.616)" fill="#edcab0"/>
        <path id="Trazado_1032360" data-name="Trazado 1032360" d="M79.774,331a1.736,1.736,0,1,0-3.09.1c.317,3.412.557,6.864,1.1,10.246.565,3.539,1.049,7.092,1.6,10.634.048.319.594.247.567-.076A147.086,147.086,0,0,1,79.774,331" transform="translate(-13.692 -58.794)" fill="#edcab0"/>
        <path id="Trazado_1032361" data-name="Trazado 1032361" d="M98.218,311.866a2,2,0,0,0-1.972,1.972c-.051,4.535-.178,9.068-.239,13.6s-.4,9.091-.147,13.6c.027.478.778.642.882.119.883-4.443,1.182-9.025,1.753-13.519.584-4.6,1.1-9.208,1.7-13.806a1.982,1.982,0,0,0-1.972-1.972" transform="translate(-17.139 -55.813)" fill="#edcab0"/>
        <path id="Trazado_1032362" data-name="Trazado 1032362" d="M118.948,328.129a1.737,1.737,0,0,0-2.36.619c-1.137,2.638-2.448,5.195-3.792,7.733a43.769,43.769,0,0,0-3.7,7.669.7.7,0,0,0,1.152.671,30.2,30.2,0,0,0,4.994-6.908c1.479-2.452,2.871-4.955,4.321-7.425a1.753,1.753,0,0,0-.619-2.36" transform="translate(-19.52 -58.684)" fill="#edcab0"/>
        <path id="Trazado_1032363" data-name="Trazado 1032363" d="M192.967,421.482l-7.092,64.466h51.182l6.368-10.567,6.225,10.567h50.4l-8.618-64.466Z" transform="translate(-33.265 -75.43)" fill="#41294b"/>
        <path id="Trazado_1032364" data-name="Trazado 1032364" d="M296.488,398.822c-2.242-29.85-9.892-140.345-9.892-140.345l-33.645-9.225-21.128,2.925-31.95,11.115s-8.528,108.153-9.646,135.611c0,0,61.707,10.97,106.261-.08" transform="translate(-34.044 -44.607)" fill="#91937e"/>
        <path id="Trazado_1032365" data-name="Trazado 1032365" d="M304.885,271.719s-8.7,8.99-8.909,12.849,12.888,34.566,12.888,34.566-8.584-32.28-8.287-35.354,4.309-12.062,4.309-12.062" transform="translate(-52.969 -48.628)" fill="#7d7e6c"/>
        <path id="Trazado_1032366" data-name="Trazado 1032366" d="M238.267,250.709s-7.963,2-10.692,4.3l4.067,18.787,18.5-8.285,17.247,5.659s1.99-19.042,1.288-20.459-9.04-2.486-9.04-2.486Z" transform="translate(-40.728 -44.423)" fill="#fff"/>
        <path id="Trazado_1032367" data-name="Trazado 1032367" d="M262.526,250.642s-4.335,4.635-8.985,6.24-12.06-1.785-12.06-1.785l-1.425-7.605-2.482-13.252,20.265-3.989,3.06,13.312Z" transform="translate(-42.518 -41.206)" fill="#b77158"/>
        <path id="Trazado_1032368" data-name="Trazado 1032368" d="M260.9,243.562c-3.457,1.928-8.182,4.38-10.852,5.01-2.5.585-6.7-.225-9.99-1.08l-2.483-13.252,20.265-3.989Z" transform="translate(-42.518 -41.206)" fill="#8e503d"/>
        <path id="Trazado_1032369" data-name="Trazado 1032369" d="M209.741,226.821c-6.061.325-11.1-3.5-14.008-6.9a19.635,19.635,0,0,1-1.626-2.186c-2.31-3.662-4.9-17.195-1-21.037,2.734-2.688,5.468.177,6.861,2.138l0,.007a14.555,14.555,0,0,1,.943,1.5Z" transform="translate(-34.2 -35.005)" fill="#cc836d"/>
        <path id="Trazado_1032370" data-name="Trazado 1032370" d="M211.02,227c-6.061.325-12.177-3.419-15.085-6.823q-.39-.53-.7-1.016c-2.31-3.661-4.9-17.195-1-21.032,2.214-2.181,4.429-.713,5.931.964v.007a14.666,14.666,0,0,1,.944,1.5Z" transform="translate(-34.403 -35.261)" fill="#b77158"/>
        <path id="Trazado_1032371" data-name="Trazado 1032371" d="M193.889,209.759a7.42,7.42,0,0,0,.71,3.265c1.9,4.383,6.036,7.313,9.976,10.017a14.222,14.222,0,0,1-2.311-6.965c-.057-.86-.044-1.724-.168-2.576-.5-3.429-7.9-10.378-8.207-3.741" transform="translate(-34.698 -37.044)" fill="#cc836d"/>
        <path id="Trazado_1032372" data-name="Trazado 1032372" d="M206.651,224.044l-.218-.11c-.139-.077-.36-.172-.619-.334a8.933,8.933,0,0,1-2-1.684,10,10,0,0,1-1.956-3.411,9.573,9.573,0,0,1-.308-4.865,4.8,4.8,0,0,1,.158-.638l.046-.157c.012-.039,0-.015.007-.019v0l0,0h0s0,.007-.014-.023l-.076-.122-.156-.242c-.107-.158-.21-.318-.319-.471a21.317,21.317,0,0,0-1.328-1.721c-.452-.528-.909-1.008-1.354-1.442a11.507,11.507,0,0,0-1.287-1.117,2.234,2.234,0,0,0-1.21-.452,1.463,1.463,0,0,0-.917.346,1.044,1.044,0,0,0-.346.551,1.091,1.091,0,0,0-.026.239.751.751,0,0,1-.027-.245,1.133,1.133,0,0,1,.259-.676,1.7,1.7,0,0,1,1.02-.6,2.61,2.61,0,0,1,1.558.308,10.121,10.121,0,0,1,1.527,1.012,16.651,16.651,0,0,1,3.085,3.107c.122.159.24.324.358.49l.175.253.235.36.163.253c-.018.094-.052.192-.077.289l-.115.414a4.041,4.041,0,0,0-.134.554,10.058,10.058,0,0,0,.1,4.329,10.913,10.913,0,0,0,1.445,3.324,10.187,10.187,0,0,0,1.623,1.9c.22.205.411.339.533.444l.189.155" transform="translate(-34.846 -37.014)" fill="#8e503d"/>
        <path id="Trazado_1032373" data-name="Trazado 1032373" d="M280.641,214.168c5.885-1.484,9.566-6.628,11.335-10.741a19.6,19.6,0,0,0,.906-2.57c1.122-4.182-.409-17.876-5.272-20.39-3.407-1.757-5.171,1.79-5.92,4.075v.007a14.569,14.569,0,0,0-.456,1.714Z" transform="translate(-50.225 -32.212)" fill="#cc836d"/>
        <path id="Trazado_1032374" data-name="Trazado 1032374" d="M279.359,214.715c5.885-1.484,10.618-6.871,12.388-10.984q.217-.621.365-1.177c1.122-4.181-.409-17.876-5.271-20.386-2.76-1.427-4.442.63-5.379,2.677v.007a14.561,14.561,0,0,0-.456,1.713Z" transform="translate(-49.996 -32.517)" fill="#b77158"/>
        <path id="Trazado_1032375" data-name="Trazado 1032375" d="M291.3,193.024a7.431,7.431,0,0,1,.289,3.329c-.522,4.75-3.6,8.772-6.563,12.522a14.236,14.236,0,0,0,.145-7.338c-.2-.837-.47-1.659-.6-2.51-.535-3.424,4.474-12.251,6.731-6" transform="translate(-50.92 -34.154)" fill="#cc836d"/>
        <path id="Trazado_1032376" data-name="Trazado 1032376" d="M283.26,210.431l.175-.17c.11-.114.293-.27.493-.5a8.893,8.893,0,0,0,1.409-2.2,10,10,0,0,0,.859-3.838,9.565,9.565,0,0,0-1.147-4.737,4.7,4.7,0,0,0-.339-.563l-.09-.135c-.023-.034-.009-.013-.011-.016l0,0,0,0h0s0,.007.006-.025l.037-.14.078-.277c.054-.184.106-.366.164-.545a21.594,21.594,0,0,1,.758-2.037c.275-.638.57-1.232.867-1.778a11.378,11.378,0,0,1,.9-1.448,2.23,2.23,0,0,1,1.021-.791,1.462,1.462,0,0,1,.978.059,1.045,1.045,0,0,1,.494.424,1.1,1.1,0,0,1,.1.22.733.733,0,0,0-.047-.242,1.128,1.128,0,0,0-.447-.569,1.7,1.7,0,0,0-1.153-.273,2.608,2.608,0,0,0-1.4.755,10.075,10.075,0,0,0-1.16,1.419,17.018,17.018,0,0,0-1.089,1.773,16.685,16.685,0,0,0-.938,2.108c-.071.188-.134.379-.2.574l-.092.293-.118.413-.081.29c.045.085.107.168.159.253l.233.362a4.224,4.224,0,0,1,.291.489,10.054,10.054,0,0,1,1.186,4.164,10.913,10.913,0,0,1-.4,3.6,10.2,10.2,0,0,1-.987,2.3c-.149.26-.292.446-.377.582l-.135.2" transform="translate(-50.694 -34.153)" fill="#8e503d"/>
        <path id="Trazado_1032377" data-name="Trazado 1032377" d="M262.864,160.4l-33.157,2.986-.126.02-32.493,7.246s3.925,28.781,5.018,32.2,7.848,20.041,13.67,25.284c1.151,1.037,3.651,1.784,6.635,2.32A53.825,53.825,0,0,0,256.6,225.21c2.841-1.471,5.147-3,5.95-4.37,3.95-6.766,5.325-24.657,5.328-28.244s-5.018-32.2-5.018-32.2" transform="translate(-35.272 -28.705)" fill="#cc836d"/>
        <path id="Trazado_1032378" data-name="Trazado 1032378" d="M262.864,160.4,229.7,163.384l-.121.019-32.5,7.246s4.9,26.89,5.946,30.116,7.5,18.923,13.087,23.864c1.105.978,3.509,1.677,6.379,2.176a52.754,52.754,0,0,0,32.921-5.049c2.738-1.4,4.962-2.849,5.737-4.146,3.821-6.407,5.193-23.324,5.2-26.716s-3.5-30.5-3.5-30.5" transform="translate(-35.272 -28.705)" fill="#b77158"/>
        <path id="Trazado_1032379" data-name="Trazado 1032379" d="M207.932,193.031s10.454-7.875,14.1-6.86,4.508,3.38,2.9,4.5-17,2.357-17,2.357" transform="translate(-37.213 -33.302)" fill="#444"/>
        <path id="Trazado_1032380" data-name="Trazado 1032380" d="M267.285,182.978s-10.923-7.211-14.5-5.972-4.289,3.654-2.617,4.674,17.113,1.3,17.113,1.3" transform="translate(-44.618 -31.652)" fill="#444"/>
        <path id="Trazado_1032381" data-name="Trazado 1032381" d="M222.492,204.42a9.472,9.472,0,0,1-10.462-2.232,13.526,13.526,0,0,0,9.49-.379c2.95-1.256,4.433-3.423,6.465-5.652.411,3.361-2.579,7-5.493,8.263" transform="translate(-37.946 -35.105)" fill="#1d1e1e"/>
        <path id="Trazado_1032382" data-name="Trazado 1032382" d="M259.791,198.009a9.47,9.47,0,0,0,8.746-6.158,13.529,13.529,0,0,1-8.877,3.375c-3.206,0-5.42-1.409-8.164-2.663.94,3.253,5.119,5.428,8.294,5.445" transform="translate(-45.009 -34.334)" fill="#1d1e1e"/>
        <path id="Trazado_1032383" data-name="Trazado 1032383" d="M282.042,202.479c.627,1.849-2.3,4.513-6.531,5.95s-8.176,1.1-8.8-.746,2.3-4.513,6.531-5.95,8.176-1.1,8.8.746" transform="translate(-47.716 -35.943)" fill="#cc836d"/>
        <path id="Trazado_1032384" data-name="Trazado 1032384" d="M204.02,212.459c-.349,1.921,2.934,4.127,7.333,4.927s8.25-.109,8.6-2.031-2.934-4.127-7.334-4.926-8.25.109-8.6,2.03" transform="translate(-36.508 -37.607)" fill="#cc836d"/>
        <path id="Trazado_1032385" data-name="Trazado 1032385" d="M247.4,211.978a8.3,8.3,0,0,1-8.922-.011,4.731,4.731,0,0,0,4.406,4.1,4.835,4.835,0,0,0,4.517-4.094" transform="translate(-42.679 -37.934)" fill="#cc836d"/>
        <path id="Trazado_1032386" data-name="Trazado 1032386" d="M242.11,212.766a6.09,6.09,0,0,1-1.888-.875,2.717,2.717,0,0,1-1.243-1.75,1.6,1.6,0,0,1,.906-1.625,2.958,2.958,0,0,1,1.347-.385,3.127,3.127,0,0,1,.53.008c.029-.217.043-.453.066-.723a21.92,21.92,0,0,0-.182-4.353A21.375,21.375,0,0,0,239.852,197a40.839,40.839,0,0,0,.419,6.251c.209,1.534.5,2.914.754,3.994a3.1,3.1,0,0,0-1.635.2,3.024,3.024,0,0,0-1.341,1,2.514,2.514,0,0,0-.442,1.859,3.5,3.5,0,0,0,2.007,2.6,5.182,5.182,0,0,0,2.42.543,4.723,4.723,0,0,0,1.6-.281c.26-.1.432-.184.508-.219a5.856,5.856,0,0,1-2.033-.186" transform="translate(-42.518 -35.256)" fill="#8e503d"/>
        <path id="Trazado_1032387" data-name="Trazado 1032387" d="M241.59,226.415s4.237-5.806,10.508-6.113a15.579,15.579,0,0,1,10.343,3.26s-11.579-4.638-20.851,2.854" transform="translate(-43.236 -39.422)" fill="#8e503d"/>
        <path id="Trazado_1032388" data-name="Trazado 1032388" d="M270.8,140.134a16.4,16.4,0,0,1-5.425,9.659,8.246,8.246,0,0,1,1.09,5.8,8.964,8.964,0,0,1-1.122,3.121l2.113,10.306-3.825,8.676-4.314-5.419-1.985-9.838a8.378,8.378,0,0,1-5.3-2.723c-1.661,2.811-5.343,3.9-8.565,3.3a7.856,7.856,0,0,1-2.526-.978,8.286,8.286,0,0,1-11.508-1.554,14.744,14.744,0,0,1-9.931,7.762,14.583,14.583,0,0,1-12.214-2.837c-2.053,2.719-4.165,5.485-7.008,7.379a.361.361,0,0,0-.1.065l-2.629,16.286-5.384-7.086-1.3-7.714a2.533,2.533,0,0,1-.274-.1,6.915,6.915,0,0,1-3.181-2.883,5.655,5.655,0,0,1-.342-5.5c-2.654.729-5.949-.816-6.651-3.475-1.361-5.178,1.337-7.169,3.309-8.516a10.581,10.581,0,0,1,3.683-19.633,12.747,12.747,0,0,1,8-10.926c4.392-1.664,8.562.762,12.1,3.375,2.931-2.717,6.543-6.636,10.793-7.194a20.016,20.016,0,0,1,16.824,2.834,16.084,16.084,0,0,1,2.045,1.709A13.105,13.105,0,0,1,244,121.307a13.458,13.458,0,0,1,13,7.593c3.382-1.675,7.677-1.689,10.426.9a11.984,11.984,0,0,1,3.374,10.337" transform="translate(-31.934 -21.251)" fill="#1d1e1e"/>
        <path id="Trazado_1032389" data-name="Trazado 1032389" d="M270.918,138.651a13.968,13.968,0,0,1-.119,1.483,16.409,16.409,0,0,1-5.425,9.659,8.249,8.249,0,0,1,1.09,5.8l-.142.018c-3.5.407-7.416-2.811-6.446-6.2-.674,1.752-3.438,1.656-4.682.261a6.091,6.091,0,0,1-1.286-3.21,4.933,4.933,0,0,1-5.453,3.663c-2.479-.525-4.11-3.075-4.154-5.6a11.536,11.536,0,0,1-22.436-.093,15.188,15.188,0,0,1-25.542,9.078,33.39,33.39,0,0,1-.6,9.773c-.842,3.162-2.816,6.185-5.814,7.5a7.006,7.006,0,0,1-2.492.576,5.657,5.657,0,0,1-.342-5.5c-2.655.728-5.949-.817-6.652-3.475-1.361-5.178,1.337-7.17,3.309-8.516a10.9,10.9,0,0,1-5.232-8.233,9.56,9.56,0,0,1,.106-2.883,10.861,10.861,0,0,1,8.81-8.518,12.748,12.748,0,0,1,8-10.926c4.392-1.663,8.561.762,12.1,3.376,2.931-2.717,6.543-6.636,10.792-7.194a20.012,20.012,0,0,1,16.824,2.834,16.091,16.091,0,0,1,2.046,1.709A13.108,13.108,0,0,1,244,121.306a13.459,13.459,0,0,1,13,7.594c3.383-1.676,7.677-1.689,10.427.9a11.773,11.773,0,0,1,3.494,8.855" transform="translate(-31.933 -21.251)" fill="#444"/>
        <path id="Trazado_1032390" data-name="Trazado 1032390" d="M270.918,138.651a11.576,11.576,0,0,0-2.842-2.692c-4.16-2.755-10.587-2.029-13.256,2.186a10.3,10.3,0,0,0-19.366-4.138,13.566,13.566,0,0,0-26.625,1.335,8.146,8.146,0,1,0-14.339,7.607,16.508,16.508,0,0,0-11.553-.395,11.347,11.347,0,0,0-4.441,3.085,9.56,9.56,0,0,1,.106-2.883,10.861,10.861,0,0,1,8.81-8.518,12.748,12.748,0,0,1,8-10.926c4.392-1.663,8.561.762,12.1,3.376,2.931-2.717,6.543-6.636,10.792-7.194a20.012,20.012,0,0,1,16.824,2.834,16.091,16.091,0,0,1,2.046,1.709A13.108,13.108,0,0,1,244,121.306a13.459,13.459,0,0,1,13,7.594c3.383-1.676,7.677-1.689,10.427.9a11.773,11.773,0,0,1,3.494,8.855" transform="translate(-31.933 -21.251)" fill="#595959"/>
        <path id="Trazado_1032391" data-name="Trazado 1032391" d="M257.677,278.8a2.627,2.627,0,1,1-2.627-2.626,2.626,2.626,0,0,1,2.627,2.626" transform="translate(-45.175 -49.424)" fill="#7d7e6c"/>
        <path id="Trazado_1032392" data-name="Trazado 1032392" d="M258.023,289.487a2.627,2.627,0,1,1-2.626-2.627,2.626,2.626,0,0,1,2.626,2.627" transform="translate(-45.237 -51.337)" fill="#7d7e6c"/>
        <path id="Trazado_1032393" data-name="Trazado 1032393" d="M258.37,300.176a2.627,2.627,0,1,1-2.626-2.627,2.626,2.626,0,0,1,2.626,2.627" transform="translate(-45.299 -53.25)" fill="#7d7e6c"/>
        <path id="Trazado_1032394" data-name="Trazado 1032394" d="M220.6,301.381l-.52,7.379-2.264,31.763-.227,3.08-.2,2.943-.227,3.08-.216,2.939-.209,3.084-.279,3.873-1.48,20.333,50.654,3.613,13.346.952,5.6-78.473-4.1-.29-.282-.021-3.361-.248-5.6-.394-1.057-.07-3.361-.248-.107,0-3.379-.251,0,.017-6.654-.481-3.361-.247-8.556-.614,0,.017-17.851-1.287-2.026-.14Z" transform="translate(-38.474 -53.936)" fill="#ffcb5d"/>
        <rect id="Rectángulo_415139" data-name="Rectángulo 415139" width="78.673" height="13.38" transform="matrix(0.071, -0.997, 0.997, 0.071, 227.163, 329.528)" fill="#ffb600"/>
        <rect id="Rectángulo_415140" data-name="Rectángulo 415140" width="10.294" height="33.416" transform="translate(189.371 269.524) rotate(-85.918)" fill="#fff"/>
        <rect id="Rectángulo_415141" data-name="Rectángulo 415141" width="3.088" height="24.547" transform="translate(191.314 304.592) rotate(-85.918)" fill="#ffb600"/>
        <rect id="Rectángulo_415142" data-name="Rectángulo 415142" width="3.088" height="24.547" transform="translate(190.886 310.594) rotate(-85.918)" fill="#ffb600"/>
        <rect id="Rectángulo_415143" data-name="Rectángulo 415143" width="3.088" height="24.547" transform="translate(190.458 316.597) rotate(-85.918)" fill="#ffb600"/>
        <path id="Trazado_1032395" data-name="Trazado 1032395" d="M283.388,304.95l-4.1-.29-.282-.021-3.361-.247-5.6-.395-1.057-.07-3.361-.247-.107,0-3.379-.251,0,.017-6.655-.481-3.361-.248-8.556-.614,0,.017-17.851-1.287-2.026-.14-4.278-.307-.52,7.379-2.264,31.763-.227,3.081-.2,2.943-.227,3.08-.216,2.939-.209,3.083-.279,3.873-.017,0-1.465,20.333-4.021-.255-1.483-.085,3.317-53.161,0-.017,1.088-17.569.64-10.284.112-1.709,2.019.174,18.52,1.51,9.576.784,8.56.686,3.372.285,6.644.533,3.371.286.6.048,3.359.265,6.64.549,2.531.205.768.619Z" transform="translate(-37.275 -52.932)" fill="#ffb600"/>
        <path id="Trazado_1032396" data-name="Trazado 1032396" d="M279.608,305.1l-.282-.021-3.361-.247-5.6-.394-1.057-.07-3.361-.248-.107,0-3.382-.234L255.8,303.4l-3.361-.247-8.557-.614,0,.017-17.851-1.287-2.025-.14-4.278-.306-.52,7.379-2.281,31.76.017,0-.227,3.08-.216,2.939-.21,3.084L216.076,352l-.227,3.08-.279,3.873-1.465,20.334-4.021-.255,5.693-70.829.849-9.991,27.248,2.159,8.577.69,3.358.264,6.644.533,3.374.268.388.024,3.358.265,6.627.529,1.583.122,1.577,1.746Z" transform="translate(-37.598 -53.37)" fill="#fff"/>
        <path id="Trazado_1032397" data-name="Trazado 1032397" d="M215.768,326.387l2.441,6.983,10.483,30.069,1.01,2.919.981,2.781,1.009,2.919.964,2.785,1.027,2.915,1.276,3.668,6.682,19.261,47.953-16.714,12.634-4.4-25.887-74.291-3.884,1.356-.266.092-3.186,1.1-5.3,1.852-1,.355-3.185,1.1-.1.039-3.2,1.106,0,.017-6.3,2.19-3.185,1.1-8.1,2.82,0,.017L221.734,324.3l-1.915.673Z" transform="translate(-38.615 -54.633)" fill="#dc5c5d"/>
        <rect id="Rectángulo_415144" data-name="Rectángulo 415144" width="13.38" height="78.673" transform="translate(225.088 255.043) rotate(-19.213)" fill="#bf4349"/>
        <rect id="Rectángulo_415145" data-name="Rectángulo 415145" width="33.415" height="10.294" transform="translate(189.15 279.448) rotate(-19.214)" fill="#fff"/>
        <rect id="Rectángulo_415146" data-name="Rectángulo 415146" width="24.547" height="3.088" transform="translate(207.174 317.693) rotate(-19.214)" fill="#bf4349"/>
        <rect id="Rectángulo_415147" data-name="Rectángulo 415147" width="24.547" height="3.088" transform="translate(209.155 323.375) rotate(-19.214)" fill="#bf4349"/>
        <rect id="Rectángulo_415148" data-name="Rectángulo 415148" width="24.547" height="3.088" transform="translate(211.135 329.058) rotate(-19.214)" fill="#bf4349"/>
        <path id="Trazado_1032398" data-name="Trazado 1032398" d="M274.753,304.922l-3.883,1.356-.267.092-3.186,1.1-5.3,1.852-1,.355-3.185,1.1-.1.039-3.2,1.106,0,.017-6.3,2.19-3.185,1.1-8.1,2.82,0,.017-16.9,5.878-1.916.672-4.051,1.411,2.441,6.982,10.483,30.07,1.01,2.919.981,2.781,1.01,2.919.964,2.785L232.1,377.4l1.275,3.668-.017,0,6.7,19.255-3.793,1.356-1.4.509-17.978-50.139,0-.017-5.95-16.568-3.48-9.7-.574-1.614,1.924-.64,17.608-5.937,9.1-3.067,8.133-2.755,3.21-1.071,6.312-2.138,3.21-1.071.567-.191,3.189-1.085,6.317-2.121,2.4-.813.951.264Z" transform="translate(-37.024 -54.274)" fill="#bf4349"/>
        <path id="Trazado_1032399" data-name="Trazado 1032399" d="M271.617,306.687l-.267.092-3.186,1.1-5.3,1.852-1,.354-3.185,1.1-.1.039-3.2,1.122-6.3,2.19-3.185,1.1-8.1,2.819,0,.017-16.9,5.878-1.916.673-4.051,1.411,2.441,6.982L227.834,363.5l.017,0,1.01,2.919.964,2.785,1.027,2.915.964,2.785,1.01,2.919,1.275,3.668,6.7,19.255L237,402.093,214.22,334.787l-3.172-9.513,25.881-8.793,8.15-2.759,3.189-1.085,6.313-2.138,3.206-1.089.365-.131,3.189-1.085,6.3-2.135,1.5-.514,2.14.98Z" transform="translate(-37.77 -54.681)" fill="#fff"/>
        <path id="Trazado_1032400" data-name="Trazado 1032400" d="M194.58,266.351s-12.149,5.7-16.445,8.062-17.484,40.856-17.484,40.856l32.63,12.476Z" transform="translate(-28.751 -47.667)" fill="#91937e"/>
        <path id="Trazado_1032401" data-name="Trazado 1032401" d="M264.95,349.974c1.218,2.423-16.243,8.9-16.243,8.9l-.028,5.145,7.538-2,11.088,2.655s.42,2.168.795,4.849a5.109,5.109,0,0,1,.089.747.074.074,0,0,1,0,.062c.011.076.009.158.02.232.056.294.089.633.119.941a33.668,33.668,0,0,1,.27,3.883c0,.145.011.3.026.44a16.441,16.441,0,0,1-.165,2,2.921,2.921,0,0,1-.521,1.44l-8.875-.172s-7.868,9.39-9.612,10.037c-.686.25-3.863-.376-7.426-1.218-1.262-.3-2.541-.651-3.786-.975a.709.709,0,0,1-.1-.007c-.43-.126-.886-.238-1.322-.345l-.007-.012-.017-.283-.173-2.277-.1-1.13-.074-.919-.044-.415-.051-.426-1.033-12.347c.13-.255.259-.508.407-.789.52-.934,1.155-2.034,1.874-3.214.462-.723.952-1.511,1.461-2.292a36.818,36.818,0,0,1,6.285-7.647,9.091,9.091,0,0,1,2.741-1.712c6.173-2.225,15.629-5.531,16.858-3.147" transform="translate(-42.114 -62.484)" fill="#b77158"/>
        <path id="Trazado_1032402" data-name="Trazado 1032402" d="M272.568,373.647c.049.335.09.679.134,1.026-.075,0-.154-.019-.23-.03-1.308-.2-3.081-.43-5-.644a29.3,29.3,0,0,0-4.991-.172c-.332.028-.629.051-.892.076-.268.044-.5.086-.685.115l-.6.1s.177-.126.518-.353c.172-.107.383-.247.637-.393.256-.127.559-.264.892-.411a11.612,11.612,0,0,1,5.478-.744,13.7,13.7,0,0,1,4.738,1.435" transform="translate(-46.585 -66.601)" fill="#89503d"/>
        <path id="Trazado_1032403" data-name="Trazado 1032403" d="M272.9,380.6c.008.144.006.292.011.433-.366-.053-.845-.131-1.421-.22-1.308-.195-3.081-.43-5-.647A29.647,29.647,0,0,0,261.5,380c-.332.028-.633.055-.9.076-.264.048-.493.082-.681.118l-.6.092s.181-.131.525-.353c.168-.112.383-.248.634-.4.259-.124.554-.26.9-.406a11.611,11.611,0,0,1,5.475-.748,13.871,13.871,0,0,1,5,1.577c.429.236.779.457,1.055.644" transform="translate(-46.408 -67.705)" fill="#89503d"/>
        <path id="Trazado_1032404" data-name="Trazado 1032404" d="M221.466,364.967l-33.12-12.081,1.126-15.4-25.143-9.613c-5.7,19.509-7.064,39.168-6.183,40.142,7.259,8.046,64.811,14.75,64.811,14.75Z" transform="translate(-28.259 -58.677)" fill="#b77158"/>
        <path id="Trazado_1032405" data-name="Trazado 1032405" d="M192.231,281.65s6.7,9.531,8.289,12.475-2.778,32.2-2.778,32.2,8.014-29.2,7.268-33.1-12.779-11.569-12.779-11.569" transform="translate(-34.403 -50.405)" fill="#7d7e6c"/>
        <path id="Trazado_1032406" data-name="Trazado 1032406" d="M307.6,260.486s13.859,4.994,17.912,7.753c4.812,3.274,22.142,39.283,22.142,39.283L310.892,325.8Z" transform="translate(-55.05 -46.617)" fill="#91937e"/>
        <path id="Trazado_1032407" data-name="Trazado 1032407" d="M249.346,355.326c-.908,2.556,17.224,6.809,17.224,6.809l.667,5.1-7.728-1.051L248.836,370.2s-.147,2.2-.186,4.911a5.193,5.193,0,0,0,0,.751.075.075,0,0,0,0,.063c0,.076.011.157.009.233-.019.3-.009.639,0,.948a33.421,33.421,0,0,0,.215,3.885c.016.144.025.3.029.441a16.487,16.487,0,0,0,.412,1.964,2.917,2.917,0,0,0,.7,1.364l8.784-1.274s8.975,8.339,10.785,8.765c.712.162,3.787-.854,7.218-2.133,1.215-.452,2.44-.961,3.635-1.438a.682.682,0,0,0,.1-.02c.412-.178.85-.346,1.269-.506l.006-.013-.019-.283-.11-2.281-.043-1.135-.041-.92-.008-.417,0-.429-.51-12.38c-.161-.236-.322-.472-.5-.732-.632-.862-1.4-1.874-2.259-2.956-.549-.659-1.133-1.38-1.736-2.093a36.825,36.825,0,0,0-7.187-6.806,9.071,9.071,0,0,0-2.933-1.357c-6.4-1.441-16.2-3.546-17.119-1.027" transform="translate(-44.498 -63.38)" fill="#b77158"/>
        <path id="Trazado_1032408" data-name="Trazado 1032408" d="M248.658,379.189c-.007.339,0,.685-.006,1.034.075-.013.151-.038.225-.058,1.273-.356,3-.81,4.881-1.26a29.4,29.4,0,0,1,4.93-.792c.333-.012.631-.027.894-.035.272.011.5.024.694.029l.608.02s-.192-.1-.558-.287c-.184-.085-.411-.2-.681-.311-.271-.094-.588-.192-.937-.3a11.608,11.608,0,0,0-5.528-.057,13.7,13.7,0,0,0-4.523,2.013" transform="translate(-44.5 -67.446)" fill="#89503d"/>
        <path id="Trazado_1032409" data-name="Trazado 1032409" d="M248.932,386.132c.009.145.031.291.043.431.356-.1.821-.236,1.383-.394,1.273-.357,3-.81,4.884-1.264a29.443,29.443,0,0,1,4.928-.788c.332-.013.635-.024.9-.037.268.016.5.021.691.033l.611.016s-.2-.108-.566-.285c-.181-.089-.411-.2-.678-.315-.273-.09-.583-.189-.939-.293a11.628,11.628,0,0,0-5.525-.06,13.862,13.862,0,0,0-4.766,2.186c-.4.288-.717.551-.967.77" transform="translate(-44.55 -68.52)" fill="#89503d"/>
        <path id="Trazado_1032410" data-name="Trazado 1032410" d="M288.154,364.245l31.36-16.1L315.266,332.6l24.969-12.27c8.086,18.647,11.88,37.984,11.128,39.062-6.2,8.885-62.475,22.693-62.475,22.693Z" transform="translate(-51.569 -57.328)" fill="#b77158"/>
        <path id="Trazado_1032411" data-name="Trazado 1032411" d="M308.69,75.8l-13.24,30.656L319.8,87.576Z" transform="translate(-52.875 -13.565)" fill="#fff"/>
        <path id="Trazado_1032412" data-name="Trazado 1032412" d="M268.714,92.1,282.4,109.586l-3.273-20.225Z" transform="translate(-48.09 -15.992)" fill="#fff"/>
        <path id="Trazado_1032413" data-name="Trazado 1032413" d="M321.039,113.486l-22.222,10.4,22.593,1.488Z" transform="translate(-53.478 -20.31)" fill="#fff"/>
        <path id="Trazado_1032414" data-name="Trazado 1032414" d="M192.141,260.864a28.386,28.386,0,0,0-9.031,2.825,8.689,8.689,0,0,1-2.393,1.2,11.814,11.814,0,0,0-2.062.172,12.745,12.745,0,0,0-3.685,2.224,12.005,12.005,0,0,0-2.819,2.787c-.824,1.219-.894,2.834-2.048,3.808a16.321,16.321,0,0,0-2.985,2.691,8.541,8.541,0,0,0-1.556,3.839c-.136.944,1.309,1.351,1.447.4a7.3,7.3,0,0,1,1.644-3.773c.82-.95,1.952-1.5,2.824-2.378,1.006-1.018,1.09-2.415,1.815-3.592a10.5,10.5,0,0,1,2.906-2.833c1.183-.855,2.37-1.824,3.887-1.856a3.977,3.977,0,0,0,1.838-.32c.613-.3,1.187-.682,1.795-1a27.239,27.239,0,0,1,8.821-2.751c.952-.131.547-1.576-.4-1.446" transform="translate(-29.628 -46.684)" fill="#fff"/>
        <path id="Trazado_1032415" data-name="Trazado 1032415" d="M183.058,257.214a10.893,10.893,0,0,0-4.551,2.512,3.563,3.563,0,0,1-1.169.86,6.461,6.461,0,0,1-1.26.227,8.834,8.834,0,0,0-2.3.671c-2.976,1.318-5.038,4.07-6.9,6.624-.57.78.732,1.53,1.3.757,1.742-2.387,3.737-5.1,6.606-6.182,1.467-.553,3.051-.359,4.3-1.435a10.885,10.885,0,0,1,4.383-2.588.75.75,0,0,0-.4-1.446" transform="translate(-29.84 -46.026)" fill="#fff"/>
        <path id="Trazado_1032416" data-name="Trazado 1032416" d="M332.266,263.717c-.549-.785-1.851-.036-1.3.757,3.982,5.686,8.08,11.886,8.385,19.044.041.961,1.542.966,1.5,0-.319-7.449-4.44-13.875-8.59-19.8" transform="translate(-59.208 -47.136)" fill="#fff"/>
        <path id="Trazado_1032417" data-name="Trazado 1032417" d="M347.31,280.4a19.4,19.4,0,0,0-1.379-3.859,14.719,14.719,0,0,1-1.447-4.053c-.138-.952-1.584-.547-1.446.4.393,2.7,2.108,4.988,2.758,7.627a35.543,35.543,0,0,1,.681,8.459.75.75,0,0,0,1.5,0,38.558,38.558,0,0,0-.668-8.573" transform="translate(-61.39 -48.669)" fill="#fff"/>
        <path id="Trazado_1032418" data-name="Trazado 1032418" d="M309.939,177.349a18.1,18.1,0,0,0,10.687,17.523,7.452,7.452,0,0,0,1.857,6.487,12.484,12.484,0,0,0,5.969,3.5,18.983,18.983,0,0,0,24.193-16.927c3.489.079,6.641-2.786,7.458-6.178a11.354,11.354,0,0,0-2.671-9.731,20.27,20.27,0,0,0-8.691-5.624,13.909,13.909,0,0,0-11.34-12.031,12.968,12.968,0,0,0-7.482,1.219c-2.854,1.371-5.6,3.667-4.654,7.142a14.934,14.934,0,0,0-7.846,1.941c-4.326,2.543-7.113,7.75-7.48,12.679" transform="translate(-55.46 -27.602)" fill="#fff"/>
        <path id="Trazado_1032419" data-name="Trazado 1032419" d="M350.637,175.848c-.692-1.4-1.7-3.01-3.44-3.076a4.669,4.669,0,0,0-1.939.4,7.381,7.381,0,0,0-2.195-2.805c-2.827-2.163-6.053,1.64-7.024,4.068-.021.053-.039.108-.058.163a3.831,3.831,0,0,0-1.888-2.677,3.931,3.931,0,0,0-4.258.806,2.864,2.864,0,0,0-3.845,1.6,7.559,7.559,0,0,0-.378,2.612c0,.035,0,.07,0,.1a10.264,10.264,0,0,0-2.02,4.365,13.118,13.118,0,0,0,.292,7.113c.3.914,1.746.518,1.446-.4a11.612,11.612,0,0,1,.319-8.157c.012.319.018.639.036.958a44.864,44.864,0,0,0,.911,7.1,12.136,12.136,0,0,0,2.557,5.682c1.162,1.233,3.14,1.274,3.487-.658.089-.5.148-1,.19-1.514a1.921,1.921,0,0,0,.307-.33,5.692,5.692,0,0,0,.764,1.055,4.177,4.177,0,0,0,4.338,1.231,3.164,3.164,0,0,0,.387.213.813.813,0,0,0,1.129-.858,6.651,6.651,0,0,0,2.059-1.933c.034-.05.062-.1.1-.154.139-.1.273-.211.4-.325a5.9,5.9,0,0,0,2.053.994c3.507.846,6.007-2.489,6.993-5.409a13.5,13.5,0,0,0-.72-10.174m-8.281-4.128a6.334,6.334,0,0,1,1.563,2.146c-.562.342-1.092.716-1.576,1.057-1.32-.724-3.024-.292-4.306.316a7.369,7.369,0,0,0-.849.479c.014-.05.022-.1.038-.151.52-1.688,3.038-5.689,5.13-3.847m2.386,6.139a15.8,15.8,0,0,1-.365,3.541c-.088.406-.187.848-.319,1.283a10.4,10.4,0,0,0-.167-1.98,6.458,6.458,0,0,0-.446-4.767c.323-.217.652-.42.986-.612a11.214,11.214,0,0,1,.311,2.535m-15.976-.243a2.7,2.7,0,0,1,.606.73,14.314,14.314,0,0,1,1.336,4.412,32.943,32.943,0,0,1,.623,5.337c.027.743.026,1.487,0,2.231-.026-.015-.051-.025-.08-.044a4.245,4.245,0,0,1-1.119-1.724,18.889,18.889,0,0,1-.916-2.245,16.977,16.977,0,0,1-.9-4.607,12.944,12.944,0,0,1,.447-4.09m2.374.969a4.919,4.919,0,0,0-1.876-2.412,8.461,8.461,0,0,1,.786-1.443,4.464,4.464,0,0,1,.861,1.323,22.859,22.859,0,0,1,1.1,4.694c.094.614.164,1.232.223,1.85a21.191,21.191,0,0,0-1.094-4.011m6.826,4.122a12.207,12.207,0,0,1-.533-1.317c.608-.672,1.236-1.317,1.845-1.926.484-.486.991-.973,1.518-1.446a3.168,3.168,0,0,1,1.133,1.381,6.521,6.521,0,0,1,.412,1.2q-.131.639-.318,1.267a3.27,3.27,0,0,0-2.845-1.054c-1.216.35-1.116,1.646-.807,2.677-.142-.261-.278-.523-.406-.786m-1.072-3.82a6.053,6.053,0,0,1,1.631-.956c.069-.027.131-.039.2-.062q-.9.847-1.736,1.762-.062-.371-.094-.745m2.981,4.417c-.174-.467-.487-1.163.269-.864a3.8,3.8,0,0,1,1.337,1,14.12,14.12,0,0,1-.634,1.368,3.493,3.493,0,0,1-.973-1.5m-3.546-.613c.186.447.39.888.618,1.316.272.511.579,1,.9,1.486a6.193,6.193,0,0,1-2.135-1.97q.3-.424.617-.833m5.2,3.935a2.642,2.642,0,0,0,.379,0c.025,0,.046-.01.07-.012-.081.3-.167.6-.255.889-.033.108-.071.221-.11.333q-.315-.317-.617-.651a3.534,3.534,0,0,0,.534-.559m-6.74-9.636a10.3,10.3,0,0,1-.024,1.138c-.055.084-.112.165-.165.25a7.841,7.841,0,0,0-1.037,2.751,35.28,35.28,0,0,0-.7-3.738,8.176,8.176,0,0,0-1.734-3.8,2.658,2.658,0,0,1,1.158-.461c2.129-.3,2.445,2.3,2.5,3.861m-6-3.065a9.8,9.8,0,0,0-1.025,1.906,2.575,2.575,0,0,0-.622.143,2.824,2.824,0,0,1,.443-1.5,1.179,1.179,0,0,1,1.2-.544m-.31,15.383c-.186-.583-.333-1.178-.463-1.776a13.3,13.3,0,0,0,1.516,3.056,3.191,3.191,0,0,0,1.794,1.292,1.7,1.7,0,0,1-.3,1.131c-.858.68-2.358-3.114-2.547-3.7m7.714,2.745c-2.395-.81-2.649-3.937-1.894-5.946a10.151,10.151,0,0,1,.537-1.167,5.772,5.772,0,0,0,.6.661c.981.9,2.656,2.1,4.085,2.115.25.293.5.585.763.867.219.239.449.477.686.711-.094.177-.195.349-.3.52a4.287,4.287,0,0,1-2.853.66c-.418-.058-1.018.186-.947.726a3.677,3.677,0,0,0,.284,1.023,3.2,3.2,0,0,1-.962-.17m12.9-4.636a5.332,5.332,0,0,1-2.727,2.5,3.477,3.477,0,0,1-3.074-.619,5.265,5.265,0,0,0,.792-2.079,5.53,5.53,0,0,0,0-1.617c1.635-1.611,2.03-4.728,2.131-6.8a13.207,13.207,0,0,0-.445-4.167c.041-.018.08-.04.121-.058a1.908,1.908,0,0,1,2.255.19,6.286,6.286,0,0,1,1.053,1.582,11.753,11.753,0,0,1,1.176,3.575,11.468,11.468,0,0,1-1.282,7.494" transform="translate(-57.848 -30.375)" fill="#444"/>
        <path id="Trazado_1032420" data-name="Trazado 1032420" d="M302.571,210.484a6.128,6.128,0,0,0-1.579,2.3,7.764,7.764,0,0,0-.709,4.623,4.133,4.133,0,0,0,3.039,3.293,2.854,2.854,0,0,0,3.367-2.468,7.348,7.348,0,0,0,1.283,2.145,2.97,2.97,0,0,0,2.213,1.016c1.516-.064,2.531-1.562,3.133-2.955a9.388,9.388,0,0,0,.919-5.161,4.54,4.54,0,0,0-3.255-3.8c-1.773-.373-3.524.653-4.951,1.769.317-.248-.834-1.389-1.091-1.485a2.8,2.8,0,0,0-2.37.714" transform="translate(-53.72 -37.476)" fill="#fff"/>
        <path id="Trazado_1032421" data-name="Trazado 1032421" d="M290.364,235.826a3.577,3.577,0,0,0,1.187,3.462,3.3,3.3,0,0,0,3.542-.158,9.715,9.715,0,0,0,2.542-2.732,2.688,2.688,0,0,0,3.3-3.922c-1.113-1.752-3.478-1.461-4.827-.21-.4-2.237-2.007-2.154-3.412-.86a7.869,7.869,0,0,0-2.336,4.419" transform="translate(-51.957 -41.25)" fill="#fff"/>
        <path id="Trazado_1032422" data-name="Trazado 1032422" d="M176.651,212.5a6.134,6.134,0,0,1,1.865,2.081,7.761,7.761,0,0,1,1.3,4.492,4.136,4.136,0,0,1-2.587,3.659,2.854,2.854,0,0,1-3.659-2.012,7.322,7.322,0,0,1-.994,2.293,2.969,2.969,0,0,1-2.063,1.3c-1.511.133-2.712-1.222-3.489-2.525a9.391,9.391,0,0,1-1.58-5,4.543,4.543,0,0,1,2.736-4.186c1.709-.6,3.579.191,5.138,1.113-.346-.2.648-1.485.89-1.613a2.8,2.8,0,0,1,2.443.4" transform="translate(-29.608 -37.93)" fill="#fff"/>
        <path id="Trazado_1032423" data-name="Trazado 1032423" d="M189.046,233.389a3.579,3.579,0,0,1-.728,3.587,3.3,3.3,0,0,1-3.533.3,9.713,9.713,0,0,1-2.874-2.379,2.688,2.688,0,0,1-3.784-3.461c.876-1.882,3.26-1.9,4.76-.833.1-2.27,1.711-2.4,3.272-1.295a7.867,7.867,0,0,1,2.888,4.079" transform="translate(-31.836 -40.917)" fill="#fff"/>
        <path id="Trazado_1032424" data-name="Trazado 1032424" d="M158.528,196.5a18.1,18.1,0,0,1-19.6,6.089,7.451,7.451,0,0,1-5.681,3.64,12.482,12.482,0,0,1-6.792-1.317,18.983,18.983,0,0,1-6.971-28.692c-2.671-2.247-3.143-6.48-1.514-9.567a11.351,11.351,0,0,1,8.434-5.537,20.262,20.262,0,0,1,10.24,1.523,13.909,13.909,0,0,1,16.463-1.535,12.972,12.972,0,0,1,4.809,5.86c1.236,2.915,1.783,6.456-1.227,8.435a14.935,14.935,0,0,1,4.605,6.642c1.566,4.767.217,10.517-2.766,14.458" transform="translate(-20.689 -28.472)" fill="#fff"/>
        <path id="Trazado_1032425" data-name="Trazado 1032425" d="M134.332,171.466c-3.382-.243-6.789,4.021-5.71,8.321S140.454,197.2,140.454,197.2l2.8-6.625-4.462-2.382,4.034-4.255-3.27-3.283,2.951-2.773s-4.8-6.168-8.178-6.411" transform="translate(-22.983 -30.684)" fill="#dc5c5d"/>
        <path id="Trazado_1032426" data-name="Trazado 1032426" d="M145.164,181.033S151,171.7,155.9,174.2s-7.937,15-7.937,15l-2.177-1.62,2.377-4.641Z" transform="translate(-25.979 -31.099)" fill="#dc5c5d"/>
      </g>
    </g>
  </g>
</svg>
