<svg xmlns="http://www.w3.org/2000/svg" xmlns:xlink="http://www.w3.org/1999/xlink" width="400" height="295" viewBox="0 0 400 295">
  <defs>
    <clipPath id="clip-path">
      <rect id="Rectángulo_415162" data-name="Rectángulo 415162" width="400" height="295" transform="translate(1020 8800)" fill="#9ef0fd" stroke="#707070" stroke-width="1" opacity="0.38"/>
    </clipPath>
    <clipPath id="clip-path-2">
      <rect id="Rectángulo_415183" data-name="Rectángulo 415183" width="303" height="303" transform="translate(0 0.424)" fill="none"/>
    </clipPath>
    <clipPath id="clip-path-4">
      <rect id="Rectángulo_415167" data-name="Rectángulo 415167" width="224.072" height="169.119" fill="none"/>
    </clipPath>
    <clipPath id="clip-path-6">
      <rect id="Rectángulo_415169" data-name="Rectángulo 415169" width="31.422" height="29.715" fill="none"/>
    </clipPath>
    <clipPath id="clip-path-7">
      <rect id="Rectángulo_415170" data-name="Rectángulo 415170" width="31.361" height="23.294" fill="none"/>
    </clipPath>
    <clipPath id="clip-path-8">
      <rect id="Rectángulo_415171" data-name="Rectángulo 415171" width="115.209" height="90.86" fill="none"/>
    </clipPath>
    <clipPath id="clip-path-9">
      <rect id="Rectángulo_415172" data-name="Rectángulo 415172" width="15.127" height="24.235" fill="none"/>
    </clipPath>
    <clipPath id="clip-path-10">
      <rect id="Rectángulo_415173" data-name="Rectángulo 415173" width="70.545" height="29.515" fill="none"/>
    </clipPath>
    <clipPath id="clip-path-11">
      <rect id="Rectángulo_415166" data-name="Rectángulo 415166" width="280.105" height="263.228" fill="none"/>
    </clipPath>
    <clipPath id="clip-path-13">
      <rect id="Rectángulo_415163" data-name="Rectángulo 415163" width="262.087" height="259.875" fill="none"/>
    </clipPath>
  </defs>
  <g id="Enmascarar_grupo_1098736" data-name="Enmascarar grupo 1098736" transform="translate(-1020 -8800)" clip-path="url(#clip-path)">
    <g id="Grupo_1174923" data-name="Grupo 1174923" transform="translate(1062 8791.168)">
      <g id="Grupo_1174922" data-name="Grupo 1174922" transform="translate(0 0.407)" clip-path="url(#clip-path-2)">
        <path id="Trazado_1032658" data-name="Trazado 1032658" d="M59.923,0,0,72.726v51.257L124.816,0Z" transform="translate(0 -0.413)" fill="#f0e0bd"/>
        <path id="Trazado_1032659" data-name="Trazado 1032659" d="M193.812,0,0,202.623v87.032L6.4,281.4l5.6-7.225.055-.074L224.348,0Z" transform="translate(0 -0.413)" fill="#f0e0bd"/>
        <path id="Trazado_1032660" data-name="Trazado 1032660" d="M338.422,386.083l-.067.074-6.314,7.225-19.622,22.441h66.17L392.1,393.381l4.352-7.225.043-.074,29.91-49.671V285.44Z" transform="translate(-122.57 -112.398)" fill="#f0e0bd"/>
        <path id="Trazado_1032661" data-name="Trazado 1032661" d="M316.48,0,111.567,274.1l-.055.074-5.4,7.225L93.021,298.91l17.343,4.928h46.657l18.77-22.441,6.047-7.225.061-.074L340.332,84.71V0Z" transform="translate(-36.494 -0.413)" fill="#f0e0bd"/>
        <g id="Grupo_1174904" data-name="Grupo 1174904">
          <g id="Grupo_1174903" data-name="Grupo 1174903" clip-path="url(#clip-path-2)">
            <g id="Grupo_1174902" data-name="Grupo 1174902" transform="translate(38.912 42.95)" style="mix-blend-mode: multiply;isolation: isolate">
              <g id="Grupo_1174901" data-name="Grupo 1174901">
                <g id="Grupo_1174900" data-name="Grupo 1174900" clip-path="url(#clip-path-4)">
                  <path id="Trazado_1032662" data-name="Trazado 1032662" d="M280.179,232.334,66.8,240.477,64.035,71.358l224.072,7.058Z" transform="translate(-64.034 -71.358)" fill="#ccc4b1"/>
                </g>
              </g>
            </g>
          </g>
        </g>
        <path id="Trazado_1032663" data-name="Trazado 1032663" d="M280.179,227.49,66.8,235.634,64.035,66.514l224.072,7.058Z" transform="translate(-25.122 -26.508)" fill="#4f3d2a"/>
        <path id="Trazado_1032664" data-name="Trazado 1032664" d="M286.057,84.276l-7.928,141.162L76.311,233.581,73.548,76.024Z" transform="translate(-28.855 -30.239)" fill="#2c4556"/>
        <g id="Grupo_1174921" data-name="Grupo 1174921">
          <g id="Grupo_1174920" data-name="Grupo 1174920" clip-path="url(#clip-path-2)">
            <g id="Grupo_1174907" data-name="Grupo 1174907" transform="translate(87.941 131.356)" opacity="0.23">
              <g id="Grupo_1174906" data-name="Grupo 1174906">
                <g id="Grupo_1174905" data-name="Grupo 1174905" clip-path="url(#clip-path-6)">
                  <path id="Trazado_1032665" data-name="Trazado 1032665" d="M144.919,216.841c-.188.564-3.949,22.192,31.22,29.715,0,0-27.271-13.353-31.408-29.151" transform="translate(-144.717 -216.841)" fill="#f5f1eb"/>
                </g>
              </g>
            </g>
            <g id="Grupo_1174910" data-name="Grupo 1174910" transform="translate(172.727 71.991)" opacity="0.23">
              <g id="Grupo_1174909" data-name="Grupo 1174909">
                <g id="Grupo_1174908" data-name="Grupo 1174908" clip-path="url(#clip-path-7)">
                  <path id="Trazado_1032666" data-name="Trazado 1032666" d="M284.243,119.149s19.09,2.045,31.361,23.293c0,0-3.863-23.293-31.361-23.293" transform="translate(-284.243 -119.149)" fill="#f5f1eb"/>
                </g>
              </g>
            </g>
            <g id="Grupo_1174913" data-name="Grupo 1174913" transform="translate(91.225 70.665)" opacity="0.23">
              <g id="Grupo_1174912" data-name="Grupo 1174912">
                <g id="Grupo_1174911" data-name="Grupo 1174911" clip-path="url(#clip-path-8)">
                  <path id="Trazado_1032667" data-name="Trazado 1032667" d="M265.331,161.99c0,25.316-25.79,45.837-57.608,45.837s-57.6-20.521-57.6-45.837c0-22.369,20.144-40.994,46.785-45.023-33.8,16.231-35.1,48.3-35.1,48.3,7.025-17.951,18.985-34.037,39.247-40.424,29.947-9.44,51.88,1.652,60.748,21.32a38.342,38.342,0,0,1,3.529,15.829" transform="translate(-150.122 -116.967)" fill="#f5f1eb"/>
                </g>
              </g>
            </g>
            <g id="Grupo_1174916" data-name="Grupo 1174916" transform="translate(150.909 249.748)" opacity="0.44" style="mix-blend-mode: multiply;isolation: isolate">
              <g id="Grupo_1174915" data-name="Grupo 1174915">
                <g id="Grupo_1174914" data-name="Grupo 1174914" clip-path="url(#clip-path-9)">
                  <path id="Trazado_1032668" data-name="Trazado 1032668" d="M259.436,425.75a3.324,3.324,0,0,0-1.808-3.428" transform="translate(-251.983 -415.849)" fill="#ccc4b1"/>
                  <path id="Trazado_1032669" data-name="Trazado 1032669" d="M257.716,441.554a5.151,5.151,0,0,1-1.533-.411,1.3,1.3,0,0,0-1.068,0,5.288,5.288,0,0,1-1.381.393c-1.65-.3-3.041-2.157-4-4.421a18.148,18.148,0,0,1-1.387-5.812c-.135-2.53,1.692-4.124,3.073-4.989a5.211,5.211,0,0,1,1.582-.245,5.282,5.282,0,0,1,2.64.717h.006a5.218,5.218,0,0,1,4.993-.156l.027.013a5.2,5.2,0,0,1,2.755,4.215c.479,5.1-3.508,10.34-5.713,10.7" transform="translate(-248.341 -417.319)" fill="#ccc4b1"/>
                  <path id="Trazado_1032670" data-name="Trazado 1032670" d="M260.892,428.68a8.762,8.762,0,0,1-11.156,8.417,18.147,18.147,0,0,1-1.387-5.812c-.135-2.53.939-5.59,4.655-5.234a6.44,6.44,0,0,1,2.64.717c.039-.021.078-.046.12-.064a5.215,5.215,0,0,1,4.879-.092,8.63,8.63,0,0,1,.249,2.069" transform="translate(-248.338 -417.3)" fill="#ccc4b1"/>
                  <path id="Trazado_1032671" data-name="Trazado 1032671" d="M260.874,420.412c-.126.059-1.147-3.83,2.156-8.743,0,0,3.221,6.232-2.156,8.743" transform="translate(-253.159 -411.669)" fill="#ccc4b1"/>
                </g>
              </g>
            </g>
            <path id="Trazado_1032672" data-name="Trazado 1032672" d="M234.248,408.105s.637-4.119-3.1-5.87" transform="translate(-90.686 -158.22)" fill="none" stroke="#3f3d42" stroke-miterlimit="10" stroke-width="1"/>
            <path id="Trazado_1032673" data-name="Trazado 1032673" d="M231.3,435.17a8.79,8.79,0,0,1-2.625-.7,2.232,2.232,0,0,0-1.829,0,9.013,9.013,0,0,1-2.364.675c-2.826-.51-5.208-3.695-6.842-7.572a31.076,31.076,0,0,1-2.376-9.954c-.231-4.333,2.9-7.061,5.262-8.544a8.932,8.932,0,0,1,2.71-.419,9.05,9.05,0,0,1,4.521,1.228h.011a8.939,8.939,0,0,1,8.551-.267l.046.023a8.9,8.9,0,0,1,4.718,7.218c.82,8.732-6.009,17.709-9.784,18.318" transform="translate(-84.448 -160.737)" fill="#ab293c"/>
            <path id="Trazado_1032674" data-name="Trazado 1032674" d="M236.74,413.122a15,15,0,0,1-19.105,14.414,31.076,31.076,0,0,1-2.376-9.954c-.231-4.333,1.608-9.573,7.973-8.963a11.038,11.038,0,0,1,4.521,1.227,2.228,2.228,0,0,1,.207-.109,8.932,8.932,0,0,1,8.356-.158,14.805,14.805,0,0,1,.425,3.543" transform="translate(-84.444 -160.705)" fill="#c94458"/>
            <path id="Trazado_1032675" data-name="Trazado 1032675" d="M236.708,398.965c-.216.1-1.963-6.56,3.692-14.972,0,0,5.516,10.673-3.692,14.972" transform="translate(-92.701 -151.063)" fill="#b1a358"/>
            <g id="Grupo_1174919" data-name="Grupo 1174919" transform="translate(73.683 244.245)" opacity="0.44" style="mix-blend-mode: multiply;isolation: isolate">
              <g id="Grupo_1174918" data-name="Grupo 1174918">
                <g id="Grupo_1174917" data-name="Grupo 1174917" clip-path="url(#clip-path-10)">
                  <path id="Trazado_1032676" data-name="Trazado 1032676" d="M191.682,420.856V420.8h-3.991v.059h-6.858V410.569h-12.5v-1.578h.036V404.38h-.036v-1.768H139.853a4.074,4.074,0,0,0-1.231,7.957h-7.265v10.287H125.28V420.8H121.29v.059h-.036v11.272H191.8V420.856Z" transform="translate(-121.254 -402.612)" fill="#ccc4b1"/>
                </g>
              </g>
            </g>
            <path id="Trazado_1032677" data-name="Trazado 1032677" d="M124.707,400.179H87.137a5.374,5.374,0,1,1,0-10.748h37.57Z" transform="translate(-32.078 -153.196)" fill="#ab293c"/>
            <path id="Trazado_1032678" data-name="Trazado 1032678" d="M88.643,399.352a3.042,3.042,0,0,1,0-6.083h37.619v6.083Z" transform="translate(-33.584 -154.702)" fill="#fbfbfb"/>
            <rect id="Rectángulo_415174" data-name="Rectángulo 415174" width="65.272" height="13.575" transform="translate(43.85 246.732)" fill="#676f30"/>
            <rect id="Rectángulo_415175" data-name="Rectángulo 415175" width="51.943" height="3.087" transform="translate(50.042 251.941)" fill="#fbfbfb"/>
            <rect id="Rectángulo_415176" data-name="Rectángulo 415176" width="93.068" height="14.87" transform="translate(30.522 260.303)" fill="#b1a358"/>
            <rect id="Rectángulo_415177" data-name="Rectángulo 415177" width="5.264" height="13.498" transform="translate(30.57 260.225)" fill="#ab293c"/>
            <rect id="Rectángulo_415178" data-name="Rectángulo 415178" width="5.264" height="13.498" transform="translate(118.172 260.225)" fill="#ab293c"/>
            <rect id="Rectángulo_415179" data-name="Rectángulo 415179" width="65.559" height="1.638" transform="translate(43.806 266.328)" fill="#1e0b02"/>
            <rect id="Rectángulo_415180" data-name="Rectángulo 415180" width="303.838" height="29.667" transform="translate(0 273.758)" fill="#679196"/>
            <rect id="Rectángulo_415181" data-name="Rectángulo 415181" width="303.838" height="7.298" transform="translate(0 273.685)" fill="#4f3d2a"/>
          </g>
        </g>
      </g>
    </g>
    <g id="Grupo_1174899" data-name="Grupo 1174899" transform="translate(1124.366 8837.838)">
      <g id="Grupo_1174898" data-name="Grupo 1174898" clip-path="url(#clip-path-11)">
        <g id="Grupo_1174897" data-name="Grupo 1174897">
          <g id="Grupo_1174896" data-name="Grupo 1174896" clip-path="url(#clip-path-11)">
            <g id="Grupo_1174895" data-name="Grupo 1174895" transform="translate(18.018 3.353)" opacity="0.45" style="mix-blend-mode: multiply;isolation: isolate">
              <g id="Grupo_1174894" data-name="Grupo 1174894">
                <g id="Grupo_1174893" data-name="Grupo 1174893" clip-path="url(#clip-path-13)">
                  <path id="Trazado_1032606" data-name="Trazado 1032606" d="M60.527,169.989l16.82-13.762-3.2-3.336-1.267.955-3.134-9.066a12.6,12.6,0,0,0-6.754-7.381l-14.14-6.339a3.047,3.047,0,0,0-2.75,5.431s5.619,3.564,5.212,3.4c-5.819-2.355-22.824-3.81-22.824-3.81-1.89-.448-7.17.922-7.579,2.821l-.433,2.823a5.49,5.49,0,0,0,2.716,5.963l35.739,16.587,2.638-1.9-4.94,3.724Z" transform="translate(-20.358 -18.382)" fill="#ccc4b1"/>
                  <path id="Trazado_1032607" data-name="Trazado 1032607" d="M286.3,191.31l-20.856-64.566c-.572-2.871-2.249-5.571-5.677-8.218,4.738-5.55,7.429-10.071,8.663-13.882,2.665-3.59,4.456-10.964-6.888-21.207l1.133,3.869c-1.926-1.917-4.02-3.8-5.911-5.841-2.944-3.182-4.6-7.828-5.475-12.713,1.16,4.8,3.192,9.038,6.368,11.465,1.443,1.1,2.728,2.176,3.885,3.22L251.05,47.612c3.063-17.734-9.308-35.182-28.313-39.446C203.173,3.777,179.706-1.8,175.61,16.46c-1.836,8.179.535,19.749,5.459,30.431-.073.258-.106.409-.106.409.061-.087.121-.162.182-.246.1.209.194.419.293.628q-.39.515-.807,1.013L178.69,46.13l1.083,3.6c-.148.179-.294.343-.443.535a24.409,24.409,0,0,0-2.053,3.027,20.849,20.849,0,0,0-1.549,3.222c-.1.23-.186.478-.266.717a17.866,17.866,0,0,0-.991,6.169c.121,6.393,3.123,19.431,9.574,25.281a13.336,13.336,0,0,0-3.339,2.914c-9.408,8.384-4.433,15.447-3.9,17.681l1.1-4.3a17.079,17.079,0,0,0,1.708,4.741,23.888,23.888,0,0,0-9.17,9.635c-14.3,16.56-49.106,55.659-49.106,55.659L83.978,140.4,64.14,156.766l39.933,47.669c7.961,7.823,18.209,10.756,34.534,1.967l26.193-20.6-3.182,28.156c-.731,5.4-1.336,10.162-1.721,13.786l1.159-8.818L156.472,259.5l64.622-1.039,5.2,5.2,5.37-5.37,29-.466-4.282-24.254,11.194-11.195.123-.052a24.014,24.014,0,0,0,18.6-31.016" transform="translate(-25.389 -3.788)" fill="#ccc4b1"/>
                </g>
              </g>
            </g>
            <path id="Trazado_1032608" data-name="Trazado 1032608" d="M245.947,51.531s-3.829,25.223,5.6,35.42,23.963,16.316-2.8,43.338-74.137-2.541-76.176-20.641S187.818,91.54,187.818,91.54Z" transform="translate(-19.811 -5.921)" fill="#1e0b02"/>
            <path id="Trazado_1032609" data-name="Trazado 1032609" d="M98.684,204.445a69.881,69.881,0,0,1,2.265-7.808.437.437,0,0,1,.556-.273.451.451,0,0,1,.235.19c.755,1.246,1.487,2.506,2.183,3.788.35.639.687,1.287,1.018,1.938.312.662.65,1.309.937,1.986-.466-.57-.88-1.171-1.321-1.756-.421-.6-.836-1.2-1.239-1.8-.809-1.213-1.582-2.448-2.33-3.7l.79-.082a69.81,69.81,0,0,1-3.094,7.519" transform="translate(-11.34 -22.562)" fill="#2c2a2e"/>
            <path id="Trazado_1032610" data-name="Trazado 1032610" d="M254.75,157.609l-26.486,75.259-54.082,3.144-3.882-30.7a27.47,27.47,0,0,0-3.277-9.953l-5.221-9.341a19.515,19.515,0,0,1-2.44-10.657l1.845-31.1c-1.057-8.238,4.573-17.723,11.9-21.648a36.476,36.476,0,0,1,6.411-2.585,90.22,90.22,0,0,1,13.63-2.923c5.944,19.559-3.33,57.276-3.33,57.276s20.77-49.129,36.241-54.36a2.907,2.907,0,0,1,.788-.131c3.545.981,21.743,8.762,22.65,9.293,14.013,8.131,9.491,16.4,5.257,28.427" transform="translate(-18.309 -13.457)" fill="#ab293c"/>
            <path id="Trazado_1032611" data-name="Trazado 1032611" d="M228.749,82.668l-.027.407-.168,5.178-.115,3.77-.823,26.075a9.542,9.542,0,0,1-1.115,4.169l-.23.443A15.189,15.189,0,0,1,222.925,126c-2.726,1.841-7.152,3.5-13.188,1.5a11.485,11.485,0,0,1-7.691-7.594,12.064,12.064,0,0,1-.54-6.585l8.842,9.816-3.886-18.2-2.018-9.462.637-3.85,2.071-12.5c.248.319,4.169,5.426,4.231,5.479a11.484,11.484,0,0,0,4.726,3.664,5.783,5.783,0,0,0,3.124.274,17.4,17.4,0,0,0,6.125-3.089A34.249,34.249,0,0,0,228.378,83l.018-.018c.221-.2.354-.319.354-.319" transform="translate(-23.13 -9.094)" fill="#de8464"/>
            <path id="Trazado_1032612" data-name="Trazado 1032612" d="M228.443,85.675l-.133,3.841a28.414,28.414,0,0,1-21.437,16.153l-2.018-9.462.637-3.85L216.52,89l9.249-2.815,2.469-.752s.08.089.2.239" transform="translate(-23.54 -9.818)" fill="#b55353"/>
            <path id="Trazado_1032613" data-name="Trazado 1032613" d="M226.741,79a10.555,10.555,0,1,0,12.61-7.988A10.555,10.555,0,0,0,226.741,79" transform="translate(-26.025 -8.13)" fill="#de8464"/>
            <path id="Trazado_1032614" data-name="Trazado 1032614" d="M245.185,49.179c-4.1,18.261-23.279,29.506-42.843,25.117S165.953,34.721,170.051,16.46s27.564-12.683,47.128-8.293,32.1,22.751,28.006,41.012" transform="translate(-19.469 -0.435)" fill="#1e0b02"/>
            <path id="Trazado_1032615" data-name="Trazado 1032615" d="M231.774,53.169c-2.275,10.4-4.611,21.216-7.55,27.252-2.885,5.9-28.4,20.932-43.874,11.462-7.789-4.771-11.373-19.746-11.506-26.747a17.866,17.866,0,0,1,.991-6.169c.08-.239.168-.487.266-.717a20.846,20.846,0,0,1,1.549-3.222A24.407,24.407,0,0,1,173.7,52c.319-.407.637-.788.947-1.142a25.038,25.038,0,0,0,5.178-9.249c2.788-9.364,10.878-26.792,31.766-21.817,28.2,6.709,20.18,33.377,20.18,33.377" transform="translate(-19.402 -2.174)" fill="#de8464"/>
            <path id="Trazado_1032616" data-name="Trazado 1032616" d="M230.469,72.645s3.613-17.274-21.9-27.1c-10.122-3.9-9.482-16.4-7.272-31.221,0,0,59.054-.835,29.175,58.317" transform="translate(-22.976 -1.646)" fill="#1e0b02"/>
            <path id="Trazado_1032617" data-name="Trazado 1032617" d="M241.956,81.64c-1.258.4-2.531.706-3.809.978s-2.564.5-3.855.7l.2-.777a18.3,18.3,0,0,1,1.491,1.308c.24.228.466.474.689.724.108.13.22.254.32.391l.149.209.066.112a.419.419,0,0,1,.027.064c0,.011.011.028-.013.041l-.032-.012c.069,0-.009-.029-.029-.05l-.106-.064-.214-.126-.43-.249c-.282-.172-.568-.339-.841-.522-.555-.355-1.088-.74-1.611-1.134a.434.434,0,0,1,.189-.775l.01,0q1.93-.327,3.879-.546c1.3-.145,2.6-.254,3.924-.271" transform="translate(-26.864 -9.381)" fill="#b55353"/>
            <path id="Trazado_1032618" data-name="Trazado 1032618" d="M164.722,166.39a42.232,42.232,0,0,0-2.676,4.759,28.123,28.123,0,0,0-1.8,4.984c-.257.843-.36,1.714-.54,2.577a26.359,26.359,0,0,0-.213,2.636,36.9,36.9,0,0,0,.3,5.435,14.131,14.131,0,0,1-1.676-5.38,16.474,16.474,0,0,1-.073-2.874,17.994,17.994,0,0,1,.493-2.837,17.34,17.34,0,0,1,2.316-5.217,14.844,14.844,0,0,1,3.875-4.083" transform="translate(-18.157 -19.12)" fill="#cbc0d1"/>
            <path id="Trazado_1032619" data-name="Trazado 1032619" d="M210.054,18.895a28.5,28.5,0,0,0,3.457,9.82,32.653,32.653,0,0,0,6.46,8.094,37.337,37.337,0,0,0,4.121,3.17l1.085.722a8.061,8.061,0,0,0,1.117.67c.773.4,1.539.813,2.3,1.232a18.706,18.706,0,0,0,2.371,1.1l2.417,1.019c1.644.595,3.326,1.089,4.988,1.68-1.71-.4-3.425-.81-5.13-1.27l-2.487-.912a19.273,19.273,0,0,1-2.455-1c-.8-.384-1.594-.775-2.383-1.18a8.273,8.273,0,0,1-1.151-.666l-1.12-.72a37.567,37.567,0,0,1-4.271-3.187,31.465,31.465,0,0,1-6.465-8.429,29.317,29.317,0,0,1-1.988-4.927,22.982,22.982,0,0,1-.872-5.213" transform="translate(-24.137 -2.171)" fill="#3f3d42"/>
            <path id="Trazado_1032620" data-name="Trazado 1032620" d="M223.654,28.174a17.718,17.718,0,0,0,1.743,2.258,22.079,22.079,0,0,0,1.979,2.029,35.939,35.939,0,0,0,4.46,3.462c.8.5,1.587,1.019,2.425,1.456.808.493,1.674.874,2.515,1.315s1.73.774,2.6,1.171c.875.376,1.776.689,2.658,1.079-.937-.2-1.87-.429-2.8-.67-.905-.319-1.837-.584-2.725-.957a29.344,29.344,0,0,1-5.15-2.654,25.368,25.368,0,0,1-4.454-3.722,16.334,16.334,0,0,1-3.243-4.767" transform="translate(-25.7 -3.237)" fill="#3f3d42"/>
            <path id="Trazado_1032621" data-name="Trazado 1032621" d="M44.189,170.825l19.838-16.366,37.362,34.609s64.273-72.191,54.017-61.934c-1.226,1.225,4.374,60.992,4.374,60.992L118.655,220.46c-16.325,8.791-26.571,5.858-34.534-1.966Z" transform="translate(-5.078 -14.494)" fill="#ab293c"/>
            <path id="Trazado_1032622" data-name="Trazado 1032622" d="M45.286,172.858,62.107,159.1l-3.2-3.336L41.394,168.966Z" transform="translate(-4.757 -17.899)" fill="#fbfbfb"/>
            <path id="Trazado_1032623" data-name="Trazado 1032623" d="M159.231,185.5l-10.722,94.882,104.2-1.675-12.067-68.343-69.132-6.974" transform="translate(-17.065 -21.316)" fill="#ab293c"/>
            <path id="Trazado_1032624" data-name="Trazado 1032624" d="M189.672,201.249a3.036,3.036,0,1,0,3.036-3.036,3.036,3.036,0,0,0-3.036,3.036" transform="translate(-21.795 -22.777)" fill="#c94458"/>
            <path id="Trazado_1032625" data-name="Trazado 1032625" d="M186.593,230.2a3.036,3.036,0,1,0,3.036-3.036,3.036,3.036,0,0,0-3.036,3.036" transform="translate(-21.442 -26.103)" fill="#c94458"/>
            <rect id="Rectángulo_415164" data-name="Rectángulo 415164" width="62.398" height="84.409" transform="translate(141.58 203.542) rotate(-45)" fill="#679196"/>
            <path id="Trazado_1032626" data-name="Trazado 1032626" d="M38.986,164.273,3.248,147.687a5.489,5.489,0,0,1-2.717-5.963L.964,138.9c.409-1.9,5.689-3.269,7.579-2.821,0,0,17.005,1.455,22.824,3.81.406.165-5.212-3.4-5.212-3.4a3.047,3.047,0,0,1,2.75-5.431l14.14,6.339A12.6,12.6,0,0,1,49.8,144.78l3.239,9.37Z" transform="translate(-0.047 -15.03)" fill="#de8464"/>
            <path id="Trazado_1032627" data-name="Trazado 1032627" d="M178.792,78.425a33.241,33.241,0,0,0,15.955,5.529s-5.733,7.2-11.448,3.485c-3.162-2.056-4.507-9.014-4.507-9.014" transform="translate(-20.545 -9.012)" fill="#fbfbfb"/>
            <path id="Trazado_1032628" data-name="Trazado 1032628" d="M201.547,70.108s4.259-8.967,10.885-5.945c5.942,2.711,2.009,12.979,2.009,12.979s1.021-9.331-4.27-10.55c-4.848-1.117-8.624,3.516-8.624,3.516" transform="translate(-23.16 -7.302)" fill="#1e0b02"/>
            <path id="Trazado_1032629" data-name="Trazado 1032629" d="M175.165,56.068s3.58-7.537,9.149-5C189.309,53.349,186,61.98,186,61.98s.65-7.336-3.589-8.868c-3.932-1.421-7.249,2.956-7.249,2.956" transform="translate(-20.128 -5.809)" fill="#1e0b02"/>
            <path id="Trazado_1032630" data-name="Trazado 1032630" d="M216.115,78.551c.252-.335,7.165-2.748,7.165-2.748l-6.43.305Z" transform="translate(-24.834 -8.711)" fill="#1e0b02"/>
            <path id="Trazado_1032631" data-name="Trazado 1032631" d="M206.745,57.2s10.59-2.725,13.253,8.484c0,0,3.159-10.156-8.3-12.324l.434-1.611s-3.716.682-5.388,5.45" transform="translate(-23.757 -5.947)" fill="#1e0b02"/>
            <path id="Trazado_1032632" data-name="Trazado 1032632" d="M188.625,48.132s-5.884-5.795-12.445,3.5c0,0,2.238-10.176,10.788-8.532l.4-1.592s2.182,1.785,1.257,6.622" transform="translate(-20.245 -4.77)" fill="#1e0b02"/>
            <path id="Trazado_1032633" data-name="Trazado 1032633" d="M174.987,56.192l-1.375-4.565,2.249,2.971Z" transform="translate(-19.95 -5.932)" fill="#1e0b02"/>
            <path id="Trazado_1032634" data-name="Trazado 1032634" d="M233.174,123.631a2.986,2.986,0,0,0-.788.133c-.239.08-.469.168-.708.266l-.018.009c-3.815,1.6-7.922,5.735-11.931,11.046-11.94,15.772-23.684,45.17-24.144,46.267.044-.212-1.982,1.372-1.566-.522,1.168-5.434,5.169-24.14,6-35.92.646-9.072,1.574-17.073-.551-24.057.018,0,.035-.009.053-.009.805-.115,1.6-.221,2.372-.327,2.443-.31,4.709-.54,6.62-.7l3.027,8.789,9.948-7.789c1.761.381,3.735.823,5.762,1.31,1.354.319,2.744.664,4.107,1.018.611.159,1.221.319,1.814.487" transform="translate(-22.288 -13.768)" fill="#ededed"/>
            <path id="Trazado_1032635" data-name="Trazado 1032635" d="M212.831,129.691l-3.824,2.584-4.965,3.354-1.08-4.328-2.85-11.391-1.018-4.054,2.177-1.2,5.355-2.947,2.478,7.178,3.027,8.789Z" transform="translate(-22.878 -12.836)" fill="#fbfbfb"/>
            <path id="Trazado_1032636" data-name="Trazado 1032636" d="M233.525,123.444l-.106.1-.018.009L221.47,134.6l-5.682,5.249-.363-.46-5.266-6.665-1.053-1.328,4.178-3.275,9.948-7.789,6.072-4.753,2.372,4.417,1.425,2.664Z" transform="translate(-24.028 -13.281)" fill="#fbfbfb"/>
            <path id="Trazado_1032637" data-name="Trazado 1032637" d="M192.034,183.591c-6.16-28.783-9.712-50.779-9.712-50.779l14.1-2.54-10.469-11.93-.567-.656,14.071-2.674c.04.128.088.268.127.406,5.944,19.559-7.547,68.173-7.547,68.173" transform="translate(-20.951 -13.216)" fill="#c94458"/>
            <path id="Trazado_1032638" data-name="Trazado 1032638" d="M243.162,124.666,226.3,136.258l8.282,10.606c-18.531,14.657-41.6,37.49-41.6,37.49s22.189-58.945,37.661-64.177a2.907,2.907,0,0,1,.788-.131c3.721-.183,11.907,4.5,11.907,4.5Z" transform="translate(-22.176 -13.794)" fill="#c94458"/>
            <path id="Trazado_1032639" data-name="Trazado 1032639" d="M27.538,153.613c-.08.121-1.45-.72-3.8-1.783a76.2,76.2,0,0,0-9.474-3.46l-5.349-1.607c-1.644-.505-3.115-.965-4.358-1.313-2.484-.7-4.071-.952-4.055-1.092a12.413,12.413,0,0,1,4.211.46c1.281.271,2.784.67,4.44,1.13s3.478.958,5.381,1.541a52.968,52.968,0,0,1,9.493,3.757,12.426,12.426,0,0,1,3.513,2.366" transform="translate(-0.057 -16.582)" fill="#b35f3c"/>
            <path id="Trazado_1032640" data-name="Trazado 1032640" d="M31.215,148.119a24.679,24.679,0,0,1-4.369-1.431c-2.661-.967-6.328-2.317-10.465-3.5-2.07-.59-4.057-1.067-5.885-1.475s-3.468-.78-4.852-1.05c-2.767-.575-4.5-.634-4.509-.751-.015-.138,1.788-.309,4.615.109,1.414.189,3.083.493,4.922.862s3.87.822,5.961,1.418a86.809,86.809,0,0,1,10.453,3.778,21.237,21.237,0,0,1,4.129,2.037" transform="translate(-0.13 -16.06)" fill="#b35f3c"/>
            <path id="Trazado_1032641" data-name="Trazado 1032641" d="M183.966,65.823c-.469,1.354-4.2,1.292-8.355-.133a17.908,17.908,0,0,1-5.346-2.753,20.846,20.846,0,0,1,1.549-3.222,18.707,18.707,0,0,1,5.47,1.1c4.151,1.416,7.143,3.664,6.682,5.01" transform="translate(-19.565 -6.862)" fill="#d16666"/>
            <path id="Trazado_1032642" data-name="Trazado 1032642" d="M212.442,82.176c-.807,1.175-4.392.112-8.007-2.374s-5.891-5.452-5.085-6.626,4.393-.112,8.007,2.374,5.892,5.452,5.085,6.626" transform="translate(-22.889 -8.354)" fill="#d16666"/>
            <path id="Trazado_1032643" data-name="Trazado 1032643" d="M189.354,75.727a10.523,10.523,0,0,1-2.4-1.729c-.356-.278-.745-.58-1.173-.884q-.32-.228-.667-.458l-.356-.224a5.587,5.587,0,0,1-.626-.4l-.27-.228c-.017-.02-.06-.036-.054-.06l.056-.08.108-.15a1.823,1.823,0,0,1,.589-.554,6.152,6.152,0,0,0,.839-.535,11.655,11.655,0,0,0,1.442-1.3,28.734,28.734,0,0,0,3.827-5.817,8.178,8.178,0,0,1,1.657-2.462,11.562,11.562,0,0,1-1.074,2.754,21.894,21.894,0,0,1-3.74,6.156,11.255,11.255,0,0,1-1.575,1.395,5.437,5.437,0,0,1-.791.487c-.008,0-.057.019-.029.031l.012.012c.007.006-.009,0,.079.056l.366.255q.353.26.672.518c.423.344.8.682,1.133,1,1.327,1.271,2.05,2.134,1.971,2.222" transform="translate(-21.122 -6.991)" fill="#b55353"/>
            <path id="Trazado_1032644" data-name="Trazado 1032644" d="M192.718,232.214l21.166-19.538,17.367,15.74-22.371,19.375Z" transform="translate(-22.145 -24.439)" fill="#fbfbfb"/>
            <path id="Trazado_1032645" data-name="Trazado 1032645" d="M263.423,141.189l21.29,65.91a24.013,24.013,0,0,1-18.6,31.016l-46.447,19.761-15.691-30.018,41.5-18.683-14.783-47.191Z" transform="translate(-23.439 -16.224)" fill="#ab293c"/>
            <path id="Trazado_1032646" data-name="Trazado 1032646" d="M202.36,239.242l-12.134,4.264a10.007,10.007,0,0,0-4.591,15.57l7.1,9.159c2.51,3.239,4.6,1.845,8.667,1.363l.114-.682-1.592-2.615,13.531-5Z" transform="translate(-21.09 -27.491)" fill="#de8464"/>
            <path id="Trazado_1032647" data-name="Trazado 1032647" d="M189.118,265.648c-.117.02-.385-.766-.582-2.089a17.673,17.673,0,0,1,.038-5.231,14.912,14.912,0,0,1,1.714-4.958c.675-1.166,1.254-1.77,1.348-1.706.243.148-1.561,2.906-2.153,6.811-.613,3.886-.066,7.135-.365,7.173" transform="translate(-21.644 -28.918)" fill="#8c2828"/>
            <path id="Trazado_1032648" data-name="Trazado 1032648" d="M194.469,272.04c-.123.016-.351-.736-.57-1.982a21.944,21.944,0,0,1-.306-4.957,12.08,12.08,0,0,1,1.254-4.857c.615-1.147,1.216-1.695,1.3-1.629.119.085-.279.754-.706,1.895a16.2,16.2,0,0,0-.929,4.648,47.585,47.585,0,0,0,.035,4.831c.052,1.249.051,2.034-.078,2.051" transform="translate(-22.242 -29.717)" fill="#8c2828"/>
            <path id="Trazado_1032649" data-name="Trazado 1032649" d="M246.878,214.543a12.585,12.585,0,0,1-.346-1.755,34.516,34.516,0,0,0-1.38-4.646c-.343-.969-.743-2.026-1.133-3.185l-1.131-3.709c-.774-2.619-1.623-5.5-2.515-8.52-.873-3.02-1.745-5.909-2.348-8.584s-1.141-5.057-1.594-7.07c-.921-4.012-1.752-6.421-1.621-6.471a6.109,6.109,0,0,1,.758,1.637c.416,1.082.943,2.677,1.494,4.673s1.124,4.39,1.788,7.029c.643,2.641,1.531,5.493,2.407,8.523s1.692,5.909,2.444,8.53c.368,1.313.719,2.56,1.047,3.727.368,1.155.711,2.23,1.023,3.213a25.734,25.734,0,0,1,1.117,4.8,4.706,4.706,0,0,1-.008,1.811" transform="translate(-26.981 -19.604)" fill="#8c2828"/>
            <path id="Trazado_1032650" data-name="Trazado 1032650" d="M152.375,246.365a2.838,2.838,0,0,1,0-.83c.032-.542.094-1.338.183-2.363.188-2.05.5-5.01.952-8.661.884-7.3,2.273-17.37,3.865-28.477s3.016-21.161,4.055-28.44c.5-3.64.874-6.59,1.121-8.629a24.687,24.687,0,0,1,.419-3.168,2.8,2.8,0,0,1,.035.828c-.016.542-.017,1.345-.1,2.372-.14,2.054-.411,5.023-.834,8.677-.83,7.312-2.2,17.381-3.789,28.489-1.613,11.1-3.074,21.155-4.131,28.432-.524,3.638-.949,6.582-1.242,8.617-.144,1.018-.263,1.807-.354,2.342a2.842,2.842,0,0,1-.186.81" transform="translate(-17.507 -19.052)" fill="#8c2828"/>
            <path id="Trazado_1032651" data-name="Trazado 1032651" d="M112.265,212.087a13.934,13.934,0,0,1-1.368-3.523,82.775,82.775,0,0,1-2.23-8.831q-.056-.288-.109-.568a.172.172,0,0,1-.005-.06s0,0-.011,0l-.012.016,0,.006-.039.107-.089.246-.688,1.86c-.441,1.174-.82,2.217-1.113,3.1a17.663,17.663,0,0,1-.971,2.823,8.038,8.038,0,0,1,.4-2.986c.22-.914.54-2,.932-3.193.2-.6.405-1.225.623-1.881q.262-.806.535-1.645.329-1.05.67-2.135c.251,1.333.512,2.718.777,4.134,1.354,6.934,2.956,12.451,2.7,12.532" transform="translate(-12.133 -22.456)" fill="#8c2828"/>
            <path id="Trazado_1032652" data-name="Trazado 1032652" d="M175.746,40.432a7.01,7.01,0,0,1-.886-1.806,37.52,37.52,0,0,1-1.58-5.247,52.37,52.37,0,0,1-1.2-8.042,33.216,33.216,0,0,1,.623-9.978,11.953,11.953,0,0,1,2.238-4.789A10.474,10.474,0,0,1,179,7.784a17.79,17.79,0,0,1,4.256-1.121,29.2,29.2,0,0,1,3.793-.316,38.458,38.458,0,0,1,5.473.294,7.3,7.3,0,0,1,1.972.385c-.014.162-2.855-.237-7.42-.028a31.2,31.2,0,0,0-3.693.419,17.657,17.657,0,0,0-4.055,1.152,9.776,9.776,0,0,0-3.7,2.587,11.285,11.285,0,0,0-2.033,4.43,34.081,34.081,0,0,0-.669,9.7,59.294,59.294,0,0,0,.994,7.96,53.7,53.7,0,0,0,1.282,5.263,10.521,10.521,0,0,1,.547,1.924" transform="translate(-19.76 -0.729)" fill="#3f3d42"/>
            <path id="Trazado_1032653" data-name="Trazado 1032653" d="M272.082,110.952c-.073-.057.557-.738,1.247-2.206a10.568,10.568,0,0,0,.843-2.8,11.7,11.7,0,0,0-.15-3.845,20.5,20.5,0,0,0-4.835-8.793,44.95,44.95,0,0,0-4.28-4.259c-1.567-1.416-3.347-2.6-5.008-4.292a18.7,18.7,0,0,1-3.455-5.716,33.456,33.456,0,0,1-1.739-5.928,49.809,49.809,0,0,1-.834-10.365,42.039,42.039,0,0,1,.679-6.967,17.778,17.778,0,0,1,.423-1.856c.113-.42.189-.636.22-.629a19.238,19.238,0,0,1-.289,2.54,55.548,55.548,0,0,0,.633,17.109,33.62,33.62,0,0,0,1.74,5.756,18.1,18.1,0,0,0,3.3,5.434c1.476,1.521,3.362,2.812,4.928,4.24a43.79,43.79,0,0,1,4.326,4.384,20.59,20.59,0,0,1,4.831,9.221,11.828,11.828,0,0,1,.019,4.054,10.16,10.16,0,0,1-1.03,2.873c-.1.183-.2.356-.286.519-.107.151-.208.293-.3.425a5.061,5.061,0,0,1-.5.639c-.3.325-.461.483-.484.462" transform="translate(-29.171 -6.124)" fill="#3f3d42"/>
            <path id="Trazado_1032654" data-name="Trazado 1032654" d="M171.191,120.578c-.072.013-.186-.246-.43-.712a21.573,21.573,0,0,1-.928-2.05,12.311,12.311,0,0,1-.8-3.3,12.522,12.522,0,0,1-.03-2.03,11.887,11.887,0,0,1,.424-2.14,12.714,12.714,0,0,1,.785-2.029c.333-.613.683-1.192,1.03-1.729l1.115-1.428,1.1-1.118a7.513,7.513,0,0,1,.962-.856l.773-.59c.431-.313.686-.462.727-.413s-.137.291-.49.682l-.656.7a9.461,9.461,0,0,0-.844.931l-.983,1.155-1,1.413c-.308.52-.623,1.074-.926,1.653a13.318,13.318,0,0,0-.711,1.889,12.319,12.319,0,0,0-.411,1.968,13.214,13.214,0,0,0-.021,1.876,14.175,14.175,0,0,0,.572,3.162c.255.893.509,1.609.646,2.13s.15.831.095.838" transform="translate(-19.417 -11.741)" fill="#3f3d42"/>
            <path id="Trazado_1032655" data-name="Trazado 1032655" d="M206.235,44.809a2.586,2.586,0,0,1-1.221-.062,6.917,6.917,0,0,1-3.057-1.381,8.635,8.635,0,0,1-1.633-1.69,11.85,11.85,0,0,1-1.275-2.361,18.238,18.238,0,0,1-1.138-5.95,31.543,31.543,0,0,1,1.6-10.758,13.072,13.072,0,0,1,1.867-4.094c.133.06-.541,1.633-1.243,4.28a36.784,36.784,0,0,0-1.3,10.537,18.806,18.806,0,0,0,1.01,5.681,11.851,11.851,0,0,0,1.11,2.23,8.561,8.561,0,0,0,1.419,1.621,7.627,7.627,0,0,0,2.736,1.539c.718.238,1.14.333,1.129.408" transform="translate(-22.74 -2.127)" fill="#3f3d42"/>
            <path id="Trazado_1032656" data-name="Trazado 1032656" d="M163.406,220.474c0-.813,34.783-42.106,34.783-42.106l4.069,3.865Z" transform="translate(-18.777 -20.496)" fill="#fbfbfb"/>
            <path id="Trazado_1032657" data-name="Trazado 1032657" d="M205.76,5.475c-.044.136-1.6-.395-3.879-1.629-.574-.295-1.2-.617-1.879-.92a18.934,18.934,0,0,0-2.238-.775A33.483,33.483,0,0,0,192.388,1.1a26.45,26.45,0,0,0-9.863.58c-2.454.674-3.819,1.54-3.906,1.393-.035-.054.283-.3.9-.7a7.314,7.314,0,0,1,1.175-.64l.759-.357.884-.314A23.555,23.555,0,0,1,192.492.184a29.621,29.621,0,0,1,5.517,1.156,17.268,17.268,0,0,1,2.317.9c.7.346,1.313.708,1.871,1.041,2.2,1.38,3.6,2.09,3.562,2.2" transform="translate(-20.525 0)" fill="#3f3d42"/>
          </g>
        </g>
      </g>
    </g>
    <g id="Grupo_1174982" data-name="Grupo 1174982" transform="translate(1043.721 8734.452)">
      <path id="Trazado_1032696" data-name="Trazado 1032696" d="M317.167,159.454l.172,24.568a16.958,16.958,0,1,1-11.638.039l-.4-24.567" transform="translate(-223.253 -33.92)" fill="none" stroke="#d3cabe" stroke-miterlimit="10" stroke-width="1"/>
      <path id="Trazado_1032697" data-name="Trazado 1032697" d="M326.431,207.346a14.6,14.6,0,1,1-28.468.1" transform="translate(-223.886 -44.107)" fill="none" stroke="#d3cabe" stroke-miterlimit="10" stroke-width="1"/>
      <path id="Trazado_1032698" data-name="Trazado 1032698" d="M298.083,206.95c0,1.037,6.448,1.856,14.392,1.829s14.382-.89,14.379-1.926-6.447-1.856-14.391-1.829S298.08,205.913,298.083,206.95Z" transform="translate(-224.306 -43.613)" fill="none" stroke="#d3cabe" stroke-miterlimit="10" stroke-width="1"/>
      <path id="Trazado_1032699" data-name="Trazado 1032699" d="M306.278,156.127a2.191,2.191,0,0,0,2.2,2.184l11.865-.041a2.19,2.19,0,1,0-.015-4.38l-11.865.04A2.191,2.191,0,0,0,306.278,156.127Z" transform="translate(-226.428 -32.736)" fill="none" stroke="#d3cabe" stroke-miterlimit="10" stroke-width="1"/>
      <path id="Trazado_1032700" data-name="Trazado 1032700" d="M309.662,217.208a1.543,1.543,0,1,0,.645-2.085A1.542,1.542,0,0,0,309.662,217.208Z" transform="translate(-218.998 -45.724)" fill="none" stroke="#d3cabe" stroke-miterlimit="10" stroke-width="1"/>
      <path id="Trazado_1032701" data-name="Trazado 1032701" d="M322.465,216.553a1.543,1.543,0,1,0,.645-2.086A1.544,1.544,0,0,0,322.465,216.553Z" transform="translate(-241.88 -45.584)" fill="none" stroke="#d3cabe" stroke-miterlimit="10" stroke-width="1"/>
      <path id="Trazado_1032702" data-name="Trazado 1032702" d="M316.239,224.156a1.543,1.543,0,1,0,.645-2.085A1.544,1.544,0,0,0,316.239,224.156Z" transform="translate(-230.752 -47.201)" fill="none" stroke="#d3cabe" stroke-miterlimit="10" stroke-width="1"/>
    </g>
    <path id="Trazado_1032831" data-name="Trazado 1032831" d="M8.316-8.459H10.1V0H8.316V-1.682A3.82,3.82,0,0,1,5.086.236,3.712,3.712,0,0,1,2.23-1.077,4.591,4.591,0,0,1,1.046-4.266a4.492,4.492,0,0,1,1.195-3.1A3.663,3.663,0,0,1,5.045-8.7a3.569,3.569,0,0,1,1.887.543A3.866,3.866,0,0,1,8.316-6.737ZM8.562-4.2A2.7,2.7,0,0,0,7.73-6.188a2.73,2.73,0,0,0-1.993-.825,2.737,2.737,0,0,0-1.972.82,2.605,2.605,0,0,0-.842,1.928,2.811,2.811,0,0,0,.822,2.041,2.683,2.683,0,0,0,1.993.841A2.713,2.713,0,0,0,7.73-2.22,2.717,2.717,0,0,0,8.562-4.2ZM18.851-16.31h1.764v6.521A3.6,3.6,0,0,1,23.875-11.7a3.742,3.742,0,0,1,2.845,1.313,4.454,4.454,0,0,1,1.2,3.117,4.628,4.628,0,0,1-1.184,3.153,3.582,3.582,0,0,1-2.763,1.348,3.709,3.709,0,0,1-1.928-.543,3.917,3.917,0,0,1-1.436-1.477V-3H18.851Zm7.188,9.044a2.7,2.7,0,0,0-.831-1.984,2.746,2.746,0,0,0-2.01-.825,2.7,2.7,0,0,0-1.974.836,2.7,2.7,0,0,0-.836,1.974,2.691,2.691,0,0,0,.836,2,2.831,2.831,0,0,0,2.056.815,2.629,2.629,0,0,0,1.943-.831A2.74,2.74,0,0,0,26.039-7.266ZM42.306-2.584V-.543A5.326,5.326,0,0,1,39.66.236a4.21,4.21,0,0,1-3.071-1.318,4.187,4.187,0,0,1-1.318-3.051A4.4,4.4,0,0,1,36.584-7.4a4.492,4.492,0,0,1,3.292-1.3,5.491,5.491,0,0,1,2.43.615v1.989a4.752,4.752,0,0,0-2.543-.861,2.743,2.743,0,0,0-1.938.779,2.428,2.428,0,0,0-.831,1.825,2.742,2.742,0,0,0,.779,1.984,2.552,2.552,0,0,0,1.907.8A4.79,4.79,0,0,0,42.306-2.584Z" transform="translate(1181 8884)" fill="#d3cabe"/>
    <g id="Grupo_1174984" data-name="Grupo 1174984" transform="translate(940.574 8761.297)">
      <path id="Trazado_1032683" data-name="Trazado 1032683" d="M111.262,185.605v14.51L98.7,207.369l-12.565-7.254v-14.51L98.7,178.35Z" transform="translate(158.152 -37.939)" fill="none" stroke="#d3cabe" stroke-miterlimit="10" stroke-width="1"/>
      <line id="Línea_897" data-name="Línea 897" x1="11.467" y2="7.869" transform="translate(232.816 162.175)" fill="none" stroke="#d3cabe" stroke-miterlimit="10" stroke-width="1"/>
      <line id="Línea_899" data-name="Línea 899" y1="7.592" x2="12.682" transform="translate(269.414 140.074)" fill="none" stroke="#d3cabe" stroke-miterlimit="10" stroke-width="1"/>
      <line id="Línea_901" data-name="Línea 901" y2="16.475" transform="translate(256.848 169.43)" fill="none" stroke="#d3cabe" stroke-miterlimit="10" stroke-width="1"/>
      <path id="Trazado_1032685" data-name="Trazado 1032685" d="M69.4,175.006a2.3,2.3,0,1,0,2.3,2.3A2.3,2.3,0,0,0,69.4,175.006Z" transform="translate(212.694 -37.228)" fill="none" stroke="#d3cabe" stroke-miterlimit="10" stroke-width="1"/>
      <path id="Trazado_1032687" data-name="Trazado 1032687" d="M85.511,184.146a2.3,2.3,0,1,0,2.3,2.3A2.3,2.3,0,0,0,85.511,184.146Z" transform="translate(183.902 -39.172)" fill="none" stroke="#d3cabe" stroke-miterlimit="10" stroke-width="1"/>
      <path id="Trazado_1032689" data-name="Trazado 1032689" d="M101.481,233.221a2.3,2.3,0,1,0,2.3,2.3A2.3,2.3,0,0,0,101.481,233.221Z" transform="translate(155.358 -49.611)" fill="none" stroke="#d3cabe" stroke-miterlimit="10" stroke-width="1"/>
      <path id="Trazado_1032691" data-name="Trazado 1032691" d="M101.021,212.293a2.3,2.3,0,1,0,2.3,2.3A2.3,2.3,0,0,0,101.021,212.293Z" transform="translate(156.182 -45.159)" fill="none" stroke="#d3cabe" stroke-miterlimit="10" stroke-width="1"/>
      <path id="Trazado_1032693" data-name="Trazado 1032693" d="M117.086,202.842a2.3,2.3,0,1,0,2.3,2.3A2.3,2.3,0,0,0,117.086,202.842Z" transform="translate(127.468 -43.149)" fill="none" stroke="#d3cabe" stroke-miterlimit="10" stroke-width="1"/>
      <path id="Trazado_1032695" data-name="Trazado 1032695" d="M132.219,213.227a2.3,2.3,0,1,0,2.3,2.3A2.3,2.3,0,0,0,132.219,213.227Z" transform="translate(100.421 -45.358)" fill="none" stroke="#d3cabe" stroke-miterlimit="10" stroke-width="1"/>
    </g>
    <g id="Grupo_1174986" data-name="Grupo 1174986" transform="translate(1159.778 8863.452)">
      <path id="Trazado_1032703" data-name="Trazado 1032703" d="M300.861,83.891h16.275l8.137,14.094-8.137,14.094H300.861l-8.137-14.094Z" transform="translate(-218.506 -17.846)" fill="none" stroke="#d3cabe" stroke-miterlimit="10" stroke-width="1"/>
      <path id="Trazado_1032704" data-name="Trazado 1032704" d="M292.706,70.893h11.815l5.908,10.232-5.908,10.232H292.706L286.8,81.126Z" transform="translate(-198.998 -15.081)" fill="none" stroke="#d3cabe" stroke-miterlimit="10" stroke-width="1"/>
    </g>
    <path id="Trazado_1032833" data-name="Trazado 1032833" d="M340.711,137.145a3.8,3.8,0,1,0,3.8-3.8A3.8,3.8,0,0,0,340.711,137.145Z" transform="translate(880.456 8835.086)" fill="none" stroke="#d3cabe" stroke-miterlimit="10" stroke-width="1"/>
  </g>
</svg>
