<svg xmlns="http://www.w3.org/2000/svg" xmlns:xlink="http://www.w3.org/1999/xlink" width="103" height="103" viewBox="0 0 103 103">
  <defs>
    <filter id="Trazado_978624" x="0" y="0" width="103" height="103" filterUnits="userSpaceOnUse">
      <feOffset dy="3" input="SourceAlpha"/>
      <feGaussianBlur stdDeviation="3" result="blur"/>
      <feFlood flood-opacity="0.161"/>
      <feComposite operator="in" in2="blur"/>
      <feComposite in="SourceGraphic"/>
    </filter>
  </defs>
  <g id="Grupo_1174730" data-name="Grupo 1174730" transform="translate(-171 -1286)">
    <g id="Grupo_1173798" data-name="Grupo 1173798" transform="translate(-3 -3520)">
      <g id="Grupo_1171925" data-name="Grupo 1171925" transform="translate(-22 -2246)">
        <g id="Grupo_1164524" data-name="Grupo 1164524" transform="translate(205 7058)">
          <g id="Grupo_1144123" data-name="Grupo 1144123">
            <g transform="matrix(1, 0, 0, 1, -9, -6)" filter="url(#Trazado_978624)">
              <g id="Trazado_978624-2" data-name="Trazado 978624" transform="translate(9 6)" fill="#ebe9f0">
                <path d="M 42.5 83.5 C 36.96437835693359 83.5 31.59512901306152 82.41617584228516 26.54141235351562 80.27863311767578 C 21.65934181213379 78.21369171142578 17.27447128295898 75.25723266601562 13.50862312316895 71.49137878417969 C 9.742764472961426 67.72553253173828 6.786305904388428 63.34066009521484 4.721364498138428 58.45858764648438 C 2.583823442459106 53.40486907958984 1.5 48.03562164306641 1.5 42.5 C 1.5 36.96437835693359 2.583823442459106 31.59512901306152 4.721364498138428 26.54141235351562 C 6.786305904388428 21.65934181213379 9.742764472961426 17.27447128295898 13.50862312316895 13.50862312316895 C 17.27447128295898 9.742764472961426 21.65934181213379 6.786305904388428 26.54141235351562 4.721364498138428 C 31.59512901306152 2.583823442459106 36.96437835693359 1.5 42.5 1.5 C 48.03562164306641 1.5 53.40486907958984 2.583823442459106 58.45858764648438 4.721364498138428 C 63.34066009521484 6.786305904388428 67.72553253173828 9.742764472961426 71.49137878417969 13.50862312316895 C 75.25723266601562 17.27447128295898 78.21369171142578 21.65934181213379 80.27863311767578 26.54141235351562 C 82.41617584228516 31.59512901306152 83.5 36.96437835693359 83.5 42.5 C 83.5 48.03562164306641 82.41617584228516 53.40486907958984 80.27863311767578 58.45858764648438 C 78.21369171142578 63.34066009521484 75.25723266601562 67.72553253173828 71.49137878417969 71.49137878417969 C 67.72553253173828 75.25723266601562 63.34066009521484 78.21369171142578 58.45858764648438 80.27863311767578 C 53.40486907958984 82.41617584228516 48.03562164306641 83.5 42.5 83.5 Z" stroke="none"/>
                <path d="M 42.5 3 C 37.16621398925781 3 31.99356079101562 4.043960571289062 27.125732421875 6.102882385253906 C 22.42246627807617 8.092185974121094 18.19785308837891 10.94070434570312 14.56928253173828 14.56928253173828 C 10.94070434570312 18.19785308837891 8.092185974121094 22.42246627807617 6.102882385253906 27.125732421875 C 4.043960571289062 31.99356079101562 3 37.16621398925781 3 42.5 C 3 47.83378601074219 4.043960571289062 53.00643920898438 6.102882385253906 57.87425231933594 C 8.092185974121094 62.57753372192383 10.94070434570312 66.80213165283203 14.56928253173828 70.43071746826172 C 18.19786834716797 74.05929565429688 22.42246627807617 76.90781402587891 27.125732421875 78.89711761474609 C 31.99356079101562 80.95603942871094 37.16621398925781 82 42.5 82 C 47.83378601074219 82 53.00642395019531 80.95603942871094 57.87425231933594 78.89711761474609 C 62.57753372192383 76.90781402587891 66.80213165283203 74.05929565429688 70.43071746826172 70.43071746826172 C 74.05929565429688 66.80213165283203 76.90781402587891 62.57753372192383 78.89711761474609 57.87425231933594 C 80.95603942871094 53.00642395019531 82 47.83378601074219 82 42.5 C 82 37.16621398925781 80.95603942871094 31.99356079101562 78.89711761474609 27.125732421875 C 76.90781402587891 22.42246627807617 74.05929565429688 18.19786834716797 70.43071746826172 14.56928253173828 C 66.80213165283203 10.94070434570312 62.57753372192383 8.092185974121094 57.87425231933594 6.102882385253906 C 53.00643920898438 4.043960571289062 47.83378601074219 3 42.5 3 M 42.5 0 C 65.97209167480469 0 85 19.02789306640625 85 42.5 C 85 65.97209167480469 65.97209167480469 85 42.5 85 C 19.02789306640625 85 0 65.97209167480469 0 42.5 C 0 19.02789306640625 19.02789306640625 0 42.5 0 Z" stroke="none" fill="#c6c0d6"/>
              </g>
            </g>
          </g>
        </g>
      </g>
    </g>
    <g id="tutor_10491839" transform="translate(194.333 1306.333)">
      <g id="Grupo_1172414" data-name="Grupo 1172414" transform="translate(0.909 0.909)">
        <g id="Grupo_1172396" data-name="Grupo 1172396" transform="translate(5.452 47.248)">
          <path id="Trazado_1026515" data-name="Trazado 1026515" d="M63.269,427.634H56V424h5.452v1.817A1.817,1.817,0,0,0,63.269,427.634Z" transform="translate(-56 -424)" fill="#e6e9ed"/>
        </g>
        <g id="Grupo_1172397" data-name="Grupo 1172397" transform="translate(0 29.984)">
          <path id="Trazado_1026516" data-name="Trazado 1026516" d="M18.9,283.824a1.819,1.819,0,0,0-1.411.991l-.407.813v3.634H11.634A3.635,3.635,0,0,1,8,285.629v-6.3a6.36,6.36,0,0,1,5.461-6.3L20.721,272l2.726,2.726L26.172,272l7.26,1.037a6.36,6.36,0,0,1,5.461,6.3v.543l-.192-.512a1.817,1.817,0,0,0-3.251,1.626l1.74,4.638h-.115a1.817,1.817,0,0,0-1.817,1.817v1.817a1.817,1.817,0,0,0,1.817,1.817H34.35a.908.908,0,0,0-.909.909v.909H26.172a1.817,1.817,0,0,0,1.817-1.817V278.36a1.817,1.817,0,0,0-1.817-1.817H20.721A1.817,1.817,0,0,0,18.9,278.36Z" transform="translate(-8 -272)" fill="#e6e9ed"/>
        </g>
        <g id="Grupo_1172398" data-name="Grupo 1172398" transform="translate(10.903 34.527)">
          <path id="Trazado_1026517" data-name="Trazado 1026517" d="M113.086,313.817v12.721a1.817,1.817,0,0,1-1.817,1.817h-5.452A1.817,1.817,0,0,1,104,326.538V324.72h1.817a1.817,1.817,0,0,0,1.817-1.817v-1.817a1.817,1.817,0,0,0-1.817-1.817h-1.6a1.915,1.915,0,0,0-.215.012v-5.464A1.817,1.817,0,0,1,105.817,312h5.452A1.817,1.817,0,0,1,113.086,313.817Z" transform="translate(-104 -312)" fill="#969faa"/>
        </g>
        <g id="Grupo_1172399" data-name="Grupo 1172399" transform="translate(1.817)">
          <path id="Trazado_1026518" data-name="Trazado 1026518" d="M46.715,19.812l-1.54-1.155a5,5,0,0,0-4.578-.743l-2.026.676a6.119,6.119,0,0,1-7.166-2.633,5.453,5.453,0,0,0-3.139,4.49l-.1,1.182H26.726a2.694,2.694,0,0,0-1.249.3h0A9,9,0,0,1,33,8h9.268a8.994,8.994,0,0,1,7.519,13.932h0a2.694,2.694,0,0,0-1.249-.3H46.917Z" transform="translate(-24 -8)" fill="#b27946"/>
        </g>
        <g id="Grupo_1172400" data-name="Grupo 1172400" transform="translate(29.984 14.538)">
          <path id="Trazado_1026519" data-name="Trazado 1026519" d="M276.543,146.9h-2.726a1.8,1.8,0,0,0-.8.187A7.359,7.359,0,0,1,272,143.364v-.618a3.987,3.987,0,0,1,3.02-3.867l.614-.153A3.987,3.987,0,0,1,279.417,136h7.026a7.363,7.363,0,0,1,6.351,11.091,1.8,1.8,0,0,0-.8-.187h-2.726a3.492,3.492,0,0,0-2.644-3.387l-.99-.248a7.158,7.158,0,0,1-5.068,3.132Z" transform="translate(-272 -136)" fill="#656d78"/>
        </g>
        <g id="Grupo_1172401" data-name="Grupo 1172401" transform="translate(25.441 49.065)">
          <path id="Trazado_1026520" data-name="Trazado 1026520" d="M241.653,440h18.514a.908.908,0,0,1,.909.909v.909a1.817,1.817,0,0,1-1.817,1.817h-9.995a1.817,1.817,0,1,1-3.634,0H233.817A1.817,1.817,0,0,1,232,441.817v-.909a.908.908,0,0,1,.909-.909h8.744Z" transform="translate(-232 -440)" fill="#cf9e76"/>
        </g>
        <g id="Grupo_1172402" data-name="Grupo 1172402" transform="translate(32.134 38.162)">
          <path id="Trazado_1026521" data-name="Trazado 1026521" d="M309.678,350.783V354.9H293.89l-2.96-7.895a6.342,6.342,0,0,1,3.577-2.4l2.451-.613a2.726,2.726,0,1,0,5.452,0l2.451.613A6.36,6.36,0,0,1,309.678,350.783Z" transform="translate(-290.93 -344)" fill="#fcd770"/>
        </g>
        <g id="Grupo_1172403" data-name="Grupo 1172403" transform="translate(27.258 36.344)">
          <path id="Trazado_1026522" data-name="Trazado 1026522" d="M252.875,332.826l2.96,7.895h-5.11a.908.908,0,0,0,.909-.909v-3.634a.908.908,0,0,0-.909-.909h-.794l-1.74-4.638A1.817,1.817,0,0,1,251.442,329l.192.512Z" transform="translate(-247.999 -328)" fill="#f29ed0"/>
        </g>
        <g id="Grupo_1172404" data-name="Grupo 1172404" transform="translate(5.452 7.957)">
          <path id="Trazado_1026523" data-name="Trazado 1026523" d="M75.945,89.691a7.284,7.284,0,0,1-4.683,7.625l-2.542.953v1.817l-2.726,2.726-2.726-2.726V98.27l-2.542-.953A7.284,7.284,0,0,1,56,90.5v-.1c0-.2.008-.405.025-.608l.051-.605.457-5.452.1-1.182a5.453,5.453,0,0,1,3.139-4.49,6.115,6.115,0,0,0,7.166,2.633l2.026-.676a5,5,0,0,1,4.578.743l1.54,1.155.2,1.817.605,5.452Z" transform="translate(-56 -78.06)" fill="#f0d0b4"/>
        </g>
        <g id="Grupo_1172405" data-name="Grupo 1172405" transform="translate(17.863 12.226)">
          <ellipse id="Elipse_12334" data-name="Elipse 12334" cx="3.288" cy="3.758" rx="3.288" ry="3.758" transform="translate(0 0)" fill="#69d6f4"/>
        </g>
        <g id="Grupo_1172406" data-name="Grupo 1172406" transform="translate(6.589 12.226)">
          <circle id="Elipse_12335" data-name="Elipse 12335" cx="3.758" cy="3.758" r="3.758" transform="translate(0 0)" fill="#69d6f4"/>
        </g>
        <g id="Grupo_1172407" data-name="Grupo 1172407" transform="translate(24.735 13.629)">
          <path id="Trazado_1026524" data-name="Trazado 1026524" d="M228.644,128.3a2.725,2.725,0,0,1-1.249,5.147h-1.01L225.78,128H227.4A2.694,2.694,0,0,1,228.644,128.3Z" transform="translate(-225.78 -128)" fill="#f0d0b4"/>
        </g>
        <g id="Grupo_1172408" data-name="Grupo 1172408" transform="translate(1.817 13.629)">
          <path id="Trazado_1026525" data-name="Trazado 1026525" d="M28.167,128l-.457,5.452h-.985a2.725,2.725,0,0,1-1.249-5.147,2.694,2.694,0,0,1,1.249-.3Z" transform="translate(-24 -128)" fill="#f0d0b4"/>
        </g>
        <g id="Grupo_1172409" data-name="Grupo 1172409" transform="translate(9.086 41.796)">
          <path id="Trazado_1026526" data-name="Trazado 1026526" d="M93.452,377.817v1.817a1.817,1.817,0,0,1-1.817,1.817H88v-3.634l.407-.813a1.819,1.819,0,0,1,1.411-.992,1.908,1.908,0,0,1,.215-.012h1.6A1.817,1.817,0,0,1,93.452,377.817Z" transform="translate(-88 -376)" fill="#f0d0b4"/>
        </g>
        <g id="Grupo_1172410" data-name="Grupo 1172410" transform="translate(27.258 43.613)">
          <path id="Trazado_1026527" data-name="Trazado 1026527" d="M251.634,392.909v3.634a.908.908,0,0,1-.909.909h-.909A1.817,1.817,0,0,1,248,395.634v-1.817A1.817,1.817,0,0,1,249.817,392h.909A.908.908,0,0,1,251.634,392.909Z" transform="translate(-248 -392)" fill="#f0d0b4"/>
        </g>
        <g id="Grupo_1172411" data-name="Grupo 1172411" transform="translate(47.248 25.441)">
          <path id="Trazado_1026528" data-name="Trazado 1026528" d="M428.012,232.532a1.818,1.818,0,0,1-1.286,3.1h-2.12L424,232h2.726a1.823,1.823,0,0,1,1.286.532Z" transform="translate(-424 -232)" fill="#f0d0b4"/>
        </g>
        <g id="Grupo_1172412" data-name="Grupo 1172412" transform="translate(33.619 21.807)">
          <path id="Trazado_1026529" data-name="Trazado 1026529" d="M318.473,208.7a4.784,4.784,0,0,1-2.942,5.228l-1.537.614v1.817a2.726,2.726,0,0,1-5.452,0v-1.817l-1.537-.614a4.787,4.787,0,0,1-2.942-5.228l.237-1.427h0l.605-3.634,4.018-.5A7.158,7.158,0,0,0,313.995,200l.99.248a3.492,3.492,0,0,1,2.644,3.387l.605,3.634h0Z" transform="translate(-304 -200)" fill="#f0d0b4"/>
        </g>
        <g id="Grupo_1172413" data-name="Grupo 1172413" transform="translate(29.984 25.441)">
          <path id="Trazado_1026530" data-name="Trazado 1026530" d="M276.543,232l-.605,3.634h-2.121a1.817,1.817,0,1,1,0-3.634Z" transform="translate(-272 -232)" fill="#f0d0b4"/>
        </g>
      </g>
      <g id="Grupo_1172415" data-name="Grupo 1172415" transform="translate(0 0)">
        <path id="Trazado_1026531" data-name="Trazado 1026531" d="M54.517,49.065H52.7V45.853A7.258,7.258,0,0,0,47.193,38.8l-1.763-.441v-.493l.965-.386a5.692,5.692,0,0,0,3.5-6.221l-.061-.369h1.048a2.724,2.724,0,0,0,1.963-4.614,8.272,8.272,0,0,0-7.51-11.741H38.309A4.888,4.888,0,0,0,33.854,17.4l-.162.04a4.888,4.888,0,0,0-3.708,4.749v.617a8.279,8.279,0,0,0,.763,3.468,2.724,2.724,0,0,0,1.963,4.614h1.048l-.061.369a5.691,5.691,0,0,0,3.5,6.221l.965.386v.493L36.4,38.8a7.284,7.284,0,0,0-3.022,1.581L32.71,38.6v-.379a7.269,7.269,0,0,0-6.241-7.2l-6.48-.926v-.4l1.952-.732A8.231,8.231,0,0,0,27.258,21.3c0-.134,0-.269-.011-.4h.011a3.632,3.632,0,0,0,2.456-6.311A9.9,9.9,0,0,0,20.989,0H11.721A9.9,9.9,0,0,0,3,14.587,3.632,3.632,0,0,0,5.452,20.9h.006c0,.1-.006.2-.006.3v.1a8.231,8.231,0,0,0,5.316,7.671l1.952.732v.4l-6.48.926A7.269,7.269,0,0,0,0,38.226v6.3a4.548,4.548,0,0,0,4.543,4.543h.909V52.7H25.6a2.73,2.73,0,0,0,2.57,1.817H39.226a2.726,2.726,0,0,0,5.14,0h9.242a2.729,2.729,0,0,0,2.726-2.726v-.909a1.819,1.819,0,0,0-1.817-1.817ZM50.882,29.075h-1.35l-.3-1.817h1.653a.909.909,0,1,1,0,1.817ZM31.8,22.193a3.073,3.073,0,0,1,2.331-2.986l1.1-.275.158-.473a3.074,3.074,0,0,1,2.92-2.1h7.026a6.454,6.454,0,0,1,5.885,9.108,2.74,2.74,0,0,0-.338-.022H49.722a6.733,6.733,0,0,0,.205-4.83l-1.724.575a4.941,4.941,0,0,1,.122,2.72,4.393,4.393,0,0,0-2.593-1.824l-1.611-.4-.355.533a6.245,6.245,0,0,1-4.425,2.735l-3,.375v-.788a1.819,1.819,0,0,1,1.817-1.817V20.9a3.639,3.639,0,0,0-3.634,3.634v.909H32.71a2.74,2.74,0,0,0-.338.022A6.46,6.46,0,0,1,31.8,22.81Zm.909,6.882a.909.909,0,1,1,0-1.817h1.653l-.3,1.817Zm5.161,6.719a3.874,3.874,0,0,1-2.383-4.235l.732-4.393,3.346-.418a8.06,8.06,0,0,0,5.329-3l.4.1a2.579,2.579,0,0,1,1.956,2.505v.075L48.1,31.56a3.875,3.875,0,0,1-2.383,4.235l-2.107.843V39.07a1.817,1.817,0,1,1-3.634,0V36.638Zm-1.032,4.77,1.5-.375a3.634,3.634,0,0,0,6.915,0l1.5.375a5.444,5.444,0,0,1,4.129,5.289v3.211H36.633l-2.558-6.82a5.467,5.467,0,0,1,2.764-1.681Zm-7.764,7.592V46.339a.91.91,0,0,1,.909-.909h.909v3.634h-.909A.91.91,0,0,1,29.075,48.156Zm1.817-4.543h-.165l-1.519-4.049-.038-.087a.909.909,0,0,1,1.607-.848l3.914,10.436H32.71V45.43A1.819,1.819,0,0,0,30.893,43.613ZM26.212,32.829a5.482,5.482,0,0,1,4.364,3.58,2.73,2.73,0,0,0-1.811.223,2.73,2.73,0,0,0-1.242,3.61l1.353,3.607a2.73,2.73,0,0,0-1.617,2.489v1.817a2.713,2.713,0,0,0,.156.909h-.156a1.819,1.819,0,0,0-1.817,1.817H21.65a2.713,2.713,0,0,0,.156-.909V37.253a2.729,2.729,0,0,0-2.726-2.726h-2.35L19.4,31.857ZM21.807,12.721A4.545,4.545,0,0,0,17.871,15a2.72,2.72,0,0,0-3.031,0,4.537,4.537,0,0,0-6.981-1.1l.039-.463a4.551,4.551,0,0,1,1.964-3.368,7.023,7.023,0,0,0,7.723,2.3l2.026-.675a4.09,4.09,0,0,1,3.746.608l1.225.919.056.5A4.519,4.519,0,0,0,21.807,12.721Zm2.726,4.543a2.726,2.726,0,1,1-2.726-2.726A2.729,2.729,0,0,1,24.532,17.264Zm-10.9,0A2.726,2.726,0,1,1,10.9,14.538,2.729,2.729,0,0,1,13.629,17.264Zm13.629,1.817h-.2l-.4-3.634h.6a1.817,1.817,0,1,1,0,3.634ZM3.634,9.9a8.1,8.1,0,0,1,8.086-8.086h9.269a8.084,8.084,0,0,1,7.122,11.914,3.627,3.627,0,0,0-.853-.1h-.8l-.107-.959V11.9a6.578,6.578,0,0,0-5.274-6.433L20.72,7.251A4.759,4.759,0,0,1,24.4,10.807a5.908,5.908,0,0,0-5.369-.846l-2.026.675a5.208,5.208,0,0,1-6.17-2.357L8.966,5l-1.578.9,1.5,2.624a6.374,6.374,0,0,0-2.8,4.754l-.029.349H5.452a3.627,3.627,0,0,0-.853.1A8.061,8.061,0,0,1,3.634,9.9Zm0,7.36a1.819,1.819,0,0,1,1.817-1.817h.454l-.3,3.634H5.452A1.819,1.819,0,0,1,3.634,17.264Zm7.772,10.008A6.406,6.406,0,0,1,7.269,21.3v-.1c0-.177.007-.356.022-.532l.05-.593a4.54,4.54,0,0,0,8.106-2.814.909.909,0,1,1,1.817,0,4.54,4.54,0,0,0,8.084,2.842l.055.492a6.375,6.375,0,0,1-4.1,6.674l-3.132,1.174v2.07l-1.817,1.817-1.817-1.817v-2.07ZM1.817,44.522v-6.3a5.478,5.478,0,0,1,4.681-5.4l6.81-.973,2.671,2.671h-2.35A2.729,2.729,0,0,0,10.9,37.253v4.783a2.7,2.7,0,0,0-.8.556,2.718,2.718,0,0,0-1.923-.8H7.269V36.344H5.452V41.8H3.634v1.817H8.177a.91.91,0,0,1,.909.909v2.726H4.543a2.729,2.729,0,0,1-2.726-2.726ZM10.9,47.248V44.736l.31-.621a.9.9,0,0,1,.813-.5h1.6a.91.91,0,0,1,.909.909v1.817a.91.91,0,0,1-.909.909ZM7.269,49.065H10.9v.909a2.713,2.713,0,0,0,.156.909H7.269Zm6.36,1.817a.91.91,0,0,1-.909-.909v-.909h.909a2.729,2.729,0,0,0,2.726-2.726V44.522A2.729,2.729,0,0,0,13.629,41.8H12.72V37.253a.91.91,0,0,1,.909-.909h5.452a.91.91,0,0,1,.909.909V49.973a.91.91,0,0,1-.909.909Zm40.887.909a.91.91,0,0,1-.909.909H42.7v.909a.909.909,0,0,1-1.817,0V52.7H28.167a.91.91,0,0,1-.909-.909v-.909H54.517Z" transform="translate(0 0)"/>
        <ellipse id="Elipse_12340" data-name="Elipse 12340" cx="0.47" cy="1.409" rx="0.47" ry="1.409" transform="translate(15.013 37.562)"/>
      </g>
    </g>
  </g>
</svg>
