<svg xmlns="http://www.w3.org/2000/svg" xmlns:xlink="http://www.w3.org/1999/xlink" width="113" height="113" viewBox="0 0 113 113">
  <defs>
    <filter id="Trazado_982547" x="0" y="0" width="113" height="113" filterUnits="userSpaceOnUse">
      <feOffset dy="3" input="SourceAlpha"/>
      <feGaussianBlur stdDeviation="3" result="blur"/>
      <feFlood flood-opacity="0.161"/>
      <feComposite operator="in" in2="blur"/>
      <feComposite in="SourceGraphic"/>
    </filter>
  </defs>
  <g id="Grupo_1174745" data-name="Grupo 1174745" transform="translate(-271.5 -1604.144)">
    <g id="Grupo_1173801" data-name="Grupo 1173801" transform="translate(0 -1438.5)">
      <g id="Grupo_1172010" data-name="Grupo 1172010" transform="translate(0 1744.5)">
        <g id="Grupo_1171046" data-name="Grupo 1171046" transform="translate(280.5 1304.145)">
          <g id="Grupo_1148525" data-name="Grupo 1148525" transform="translate(0)">
            <g transform="matrix(1, 0, 0, 1, -9, -6)" filter="url(#Trazado_982547)">
              <g id="Trazado_982547-2" data-name="Trazado 982547" transform="translate(9 6)" fill="#f4fdfe">
                <path d="M 47.5 93.5 C 41.28937149047852 93.5 35.26533508300781 92.28397369384766 29.59518623352051 89.88570404052734 C 24.11771965026855 87.56893157958984 19.19813346862793 84.25196075439453 14.97309303283691 80.02691650390625 C 10.74804019927979 75.80186462402344 7.431066513061523 70.88229370117188 5.114293098449707 65.40481567382812 C 2.716026782989502 59.73468017578125 1.5 53.71062850952148 1.5 47.5 C 1.5 41.28937149047852 2.716026782989502 35.26533508300781 5.114293098449707 29.59518623352051 C 7.431066513061523 24.11771965026855 10.74804019927979 19.19813346862793 14.97309303283691 14.97309303283691 C 19.19813346862793 10.74804019927979 24.11771965026855 7.431066513061523 29.59518623352051 5.114293098449707 C 35.26533508300781 2.716026782989502 41.28937149047852 1.5 47.5 1.5 C 53.71062850952148 1.5 59.73468017578125 2.716026782989502 65.40481567382812 5.114293098449707 C 70.88229370117188 7.431066513061523 75.80186462402344 10.74804019927979 80.02691650390625 14.97309303283691 C 84.25196075439453 19.19813346862793 87.56893157958984 24.11771965026855 89.88570404052734 29.59518623352051 C 92.28397369384766 35.26533508300781 93.5 41.28937149047852 93.5 47.5 C 93.5 53.71062850952148 92.28397369384766 59.73468017578125 89.88570404052734 65.40481567382812 C 87.56893157958984 70.88229370117188 84.25196075439453 75.80186462402344 80.02691650390625 80.02691650390625 C 75.80186462402344 84.25196075439453 70.88229370117188 87.56893157958984 65.40481567382812 89.88570404052734 C 59.73468017578125 92.28397369384766 53.71062850952148 93.5 47.5 93.5 Z" stroke="none"/>
                <path d="M 47.5 3 C 41.49121475219727 3 35.66376876831055 4.176155090332031 30.17950439453125 6.495796203613281 C 24.88084411621094 8.736953735351562 20.12152099609375 11.94598388671875 16.03375244140625 16.03375244140625 C 11.94598388671875 20.12152099609375 8.736953735351562 24.88084411621094 6.495796203613281 30.17950439453125 C 4.176155090332031 35.66376876831055 3 41.49121475219727 3 47.5 C 3 53.50878524780273 4.176155090332031 59.33623123168945 6.495796203613281 64.82049560546875 C 8.736953735351562 70.11915588378906 11.94598388671875 74.87847900390625 16.03375244140625 78.96624755859375 C 20.12152099609375 83.05401611328125 24.88084411621094 86.26304626464844 30.17950439453125 88.50419616699219 C 35.66376876831055 90.82384490966797 41.49121475219727 92 47.5 92 C 53.50878524780273 92 59.33623123168945 90.82384490966797 64.82049560546875 88.50419616699219 C 70.11915588378906 86.26304626464844 74.87847900390625 83.05401611328125 78.96624755859375 78.96624755859375 C 83.05401611328125 74.87847900390625 86.26304626464844 70.11915588378906 88.50419616699219 64.82049560546875 C 90.82384490966797 59.33623123168945 92 53.50878524780273 92 47.5 C 92 41.49121475219727 90.82384490966797 35.66376876831055 88.50419616699219 30.17950439453125 C 86.26304626464844 24.88084411621094 83.05401611328125 20.12152099609375 78.96624755859375 16.03375244140625 C 74.87847900390625 11.94598388671875 70.11915588378906 8.736953735351562 64.82049560546875 6.495796203613281 C 59.33623123168945 4.176155090332031 53.50878524780273 3 47.5 3 M 47.5 0 C 73.7335205078125 0 95 21.2664794921875 95 47.5 C 95 73.7335205078125 73.7335205078125 95 47.5 95 C 21.2664794921875 95 0 73.7335205078125 0 47.5 C 0 21.2664794921875 21.2664794921875 0 47.5 0 Z" stroke="none" fill="#56838a"/>
              </g>
            </g>
          </g>
        </g>
      </g>
    </g>
    <g id="dna_10371482" transform="translate(291.416 1608.282)">
      <g id="Grupo_1174737" data-name="Grupo 1174737" transform="translate(7.5 18.179)">
        <g id="Grupo_1174733" data-name="Grupo 1174733">
          <g id="Grupo_1174731" data-name="Grupo 1174731">
            <path id="Trazado_1031829" data-name="Trazado 1031829" d="M19.395,49.151l.04-.039V44.854A12.74,12.74,0,0,1,42.2,36.99c.038-.472.059-.949.059-1.431A17.38,17.38,0,1,0,18.3,51.647,3.6,3.6,0,0,1,19.395,49.151Z" transform="translate(-7.5 -18.179)" fill="#bd80e1"/>
          </g>
          <g id="Grupo_1174732" data-name="Grupo 1174732" transform="translate(5.183 5.183)">
            <path id="Trazado_1031830" data-name="Trazado 1031830" d="M53.782,79.2A12.744,12.744,0,0,1,71.149,67.327a12.2,12.2,0,1,0-17.367,13.5Z" transform="translate(-47.031 -57.711)" fill="#af66da"/>
          </g>
          <path id="Trazado_1031831" data-name="Trazado 1031831" d="M89.888,110.263a12.777,12.777,0,0,1,10.668-8.376,6.859,6.859,0,1,0-10.668,8.376Z" transform="translate(-77.207 -87.887)" fill="#bd80e1"/>
        </g>
        <g id="Grupo_1174736" data-name="Grupo 1174736" transform="translate(3.271 13.8)">
          <path id="Trazado_1031832" data-name="Trazado 1031832" d="M73.882,383.756H33.823a1.379,1.379,0,0,1-1.378-1.378v-6.822a8.409,8.409,0,0,1,8.409-8.409h26a8.409,8.409,0,0,1,8.409,8.409v6.822A1.378,1.378,0,0,1,73.882,383.756Z" transform="translate(-32.445 -335.189)" fill="#05e39c"/>
          <g id="Grupo_1174734" data-name="Grupo 1174734" transform="translate(28.771 31.957)">
            <path id="Trazado_1031833" data-name="Trazado 1031833" d="M257.5,367.146h-5.636a8.41,8.41,0,0,1,8.409,8.41v8.2h4.258a1.378,1.378,0,0,0,1.378-1.378v-6.822A8.41,8.41,0,0,0,257.5,367.146Z" transform="translate(-251.865 -367.146)" fill="#0ed290"/>
          </g>
          <path id="Trazado_1031834" data-name="Trazado 1031834" d="M100.138,139.572h1.177a3.036,3.036,0,0,1,3-2.624H110.1a2.038,2.038,0,0,0,1.63-.821l.76-1.025a1.774,1.774,0,0,1,1.42-.715h2.565a3.036,3.036,0,0,1,3.032,3.032v2.153h1.149a3.616,3.616,0,0,1,2.618,1.121V136.3a12.875,12.875,0,1,0-25.751,0v4.391A3.616,3.616,0,0,1,100.138,139.572Z" transform="translate(-88.987 -123.426)" fill="#ffe177"/>
          <path id="Trazado_1031835" data-name="Trazado 1031835" d="M178.743,134.387h.231a3.036,3.036,0,0,1,3.032,3.032v2.153h1.149a3.617,3.617,0,0,1,2.618,1.121V136.3a12.883,12.883,0,0,0-16.319-12.409A12.888,12.888,0,0,1,178.743,134.387Z" transform="translate(-151.49 -123.426)" fill="#ffd15b"/>
          <path id="Trazado_1031836" data-name="Trazado 1031836" d="M173.678,350.836h-1.733a8.206,8.206,0,0,1-2.59-.419v2.662a3.456,3.456,0,0,0,3.456,3.456h0a3.456,3.456,0,0,0,3.456-3.456v-2.662A8.2,8.2,0,0,1,173.678,350.836Z" transform="translate(-151.404 -320.654)" fill="#ffb09e"/>
          <g id="Grupo_1174735" data-name="Grupo 1174735" transform="translate(19.745 29.763)">
            <path id="Trazado_1031837" data-name="Trazado 1031837" d="M185.564,350.836h-.735v2.243a3.455,3.455,0,0,1-1.794,3.03,3.44,3.44,0,0,0,1.662.426h0a3.456,3.456,0,0,0,3.456-3.456v-2.662A8.2,8.2,0,0,1,185.564,350.836Z" transform="translate(-183.035 -350.417)" fill="#f89580"/>
          </g>
          <path id="Trazado_1031838" data-name="Trazado 1031838" d="M93.729,251.49V246.1a3.034,3.034,0,0,1,.049-.539h-1.2a3.758,3.758,0,0,0,0,7.517h1.3A8.247,8.247,0,0,1,93.729,251.49Z" transform="translate(-81.43 -229.55)" fill="#ffb09e"/>
          <path id="Trazado_1031839" data-name="Trazado 1031839" d="M265.3,245.565h-1.149v5.925a8.248,8.248,0,0,1-.156,1.591h1.3a3.758,3.758,0,0,0,0-7.517Z" transform="translate(-233.632 -229.55)" fill="#f89580"/>
          <path id="Trazado_1031840" data-name="Trazado 1031840" d="M135.354,225.5h-1.733a8.373,8.373,0,0,1-8.373-8.373v-5.386a3.163,3.163,0,0,1,3.163-3.163h5.778a1.9,1.9,0,0,0,1.525-.768l.76-1.025A1.9,1.9,0,0,1,138,206.02h2.565a3.164,3.164,0,0,1,3.163,3.163v7.947A8.373,8.373,0,0,1,135.354,225.5Z" transform="translate(-113.08 -195.19)" fill="#ffcebf"/>
          <path id="Trazado_1031841" data-name="Trazado 1031841" d="M204.841,206.02H202.4a3.41,3.41,0,0,1,1.651,2.922v8.571a9.028,9.028,0,0,1-4.822,7.99h.406A8.373,8.373,0,0,0,208,217.131v-7.947A3.164,3.164,0,0,0,204.841,206.02Z" transform="translate(-177.357 -195.19)" fill="#ffb09e"/>
        </g>
      </g>
      <g id="Grupo_1174744" data-name="Grupo 1174744" transform="translate(7.5 18.179)">
        <g id="Grupo_1174738" data-name="Grupo 1174738" transform="translate(0 0)">
          <path id="Trazado_1031844" data-name="Trazado 1031844" d="M246.631,79.175c.028-.407.044-.817.044-1.231a17.306,17.306,0,0,0-3.911-10.984" transform="translate(-211.916 -60.564)" fill="none" stroke="#000" stroke-linecap="round" stroke-linejoin="round" stroke-miterlimit="10" stroke-width="1.3"/>
          <path id="Trazado_1031845" data-name="Trazado 1031845" d="M35.264,21.623a17.382,17.382,0,1,0-17.1,29.972" transform="translate(-7.5 -18.18)" fill="none" stroke="#000" stroke-linecap="round" stroke-linejoin="round" stroke-miterlimit="10" stroke-width="1.3"/>
        </g>
        <g id="Grupo_1174740" data-name="Grupo 1174740" transform="translate(5.183 5.183)">
          <path id="Trazado_1031846" data-name="Trazado 1031846" d="M99.986,67.17a12.187,12.187,0,0,0-19.726-6.6" transform="translate(-75.903 -57.711)" fill="none" stroke="#000" stroke-linecap="round" stroke-linejoin="round" stroke-miterlimit="10" stroke-width="1.3"/>
          <g id="Grupo_1174739" data-name="Grupo 1174739" transform="translate(0 6.153)">
            <path id="Trazado_1031847" data-name="Trazado 1031847" d="M48.642,104.634a12.18,12.18,0,0,0,5.011,16.889" transform="translate(-47.032 -104.634)" fill="none" stroke="#000" stroke-linecap="round" stroke-linejoin="round" stroke-miterlimit="10" stroke-width="1.3"/>
          </g>
        </g>
        <path id="Trazado_1031848" data-name="Trazado 1031848" d="M100.482,101.763a6.858,6.858,0,1,0-10.7,8.4" transform="translate(-77.207 -87.887)" fill="none" stroke="#000" stroke-linecap="round" stroke-linejoin="round" stroke-miterlimit="10" stroke-width="1.3"/>
        <g id="Grupo_1174743" data-name="Grupo 1174743" transform="translate(41.954 10.928)">
          <line id="Línea_862" data-name="Línea 862" x1="3.644" y2="3.644" transform="translate(0 27.299)" fill="none" stroke="#000" stroke-linecap="round" stroke-linejoin="round" stroke-miterlimit="10" stroke-width="1.3"/>
          <path id="Trazado_1031849" data-name="Trazado 1031849" d="M338.084,193.079a11.092,11.092,0,0,0-3.213,7.332" transform="translate(-333.9 -181.074)" fill="none" stroke="#000" stroke-linecap="round" stroke-linejoin="round" stroke-miterlimit="10" stroke-width="1.3"/>
          <path id="Trazado_1031850" data-name="Trazado 1031850" d="M340.757,205A11.124,11.124,0,1,0,359,193.079" transform="translate(-339.015 -181.074)" fill="none" stroke="#000" stroke-linecap="round" stroke-linejoin="round" stroke-miterlimit="10" stroke-width="1.3"/>
          <g id="Grupo_1174742" data-name="Grupo 1174742" transform="translate(7.16)">
            <path id="Trazado_1031851" data-name="Trazado 1031851" d="M382.073,101.525v4.618a7.279,7.279,0,0,0,2.132,5.147l5.587,5.587a7.279,7.279,0,0,1,2.132,5.147v4.618" transform="translate(-382.073 -101.525)" fill="none" stroke="#000" stroke-linecap="round" stroke-miterlimit="10" stroke-width="1.3"/>
            <path id="Trazado_1031852" data-name="Trazado 1031852" d="M391.925,101.525v4.618a7.279,7.279,0,0,1-2.132,5.147l-5.587,5.587a7.279,7.279,0,0,0-2.132,5.147v4.618" transform="translate(-382.074 -101.525)" fill="none" stroke="#000" stroke-linecap="round" stroke-miterlimit="10" stroke-width="1.3"/>
            <g id="Grupo_1174741" data-name="Grupo 1174741" transform="translate(0 2.742)">
              <line id="Línea_863" data-name="Línea 863" x2="9.851" fill="none" stroke="#000" stroke-linecap="round" stroke-miterlimit="10" stroke-width="1.3"/>
              <line id="Línea_864" data-name="Línea 864" x1="9.24" transform="translate(0.306 3.962)" fill="none" stroke="#000" stroke-linecap="round" stroke-miterlimit="10" stroke-width="1.3"/>
              <line id="Línea_865" data-name="Línea 865" x2="9.851" transform="translate(0 19.633)" fill="none" stroke="#000" stroke-linecap="round" stroke-miterlimit="10" stroke-width="1.3"/>
            </g>
            <line id="Línea_866" data-name="Línea 866" x2="9.24" transform="translate(0.306 18.413)" fill="none" stroke="#000" stroke-linecap="round" stroke-miterlimit="10" stroke-width="1.3"/>
          </g>
        </g>
        <line id="Línea_867" data-name="Línea 867" y2="5.582" transform="translate(39.842 56.784)" fill="none" stroke="#000" stroke-linecap="round" stroke-linejoin="round" stroke-miterlimit="10" stroke-width="1.3"/>
        <path id="Trazado_1031853" data-name="Trazado 1031853" d="M50.4,367.146H40.855a8.41,8.41,0,0,0-8.409,8.41v6.822a1.379,1.379,0,0,0,1.378,1.378H61.818" transform="translate(-29.175 -321.389)" fill="none" stroke="#000" stroke-linecap="round" stroke-linejoin="round" stroke-miterlimit="10" stroke-width="1.3"/>
        <path id="Trazado_1031854" data-name="Trazado 1031854" d="M231.169,383.756h7.476a1.379,1.379,0,0,0,1.378-1.378v-6.822a8.41,8.41,0,0,0-8.409-8.41h-9.542" transform="translate(-193.937 -321.389)" fill="none" stroke="#000" stroke-linecap="round" stroke-linejoin="round" stroke-miterlimit="10" stroke-width="1.3"/>
        <line id="Línea_868" data-name="Línea 868" y1="5.582" transform="translate(9.516 56.784)" fill="none" stroke="#000" stroke-linecap="round" stroke-linejoin="round" stroke-miterlimit="10" stroke-width="1.3"/>
        <path id="Trazado_1031855" data-name="Trazado 1031855" d="M163.6,140.5v-4.2a12.876,12.876,0,0,0-19.665-10.94" transform="translate(-126.043 -109.626)" fill="none" stroke="#000" stroke-linecap="round" stroke-linejoin="round" stroke-miterlimit="10" stroke-width="1.3"/>
        <path id="Trazado_1031856" data-name="Trazado 1031856" d="M100.2,161.684a12.818,12.818,0,0,0-2.677,7.859v4.2" transform="translate(-85.717 -142.868)" fill="none" stroke="#000" stroke-linecap="round" stroke-linejoin="round" stroke-miterlimit="10" stroke-width="1.3"/>
        <path id="Trazado_1031857" data-name="Trazado 1031857" d="M169.357,351.486v2.522a3.456,3.456,0,0,0,3.456,3.456h0a3.456,3.456,0,0,0,3.456-3.456v-2.522" transform="translate(-148.134 -307.783)" fill="none" stroke="#000" stroke-linecap="round" stroke-linejoin="round" stroke-miterlimit="10" stroke-width="1.3"/>
        <path id="Trazado_1031858" data-name="Trazado 1031858" d="M93.6,251.49V246.1a3.192,3.192,0,0,1,.047-.539H92.58a3.758,3.758,0,0,0,0,7.517h1.171A8.407,8.407,0,0,1,93.6,251.49Z" transform="translate(-78.159 -215.75)" fill="none" stroke="#000" stroke-linecap="round" stroke-linejoin="round" stroke-miterlimit="10" stroke-width="1.3"/>
        <path id="Trazado_1031859" data-name="Trazado 1031859" d="M266.184,245.565h-1.018v5.925a8.408,8.408,0,0,1-.153,1.591h1.171a3.758,3.758,0,0,0,0-7.517Z" transform="translate(-231.248 -215.75)" fill="none" stroke="#000" stroke-linecap="round" stroke-linejoin="round" stroke-miterlimit="10" stroke-width="1.3"/>
        <path id="Trazado_1031860" data-name="Trazado 1031860" d="M135.354,225.5h-1.733a8.373,8.373,0,0,1-8.373-8.373v-5.386a3.163,3.163,0,0,1,3.163-3.163h5.778a1.9,1.9,0,0,0,1.525-.768l.76-1.025A1.9,1.9,0,0,1,138,206.02h2.565a3.164,3.164,0,0,1,3.163,3.163v7.947A8.373,8.373,0,0,1,135.354,225.5Z" transform="translate(-109.809 -181.39)" fill="none" stroke="#000" stroke-linecap="round" stroke-linejoin="round" stroke-miterlimit="10" stroke-width="1.3"/>
      </g>
    </g>
  </g>
</svg>
