<svg xmlns="http://www.w3.org/2000/svg" xmlns:xlink="http://www.w3.org/1999/xlink" width="113" height="113" viewBox="0 0 113 113">
  <defs>
    <filter id="Trazado_982547" x="0" y="0" width="113" height="113" filterUnits="userSpaceOnUse">
      <feOffset dy="3" input="SourceAlpha"/>
      <feGaussianBlur stdDeviation="3" result="blur"/>
      <feFlood flood-opacity="0.161"/>
      <feComposite operator="in" in2="blur"/>
      <feComposite in="SourceGraphic"/>
    </filter>
  </defs>
  <g id="Grupo_1174764" data-name="Grupo 1174764" transform="translate(-324 -1962.175)">
    <g id="Grupo_1173868" data-name="Grupo 1173868" transform="translate(333 1968.175)">
      <g id="Grupo_1172010" data-name="Grupo 1172010">
        <g id="Grupo_1171046" data-name="Grupo 1171046">
          <g id="Grupo_1148525" data-name="Grupo 1148525">
            <g transform="matrix(1, 0, 0, 1, -9, -6)" filter="url(#Trazado_982547)">
              <g id="Trazado_982547-2" data-name="Trazado 982547" transform="translate(9 6)" fill="#f4fdfe">
                <path d="M 47.5 93.5 C 41.28937149047852 93.5 35.26533508300781 92.28397369384766 29.59518623352051 89.88570404052734 C 24.11771965026855 87.56893157958984 19.19813346862793 84.25196075439453 14.97309303283691 80.02691650390625 C 10.74804019927979 75.80186462402344 7.431066513061523 70.88229370117188 5.114293098449707 65.40481567382812 C 2.716026782989502 59.73468017578125 1.5 53.71062850952148 1.5 47.5 C 1.5 41.28937149047852 2.716026782989502 35.26533508300781 5.114293098449707 29.59518623352051 C 7.431066513061523 24.11771965026855 10.74804019927979 19.19813346862793 14.97309303283691 14.97309303283691 C 19.19813346862793 10.74804019927979 24.11771965026855 7.431066513061523 29.59518623352051 5.114293098449707 C 35.26533508300781 2.716026782989502 41.28937149047852 1.5 47.5 1.5 C 53.71062850952148 1.5 59.73468017578125 2.716026782989502 65.40481567382812 5.114293098449707 C 70.88229370117188 7.431066513061523 75.80186462402344 10.74804019927979 80.02691650390625 14.97309303283691 C 84.25196075439453 19.19813346862793 87.56893157958984 24.11771965026855 89.88570404052734 29.59518623352051 C 92.28397369384766 35.26533508300781 93.5 41.28937149047852 93.5 47.5 C 93.5 53.71062850952148 92.28397369384766 59.73468017578125 89.88570404052734 65.40481567382812 C 87.56893157958984 70.88229370117188 84.25196075439453 75.80186462402344 80.02691650390625 80.02691650390625 C 75.80186462402344 84.25196075439453 70.88229370117188 87.56893157958984 65.40481567382812 89.88570404052734 C 59.73468017578125 92.28397369384766 53.71062850952148 93.5 47.5 93.5 Z" stroke="none"/>
                <path d="M 47.5 3 C 41.49121475219727 3 35.66376876831055 4.176155090332031 30.17950439453125 6.495796203613281 C 24.88084411621094 8.736953735351562 20.12152099609375 11.94598388671875 16.03375244140625 16.03375244140625 C 11.94598388671875 20.12152099609375 8.736953735351562 24.88084411621094 6.495796203613281 30.17950439453125 C 4.176155090332031 35.66376876831055 3 41.49121475219727 3 47.5 C 3 53.50878524780273 4.176155090332031 59.33623123168945 6.495796203613281 64.82049560546875 C 8.736953735351562 70.11915588378906 11.94598388671875 74.87847900390625 16.03375244140625 78.96624755859375 C 20.12152099609375 83.05401611328125 24.88084411621094 86.26304626464844 30.17950439453125 88.50419616699219 C 35.66376876831055 90.82384490966797 41.49121475219727 92 47.5 92 C 53.50878524780273 92 59.33623123168945 90.82384490966797 64.82049560546875 88.50419616699219 C 70.11915588378906 86.26304626464844 74.87847900390625 83.05401611328125 78.96624755859375 78.96624755859375 C 83.05401611328125 74.87847900390625 86.26304626464844 70.11915588378906 88.50419616699219 64.82049560546875 C 90.82384490966797 59.33623123168945 92 53.50878524780273 92 47.5 C 92 41.49121475219727 90.82384490966797 35.66376876831055 88.50419616699219 30.17950439453125 C 86.26304626464844 24.88084411621094 83.05401611328125 20.12152099609375 78.96624755859375 16.03375244140625 C 74.87847900390625 11.94598388671875 70.11915588378906 8.736953735351562 64.82049560546875 6.495796203613281 C 59.33623123168945 4.176155090332031 53.50878524780273 3 47.5 3 M 47.5 0 C 73.7335205078125 0 95 21.2664794921875 95 47.5 C 95 73.7335205078125 73.7335205078125 95 47.5 95 C 21.2664794921875 95 0 73.7335205078125 0 47.5 C 0 21.2664794921875 21.2664794921875 0 47.5 0 Z" stroke="none" fill="#56838a"/>
              </g>
            </g>
          </g>
        </g>
      </g>
    </g>
    <g id="communications_6541108" transform="translate(341.459 1976.742)">
      <path id="Trazado_1031897" data-name="Trazado 1031897" d="M45.732,273.114a5.822,5.822,0,0,1-5.83,5.8H13.33a5.822,5.822,0,0,1-5.83-5.8c.02-1.856,1.484-3.683,2.868-4.717v-1.912a7.208,7.208,0,0,1-.956-3.823,5.677,5.677,0,0,1,2.936-5.367,1.883,1.883,0,0,0,.97-1.343,5.736,5.736,0,0,1,5.651-4.759,5.8,5.8,0,0,1,1.178.121l.027.005a1.89,1.89,0,0,0,1.866-.715,5.734,5.734,0,0,1,9.151,0,1.879,1.879,0,0,0,1.879.715,5.836,5.836,0,0,1,1.73-.1,5.542,5.542,0,0,1,5.155,4.678,1.91,1.91,0,0,0,.971,1.423,5.679,5.679,0,0,1,2.894,5.344,7.2,7.2,0,0,1-.956,3.823V268.4C44.248,269.432,45.712,271.258,45.732,273.114Z" transform="translate(0 -210.355)" fill="#ffb25a"/>
      <path id="Trazado_1031898" data-name="Trazado 1031898" d="M23.3,298.633H13.33a5.822,5.822,0,0,1-5.83-5.8c.02-1.856,1.484-3.683,2.868-4.717v-1.912a7.208,7.208,0,0,1-.956-3.823,5.677,5.677,0,0,1,2.936-5.367,1.883,1.883,0,0,0,.97-1.343,5.736,5.736,0,0,1,5.651-4.759,5.805,5.805,0,0,1,1.178.121l.027.005C18.868,273.662,12.485,287.994,23.3,298.633Z" transform="translate(0 -230.077)" fill="#ff9c20"/>
      <circle id="Elipse_12358" data-name="Elipse 12358" cx="3.823" cy="3.823" r="3.823" transform="translate(37.129 53.263)" fill="#ffcbbe"/>
      <circle id="Elipse_12359" data-name="Elipse 12359" cx="3.823" cy="3.823" r="3.823" transform="translate(8.456 53.263)" fill="#ffbbae"/>
      <path id="Trazado_1031899" data-name="Trazado 1031899" d="M88.759,344.983a13.382,13.382,0,0,1-13.593,13.38q-.5-.008-.985-.052l-10.829-8.025,2.642-11.1a4.789,4.789,0,0,0,4.275-1.455,1.881,1.881,0,0,1,2.422-.264,4.782,4.782,0,0,0,5.375,0,1.879,1.879,0,0,1,2.421.264,4.787,4.787,0,0,0,4.994,1.278,1.909,1.909,0,0,1,2.376,1.135A13.349,13.349,0,0,1,88.759,344.983Z" transform="translate(-48.762 -287.897)" fill="#ffddcf"/>
      <path id="Trazado_1031900" data-name="Trazado 1031900" d="M64.869,370.486A13.39,13.39,0,0,1,53.594,352.3a1.9,1.9,0,0,1,2.37-1.118,4.779,4.779,0,0,0,.717.176A20.672,20.672,0,0,0,64.869,370.486Z" transform="translate(-39.45 -300.073)" fill="#ffcbbe"/>
      <circle id="Elipse_12360" data-name="Elipse 12360" cx="3.823" cy="3.823" r="3.823" transform="translate(62.936 22.678)" fill="#ffcbbe"/>
      <circle id="Elipse_12361" data-name="Elipse 12361" cx="3.823" cy="3.823" r="3.823" transform="translate(32.35 22.678)" fill="#ffbbae"/>
      <path id="Trazado_1031901" data-name="Trazado 1031901" d="M270.459,51.842a14.337,14.337,0,0,1-14.337,14.337c-.475,0-.946-.023-1.409-.069l-9.571-5.719-3.229-10.464a14.337,14.337,0,0,1,28.547,1.914Z" transform="translate(-204.656 -26.297)" fill="#ffddcf"/>
      <path id="Trazado_1031902" data-name="Trazado 1031902" d="M253.84,80.716a14.338,14.338,0,0,1-6.1-26.481C245.553,60.321,242.778,73.046,253.84,80.716Z" transform="translate(-203.783 -40.903)" fill="#ffcbbe"/>
      <path id="Trazado_1031903" data-name="Trazado 1031903" d="M243.3,23.633a3.82,3.82,0,0,1-3.332-1.951.929.929,0,0,0-1.163-.4,5.738,5.738,0,0,1-7.067-2.275.952.952,0,0,0-1.093-.409,5.749,5.749,0,0,1-3.363,0,.954.954,0,0,0-1.094.409,5.733,5.733,0,0,1-6.607,2.441c-.156-.048-.308-.1-.458-.166a.929.929,0,0,0-1.163.4A3.823,3.823,0,0,1,210.8,19.7a3.753,3.753,0,0,1,1.191-2.639,3.945,3.945,0,0,1,2.71-1.078.942.942,0,0,0,.933-.81,5.734,5.734,0,0,1,7.011-4.767c.118.027.234.058.348.094a.954.954,0,0,0,1.094-.409,5.733,5.733,0,0,1,9.743,0,.952.952,0,0,0,1.093.409,5.738,5.738,0,0,1,7.36,4.673.941.941,0,0,0,.933.81,3.875,3.875,0,0,1,3.9,3.717A3.823,3.823,0,0,1,243.3,23.633Z" transform="translate(-177.493 0)" fill="#7888af"/>
      <path id="Trazado_1031904" data-name="Trazado 1031904" d="M222.647,30.132a35.308,35.308,0,0,0-3.069,11.043c-.156-.048-.308-.1-.458-.166a.929.929,0,0,0-1.163.4,3.823,3.823,0,0,1-7.154-1.979,3.753,3.753,0,0,1,1.191-2.639,3.945,3.945,0,0,1,2.71-1.078.942.942,0,0,0,.933-.81,5.734,5.734,0,0,1,7.011-4.767Z" transform="translate(-177.493 -19.722)" fill="#5972a5"/>
      <path id="Trazado_1031905" data-name="Trazado 1031905" d="M359.82,312.373v10.542a3.808,3.808,0,0,1-3.808,3.808c-4.8,0-4.455-.008-4.586.019a.949.949,0,0,0-.486.259l-4.788,4.768a.952.952,0,0,1-1.624-.674v-3.42a.952.952,0,0,0-.952-.952H342.6a3.808,3.808,0,0,1-3.808-3.808V312.373a3.808,3.808,0,0,1,3.808-3.808h13.411A3.808,3.808,0,0,1,359.82,312.373Z" transform="translate(-289.238 -262.948)" fill="#b4e9f1"/>
      <path id="Trazado_1031906" data-name="Trazado 1031906" d="M351.425,326.743a.949.949,0,0,0-.486.259l-4.788,4.768a.952.952,0,0,1-1.624-.674v-3.42a.952.952,0,0,0-.952-.952H342.6a3.808,3.808,0,0,1-3.808-3.808V312.373a3.808,3.808,0,0,1,3.808-3.808h3.815C345.676,310.528,343.142,319.068,351.425,326.743Z" transform="translate(-289.238 -262.948)" fill="#81d8e7"/>
      <path id="Trazado_1031907" data-name="Trazado 1031907" d="M28.53,26.253V36.8a3.808,3.808,0,0,1-3.808,3.808h-.975a.952.952,0,0,0-.952.952v3.419a.952.952,0,0,1-1.624.674l-4.788-4.768a.952.952,0,0,0-.672-.277h-4.4A3.808,3.808,0,0,1,7.5,36.8V26.253a3.808,3.808,0,0,1,3.808-3.808H24.722A3.808,3.808,0,0,1,28.53,26.253Z" transform="translate(-0.002 -13.148)" fill="#ace094"/>
      <path id="Trazado_1031908" data-name="Trazado 1031908" d="M22.795,42.777v2.2a.952.952,0,0,1-1.624.674l-4.788-4.768a.952.952,0,0,0-.672-.277h-4.4A3.808,3.808,0,0,1,7.5,36.8V26.253a3.808,3.808,0,0,1,3.808-3.808h3.815C14.316,24.594,11.356,34.626,22.795,42.777Z" transform="translate(-0.002 -13.148)" fill="#8dd470"/>
      <path id="Trazado_1031910" data-name="Trazado 1031910" d="M465.265,130.332a3.824,3.824,0,1,1-3.02,7.026" transform="translate(-397.02 -107.34)" fill="none" stroke="#000" stroke-linecap="round" stroke-linejoin="round" stroke-miterlimit="10" stroke-width="1.3"/>
      <path id="Trazado_1031911" data-name="Trazado 1031911" d="M205.527,130.584a3.824,3.824,0,0,0,3.007,7.031" transform="translate(-170.913 -107.56)" fill="none" stroke="#000" stroke-linecap="round" stroke-linejoin="round" stroke-miterlimit="10" stroke-width="1.3"/>
      <path id="Trazado_1031912" data-name="Trazado 1031912" d="M243.741,147.448A14.3,14.3,0,0,1,241,137.189" transform="translate(-203.774 -113.327)" fill="none" stroke="#000" stroke-linecap="round" stroke-linejoin="round" stroke-miterlimit="10" stroke-width="1.3"/>
      <path id="Trazado_1031913" data-name="Trazado 1031913" d="M310.824,137.19a14.337,14.337,0,0,1-22.562,13.368" transform="translate(-245.122 -113.327)" fill="none" stroke="#000" stroke-linecap="round" stroke-linejoin="round" stroke-miterlimit="10" stroke-width="1.3"/>
      <path id="Trazado_1031914" data-name="Trazado 1031914" d="M243.215,16.107a.942.942,0,0,1-.933-.811,5.739,5.739,0,0,0-7.359-4.672.954.954,0,0,1-1.094-.409,5.735,5.735,0,0,0-9.742,0,.954.954,0,0,1-1.094.409,5.738,5.738,0,0,0-7.359,4.672.942.942,0,0,1-.933.811,3.875,3.875,0,0,0-3.9,3.716,3.823,3.823,0,0,0,7.155,1.979.929.929,0,0,1,1.162-.4,5.735,5.735,0,0,0,7.066-2.274.954.954,0,0,1,1.094-.409,5.744,5.744,0,0,0,3.362,0,.954.954,0,0,1,1.094.409,5.735,5.735,0,0,0,7.066,2.274.929.929,0,0,1,1.162.4,3.823,3.823,0,0,0,7.155-1.979A3.876,3.876,0,0,0,243.215,16.107Z" transform="translate(-177.491 -0.106)" fill="none" stroke="#000" stroke-linecap="round" stroke-linejoin="round" stroke-miterlimit="10" stroke-width="1.3"/>
      <path id="Trazado_1031915" data-name="Trazado 1031915" d="M356.015,308.672H342.6a3.808,3.808,0,0,0-3.808,3.808v10.544a3.808,3.808,0,0,0,3.808,3.808h.974a.952.952,0,0,1,.952.952V331.2a.952.952,0,0,0,1.624.675l4.788-4.768a.952.952,0,0,1,.672-.277h4.4a3.808,3.808,0,0,0,3.808-3.808V312.48A3.808,3.808,0,0,0,356.015,308.672Z" transform="translate(-289.241 -263.041)" fill="none" stroke="#000" stroke-linecap="round" stroke-linejoin="round" stroke-miterlimit="10" stroke-width="1.3"/>
      <path id="Trazado_1031916" data-name="Trazado 1031916" d="M11.31,22.555H24.721a3.808,3.808,0,0,1,3.808,3.808V36.907a3.808,3.808,0,0,1-3.808,3.808h-.974a.952.952,0,0,0-.952.952v3.419a.952.952,0,0,1-1.624.675l-4.788-4.768a.952.952,0,0,0-.672-.277h-4.4A3.808,3.808,0,0,1,7.5,36.907V26.363A3.808,3.808,0,0,1,11.31,22.555Z" transform="translate(-0.002 -13.244)" fill="none" stroke="#000" stroke-linecap="round" stroke-linejoin="round" stroke-miterlimit="10" stroke-width="1.3"/>
      <path id="Trazado_1031917" data-name="Trazado 1031917" d="M9.049,416.231A5.677,5.677,0,0,0,7.5,419.72a5.822,5.822,0,0,0,5.83,5.8h1.338" transform="translate(0 -356.947)" fill="none" stroke="#000" stroke-linecap="round" stroke-linejoin="round" stroke-miterlimit="10" stroke-width="1.3"/>
      <path id="Trazado_1031918" data-name="Trazado 1031918" d="M224.854,416.532a5.646,5.646,0,0,1,1.516,3.451,5.822,5.822,0,0,1-5.83,5.8H214.4" transform="translate(-180.638 -357.209)" fill="none" stroke="#000" stroke-linecap="round" stroke-linejoin="round" stroke-miterlimit="10" stroke-width="1.3"/>
      <path id="Trazado_1031919" data-name="Trazado 1031919" d="M22.778,264.765a9.523,9.523,0,0,1-.216-1.992,5.677,5.677,0,0,1,2.936-5.367,1.883,1.883,0,0,0,.97-1.343,5.739,5.739,0,0,1,6.829-4.638,1.89,1.89,0,0,0,1.893-.71,5.734,5.734,0,0,1,9.151,0,1.879,1.879,0,0,0,1.879.715,5.685,5.685,0,0,1,6.885,4.578,1.91,1.91,0,0,0,.971,1.423,5.365,5.365,0,0,1,2.5,2.921" transform="translate(-13.15 -210.452)" fill="none" stroke="#000" stroke-linecap="round" stroke-linejoin="round" stroke-miterlimit="10" stroke-width="1.3"/>
      <path id="Trazado_1031920" data-name="Trazado 1031920" d="M260.6,369.122a3.824,3.824,0,1,1-.061,7.191" transform="translate(-220.923 -315.628)" fill="none" stroke="#000" stroke-linecap="round" stroke-linejoin="round" stroke-miterlimit="10" stroke-width="1.3"/>
      <path id="Trazado_1031921" data-name="Trazado 1031921" d="M20.206,369.15a3.823,3.823,0,1,0,.015,7.145" transform="translate(-6.573 -315.626)" fill="none" stroke="#000" stroke-linecap="round" stroke-linejoin="round" stroke-miterlimit="10" stroke-width="1.3"/>
      <path id="Trazado_1031922" data-name="Trazado 1031922" d="M79.443,345.094a13.381,13.381,0,1,1-25.853-4.857,1.9,1.9,0,0,1,2.37-1.118,4.779,4.779,0,0,0,4.993-1.278,1.881,1.881,0,0,1,2.422-.265,4.779,4.779,0,0,0,5.374,0,1.879,1.879,0,0,1,2.421.264,4.78,4.78,0,0,0,4.994,1.278,1.909,1.909,0,0,1,2.376,1.135A13.345,13.345,0,0,1,79.443,345.094Z" transform="translate(-39.446 -287.993)" fill="none" stroke="#000" stroke-linecap="round" stroke-linejoin="round" stroke-miterlimit="10" stroke-width="1.3"/>
      <path id="Trazado_1031926" data-name="Trazado 1031926" d="M143.49,415.806a2.456,2.456,0,0,1,3.707,0" transform="translate(-118.728 -355.838)" fill="none" stroke="#000" stroke-linecap="round" stroke-linejoin="round" stroke-miterlimit="10" stroke-width="1.3"/>
      <path id="Trazado_1031927" data-name="Trazado 1031927" d="M143.49,415.806a2.456,2.456,0,0,1,3.707,0" transform="translate(-93.433 -384.619)" fill="none" stroke="#000" stroke-linecap="round" stroke-linejoin="round" stroke-miterlimit="10" stroke-width="1.3"/>
    </g>
  </g>
</svg>
