<svg xmlns="http://www.w3.org/2000/svg" xmlns:xlink="http://www.w3.org/1999/xlink" width="113" height="113" viewBox="0 0 113 113">
  <defs>
    <filter id="Trazado_982547" x="0" y="0" width="113" height="113" filterUnits="userSpaceOnUse">
      <feOffset dy="3" input="SourceAlpha"/>
      <feGaussianBlur stdDeviation="3" result="blur"/>
      <feFlood flood-opacity="0.161"/>
      <feComposite operator="in" in2="blur"/>
      <feComposite in="SourceGraphic"/>
    </filter>
  </defs>
  <g id="Grupo_1174748" data-name="Grupo 1174748" transform="translate(-585.5 -1604.144)">
    <g id="Grupo_1173802" data-name="Grupo 1173802" transform="translate(0 -1438.5)">
      <g id="Grupo_1172007" data-name="Grupo 1172007" transform="translate(0 1744.5)">
        <g id="Grupo_1171047" data-name="Grupo 1171047" transform="translate(594.5 1304.145)">
          <g id="Grupo_1148525" data-name="Grupo 1148525" transform="translate(0)">
            <g transform="matrix(1, 0, 0, 1, -9, -6)" filter="url(#Trazado_982547)">
              <g id="Trazado_982547-2" data-name="Trazado 982547" transform="translate(9 6)" fill="#f4fdfe">
                <path d="M 47.5 93.5 C 41.28937149047852 93.5 35.26533508300781 92.28397369384766 29.59518623352051 89.88570404052734 C 24.11771965026855 87.56893157958984 19.19813346862793 84.25196075439453 14.97309303283691 80.02691650390625 C 10.74804019927979 75.80186462402344 7.431066513061523 70.88229370117188 5.114293098449707 65.40481567382812 C 2.716026782989502 59.73468017578125 1.5 53.71062850952148 1.5 47.5 C 1.5 41.28937149047852 2.716026782989502 35.26533508300781 5.114293098449707 29.59518623352051 C 7.431066513061523 24.11771965026855 10.74804019927979 19.19813346862793 14.97309303283691 14.97309303283691 C 19.19813346862793 10.74804019927979 24.11771965026855 7.431066513061523 29.59518623352051 5.114293098449707 C 35.26533508300781 2.716026782989502 41.28937149047852 1.5 47.5 1.5 C 53.71062850952148 1.5 59.73468017578125 2.716026782989502 65.40481567382812 5.114293098449707 C 70.88229370117188 7.431066513061523 75.80186462402344 10.74804019927979 80.02691650390625 14.97309303283691 C 84.25196075439453 19.19813346862793 87.56893157958984 24.11771965026855 89.88570404052734 29.59518623352051 C 92.28397369384766 35.26533508300781 93.5 41.28937149047852 93.5 47.5 C 93.5 53.71062850952148 92.28397369384766 59.73468017578125 89.88570404052734 65.40481567382812 C 87.56893157958984 70.88229370117188 84.25196075439453 75.80186462402344 80.02691650390625 80.02691650390625 C 75.80186462402344 84.25196075439453 70.88229370117188 87.56893157958984 65.40481567382812 89.88570404052734 C 59.73468017578125 92.28397369384766 53.71062850952148 93.5 47.5 93.5 Z" stroke="none"/>
                <path d="M 47.5 3 C 41.49121475219727 3 35.66376876831055 4.176155090332031 30.17950439453125 6.495796203613281 C 24.88084411621094 8.736953735351562 20.12152099609375 11.94598388671875 16.03375244140625 16.03375244140625 C 11.94598388671875 20.12152099609375 8.736953735351562 24.88084411621094 6.495796203613281 30.17950439453125 C 4.176155090332031 35.66376876831055 3 41.49121475219727 3 47.5 C 3 53.50878524780273 4.176155090332031 59.33623123168945 6.495796203613281 64.82049560546875 C 8.736953735351562 70.11915588378906 11.94598388671875 74.87847900390625 16.03375244140625 78.96624755859375 C 20.12152099609375 83.05401611328125 24.88084411621094 86.26304626464844 30.17950439453125 88.50419616699219 C 35.66376876831055 90.82384490966797 41.49121475219727 92 47.5 92 C 53.50878524780273 92 59.33623123168945 90.82384490966797 64.82049560546875 88.50419616699219 C 70.11915588378906 86.26304626464844 74.87847900390625 83.05401611328125 78.96624755859375 78.96624755859375 C 83.05401611328125 74.87847900390625 86.26304626464844 70.11915588378906 88.50419616699219 64.82049560546875 C 90.82384490966797 59.33623123168945 92 53.50878524780273 92 47.5 C 92 41.49121475219727 90.82384490966797 35.66376876831055 88.50419616699219 30.17950439453125 C 86.26304626464844 24.88084411621094 83.05401611328125 20.12152099609375 78.96624755859375 16.03375244140625 C 74.87847900390625 11.94598388671875 70.11915588378906 8.736953735351562 64.82049560546875 6.495796203613281 C 59.33623123168945 4.176155090332031 53.50878524780273 3 47.5 3 M 47.5 0 C 73.7335205078125 0 95 21.2664794921875 95 47.5 C 95 73.7335205078125 73.7335205078125 95 47.5 95 C 21.2664794921875 95 0 73.7335205078125 0 47.5 C 0 21.2664794921875 21.2664794921875 0 47.5 0 Z" stroke="none" fill="#56838a"/>
              </g>
            </g>
          </g>
        </g>
      </g>
    </g>
    <g id="maternity_4594377" transform="translate(558.036 1648.516)">
      <g id="Grupo_1174751" data-name="Grupo 1174751" transform="translate(59.566 -28.427)">
        <g id="Grupo_1174750" data-name="Grupo 1174750" transform="translate(0 0)">
          <g id="Grupo_1174749" data-name="Grupo 1174749">
            <path id="Trazado_1031866" data-name="Trazado 1031866" d="M104.459,175.794H80.95a10.362,10.362,0,0,0-8.677,4.666,24.4,24.4,0,1,0,40.854-.013A10.354,10.354,0,0,0,104.459,175.794Z" transform="translate(-68.306 -149.247)" fill="#ff7d97"/>
            <circle id="Elipse_12354" data-name="Elipse 12354" cx="5.399" cy="5.399" r="5.399" transform="translate(17.435 59.518) rotate(-13.3)" fill="#ffdcd5"/>
            <path id="Trazado_1031867" data-name="Trazado 1031867" d="M188.16,259.9a11.65,11.65,0,0,1-19.71-5.651h0l11.455-11.455a8.97,8.97,0,0,1,12.685,12.685l-4.426,4.426" transform="translate(-155.432 -205.252)" fill="#80b6ff"/>
            <circle id="Elipse_12355" data-name="Elipse 12355" cx="3.397" cy="3.397" r="3.397" transform="matrix(0.987, -0.16, 0.16, 0.987, 26.078, 41.463)" fill="#ffdcd5"/>
            <circle id="Elipse_12356" data-name="Elipse 12356" cx="12.071" cy="12.071" r="12.071" transform="translate(7.326 17.068) rotate(-45)" fill="#ffdcd5"/>
            <path id="Trazado_1031868" data-name="Trazado 1031868" d="M175.213,10A12.078,12.078,0,0,0,163.43,24.7a12.075,12.075,0,0,0,10.953-7.659,12.077,12.077,0,0,0,12.628,7.585A12.078,12.078,0,0,0,175.213,10Z" transform="translate(-150.814 -5.005)" fill="#ffcd69"/>
          </g>
        </g>
      </g>
      <g id="Grupo_1174752" data-name="Grupo 1174752" transform="translate(58.26 -24.731)">
        <path id="Trazado_1031869" data-name="Trazado 1031869" d="M267.425,285.544a4.7,4.7,0,1,0-4.7-4.7A4.7,4.7,0,0,0,267.425,285.544Zm0-6.793a2.1,2.1,0,1,1-2.1,2.1A2.1,2.1,0,0,1,267.425,278.75Z" transform="translate(-236.149 -240.275)"/>
        <path id="Trazado_1031870" data-name="Trazado 1031870" d="M109.658,26.793a11.884,11.884,0,0,0-10.942-5.241C105.5,12.945,99.2-.054,88.147,0,77.1-.054,70.8,12.947,77.579,21.552a11.892,11.892,0,0,0-10.95,5.254,25.5,25.5,0,0,0-3.508,8.189,1.3,1.3,0,1,0,2.532.591c1.392-5.463,4.269-11.437,10.741-11.434h3.854a13.441,13.441,0,0,0,15.8,0H99.9a9.02,9.02,0,0,1,7.581,4.066c8.89,13.268,1.163,31.712-14.1,35.132a6.727,6.727,0,0,0-1.038-8.284,12.887,12.887,0,0,0,5.053-3.2l4.427-4.416a10.2,10.2,0,0,0,3.008-7.262,10.318,10.318,0,0,0-10.27-10.27A10.2,10.2,0,0,0,87.3,32.929l-9.5,9.5V37.611a1.3,1.3,0,1,0-2.6,0c.052,1.959-.184,6.127.3,7.964a13,13,0,0,0,7.783,9.232A6.731,6.731,0,0,0,81.8,63.072,23.07,23.07,0,0,1,65.79,46.662a1.3,1.3,0,1,0-2.515.656,25.942,25.942,0,0,0,23.92,19.219,5.515,5.515,0,0,0,.607.016c20.471.347,33.1-22.674,21.856-39.76ZM88.148,2.6A10.8,10.8,0,0,1,98.833,14.7a10.719,10.719,0,0,1-10.3-6.835,1.3,1.3,0,0,0-2.42,0,10.742,10.742,0,0,1-8.657,6.749A10.8,10.8,0,0,1,88.148,2.6ZM78.066,17.158a13.329,13.329,0,0,0,9.253-5.974A13.4,13.4,0,0,0,98.173,17.3,10.792,10.792,0,0,1,78.066,17.158ZM78.208,45.7,89.142,34.767A7.67,7.67,0,0,1,99.99,45.613l-4.443,4.432A10.389,10.389,0,0,1,78.208,45.7Zm5.365,14.157a4.1,4.1,0,1,1,4.221,4.1q-.226,0-.452-.011A4.1,4.1,0,0,1,83.573,59.857Z" transform="translate(-62.458 -0.001)"/>
        <path id="Trazado_1031871" data-name="Trazado 1031871" d="M60.853,307.767a1.3,1.3,0,1,0-1.3,1.3A1.3,1.3,0,0,0,60.853,307.767Z" transform="translate(-58.26 -266.629)"/>
      </g>
    </g>
  </g>
</svg>
