<svg xmlns="http://www.w3.org/2000/svg" xmlns:xlink="http://www.w3.org/1999/xlink" width="113" height="113" viewBox="0 0 113 113">
  <defs>
    <filter id="Trazado_982547" x="0" y="0" width="113" height="113" filterUnits="userSpaceOnUse">
      <feOffset dy="3" input="SourceAlpha"/>
      <feGaussianBlur stdDeviation="3" result="blur"/>
      <feFlood flood-opacity="0.161"/>
      <feComposite operator="in" in2="blur"/>
      <feComposite in="SourceGraphic"/>
    </filter>
    <clipPath id="clip-path">
      <path id="path9126" d="M0-682.665H63.725v63.725H0Z" transform="translate(0 682.665)"/>
    </clipPath>
  </defs>
  <g id="Grupo_1174763" data-name="Grupo 1174763" transform="translate(-743.5 -1962.175)">
    <g id="Grupo_1173869" data-name="Grupo 1173869" transform="translate(752.5 1968.175)">
      <g id="Grupo_1172010" data-name="Grupo 1172010">
        <g id="Grupo_1171046" data-name="Grupo 1171046">
          <g id="Grupo_1148525" data-name="Grupo 1148525">
            <g transform="matrix(1, 0, 0, 1, -9, -6)" filter="url(#Trazado_982547)">
              <g id="Trazado_982547-2" data-name="Trazado 982547" transform="translate(9 6)" fill="#f4fdfe">
                <path d="M 47.5 93.5 C 41.28937149047852 93.5 35.26533508300781 92.28397369384766 29.59518623352051 89.88570404052734 C 24.11771965026855 87.56893157958984 19.19813346862793 84.25196075439453 14.97309303283691 80.02691650390625 C 10.74804019927979 75.80186462402344 7.431066513061523 70.88229370117188 5.114293098449707 65.40481567382812 C 2.716026782989502 59.73468017578125 1.5 53.71062850952148 1.5 47.5 C 1.5 41.28937149047852 2.716026782989502 35.26533508300781 5.114293098449707 29.59518623352051 C 7.431066513061523 24.11771965026855 10.74804019927979 19.19813346862793 14.97309303283691 14.97309303283691 C 19.19813346862793 10.74804019927979 24.11771965026855 7.431066513061523 29.59518623352051 5.114293098449707 C 35.26533508300781 2.716026782989502 41.28937149047852 1.5 47.5 1.5 C 53.71062850952148 1.5 59.73468017578125 2.716026782989502 65.40481567382812 5.114293098449707 C 70.88229370117188 7.431066513061523 75.80186462402344 10.74804019927979 80.02691650390625 14.97309303283691 C 84.25196075439453 19.19813346862793 87.56893157958984 24.11771965026855 89.88570404052734 29.59518623352051 C 92.28397369384766 35.26533508300781 93.5 41.28937149047852 93.5 47.5 C 93.5 53.71062850952148 92.28397369384766 59.73468017578125 89.88570404052734 65.40481567382812 C 87.56893157958984 70.88229370117188 84.25196075439453 75.80186462402344 80.02691650390625 80.02691650390625 C 75.80186462402344 84.25196075439453 70.88229370117188 87.56893157958984 65.40481567382812 89.88570404052734 C 59.73468017578125 92.28397369384766 53.71062850952148 93.5 47.5 93.5 Z" stroke="none"/>
                <path d="M 47.5 3 C 41.49121475219727 3 35.66376876831055 4.176155090332031 30.17950439453125 6.495796203613281 C 24.88084411621094 8.736953735351562 20.12152099609375 11.94598388671875 16.03375244140625 16.03375244140625 C 11.94598388671875 20.12152099609375 8.736953735351562 24.88084411621094 6.495796203613281 30.17950439453125 C 4.176155090332031 35.66376876831055 3 41.49121475219727 3 47.5 C 3 53.50878524780273 4.176155090332031 59.33623123168945 6.495796203613281 64.82049560546875 C 8.736953735351562 70.11915588378906 11.94598388671875 74.87847900390625 16.03375244140625 78.96624755859375 C 20.12152099609375 83.05401611328125 24.88084411621094 86.26304626464844 30.17950439453125 88.50419616699219 C 35.66376876831055 90.82384490966797 41.49121475219727 92 47.5 92 C 53.50878524780273 92 59.33623123168945 90.82384490966797 64.82049560546875 88.50419616699219 C 70.11915588378906 86.26304626464844 74.87847900390625 83.05401611328125 78.96624755859375 78.96624755859375 C 83.05401611328125 74.87847900390625 86.26304626464844 70.11915588378906 88.50419616699219 64.82049560546875 C 90.82384490966797 59.33623123168945 92 53.50878524780273 92 47.5 C 92 41.49121475219727 90.82384490966797 35.66376876831055 88.50419616699219 30.17950439453125 C 86.26304626464844 24.88084411621094 83.05401611328125 20.12152099609375 78.96624755859375 16.03375244140625 C 74.87847900390625 11.94598388671875 70.11915588378906 8.736953735351562 64.82049560546875 6.495796203613281 C 59.33623123168945 4.176155090332031 53.50878524780273 3 47.5 3 M 47.5 0 C 73.7335205078125 0 95 21.2664794921875 95 47.5 C 95 73.7335205078125 73.7335205078125 95 47.5 95 C 21.2664794921875 95 0 73.7335205078125 0 47.5 C 0 21.2664794921875 21.2664794921875 0 47.5 0 Z" stroke="none" fill="#56838a"/>
              </g>
            </g>
          </g>
        </g>
      </g>
    </g>
    <g id="g9120" transform="translate(768.137 2666.477)">
      <g id="g9122" transform="translate(0 -682.665)">
        <g id="g9124" clip-path="url(#clip-path)">
          <g id="g9130" transform="translate(0.933 1.929)">
            <path id="path9132" d="M-157.688-322.954c-4.9,2.131-8.681,1.544-11.292.358a4.243,4.243,0,0,1-2.184-5.521c.533-1.224.687-3.017-.4-5.543-2.543-5.894-4.339-16.041,1.789-20.616a9.6,9.6,0,0,1,10.1-.9,4.8,4.8,0,0,0,3.984,0,9.611,9.611,0,0,1,10.1.9c6.594,4.9,4.331,14.722,1.789,20.616-1.09,2.526-.935,4.319-.4,5.543A4.243,4.243,0,0,1-146.4-322.6c-2.611,1.186-6.395,1.773-11.292-.358" transform="translate(173.923 356.205)" fill="#ffd52b"/>
          </g>
          <g id="g9134" transform="translate(21.586 1.93)">
            <path id="path9136" d="M-74.523-18.733a9.222,9.222,0,0,0-7.52-1.74,9.556,9.556,0,0,1,3.786,1.74c6.594,4.9,4.331,14.722,1.789,20.616-1.09,2.526-.935,4.319-.4,5.543a4.243,4.243,0,0,1-2.184,5.521,11.835,11.835,0,0,1-3.141.93,12.219,12.219,0,0,0,6.875-.93,4.243,4.243,0,0,0,2.184-5.521c-.533-1.224-.687-3.017.4-5.543,2.543-5.894,4.806-15.713-1.789-20.616" transform="translate(82.196 20.661)" fill="#fcca00"/>
          </g>
          <g id="g9138" transform="translate(5.079 29.166)">
            <path id="path9140" d="M0-326.6v-22.437a6.378,6.378,0,0,1,6.378-6.379H9.312v-4.81h5.555v4.81H17.8a6.378,6.378,0,0,1,6.378,6.378v13.663L30.3-346.833a2.233,2.233,0,0,1,3.1-.874,2.233,2.233,0,0,1,.838,2.981l-6.589,12.294q-.055.1-.114.2a4.984,4.984,0,0,1-7.175,1.465l-.661-.469v4.638Z" transform="translate(0 360.222)" fill="#ffe5c9"/>
          </g>
          <g id="g9142" transform="translate(8.157 33.481)">
            <path id="path9144" d="M-13.657-284.688v-13.593a4.7,4.7,0,0,1-1.406-3.357,4.7,4.7,0,0,1,1.406-3.357V-314h1.975a5.727,5.727,0,0,0,5.631,4.335A5.727,5.727,0,0,0-.42-314H1.555v9.005a4.7,4.7,0,0,1,1.406,3.357,4.7,4.7,0,0,1-1.406,3.357v13.593Z" transform="translate(15.063 313.999)" fill="#a6d4ff"/>
          </g>
          <g id="g9146" transform="translate(21.041 33.481)">
            <path id="path9148" d="M-36.266-87.463v-9.005h-1.975A6.254,6.254,0,0,1-40-93.545v6.082a4.7,4.7,0,0,1,1.406,3.357A4.7,4.7,0,0,1-40-80.749v13.593h3.734V-80.749a4.7,4.7,0,0,0,1.406-3.357,4.7,4.7,0,0,0-1.406-3.357" transform="translate(40 96.468)" fill="#96ccff"/>
          </g>
          <g id="g9150" transform="translate(7.261 10.772)">
            <path id="path9152" d="M-192.469-42.371v5.977a9.894,9.894,0,0,1-9.894,9.894h-.029a9.894,9.894,0,0,1-9.894-9.894v-5.977a4.363,4.363,0,0,1,4.362-4.362h11.091a4.362,4.362,0,0,1,4.362,4.362" transform="translate(212.285 46.733)" fill="#ffe5c9"/>
          </g>
          <g id="g9154" transform="translate(15.302 10.772)">
            <path id="path9156" d="M-72,0H-75.73a4.362,4.362,0,0,1,4.362,4.362V10.34a9.9,9.9,0,0,1-8.041,9.718,9.94,9.94,0,0,0,1.853.176h.029a9.894,9.894,0,0,0,9.894-9.894V4.362A4.362,4.362,0,0,0-72,0" transform="translate(79.409)" fill="#ffdbb5"/>
          </g>
          <g id="g9158" transform="translate(36.482 0.933)">
            <path id="path9160" d="M-87.787-1.211a10.524,10.524,0,0,0-8.8,12.006,10.482,10.482,0,0,0,1.734,4.368l-1.978,5.861,4.909-3.013a10.482,10.482,0,0,0,7.341,1.579,10.524,10.524,0,0,0,8.8-12.006,10.524,10.524,0,0,0-12.006-8.8" transform="translate(96.825 1.336)" fill="#ff428e"/>
          </g>
          <g id="g9162" transform="translate(45.256 0.933)">
            <path id="path9164" d="M-119.182-86.635a10.524,10.524,0,0,0-12.006-8.8c-.085.013-.17.028-.255.043a10.528,10.528,0,0,1,8.527,8.753,10.524,10.524,0,0,1-8.537,11.963,10.494,10.494,0,0,0,3.476.043,10.524,10.524,0,0,0,8.8-12.006" transform="translate(131.453 95.554)" fill="#f52779"/>
          </g>
          <g id="g9166" transform="translate(42.746 50.651)">
            <path id="path9168" d="M-35.491-117.918l-3.654-5.414v-1.818a4.908,4.908,0,0,1,4.908-4.908h8.79a4.908,4.908,0,0,1,4.908,4.908v1.818l-3.654,5.414Z" transform="translate(39.145 130.058)" fill="#5d76cf"/>
          </g>
          <g id="g9170" transform="translate(52.71 50.651)">
            <path id="path9172" d="M-36.266,0H-40a4.908,4.908,0,0,1,4.908,4.908v7.233h.08l3.654-5.414V4.908A4.908,4.908,0,0,0-36.266,0" transform="translate(40 0)" fill="#4d69cf"/>
          </g>
          <g id="g9174" transform="translate(50.043 47.909)">
            <path id="path9176" d="M-19.516-42.933h-.006a2,2,0,0,1-2-2v-2.417h4.013v2.417a2,2,0,0,1-2,2" transform="translate(21.525 47.353)" fill="#ffdbb5"/>
          </g>
          <g id="g9178" transform="translate(43.567 27.952)">
            <path id="path9180" d="M-81.148-197.1h-.024a8.331,8.331,0,0,1-8.331-8.331v-3.631a8.331,8.331,0,0,1,8.331-8.331h.024a8.331,8.331,0,0,1,8.331,8.331v3.631a8.331,8.331,0,0,1-8.331,8.331" transform="translate(89.502 217.39)" fill="#ffe5c9"/>
          </g>
          <g id="g9182" transform="translate(50.043 27.952)">
            <path id="path9184" d="M-18.25,0h-.024a8.35,8.35,0,0,0-1.855.21,8.332,8.332,0,0,1,6.476,8.121v3.631a8.332,8.332,0,0,1-6.476,8.121,8.35,8.35,0,0,0,1.855.21h.024a8.331,8.331,0,0,0,8.331-8.331V8.331A8.331,8.331,0,0,0-18.25,0" transform="translate(20.129)" fill="#ffdbb5"/>
          </g>
          <path id="path9186" d="M457.927-68h3.654v5.414h-3.654Z" transform="translate(-415.18 125.377)" fill="#ffdbb5"/>
          <path id="path9188" d="M618.1-68h3.654v5.414H618.1Z" transform="translate(-560.401 125.377)" fill="#ffdbb5"/>
          <g id="g9190" transform="translate(38.845 23.926)">
            <path id="path9192" d="M0-59.051s0,5.715,5.393,6.6c4.916.806,7.59-3.055,10.455-3.124,4.5-.108,5.559,4.618,5.559,7.021,0,0,2.075-1.426,2.49-5.321.4-3.737-1.508-10.8-8.9-11.238-6.429-.378-9.458,5.638-11.781,6.675A2.979,2.979,0,0,1,0-59.051" transform="translate(0 65.131)" fill="#ffd52b"/>
          </g>
          <g id="g9194" transform="translate(43.69 33.479)">
            <path id="path9196" d="M-70.6-.018C-72.78.035-74.847,2.275-77.872,3c.176.043.359.08.548.111,4,.655,6.513-1.776,8.854-2.744A5.063,5.063,0,0,0-70.6-.018" transform="translate(77.872 0.02)" fill="#fcca00"/>
          </g>
          <g id="g9198" transform="translate(51.457 23.926)">
            <path id="path9200" d="M-23.176-.164A9.292,9.292,0,0,0-25.563,0c6.276,1.161,7.924,7.577,7.551,11.076-.019.175-.042.344-.067.509a9.281,9.281,0,0,1,1.311,4.812s2.075-1.426,2.49-5.321c.4-3.737-1.508-10.8-8.9-11.238" transform="translate(25.563 0.181)" fill="#fcca00"/>
          </g>
          <g id="g9202" transform="translate(0.95 1.936)">
            <path id="path9204" d="M0-106.071a13.419,13.419,0,0,1,1.591-6.118,9.687,9.687,0,0,1,5.688-4.469,10.08,10.08,0,0,1,6.74.6,5.081,5.081,0,0,0,4.191.09,12.293,12.293,0,0,1,2.935-.9,9.5,9.5,0,0,1,7.565,2.117,10.479,10.479,0,0,1,3.434,5.4,16.936,16.936,0,0,1,.324,6.493,29.661,29.661,0,0,1-1.542,6.3c-.768,2.154-2.008,4.29-1.539,6.658.212,1.068.748,1.938.625,3.073a4.318,4.318,0,0,1-1.625,2.908,6.255,6.255,0,0,1-1.774.9" transform="translate(0 116.992)" fill="none" stroke="#000" stroke-linecap="round" stroke-linejoin="round" stroke-miterlimit="10" stroke-width="1.4"/>
          </g>
          <g id="g9206" transform="translate(1.437 18.492)">
            <path id="path9208" d="M-52.85-169.467A4.97,4.97,0,0,1-56-172.01a4.566,4.566,0,0,1,.071-3.66c.918-2.543-.491-4.947-1.3-7.3a30.5,30.5,0,0,1-1.067-3.945" transform="translate(58.292 186.916)" fill="none" stroke="#000" stroke-linecap="round" stroke-linejoin="round" stroke-miterlimit="10" stroke-width="1.4"/>
          </g>
          <g id="g9210" transform="translate(24.774 34.262)">
            <path id="path9212" d="M0,0A6.381,6.381,0,0,1,4.484,6.092V19.755L10.6,8.292A2.233,2.233,0,1,1,14.539,10.4L7.95,22.692q-.055.1-.114.2A4.984,4.984,0,0,1,.661,24.361L0,23.892V28.53" fill="none" stroke="#000" stroke-linecap="round" stroke-linejoin="round" stroke-miterlimit="10" stroke-width="1.4"/>
          </g>
          <g id="g9214" transform="translate(19.946 30.784)">
            <path id="path9216" d="M0,0V3.192H2.383" fill="none" stroke="#000" stroke-linecap="round" stroke-linejoin="round" stroke-miterlimit="10" stroke-width="1.4"/>
          </g>
          <g id="g9218" transform="translate(11.948 30.784)">
            <path id="path9220" d="M0-31H2.443V-34.2" transform="translate(0 34.196)" fill="none" stroke="#000" stroke-linecap="round" stroke-linejoin="round" stroke-miterlimit="10" stroke-width="1.4"/>
          </g>
          <g id="g9222" transform="translate(5.079 34.262)">
            <path id="path9224" d="M0-277.1v-22.437a6.382,6.382,0,0,1,4.484-6.092" transform="translate(0 305.629)" fill="none" stroke="#000" stroke-linecap="round" stroke-linejoin="round" stroke-miterlimit="10" stroke-width="1.4"/>
          </g>
          <g id="g9226" transform="translate(8.157 33.481)">
            <path id="path9228" d="M-13.657-284.688v-13.593a4.7,4.7,0,0,1-1.406-3.357,4.7,4.7,0,0,1,1.406-3.357V-314h1.975a5.727,5.727,0,0,0,5.631,4.335A5.727,5.727,0,0,0-.42-314H1.555v9.005a4.7,4.7,0,0,1,1.406,3.357,4.7,4.7,0,0,1-1.406,3.357v13.593" transform="translate(15.063 313.999)" fill="none" stroke="#000" stroke-linecap="round" stroke-linejoin="round" stroke-miterlimit="10" stroke-width="1.4"/>
          </g>
          <g id="g9230" transform="translate(12.869 47.769)">
            <path id="path9232" d="M-83.527-27.054a4.712,4.712,0,0,1-4.3-2.785,4.712,4.712,0,0,1-4.3,2.785" transform="translate(92.126 29.84)" fill="none" stroke="#000" stroke-linecap="round" stroke-linejoin="round" stroke-miterlimit="10" stroke-width="1.4"/>
          </g>
          <g id="g9234" transform="translate(7.261 10.772)">
            <path id="path9236" d="M-192.469-42.371v5.977a9.894,9.894,0,0,1-9.894,9.894h-.029a9.894,9.894,0,0,1-9.894-9.894v-5.977a4.363,4.363,0,0,1,4.362-4.362h11.091A4.362,4.362,0,0,1-192.469-42.371Z" transform="translate(212.285 46.733)" fill="none" stroke="#000" stroke-linecap="round" stroke-linejoin="round" stroke-miterlimit="10" stroke-width="1.4"/>
          </g>
          <g id="g9238" transform="translate(15.537 22.715)">
            <path id="path9240" d="M0-24.176c0,1.375.73,2.489,1.632,2.489S3.263-22.8,3.263-24.176s-.73-2.489-1.632-2.489S0-25.551,0-24.176Z" transform="translate(0 26.665)" fill="none" stroke="#000" stroke-linecap="round" stroke-linejoin="round" stroke-miterlimit="10" stroke-width="1.4"/>
          </g>
          <g id="g9242" transform="translate(36.482 0.933)">
            <path id="path9244" d="M-87.787-1.211a10.524,10.524,0,0,0-8.8,12.006,10.482,10.482,0,0,0,1.734,4.368l-1.978,5.861,4.909-3.013a10.482,10.482,0,0,0,7.341,1.579,10.524,10.524,0,0,0,8.8-12.006A10.524,10.524,0,0,0-87.787-1.211Z" transform="translate(96.825 1.336)" fill="none" stroke="#000" stroke-linecap="round" stroke-linejoin="round" stroke-miterlimit="10" stroke-width="1.4"/>
          </g>
          <g id="g9246" transform="translate(47.203 6.637)">
            <path id="path9248" d="M0-64.423v-6.633" transform="translate(0 71.056)" fill="none" stroke="#000" stroke-linecap="round" stroke-linejoin="round" stroke-miterlimit="10" stroke-width="1.4"/>
          </g>
          <g id="g9250" transform="translate(46.302 15.572)">
            <path id="path9252" d="M-8.758-18.133a.934.934,0,0,0,0-1.867.934.934,0,0,0,0,1.867" transform="translate(9.66 20)"/>
          </g>
          <g id="g9254" transform="translate(54.056 50.651)">
            <path id="path9256" d="M0,0H2.388A4.908,4.908,0,0,1,7.3,4.908v7.233" fill="none" stroke="#000" stroke-linecap="round" stroke-linejoin="round" stroke-miterlimit="10" stroke-width="1.4"/>
          </g>
          <g id="g9258" transform="translate(42.746 50.651)">
            <path id="path9260" d="M0-117.918v-7.233a4.908,4.908,0,0,1,4.908-4.908H6.977" transform="translate(0 130.058)" fill="none" stroke="#000" stroke-linecap="round" stroke-linejoin="round" stroke-miterlimit="10" stroke-width="1.4"/>
          </g>
          <g id="g9262" transform="translate(50.043 48.282)">
            <path id="path9264" d="M-38.975,0V2.043a2,2,0,0,1-2,2h-.006a2,2,0,0,1-2-2V0" transform="translate(42.988)" fill="none" stroke="#000" stroke-linecap="round" stroke-linejoin="round" stroke-miterlimit="10" stroke-width="1.4"/>
          </g>
          <g id="g9266" transform="translate(43.567 36.657)">
            <path id="path9268" d="M-124.825-99.765a8.43,8.43,0,0,1-9.042-.016,8.509,8.509,0,0,1-3.81-7.281v-2.975" transform="translate(137.677 110.037)" fill="none" stroke="#000" stroke-linecap="round" stroke-linejoin="round" stroke-miterlimit="10" stroke-width="1.4"/>
          </g>
          <g id="g9270" transform="translate(59.771 39.914)">
            <path id="path9272" d="M-4.677,0a8.356,8.356,0,0,1-.482,2.8" transform="translate(5.159)" fill="none" stroke="#000" stroke-linecap="round" stroke-linejoin="round" stroke-miterlimit="10" stroke-width="1.4"/>
          </g>
          <g id="g9274" transform="translate(49.976 42.368)">
            <path id="path9276" d="M-37.562-7.764a2.739,2.739,0,0,0-3.867,0" transform="translate(41.429 8.563)" fill="none" stroke="#000" stroke-linecap="round" stroke-linejoin="round" stroke-miterlimit="10" stroke-width="1.4"/>
          </g>
          <g id="g9278" transform="translate(42.746 57.378)">
            <path id="path9280" d="M0-52.586V-58H3.654v5.414" transform="translate(0 58)" fill="none" stroke="#000" stroke-linecap="round" stroke-linejoin="round" stroke-miterlimit="10" stroke-width="1.4"/>
          </g>
          <g id="g9282" transform="translate(57.698 57.378)">
            <path id="path9284" d="M0-52.586V-58H3.654v5.414" transform="translate(0 58)" fill="none" stroke="#000" stroke-linecap="round" stroke-linejoin="round" stroke-miterlimit="10" stroke-width="1.4"/>
          </g>
          <g id="g9286" transform="translate(38.845 23.926)">
            <path id="path9288" d="M0-59.051s0,5.715,5.393,6.6c4.916.806,7.59-3.055,10.455-3.124,4.5-.108,5.559,4.618,5.559,7.021,0,0,2.075-1.426,2.49-5.321.4-3.737-1.508-10.8-8.9-11.238-6.429-.378-9.458,5.638-11.781,6.675A2.979,2.979,0,0,1,0-59.051Z" transform="translate(0 65.131)" fill="none" stroke="#000" stroke-linecap="round" stroke-linejoin="round" stroke-miterlimit="10" stroke-width="1.4"/>
          </g>
        </g>
      </g>
    </g>
  </g>
</svg>
