<svg xmlns="http://www.w3.org/2000/svg" xmlns:xlink="http://www.w3.org/1999/xlink" width="113" height="113" viewBox="0 0 113 113">
  <defs>
    <filter id="Trazado_982547" x="0" y="0" width="113" height="113" filterUnits="userSpaceOnUse">
      <feOffset dy="3" input="SourceAlpha"/>
      <feGaussianBlur stdDeviation="3" result="blur"/>
      <feFlood flood-opacity="0.161"/>
      <feComposite operator="in" in2="blur"/>
      <feComposite in="SourceGraphic"/>
    </filter>
    <clipPath id="clip-path">
      <path id="path14697" d="M0-682.665H60.052v60.052H0Z" transform="translate(0 682.665)"/>
    </clipPath>
  </defs>
  <g id="Grupo_1174753" data-name="Grupo 1174753" transform="translate(-901 -1604.144)">
    <g id="Grupo_1173803" data-name="Grupo 1173803" transform="translate(-0.5 -1438.5)">
      <g id="Grupo_1172008" data-name="Grupo 1172008" transform="translate(0 1744.5)">
        <g id="Grupo_1171048" data-name="Grupo 1171048" transform="translate(910.5 1304.145)">
          <g id="Grupo_1148525" data-name="Grupo 1148525" transform="translate(0)">
            <g transform="matrix(1, 0, 0, 1, -9, -6)" filter="url(#Trazado_982547)">
              <g id="Trazado_982547-2" data-name="Trazado 982547" transform="translate(9 6)" fill="#f4fdfe">
                <path d="M 47.5 93.5 C 41.28937149047852 93.5 35.26533508300781 92.28397369384766 29.59518623352051 89.88570404052734 C 24.11771965026855 87.56893157958984 19.19813346862793 84.25196075439453 14.97309303283691 80.02691650390625 C 10.74804019927979 75.80186462402344 7.431066513061523 70.88229370117188 5.114293098449707 65.40481567382812 C 2.716026782989502 59.73468017578125 1.5 53.71062850952148 1.5 47.5 C 1.5 41.28937149047852 2.716026782989502 35.26533508300781 5.114293098449707 29.59518623352051 C 7.431066513061523 24.11771965026855 10.74804019927979 19.19813346862793 14.97309303283691 14.97309303283691 C 19.19813346862793 10.74804019927979 24.11771965026855 7.431066513061523 29.59518623352051 5.114293098449707 C 35.26533508300781 2.716026782989502 41.28937149047852 1.5 47.5 1.5 C 53.71062850952148 1.5 59.73468017578125 2.716026782989502 65.40481567382812 5.114293098449707 C 70.88229370117188 7.431066513061523 75.80186462402344 10.74804019927979 80.02691650390625 14.97309303283691 C 84.25196075439453 19.19813346862793 87.56893157958984 24.11771965026855 89.88570404052734 29.59518623352051 C 92.28397369384766 35.26533508300781 93.5 41.28937149047852 93.5 47.5 C 93.5 53.71062850952148 92.28397369384766 59.73468017578125 89.88570404052734 65.40481567382812 C 87.56893157958984 70.88229370117188 84.25196075439453 75.80186462402344 80.02691650390625 80.02691650390625 C 75.80186462402344 84.25196075439453 70.88229370117188 87.56893157958984 65.40481567382812 89.88570404052734 C 59.73468017578125 92.28397369384766 53.71062850952148 93.5 47.5 93.5 Z" stroke="none"/>
                <path d="M 47.5 3 C 41.49121475219727 3 35.66376876831055 4.176155090332031 30.17950439453125 6.495796203613281 C 24.88084411621094 8.736953735351562 20.12152099609375 11.94598388671875 16.03375244140625 16.03375244140625 C 11.94598388671875 20.12152099609375 8.736953735351562 24.88084411621094 6.495796203613281 30.17950439453125 C 4.176155090332031 35.66376876831055 3 41.49121475219727 3 47.5 C 3 53.50878524780273 4.176155090332031 59.33623123168945 6.495796203613281 64.82049560546875 C 8.736953735351562 70.11915588378906 11.94598388671875 74.87847900390625 16.03375244140625 78.96624755859375 C 20.12152099609375 83.05401611328125 24.88084411621094 86.26304626464844 30.17950439453125 88.50419616699219 C 35.66376876831055 90.82384490966797 41.49121475219727 92 47.5 92 C 53.50878524780273 92 59.33623123168945 90.82384490966797 64.82049560546875 88.50419616699219 C 70.11915588378906 86.26304626464844 74.87847900390625 83.05401611328125 78.96624755859375 78.96624755859375 C 83.05401611328125 74.87847900390625 86.26304626464844 70.11915588378906 88.50419616699219 64.82049560546875 C 90.82384490966797 59.33623123168945 92 53.50878524780273 92 47.5 C 92 41.49121475219727 90.82384490966797 35.66376876831055 88.50419616699219 30.17950439453125 C 86.26304626464844 24.88084411621094 83.05401611328125 20.12152099609375 78.96624755859375 16.03375244140625 C 74.87847900390625 11.94598388671875 70.11915588378906 8.736953735351562 64.82049560546875 6.495796203613281 C 59.33623123168945 4.176155090332031 53.50878524780273 3 47.5 3 M 47.5 0 C 73.7335205078125 0 95 21.2664794921875 95 47.5 C 95 73.7335205078125 73.7335205078125 95 47.5 95 C 21.2664794921875 95 0 73.7335205078125 0 47.5 C 0 21.2664794921875 21.2664794921875 0 47.5 0 Z" stroke="none" fill="#56838a"/>
              </g>
            </g>
          </g>
        </g>
      </g>
    </g>
    <g id="g14691" transform="translate(927.474 2310.283)">
      <g id="g14693" transform="translate(0 -682.665)">
        <g id="g14695" transform="translate(0 0)" clip-path="url(#clip-path)">
          <g id="g14701" transform="translate(13.312 0.88)">
            <path id="path14703" d="M-310.092,0h-7.337A16.42,16.42,0,0,0-329.04,4.809l-3.825,3.825a8.769,8.769,0,0,0,.142,12.6A21.064,21.064,0,0,0-340,37.589a21.169,21.169,0,0,0,21.456,20.7,21.087,21.087,0,0,0,6-.971l4.925-6.125V.25A12.366,12.366,0,0,0-310.092,0" transform="translate(340)" fill="#4c5699"/>
          </g>
          <g id="g14705" transform="translate(26.102 1.129)">
            <path id="path14707" d="M-305.167-125.1A12.32,12.32,0,0,0-315-137.161a16.42,16.42,0,0,0-8.76,4.56l-3.825,3.825a8.769,8.769,0,0,0,.142,12.6,20.125,20.125,0,0,0-4.618,5.856A22.249,22.249,0,0,0-334-105.1a20.941,20.941,0,0,0,14.075,25.008,21.12,21.12,0,0,0,14.762-20.139v-18.38l-2.346-3.543Z" transform="translate(334.601 137.161)" fill="#676fb2"/>
          </g>
          <g id="g14709" transform="translate(35.453 23.868)">
            <path id="path14711" d="M-12.795-30.4a3.251,3.251,0,0,0,0,4.6,4.214,4.214,0,0,0,0,5.959l.036.036a4.213,4.213,0,0,0,5.959,0l5.231-5.231v-8.294H-9.863Z" transform="translate(14.029 33.333)" fill="#ffd4bd"/>
          </g>
          <g id="g14713" transform="translate(39.619 7.331)">
            <path id="path14715" d="M-104.228,0a5.864,5.864,0,0,0-5.864,5.864v6.485l-4.189,4.189,8.294,8.294,4.188-4.189a11.729,11.729,0,0,0,3.435-8.294V5.864A5.864,5.864,0,0,0-104.228,0" transform="translate(114.281)" fill="#4c5699"/>
          </g>
          <g id="g14717" transform="translate(4.516 19.538)">
            <path id="path14719" d="M-99.363-333.971a1.759,1.759,0,0,0-1.738.763,26.329,26.329,0,0,1-4.327-14.45,26.182,26.182,0,0,1,5.185-15.717,1.759,1.759,0,0,0-.364-2.461,1.759,1.759,0,0,0-2.461.364,29.676,29.676,0,0,0-5.878,17.814,29.852,29.852,0,0,0,4.973,16.486,1.759,1.759,0,0,0-1.14,1.379,1.759,1.759,0,0,0,1.462,2.013l3.226.511a1.754,1.754,0,0,0,.277.022,1.76,1.76,0,0,0,1.736-1.484l.511-3.226a1.759,1.759,0,0,0-1.462-2.013" transform="translate(108.946 366.183)" fill="#ff8e9e"/>
          </g>
          <g id="g14721" transform="translate(20.926 27.969)">
            <path id="path14723" d="M-129.749-121.078a7.736,7.736,0,0,0-3.411-1.993l.882-3.211.132-.131a3.716,3.716,0,0,0,1.088-2.627,3.723,3.723,0,0,0-3.493-3.716l-3.5,1.557-4.211,18.09,9.25,4.558,3.949-2.313a7.777,7.777,0,0,0-.684-10.215" transform="translate(142.264 132.756)" fill="#ffddcf"/>
          </g>
          <g id="g14725" transform="translate(18.456 27.963)">
            <path id="path14727" d="M-79.345-197.154a9.977,9.977,0,0,1-2.883-8.016,7.779,7.779,0,0,1,6.8-1.308,1.662,1.662,0,0,0,2.1-1.606,1.664,1.664,0,0,0-1.22-1.6,11.291,11.291,0,0,0-6.721.248v0a12.393,12.393,0,0,1,4.448-6.718,3.675,3.675,0,0,0-1.585.259,13.614,13.614,0,0,0-2.938,1.616,13.753,13.753,0,0,0-1.824,20.643l0,0q.076.081.155.16a7.776,7.776,0,0,0,11,0,7.851,7.851,0,0,0,.684-.782,9.977,9.977,0,0,1-8.016-2.883" transform="translate(86.998 216.17)" fill="#ffcbbe"/>
          </g>
          <g id="g14729" transform="translate(23.952 41.451)">
            <path id="path14731" d="M-49.054-6.048a2.689,2.689,0,0,0-3.733.411A2.689,2.689,0,0,0-53.2-1.905a2.689,2.689,0,0,0,3.733-.411,2.689,2.689,0,0,0,.418-3.732" transform="translate(53.785 6.631)" fill="#ff8e9e"/>
          </g>
          <g id="g14733" transform="translate(3.632 18.658)">
            <path id="path14735" d="M-114.675-362.54l-.511,3.227a.888.888,0,0,1-1.007.731l-3.226-.511a.88.88,0,0,1-.731-1.006.882.882,0,0,1,.571-.69.88.88,0,0,0,.433-1.313,28.974,28.974,0,0,1,.878-33.29.879.879,0,0,1,1.231-.182.879.879,0,0,1,.182,1.231,27.217,27.217,0,0,0-.887,31.174.88.88,0,0,0,1.467.006.878.878,0,0,1,1.443-.031.874.874,0,0,1,.157.655m-2.134-2.451a25.457,25.457,0,0,1,1.367-28.3,2.637,2.637,0,0,0-.546-3.692,2.638,2.638,0,0,0-3.692.546,30.732,30.732,0,0,0-1.413,34.561,2.638,2.638,0,0,0-.794,1.5,2.637,2.637,0,0,0,2.194,3.019l3.225.511a2.629,2.629,0,0,0,3.02-2.194l.511-3.226a2.64,2.64,0,0,0-3.872-2.726" transform="translate(125.736 397.507)"/>
          </g>
          <g id="g14737" transform="translate(17.583 27.107)">
            <path id="path14739" d="M-55.318-236.287a12.649,12.649,0,0,1-3.576-8.834,12.794,12.794,0,0,1,8.044-11.984,2.847,2.847,0,0,1,3.88,2.635,2.879,2.879,0,0,1-.651,1.782,12.156,12.156,0,0,0-6.647.378l-.035.01a.882.882,0,0,0-.127,1.628.88.88,0,0,0,.686.042,10.4,10.4,0,0,1,6.194-.229.785.785,0,0,1-.413,1.515,8.676,8.676,0,0,0-7.574,1.457.879.879,0,0,0-.164,1.233.879.879,0,0,0,1.233.164,6.9,6.9,0,0,1,11.078,5.483,6.9,6.9,0,0,1-11.927,4.719m9.476-12.145a2.541,2.541,0,0,0,.624-1.669,2.55,2.55,0,0,0-.78-1.831,4.535,4.535,0,0,0,.787-2.537,4.6,4.6,0,0,0-6.29-4.27,14.545,14.545,0,0,0-9.152,13.618,14.4,14.4,0,0,0,4.083,10.07,8.664,8.664,0,0,0,14.938-5.955,8.634,8.634,0,0,0-4.21-7.426" transform="translate(60.653 259.078)"/>
          </g>
          <g id="g14741" transform="translate(28.01 41.835)">
            <path id="path14743" d="M-.062-28.115a.88.88,0,0,0,.937.818.88.88,0,0,0,.818-.937.779.779,0,0,1,.833-.831.88.88,0,0,0,.939-.816.88.88,0,0,0-.816-.939,2.539,2.539,0,0,0-2.71,2.705" transform="translate(0.068 30.826)"/>
          </g>
          <g id="g14745" transform="translate(12.433)">
            <path id="path14747" d="M-319.212,0h-7.337a17.187,17.187,0,0,0-12.233,5.067l-3.825,3.825a9.658,9.658,0,0,0-.5,13.179A21.989,21.989,0,0,0-350,38.06,21.725,21.725,0,0,0-345.1,51.873a.88.88,0,0,0,1.237.129.88.88,0,0,0,.129-1.237,19.981,19.981,0,0,1-4.512-12.7,20.232,20.232,0,0,1,6.733-15.068h2.472a.88.88,0,0,0,.88-.88.88.88,0,0,0-.88-.88h-2.446a7.888,7.888,0,0,1,.12-11.1l3.825-3.825a15.439,15.439,0,0,1,10.989-4.552h7.337A11.453,11.453,0,0,1-307.776,13.2v1.188a.88.88,0,0,0,.88.88.88.88,0,0,0,.88-.88V13.2A13.216,13.216,0,0,0-319.212,0" transform="translate(350)"/>
          </g>
          <g id="g14749" transform="translate(19.572 9.97)">
            <path id="path14751" d="M-233.146-277.873a3.33,3.33,0,0,1-4.751-.036,3.337,3.337,0,0,1,0-4.715l.82-.82a.88.88,0,0,0,0-1.244.88.88,0,0,0-1.244,0l-.077.077a2.373,2.373,0,0,1,.5-2.61l2.31-2.31,7.05,7.049Zm13.477-19.749a.88.88,0,0,0-.88.88v1.778a10.778,10.778,0,0,1-3.178,7.672l-3.566,3.567-7.049-7.05,3.145-3.145,1.464.628a.88.88,0,0,0,1.155-.462.88.88,0,0,0-.462-1.155l-1.479-.634v-8.251a.88.88,0,0,0-.88-.88.88.88,0,0,0-.88.88v8.466l-1.918,1.918h-2.492a.88.88,0,0,0-.88.88.88.88,0,0,0,.88.88h.732l-.253.253-2.932,2.932a4.138,4.138,0,0,0-.52,5.206,5.1,5.1,0,0,0,.557,6.63,5.09,5.09,0,0,0,7.2,0l9.419-9.419a12.693,12.693,0,0,0,1.934-2.482v11.947a20.188,20.188,0,0,1-19.9,20.23l-.329,0a20.2,20.2,0,0,1-13.393-5.095.88.88,0,0,0-1.242.076.88.88,0,0,0,.076,1.242,21.959,21.959,0,0,0,14.559,5.537l.358,0a22,22,0,0,0,21.63-21.989v-20.159a.88.88,0,0,0-.88-.88" transform="translate(255.634 304.674)"/>
          </g>
        </g>
      </g>
    </g>
  </g>
</svg>
