<svg xmlns="http://www.w3.org/2000/svg" xmlns:xlink="http://www.w3.org/1999/xlink" width="113" height="113" viewBox="0 0 113 113">
  <defs>
    <filter id="Trazado_982547" x="0" y="0" width="113" height="113" filterUnits="userSpaceOnUse">
      <feOffset dy="3" input="SourceAlpha"/>
      <feGaussianBlur stdDeviation="3" result="blur"/>
      <feFlood flood-opacity="0.161"/>
      <feComposite operator="in" in2="blur"/>
      <feComposite in="SourceGraphic"/>
    </filter>
  </defs>
  <g id="Grupo_1174762" data-name="Grupo 1174762" transform="translate(-1217 -1604.144)">
    <g id="Grupo_1173800" data-name="Grupo 1173800" transform="translate(0.5 -1438.5)">
      <g id="Grupo_1172009" data-name="Grupo 1172009" transform="translate(0 1744.5)">
        <g id="Grupo_1171049" data-name="Grupo 1171049" transform="translate(1225.5 1304.145)">
          <g id="Grupo_1148525" data-name="Grupo 1148525" transform="translate(0)">
            <g transform="matrix(1, 0, 0, 1, -9, -6)" filter="url(#Trazado_982547)">
              <g id="Trazado_982547-2" data-name="Trazado 982547" transform="translate(9 6)" fill="#f4fdfe">
                <path d="M 47.5 93.5 C 41.28937149047852 93.5 35.26533508300781 92.28397369384766 29.59518623352051 89.88570404052734 C 24.11771965026855 87.56893157958984 19.19813346862793 84.25196075439453 14.97309303283691 80.02691650390625 C 10.74804019927979 75.80186462402344 7.431066513061523 70.88229370117188 5.114293098449707 65.40481567382812 C 2.716026782989502 59.73468017578125 1.5 53.71062850952148 1.5 47.5 C 1.5 41.28937149047852 2.716026782989502 35.26533508300781 5.114293098449707 29.59518623352051 C 7.431066513061523 24.11771965026855 10.74804019927979 19.19813346862793 14.97309303283691 14.97309303283691 C 19.19813346862793 10.74804019927979 24.11771965026855 7.431066513061523 29.59518623352051 5.114293098449707 C 35.26533508300781 2.716026782989502 41.28937149047852 1.5 47.5 1.5 C 53.71062850952148 1.5 59.73468017578125 2.716026782989502 65.40481567382812 5.114293098449707 C 70.88229370117188 7.431066513061523 75.80186462402344 10.74804019927979 80.02691650390625 14.97309303283691 C 84.25196075439453 19.19813346862793 87.56893157958984 24.11771965026855 89.88570404052734 29.59518623352051 C 92.28397369384766 35.26533508300781 93.5 41.28937149047852 93.5 47.5 C 93.5 53.71062850952148 92.28397369384766 59.73468017578125 89.88570404052734 65.40481567382812 C 87.56893157958984 70.88229370117188 84.25196075439453 75.80186462402344 80.02691650390625 80.02691650390625 C 75.80186462402344 84.25196075439453 70.88229370117188 87.56893157958984 65.40481567382812 89.88570404052734 C 59.73468017578125 92.28397369384766 53.71062850952148 93.5 47.5 93.5 Z" stroke="none"/>
                <path d="M 47.5 3 C 41.49121475219727 3 35.66376876831055 4.176155090332031 30.17950439453125 6.495796203613281 C 24.88084411621094 8.736953735351562 20.12152099609375 11.94598388671875 16.03375244140625 16.03375244140625 C 11.94598388671875 20.12152099609375 8.736953735351562 24.88084411621094 6.495796203613281 30.17950439453125 C 4.176155090332031 35.66376876831055 3 41.49121475219727 3 47.5 C 3 53.50878524780273 4.176155090332031 59.33623123168945 6.495796203613281 64.82049560546875 C 8.736953735351562 70.11915588378906 11.94598388671875 74.87847900390625 16.03375244140625 78.96624755859375 C 20.12152099609375 83.05401611328125 24.88084411621094 86.26304626464844 30.17950439453125 88.50419616699219 C 35.66376876831055 90.82384490966797 41.49121475219727 92 47.5 92 C 53.50878524780273 92 59.33623123168945 90.82384490966797 64.82049560546875 88.50419616699219 C 70.11915588378906 86.26304626464844 74.87847900390625 83.05401611328125 78.96624755859375 78.96624755859375 C 83.05401611328125 74.87847900390625 86.26304626464844 70.11915588378906 88.50419616699219 64.82049560546875 C 90.82384490966797 59.33623123168945 92 53.50878524780273 92 47.5 C 92 41.49121475219727 90.82384490966797 35.66376876831055 88.50419616699219 30.17950439453125 C 86.26304626464844 24.88084411621094 83.05401611328125 20.12152099609375 78.96624755859375 16.03375244140625 C 74.87847900390625 11.94598388671875 70.11915588378906 8.736953735351562 64.82049560546875 6.495796203613281 C 59.33623123168945 4.176155090332031 53.50878524780273 3 47.5 3 M 47.5 0 C 73.7335205078125 0 95 21.2664794921875 95 47.5 C 95 73.7335205078125 73.7335205078125 95 47.5 95 C 21.2664794921875 95 0 73.7335205078125 0 47.5 C 0 21.2664794921875 21.2664794921875 0 47.5 0 Z" stroke="none" fill="#56838a"/>
              </g>
            </g>
          </g>
        </g>
      </g>
    </g>
    <g id="conflict_8048443" transform="translate(1240.802 1669.598)">
      <g id="Grupo_1174756" data-name="Grupo 1174756" transform="translate(7.501 -47.394)">
        <g id="Grupo_1174755" data-name="Grupo 1174755" transform="translate(0 11.42)">
          <path id="Trazado_1031872" data-name="Trazado 1031872" d="M57.711,192.788l.251-.2a3.347,3.347,0,0,1,5.178,1.369h0a3.311,3.311,0,0,1,.213,1.647l-.583,4.646a4.54,4.54,0,0,1-2.485,3.5h0a4.578,4.578,0,0,1-3.659.183l-.741-.281H29.62l-.741.281a4.578,4.578,0,0,1-3.659-.183h0a4.539,4.539,0,0,1-2.485-3.5l-.583-4.646a3.311,3.311,0,0,1,.213-1.647h0a3.347,3.347,0,0,1,5.178-1.369l.251.2Z" transform="translate(-20.392 -174.917)" fill="#fcbab3"/>
          <path id="Trazado_1031873" data-name="Trazado 1031873" d="M37.719,353.585v4.385a.982.982,0,0,0,.712.944l7.97,2.277a7.858,7.858,0,0,1,5.651,6.688l.158,1.419a1.964,1.964,0,0,1-1.952,2.181H9.465A1.964,1.964,0,0,1,7.513,369.3l.158-1.419a7.858,7.858,0,0,1,5.651-6.688l7.97-2.277A.982.982,0,0,0,22,357.97v-4.385Z" transform="translate(-7.501 -317.459)" fill="#fdd5c8"/>
          <path id="Trazado_1031874" data-name="Trazado 1031874" d="M95.813,56.164h0a13.659,13.659,0,0,0-8.346-6.544h0a19.964,19.964,0,0,0-10.506,0h0a13.659,13.659,0,0,0-8.346,6.544h0a13.658,13.658,0,0,0-1.635,8.141l1.01,9.085a15.715,15.715,0,0,0,3.047,7.694l1.189,1.586A18.127,18.127,0,0,0,77.4,87.338h0a7.858,7.858,0,0,0,4.043,1.12h1.54a7.858,7.858,0,0,0,4.043-1.12h0c.107-.064.213-.13.319-.2l.861-2.1h1.864A18.131,18.131,0,0,0,92.2,82.671l1.189-1.586a15.715,15.715,0,0,0,3.047-7.694l1.009-9.085A13.657,13.657,0,0,0,95.813,56.164Z" transform="translate(-59.854 -48.917)" fill="#fdd5c8"/>
          <g id="Grupo_1174754" data-name="Grupo 1174754" transform="translate(27.492 36.126)">
            <path id="Trazado_1031875" data-name="Trazado 1031875" d="M240.066,358.136l2.721.777a.982.982,0,0,1-.707-.943v-4.385h-2.726v3.606A.982.982,0,0,0,240.066,358.136Z" transform="translate(-239.354 -353.585)" fill="#fcbab3"/>
            <path id="Trazado_1031876" data-name="Trazado 1031876" d="M321.192,420.078l-.158-1.419a7.858,7.858,0,0,0-5.651-6.688l-2.715-.776a7.858,7.858,0,0,1,5.64,6.684l.158,2.2a1.964,1.964,0,0,1-1.952,2.181h2.726A1.965,1.965,0,0,0,321.192,420.078Z" transform="translate(-303.976 -404.365)" fill="#fcbab3"/>
          </g>
          <path id="Trazado_1031877" data-name="Trazado 1031877" d="M199.543,56.168h0a13.659,13.659,0,0,0-8.346-6.544h0a19.961,19.961,0,0,0-6.616-.656,19.965,19.965,0,0,1,3.89.656h0a13.659,13.659,0,0,1,8.346,6.544h0a13.658,13.658,0,0,1,1.635,8.141l-1.01,9.085a15.715,15.715,0,0,1-3.047,7.694l-1.189,1.586a18.128,18.128,0,0,1-5.175,4.668h0a7.857,7.857,0,0,1-3.45,1.1c.2.015.395.023.593.023h1.54a7.858,7.858,0,0,0,4.043-1.12h0a18.125,18.125,0,0,0,5.175-4.668l1.189-1.586a15.715,15.715,0,0,0,3.047-7.694l1.009-9.085A13.657,13.657,0,0,0,199.543,56.168Z" transform="translate(-163.584 -48.921)" fill="#fcbab3"/>
        </g>
        <circle id="Elipse_12357" data-name="Elipse 12357" cx="15.715" cy="15.715" r="15.715" transform="translate(20.992 22.224) rotate(-45)" fill="#eaebeb"/>
        <path id="Trazado_1031878" data-name="Trazado 1031878" d="M361.835,7.5c-.459,0-.914.021-1.363.06a15.715,15.715,0,0,1,0,31.312c.449.039.9.06,1.363.06a15.715,15.715,0,0,0,0-31.431Z" transform="translate(-318.618 -0.991)" fill="#d8dcdc"/>
        <path id="Trazado_1031879" data-name="Trazado 1031879" d="M343.29,108.862a3.928,3.928,0,0,1,6.8,0V112.8a3.928,3.928,0,0,1-6.8,0Z" transform="translate(-303.473 -88.604)" fill="#b7e1f3"/>
        <path id="Trazado_1031880" data-name="Trazado 1031880" d="M392.569,112.241h3.33a.491.491,0,0,0,.491-.491V108.8a.491.491,0,0,0-.491-.491h-3.33a.246.246,0,0,1-.246-.246v-1.3a.491.491,0,0,0-.875-.307l-2.809,3.511a.491.491,0,0,0,0,.614l2.809,3.511a.491.491,0,0,0,.875-.307v-1.3A.246.246,0,0,1,392.569,112.241Z" transform="translate(-343.351 -88.052)" fill="#f75574"/>
        <path id="Trazado_1031881" data-name="Trazado 1031881" d="M292.954,108.313h-3.33a.491.491,0,0,0-.491.491v2.947a.491.491,0,0,0,.491.491h3.33a.246.246,0,0,1,.246.246v1.3a.491.491,0,0,0,.875.307l2.809-3.511a.491.491,0,0,0,0-.614l-2.809-3.511a.491.491,0,0,0-.875.307v1.3A.246.246,0,0,1,292.954,108.313Z" transform="translate(-255.738 -88.053)" fill="#f75574"/>
        <path id="Trazado_1031882" data-name="Trazado 1031882" d="M292.954,108.313h-3.33a.491.491,0,0,0-.491.491v2.947a.491.491,0,0,0,.491.491h3.33a.246.246,0,0,1,.246.246v1.3a.491.491,0,0,0,.875.307l2.809-3.511a.491.491,0,0,0,0-.614l-2.809-3.511a.491.491,0,0,0-.875.307v1.3A.246.246,0,0,1,292.954,108.313Z" transform="translate(-255.738 -88.053)" fill="#f75574"/>
        <path id="Trazado_1031883" data-name="Trazado 1031883" d="M430.385,123.467h-2.727a.491.491,0,0,1,.491.491V126.9a.491.491,0,0,1-.491.491h2.727a.491.491,0,0,0,.491-.491v-2.947A.491.491,0,0,0,430.385,123.467Z" transform="translate(-377.837 -103.207)" fill="#f3395e"/>
      </g>
      <g id="Grupo_1174761" data-name="Grupo 1174761" transform="translate(7.501 -40.885)">
        <g id="Grupo_1174759" data-name="Grupo 1174759" transform="translate(0 4.911)">
          <path id="Trazado_1031884" data-name="Trazado 1031884" d="M90.205,50.695a13.656,13.656,0,0,0-2.737-1.075h0a19.964,19.964,0,0,0-10.506,0h0a13.659,13.659,0,0,0-8.346,6.544h0a13.659,13.659,0,0,0-1.635,8.141l1.01,9.085a15.715,15.715,0,0,0,3.047,7.694l1.189,1.586A18.126,18.126,0,0,0,77.4,87.338h0a7.858,7.858,0,0,0,4.043,1.12h1.54a7.858,7.858,0,0,0,4.043-1.12h0A18.126,18.126,0,0,0,92.2,82.67l1.189-1.586a15.715,15.715,0,0,0,2.976-7.146" transform="translate(-59.855 -48.917)" fill="none" stroke="#000" stroke-linecap="round" stroke-linejoin="round" stroke-miterlimit="10" stroke-width="1.3"/>
          <g id="Grupo_1174757" data-name="Grupo 1174757" transform="translate(1.734 16.951)">
            <path id="Trazado_1031885" data-name="Trazado 1031885" d="M27.794,192.788l-.251-.2a3.347,3.347,0,0,0-5.178,1.369h0a3.311,3.311,0,0,0-.213,1.647l.583,4.646a4.54,4.54,0,0,0,2.485,3.5h0a4.578,4.578,0,0,0,3.659.183l.741-.281" transform="translate(-22.126 -191.867)" fill="none" stroke="#000" stroke-linecap="round" stroke-linejoin="round" stroke-miterlimit="10" stroke-width="1.3"/>
            <path id="Trazado_1031886" data-name="Trazado 1031886" d="M46.976,230.851h0a1.117,1.117,0,0,1,1.731.188l1.765,2.759" transform="translate(-44.029 -225.94)" fill="none" stroke="#000" stroke-linecap="round" stroke-linejoin="round" stroke-miterlimit="10" stroke-width="1.3"/>
          </g>
          <g id="Grupo_1174758" data-name="Grupo 1174758" transform="translate(35.493 26.479)">
            <path id="Trazado_1031887" data-name="Trazado 1031887" d="M313.411,272.224a4.547,4.547,0,0,1-2.185,2.352h0a4.578,4.578,0,0,1-3.659.183l-.741-.281" transform="translate(-306.826 -272.224)" fill="none" stroke="#000" stroke-linecap="round" stroke-linejoin="round" stroke-miterlimit="10" stroke-width="1.3"/>
          </g>
          <path id="Trazado_1031888" data-name="Trazado 1031888" d="M21.759,371.48H9.465A1.964,1.964,0,0,1,7.513,369.3l.158-1.419a7.858,7.858,0,0,1,5.651-6.688l7.97-2.277A.982.982,0,0,0,22,357.97v-4.385" transform="translate(-7.501 -317.459)" fill="none" stroke="#000" stroke-linecap="round" stroke-linejoin="round" stroke-miterlimit="10" stroke-width="1.3"/>
          <path id="Trazado_1031889" data-name="Trazado 1031889" d="M174.559,353.585v4.385a.982.982,0,0,0,.712.944l7.97,2.277a7.858,7.858,0,0,1,5.651,6.688l.158,1.419a1.964,1.964,0,0,1-1.952,2.181H162.75" transform="translate(-144.341 -317.459)" fill="none" stroke="#000" stroke-linecap="round" stroke-linejoin="round" stroke-miterlimit="10" stroke-width="1.3"/>
        </g>
        <g id="Grupo_1174760" data-name="Grupo 1174760" transform="translate(27.502 0)">
          <path id="Trazado_1031892" data-name="Trazado 1031892" d="M248.881,8.8a15.736,15.736,0,1,1-3.571,2.161" transform="translate(-239.434 -7.5)" fill="none" stroke="#000" stroke-linecap="round" stroke-linejoin="round" stroke-miterlimit="10" stroke-width="1.3"/>
          <path id="Trazado_1031893" data-name="Trazado 1031893" d="M392.569,112.241h3.33a.491.491,0,0,0,.491-.491V108.8a.491.491,0,0,0-.491-.491h-3.33a.246.246,0,0,1-.246-.246v-1.3a.491.491,0,0,0-.875-.307l-2.809,3.511a.491.491,0,0,0,0,.614l2.809,3.511a.491.491,0,0,0,.875-.307v-1.3A.246.246,0,0,1,392.569,112.241Z" transform="translate(-370.853 -94.561)" fill="none" stroke="#000" stroke-linecap="round" stroke-linejoin="round" stroke-miterlimit="10" stroke-width="1.3"/>
          <path id="Trazado_1031894" data-name="Trazado 1031894" d="M292.954,108.313h-3.33a.491.491,0,0,0-.491.491v2.947a.491.491,0,0,0,.491.491h3.33a.246.246,0,0,1,.246.246v1.3a.491.491,0,0,0,.875.307l2.809-3.511a.491.491,0,0,0,0-.614l-2.809-3.511a.491.491,0,0,0-.875.307v1.3A.246.246,0,0,1,292.954,108.313Z" transform="translate(-283.24 -94.562)" fill="none" stroke="#000" stroke-linecap="round" stroke-linejoin="round" stroke-miterlimit="10" stroke-width="1.3"/>
          <line id="Línea_869" data-name="Línea 869" x2="0.982" y2="0.982" transform="translate(10.804 7.858)" fill="none" stroke="#000" stroke-linecap="round" stroke-linejoin="round" stroke-miterlimit="10" stroke-width="1.3"/>
          <line id="Línea_870" data-name="Línea 870" y1="0.982" x2="0.982" transform="translate(19.644 7.858)" fill="none" stroke="#000" stroke-linecap="round" stroke-linejoin="round" stroke-miterlimit="10" stroke-width="1.3"/>
          <line id="Línea_871" data-name="Línea 871" x1="0.982" y1="0.982" transform="translate(19.644 22.591)" fill="none" stroke="#000" stroke-linecap="round" stroke-linejoin="round" stroke-miterlimit="10" stroke-width="1.3"/>
          <line id="Línea_872" data-name="Línea 872" x1="0.982" y2="0.982" transform="translate(10.804 22.591)" fill="none" stroke="#000" stroke-linecap="round" stroke-linejoin="round" stroke-miterlimit="10" stroke-width="1.3"/>
          <path id="Trazado_1031895" data-name="Trazado 1031895" d="M343.29,156.623a3.928,3.928,0,0,0,6.8,0" transform="translate(-330.975 -138.941)" fill="none" stroke="#000" stroke-linecap="round" stroke-linejoin="round" stroke-miterlimit="10" stroke-width="1.3"/>
          <path id="Trazado_1031896" data-name="Trazado 1031896" d="M350.092,108.862a3.928,3.928,0,0,0-6.8,0" transform="translate(-330.976 -95.114)" fill="none" stroke="#000" stroke-linecap="round" stroke-linejoin="round" stroke-miterlimit="10" stroke-width="1.3"/>
        </g>
      </g>
    </g>
  </g>
</svg>
