<svg xmlns="http://www.w3.org/2000/svg" xmlns:xlink="http://www.w3.org/1999/xlink" width="400" height="444" viewBox="0 0 400 444">
  <defs>
    <clipPath id="clip-path">
      <rect id="Rectángulo_415138" data-name="Rectángulo 415138" width="400" height="444" transform="translate(1020 3171)" fill="#9ef0fd" stroke="#707070" stroke-width="1" opacity="0.38"/>
    </clipPath>
    <clipPath id="clip-path-2">
      <rect id="Rectángulo_415121" data-name="Rectángulo 415121" width="298.493" height="320.131" fill="none"/>
    </clipPath>
    <clipPath id="clip-path-4">
      <rect id="Rectángulo_415116" data-name="Rectángulo 415116" width="176.148" height="231.929" transform="translate(7.134 44.438)" fill="none"/>
    </clipPath>
    <clipPath id="clip-path-5">
      <rect id="Rectángulo_415118" data-name="Rectángulo 415118" width="9.625" height="35.937" transform="translate(56.867 113.955)" fill="none"/>
    </clipPath>
    <clipPath id="clip-path-6">
      <rect id="Rectángulo_415119" data-name="Rectángulo 415119" width="31.619" height="14.31" transform="translate(38.833 99.92)" fill="none"/>
    </clipPath>
    <clipPath id="clip-path-7">
      <rect id="Rectángulo_415137" data-name="Rectángulo 415137" width="390.034" height="226.884" fill="none"/>
    </clipPath>
    <clipPath id="clip-path-9">
      <rect id="Rectángulo_415126" data-name="Rectángulo 415126" width="12.642" height="2.826" transform="translate(173.218 94.445)" fill="none"/>
    </clipPath>
    <clipPath id="clip-path-10">
      <rect id="Rectángulo_415127" data-name="Rectángulo 415127" width="11.851" height="3.222" transform="translate(153.58 90.045)" fill="none"/>
    </clipPath>
    <clipPath id="clip-path-11">
      <rect id="Rectángulo_415128" data-name="Rectángulo 415128" width="11.282" height="9.578" transform="translate(151.982 82.289)" fill="none"/>
    </clipPath>
    <clipPath id="clip-path-12">
      <rect id="Rectángulo_415129" data-name="Rectángulo 415129" width="28.576" height="3.546" transform="translate(199.701 98.798)" fill="none"/>
    </clipPath>
    <clipPath id="clip-path-13">
      <rect id="Rectángulo_415130" data-name="Rectángulo 415130" width="5.62" height="2.14" transform="translate(204.115 90.919)" fill="none"/>
    </clipPath>
    <clipPath id="clip-path-14">
      <rect id="Rectángulo_415131" data-name="Rectángulo 415131" width="4.171" height="4.15" transform="translate(204.115 81.978)" fill="none"/>
    </clipPath>
  </defs>
  <g id="Enmascarar_grupo_1098733" data-name="Enmascarar grupo 1098733" transform="translate(-1020 -3171)" clip-path="url(#clip-path)">
    <g id="Grupo_1174834" data-name="Grupo 1174834" transform="translate(1050.753 3206.827)">
      <g id="Grupo_1174833" data-name="Grupo 1174833" clip-path="url(#clip-path-2)">
        <rect id="Rectángulo_415114" data-name="Rectángulo 415114" width="295.537" height="173.317" transform="translate(2.956 0.001)" fill="#b2b2b2"/>
        <rect id="Rectángulo_415115" data-name="Rectángulo 415115" width="287.894" height="165.747" transform="translate(6.778 3.785)" fill="#5c844c"/>
        <g id="Grupo_1174832" data-name="Grupo 1174832">
          <g id="Grupo_1174831" data-name="Grupo 1174831" clip-path="url(#clip-path-2)">
            <path id="Trazado_1032105" data-name="Trazado 1032105" d="M121.148,138.859c-9.95-8.087-19.851-16.222-29.081-25.226-9.731-9.493-17.823-20.372-25.874-31.438-6.1-8.385-11.7-17.155-17.208-25.984C44.4,48.855,40.014,41.265,35.151,34.084,31.006,28.9,26.5,24.039,22.13,19.061c-2.768-3.151-5.484-6.355-8.019-9.718C12.724,7.5,11.32,5.655,9.936,3.785H6.777V169.532H165.208a361.487,361.487,0,0,1-44.06-30.673" fill="#4b6b3c"/>
            <path id="Trazado_1032106" data-name="Trazado 1032106" d="M83.01,95.881Q76.992,97.9,70.978,99.918a249.844,249.844,0,0,1-7.311-38.882q-.609-5.74-.956-11.507c-.067-1.122-1.84-1.13-1.771,0A252.561,252.561,0,0,0,66.7,90.075q1.275,5.634,2.81,11.206a.9.9,0,0,0,1.088.614q6.441-2.163,12.88-4.323c1.074-.359.614-2.055-.47-1.691" fill="#e0e0e0"/>
            <path id="Trazado_1032107" data-name="Trazado 1032107" d="M97.862,91.145c-2.363,1.123-5.341,2.513-7.88,1.064a3.512,3.512,0,0,1-1.65-2.352q1.92-1.614,3.689-3.39a20.432,20.432,0,0,0,3.47-4.12A5.418,5.418,0,0,0,96,77.689,3.764,3.764,0,0,0,92.426,75.3c-3.7.033-5.278,3.718-5.809,6.8a24.272,24.272,0,0,0-.3,6.084c.027.331.06.666.1,1a.761.761,0,0,0,.2,1.088,5.259,5.259,0,0,0,1.441,2.691,6.482,6.482,0,0,0,4.687,1.607,15.842,15.842,0,0,0,6.009-1.91c1.027-.489.129-2-.9-1.517M88.13,84.012c.233-2.355.759-6.045,3.486-6.83a2.155,2.155,0,0,1,2.7,1.036,3.732,3.732,0,0,1-.455,3.411,20.794,20.794,0,0,1-3.321,3.824q-1.206,1.2-2.486,2.318a23.006,23.006,0,0,1,.073-3.759" fill="#e0e0e0"/>
            <path id="Trazado_1032108" data-name="Trazado 1032108" d="M110.623,82.9c-1.865-.948-4.16-1.651-5.266-3.564a2.367,2.367,0,0,1,.049-2.69,2.516,2.516,0,0,1,2.447-.966c1.11.243,1.585-1.449.47-1.692a4.325,4.325,0,0,0-4.757,2.3c-.932,1.952,0,4.079,1.51,5.453,1.673,1.528,3.89,2.1,5.77,3.3,1.3.827,2.974,2.882,1.779,4.442a2.7,2.7,0,0,1-2.648.759,7.856,7.856,0,0,1-3.312-1.927c-.864-.731-2.123.506-1.255,1.24,1.743,1.476,3.755,2.833,6.159,2.417a3.743,3.743,0,0,0,3.12-4.395c-.362-2.226-2.148-3.708-4.066-4.682" fill="#e0e0e0"/>
            <path id="Trazado_1032109" data-name="Trazado 1032109" d="M123.108,83.154c-1.774-1.379-4.6-1.633-5.764-3.71a4.126,4.126,0,0,1,.82-5.058,3.329,3.329,0,0,1,3.314-.615,2.439,2.439,0,0,1,1.464,2.587c-.229,1.1,1.478,1.573,1.709.465a4.252,4.252,0,0,0-3.874-5,5.377,5.377,0,0,0-5.461,3.83,5.883,5.883,0,0,0,1.61,6.046,14.082,14.082,0,0,0,3.512,1.922,4.934,4.934,0,0,1,2.665,2.2,2.022,2.022,0,0,1-1.39,2.617c-1.507.61-3.246.014-4.711-.431a.879.879,0,0,0-.471,1.693c2.443.741,5.353,1.349,7.39-.636a3.486,3.486,0,0,0,1.067-3.023,4.658,4.658,0,0,0-1.88-2.886" fill="#e0e0e0"/>
            <path id="Trazado_1032110" data-name="Trazado 1032110" d="M135.144,72.554a7.971,7.971,0,0,0-6.968,1.6,7.331,7.331,0,0,0-2.707,7.487c.655,2.886,3.119,6.5,6.489,6.368,3.209-.121,4.986-3.85,5.867-6.463,1.029-3.061,1.037-6.673-1.367-9.111a.846.846,0,0,0-1.314.117m1.305,7.373a13.7,13.7,0,0,1-1.313,3.376,5.9,5.9,0,0,1-2.38,2.766c-2.494,1.1-4.707-2.158-5.352-4.09a5.6,5.6,0,0,1,1.456-6.094,6.161,6.161,0,0,1,6.376-1.452.726.726,0,0,0,.56-.028,7,7,0,0,1,.653,5.522" fill="#e0e0e0"/>
            <path id="Trazado_1032111" data-name="Trazado 1032111" d="M155.71,67.907q.216,5.741-.078,11.479-1.506-1.77-3.01-3.541c-.733-.861-1.462-1.722-2.2-2.583a16.178,16.178,0,0,0-2.011-2.242,3.145,3.145,0,0,0-2.249-.843,1.736,1.736,0,0,0-1.393,1.021.98.98,0,0,0-.934-.285.9.9,0,0,0-.618,1.079,132.31,132.31,0,0,1,1.192,14.028.887.887,0,0,0,1.773,0q.052-5.874.108-11.748.006-.692.013-1.382c0-.151-.089-.867.053-.969.279-.2,1.051.542,1.221.719,1.345,1.394,2.534,2.971,3.788,4.446l4.39,5.168c.535.629,1.466.07,1.512-.622a129.571,129.571,0,0,0,.209-13.725c-.042-1.126-1.815-1.132-1.77,0" fill="#e0e0e0"/>
            <path id="Trazado_1032112" data-name="Trazado 1032112" d="M206.04,67.718q-4.032.522-8.032,1.237.246-2.526.563-5.046,1.644-.206,3.285-.439a.883.883,0,0,0,.619-1.08.911.911,0,0,0-1.09-.612q-1.291.183-2.585.349.5-3.749,1.15-7.477c.192-1.105-1.515-1.579-1.709-.467q-.706,4.07-1.246,8.166-3.04.359-6.092.62a60.25,60.25,0,0,1,.562-8.357.908.908,0,0,0-.618-1.08.894.894,0,0,0-1.09.613,63.8,63.8,0,0,0-.6,8.964q-4.033.307-8.078.445c-1.137.039-1.141,1.794,0,1.755q4.061-.138,8.108-.45.092,2.915.448,5.812-3.658.849-7.278,1.866a.878.878,0,0,0,.471,1.692q3.5-.985,7.049-1.816a62.151,62.151,0,0,0,2.146,9.266c.337,1.074,2.047.617,1.708-.467a61.611,61.611,0,0,1-2.128-9.194q2.211-.493,4.436-.926-.28,3.238-.456,6.485c-.059,1.129,1.712,1.126,1.773,0q.183-3.416.485-6.823,4.081-.745,8.2-1.281a.913.913,0,0,0,.887-.878.887.887,0,0,0-.887-.877M191.364,70.28q-.342-2.771-.431-5.563,2.921-.25,5.836-.589-.316,2.576-.564,5.159-2.43.46-4.841.993" fill="#e0e0e0"/>
            <path id="Trazado_1032113" data-name="Trazado 1032113" d="M237.295,84.835l-7.066.314a164.369,164.369,0,0,1,5.861-32.864c.418-1.461.887-2.907,1.316-4.365a5.1,5.1,0,0,0-.091-4.017.9.9,0,0,0-1.211-.315q-9.063,5.6-17.882,11.582c-.936.633-.052,2.155.893,1.515q8.346-5.655,16.912-10.977a7.326,7.326,0,0,1-.5,2.306q-.594,1.9-1.143,3.805-1.129,3.944-2.058,7.94-1.872,8.06-2.93,16.273-.6,4.584-.941,9.2l-13.642.605c-1.137.05-1.143,1.807,0,1.756l22.485-1c1.135-.05,1.142-1.8,0-1.755" fill="#e0e0e0"/>
            <g id="Grupo_1174824" data-name="Grupo 1174824" opacity="0.2">
              <g id="Grupo_1174823" data-name="Grupo 1174823">
                <g id="Grupo_1174822" data-name="Grupo 1174822" clip-path="url(#clip-path-4)">
                  <path id="Trazado_1032114" data-name="Trazado 1032114" d="M152.439,101.578a2.947,2.947,0,0,0-2.835-2.926l33.678-54.214-40.578,55.6a1.958,1.958,0,0,0-2.071.647,13.491,13.491,0,0,1-5.151,4.1c-3.427.891-8.464,6.334-8.354,11.092A6.891,6.891,0,0,1,126,119.7a12.046,12.046,0,0,1-.169-2.3c-20.149,23.92-28.862,32.462-29.876,5.041.209-2.963.338-4.681.338-4.681a15.151,15.151,0,0,0-.426-3.723c0-.027,0-.053,0-.08l-.019,0c-1.915-7.614-9.682-11.506-16.556-12.884a15.877,15.877,0,0,0-8.172-2.932L71.1,99.318V98.107c4.386-1.6,7.632-7.179,7.632-12.6l-.208-9.951c2.309-.851,3.043-2.981,3.043-5.477,0-2.452-.713-4.549-2.927-5.428.336-9.619-5.975-15.294-15.736-15.294-10.629,0-14.067,4.6-15.957,9q-.21.463-.387.942c-.014.04-.031.081-.046.122a15.45,15.45,0,0,0-.885,5.043c-2.506.736-3.448,2.968-3.448,5.612,0,2.675.962,4.931,3.533,5.64v9.865c0,5.165,2.554,10.329,6.693,12.235v1a7.007,7.007,0,0,0-4.57,1.333l-.018-.041-7.938.776c-5.163.642-9.2,2.283-12.1,4.678a9.119,9.119,0,0,0-3.314,3.381q-1.09,1.931-2.179,3.84c-4.75,8.356-9.235,16.249-12.069,23.25-2.709,6.689-5.477,16.332.351,23.9,3.9,5.056,11.347,6.381,19.089,6.036l.168,1.053c1.442,12.206,1.2,15.038,1.524,20.945a12.64,12.64,0,0,0,2.321,1.368c.042.633.129,1.54.3,2.832l.411,4.867c-.215,12.9.094,24.577.094,24.577a469.458,469.458,0,0,0,1.677,54.753H56.812c.052-16.879.153-38.7.229-53.478.029-5.17.056-7.647.08-11.62q1.791.235,3.763.382c1.247.09,2.431.148,3.563.178-.143,4.349-.224,6.711-.268,11.463.026,14.523.161,35.588-.152,53.075h19.43c1.839-21.12,2.438-34.863,2.438-51.754l-.021-.1H85.9c.2-7.616.386-14.893.595-21.5l.9-11.123h0l.229-2.825a15.372,15.372,0,0,0,5.3-2.875c.07-7.793.381-16.8.788-25.675,10.047,4.775,24.629-1.829,42.166-26.756a5.417,5.417,0,0,1-3.347-1.368l4.248-4.88a3.759,3.759,0,0,1,1.221-.677c5.246-2.722,8.348-3.624,11.047-5.277,2.081-1.274,2.3-2.871,1.036-4.895,2.373-1.544,2.57-4.13.468-5.852,2.172-2.449,1.817-3.583-.468-5.366a5.327,5.327,0,0,0,2.356-3.866" fill="#1d1d1b"/>
                </g>
              </g>
            </g>
            <path id="Trazado_1032115" data-name="Trazado 1032115" d="M53.382,316.075a6.761,6.761,0,0,1-5.928,3.86c-3.032.29-8.151.639-12.764-2.031-3.046-1.762-3.55-3.79-4.24-6.007-1.287-6.032,1.69-8.091,2.984-9.768,1.85,2.822,4.4,3.575,7.789,1.826,1.033,3.046,8.578,5.473,10.952,5.132,2.6-.373,1.207,6.988,1.207,6.988" fill="#161616"/>
            <path id="Trazado_1032116" data-name="Trazado 1032116" d="M53.224,313.673c-1.117,2.16-3.1,3.286-5.89,3.552-3.031.29-8.666.091-11.726-1.76-3.011-1.821-4.817-4.327-5.246-6.775-.275-4.24,1.355-8,1.749-9.735,1.85,2.822,12.913,1.168,16.305-.581.327,2.662,0,5.682,2.01,7.081,4.967,3.455,2.8,8.218,2.8,8.218" fill="#2c2c2d"/>
            <path id="Trazado_1032117" data-name="Trazado 1032117" d="M90.988,315.432a2.139,2.139,0,0,1-.634,1.172c-1.736,1.62-3.633,2.015-7.936,2.246a55.406,55.406,0,0,1-17.579-2.533c-5.145-1.709-7.627-3.3-9.25-5.32-.8-4.508.209-7.268,2.406-8.869,3.142,2.693,7.47,3.411,13.231,1.742,1.755,2.906,10.749,5.13,14.781,4.8,4.412-.356,5.982,2.775,4.981,6.757" fill="#161616"/>
            <path id="Trazado_1032118" data-name="Trazado 1032118" d="M91.513,312.771c-1.9,2.06-5.177,3.164-9.906,3.418a49.165,49.165,0,0,1-16.53-2.573c-5.145-1.709-7.864-3.256-9.487-5.28-.8-4.508.208-7.269,2.4-8.869,3.143,2.693,7.471,3.411,13.232,1.742,1.754,2.906,9.722,5.271,13.754,4.946,4.412-.356,7.534,2.634,6.532,6.616" fill="#2c2c2d"/>
            <path id="Trazado_1032119" data-name="Trazado 1032119" d="M25.927,181.418l1.322,15.619c-.216,12.9.092,24.578.092,24.578C26.2,254.052,29.826,286.089,31.416,300c5.32,2.131,12.16,1.359,18.24-1.043-.061-10.414.13-52.324.251-76.066.03-5.169.056-7.647.08-11.619q1.791.234,3.763.381c1.246.09,2.431.148,3.563.179-.143,4.349-.223,6.71-.267,11.463.039,22.477.343,60.63-1.162,76.93a22.68,22.68,0,0,0,18.173.012c3.642-36.211,4.7-53.121,4.7-75.622-.006-.032-.013-.063-.019-.1l.021,0c.2-7.617.385-14.894.594-21.506l1.754-21.6Z" fill="#3f3a48"/>
            <path id="Trazado_1032120" data-name="Trazado 1032120" d="M26.837,192.17s26.489,6.958,53.423-.279l.24-3.87-53.975-.064a17.89,17.89,0,0,0,.312,4.213" fill="#2c2835"/>
            <path id="Trazado_1032121" data-name="Trazado 1032121" d="M50.667,294.889l-.562,5.842c-6.987,3.124-12.758,2.979-19.549,0l.047-5.842c6.614,1.518,12.481,1.274,20.064,0" fill="#2c2835"/>
            <path id="Trazado_1032122" data-name="Trazado 1032122" d="M75.67,295.4l-.561,5.841c-4.488,3.426-12.758,2.98-19.55,0l.325-6.353a46.846,46.846,0,0,0,19.786.512" fill="#2c2835"/>
            <path id="Trazado_1032123" data-name="Trazado 1032123" d="M118.695,117.4s1.977.031,6.891,8.052c4.6,7.516,3.159,8.31,3.159,8.31s-3.909.534-8.128-4.966-2.375-11.167-1.922-11.4" fill="#182138"/>
            <path id="Trazado_1032124" data-name="Trazado 1032124" d="M129.985,107.811l-10.354,12.424,4.875,8.706,16.548-7.563V103.906Z" fill="#9b472a"/>
            <path id="Trazado_1032125" data-name="Trazado 1032125" d="M124.933,114.612a3.006,3.006,0,0,0,.239,3.853,3.385,3.385,0,0,0,5.29-.482l45.686-73.545Z" fill="#54443b"/>
            <path id="Trazado_1032126" data-name="Trazado 1032126" d="M142.949,105.444a5.328,5.328,0,0,0,2.356-3.866,3.017,3.017,0,0,0-3.594-2.9l-3.039.471a2.964,2.964,0,0,0-2.575,2.88,3,3,0,0,0,3.068,2.918h1l-7.211,3.177a2.506,2.506,0,0,0-1.531,2.279,2.621,2.621,0,0,0,3.443,2.393l1.7-.516-4.245,2.082a2.423,2.423,0,0,0-1.388,2.234,2.539,2.539,0,0,0,3.163,2.3l4.282-.981c-1.76.724-2.878.713-4.417,1.75-.747.5-1.827,3.184,1.5,3.372-1.735,1.5-3.92.563-4.817.919-.689.274-2.233.7-2.916.973-1.479.591-3.62-.513-4.885-2.362-.8-1.167-.4-2.536.065-3.871,1.993-5.7,7.107-8.916,12.293-13.211a2.317,2.317,0,0,0-.381-3.4c-.973-.735-2.6-.875-3.276.117a13.491,13.491,0,0,1-5.151,4.1c-3.427.89-6.516,4.809-6.406,9.568a7.358,7.358,0,0,1-2.022,5l-2.9,3.237,8.4,10.494,6.179-7.1a3.753,3.753,0,0,1,1.222-.677c5.245-2.723,8.347-3.624,11.046-5.277,2.081-1.274,2.3-2.871,1.036-4.895,2.374-1.545,2.57-4.13.468-5.852,2.172-2.45,1.817-3.583-.468-5.366" fill="#af5936"/>
            <path id="Trazado_1032127" data-name="Trazado 1032127" d="M118.695,117.4c-22,26.117-30.385,33.907-29.981-3.439L71.682,117.4c-1.861,42.173,21.539,66.854,57.063,16.362-5.376,0-10.242-11.084-10.05-16.362" fill="#1e2744"/>
            <rect id="Rectángulo_415117" data-name="Rectángulo 415117" width="18.693" height="27.485" transform="translate(45.276 77.907)" fill="#af5936"/>
            <path id="Trazado_1032128" data-name="Trazado 1032128" d="M75,102.519c-.884-.592-10.926-3.3-11.034-3.2-.066,2.314-1.767,4.134-4.643,5.6q-8.594.025-14.2-5a84.238,84.238,0,0,1-16.951,2.551c-.6.039,0,84.75,0,84.75s22.129,2.288,31.937,2.1a98.371,98.371,0,0,0,20.495-3.088Z" fill="#fff"/>
            <path id="Trazado_1032129" data-name="Trazado 1032129" d="M61.7,188l2,0c-.837-9.9-2.123-41.238-2.4-62.113a164.8,164.8,0,0,0-1.534-21.113l-.886.288.443-.144-.452.108c.074.356.74,8.928.992,20.736.409,19.23.753,48.121,1.835,62.236" fill="#e1e7f1"/>
            <g id="Grupo_1174827" data-name="Grupo 1174827" opacity="0.2">
              <g id="Grupo_1174826" data-name="Grupo 1174826">
                <g id="Grupo_1174825" data-name="Grupo 1174825" clip-path="url(#clip-path-5)">
                  <path id="Trazado_1032130" data-name="Trazado 1032130" d="M57.492,113.955l-.625,24.5,5.75,11.438,3.875-11.938L61.6,113.97Z" fill="#1d1d1b"/>
                </g>
              </g>
            </g>
            <path id="Trazado_1032131" data-name="Trazado 1032131" d="M58.117,112.98l-.625,24.5,5.75,11.438,3.875-11.938L62.226,113Z" fill="#11588e"/>
            <path id="Trazado_1032132" data-name="Trazado 1032132" d="M55.924,113.112s.506,2.071,3.777,2.071c3.479,0,4.156-2.034,4.471-2.906l-4.846-7.358Z" fill="#0b4a70"/>
            <path id="Trazado_1032133" data-name="Trazado 1032133" d="M56.059,112.786s.37,2.007,3.641,2.007c3.479,0,3.953-1.953,4.269-2.825l-4.643-7.049Z" fill="#11588e"/>
            <path id="Trazado_1032134" data-name="Trazado 1032134" d="M63.968,99.319c-.122,2.078-1.295,3.724-4.643,5.6l5.1,7.746c5.41-3.6,6.491-8.1,5.894-11.687Z" fill="#e1e7f1"/>
            <path id="Trazado_1032135" data-name="Trazado 1032135" d="M59.326,104.919l-3.633,8.749c-9.178-1.532-14.489-6.263-16.86-12.4l6.3-1.342a21.359,21.359,0,0,0,14.2,5" fill="#e1e7f1"/>
            <g id="Grupo_1174830" data-name="Grupo 1174830" opacity="0.2">
              <g id="Grupo_1174829" data-name="Grupo 1174829">
                <g id="Grupo_1174828" data-name="Grupo 1174828" clip-path="url(#clip-path-6)">
                  <path id="Trazado_1032136" data-name="Trazado 1032136" d="M70.32,101.579,63.968,99.92c-.117,2-1.164,3.4-4.642,5-4.843.015-10.305-1.05-14.2-4.4l-6.3,1.343C41.2,108.006,47.025,112.7,56.2,114.23l2.816-6.782a.644.644,0,0,1,1.133-.107l4.02,6.1c5.409-3.6,6.745-8.276,6.148-11.865" fill="#1d1d1b"/>
                </g>
              </g>
            </g>
            <path id="Trazado_1032137" data-name="Trazado 1032137" d="M63.968,99.319c-.122,2.078-1.295,3.724-4.643,5.6l5.1,7.746c5.41-3.6,6.491-8.1,5.894-11.687l-4.631-1.466Z" fill="#e1e7f1"/>
            <path id="Trazado_1032138" data-name="Trazado 1032138" d="M59.326,104.919l-3.633,8.749c-9.178-1.532-14.489-6.263-16.86-12.4l6.3-1.342a21.359,21.359,0,0,0,14.2,5" fill="#e1e7f1"/>
            <path id="Trazado_1032139" data-name="Trazado 1032139" d="M59.326,140.3,40.688,100.115l-7.937.776c-13.162,1.637-19.033,9.739-17.329,20.377L22.7,167.025c1.442,12.207,1.2,15.038,1.523,20.945,5.611,4.275,19.441,5.1,35.107,3.538Z" fill="#1b4372"/>
            <path id="Trazado_1032140" data-name="Trazado 1032140" d="M70.521,100.79c.722,5.762,2.281,13.861,1.573,21.931a127.939,127.939,0,0,1-4.518,25c-.007.023-.011.041-.011.041l.237,42.693c9.875.679,15.81-2.277,17.988-4.269.243-26.943,3.367-68.433,3.367-68.433C89.223,106.9,78.778,102,70.521,100.79" fill="#1b4372"/>
            <path id="Trazado_1032141" data-name="Trazado 1032141" d="M63.968,99.319c7.633.8,9.374,19.807,3.6,48.448l9.243-27.455-2.862-4.968s1.788.817,4.152,1.6c2.656-12.75-8.2-18.629-14.13-18.8Z" fill="#1e2744"/>
            <path id="Trazado_1032142" data-name="Trazado 1032142" d="M45.276,98.823v1.223c-7.911.988,5.183,16.467,14.05,40.255L44.76,122.526l1.95-4.506-3.168,2.122c-9.669-10.372-6.374-21.66,1.734-21.319" fill="#1e2744"/>
            <path id="Trazado_1032143" data-name="Trazado 1032143" d="M85.168,131.539l-.015,7.084a5.063,5.063,0,0,1-4.066,5.213l-1.258.176c-3.093.433-5.746-2.262-5.658-5.747l.17-6.686Z" fill="#11588e"/>
            <path id="Trazado_1032144" data-name="Trazado 1032144" d="M36.063,184.6H47.632a5.267,5.267,0,0,0,5.267-5.267v-15.6H30.8v15.6a5.267,5.267,0,0,0,5.267,5.267" fill="#11588e"/>
            <path id="Trazado_1032145" data-name="Trazado 1032145" d="M61.4,144.849a1.939,1.939,0,0,0,1.138-1.871l0-.032a1.949,1.949,0,0,0-2.089-1.84l-6.464.685,2.779-2.074,3.909-1.233c.646-.19,2.521-1.181,1.87-2.914-.978-1.9-2.99-1.322-4.678-.344l-3.323.65a77.835,77.835,0,0,1-8.272,3.841c-3.359,2.013-2.855,3.611-4.415,6.716l-3.607,1.054L43.1,158.548l7.274-1.742a19.346,19.346,0,0,0,5.413-1.383c3.988-.381,3.769-3.324,2.59-3.1,3.239-.315,2.222-3.058,1.679-3.247a1.908,1.908,0,0,0,1.894-1.957c-.008-.135-.017-.271-.026-.406a1.554,1.554,0,0,0-1.2-1.357c-.043-.012-.067-.029-.067-.053,0-.1.338-.268.742-.45" fill="#af5936"/>
            <path id="Trazado_1032146" data-name="Trazado 1032146" d="M36.874,144.779C23.086,149,21,148.249,18.463,148.041a36.336,36.336,0,0,1,2.792-7.771c2.465-5.392,6.059-11.714,9.863-18.408q1.1-1.927,2.2-3.88a9.179,9.179,0,0,0-15.983-9.032q-1.092,1.931-2.179,3.84c-4.75,8.357-9.236,16.249-12.07,23.251-2.709,6.688-5.477,16.331.352,23.9,7.511,9.748,28.237,5.63,38.8,2.4,4.848-1.482-.523-19.04-5.37-17.556" fill="#1e2744"/>
            <path id="Trazado_1032147" data-name="Trazado 1032147" d="M74.437,70.079c0-2.5-.735-4.626-3.043-5.476V63.222c-.027-7.1-6.774-13.516-15.1-13.516H53.654c-8.323,0-15.07,6.417-15.07,14.332v.4c-2.572.709-3.534,2.965-3.534,5.64s.962,4.931,3.534,5.639V80.09s-.075,17.971,16.083,17.971c16.727,0,16.727-18,16.727-18V75.555c2.308-.85,3.043-2.981,3.043-5.476" fill="#af5936"/>
            <path id="Trazado_1032148" data-name="Trazado 1032148" d="M47.783,98.529a29.248,29.248,0,0,0,14.385,0c5.269-.54,9.433-6.882,9.433-13.023l-.207-9.952c-.008,3.114-5.567,10.5-8.461,8.208l-.425-.461c-4.148-4.582-9.268-5.072-14.731,0l-.5.522c-3.629,2.057-8.264-5.961-8.692-8.1v9.865c0,6.14,3.607,12.279,9.2,12.946" fill="#2a1301"/>
            <path id="Trazado_1032149" data-name="Trazado 1032149" d="M39.075,71.022s-1.506-6.907.308-11.6,4.9-10.067,16.39-10.067c11.3,0,17.988,7.6,15.072,20.137h-.68s-.741-8.215-3.891-10.007c-3.878,3.923-15.349,3.707-21.774,0,0,0-3.657,2.07-4.787,11.536Z" fill="#2a1301"/>
            <path id="Trazado_1032150" data-name="Trazado 1032150" d="M70.108,68.975S71,76.687,69.025,80.744a5.833,5.833,0,0,0,2.369-5.189,51.751,51.751,0,0,1-.5-6.276Z" fill="#2a1301"/>
            <path id="Trazado_1032151" data-name="Trazado 1032151" d="M39.9,68.975S39,76.687,40.978,80.744a5.833,5.833,0,0,1-2.369-5.189,51.75,51.75,0,0,0,.5-6.276Z" fill="#2a1301"/>
            <path id="Trazado_1032152" data-name="Trazado 1032152" d="M52.013,77.542c-.551,0-.818.936-.434,1.5a3.85,3.85,0,0,0,6.793,0c.384-.56.117-1.5-.434-1.5h-.082c-.33,0-.6-.368-.616-.836l-1.062-3.571c-.014-.467-.286-.836-.616-.836H54.378a.63.63,0,0,0-.545.466l-1.283,4.31a.628.628,0,0,1-.545.467Z" fill="#9b472a"/>
            <path id="Trazado_1032153" data-name="Trazado 1032153" d="M60.837,84.935c0,1.513-2.537,4.144-5.744,4.138-3.223,0-5.382-2.573-5.586-4.166a1.961,1.961,0,0,1-.017-.264c2.6.767,8.022.753,11.316.021a.927.927,0,0,1,.024.146,1.191,1.191,0,0,1,.007.125" fill="#fff"/>
            <path id="Trazado_1032154" data-name="Trazado 1032154" d="M60.837,84.935c0,1.513-2.491,4.569-5.7,4.563a6.11,6.11,0,0,1-5.632-4.591,1.961,1.961,0,0,1-.017-.264,7.61,7.61,0,0,0,11.316.021.927.927,0,0,1,.024.146,1.191,1.191,0,0,1,.007.125" fill="#c63300"/>
            <path id="Trazado_1032155" data-name="Trazado 1032155" d="M48.607,72.566c0,.853-.426,1.544-.952,1.544s-.952-.691-.952-1.544.426-1.544.952-1.544.952.691.952,1.544" fill="#2a1301"/>
            <path id="Trazado_1032156" data-name="Trazado 1032156" d="M47.931,71.91a.277.277,0,1,1-.277-.276.277.277,0,0,1,.277.276" fill="#fff"/>
            <path id="Trazado_1032157" data-name="Trazado 1032157" d="M63.167,72.566c0,.853-.426,1.544-.952,1.544s-.952-.691-.952-1.544.426-1.544.952-1.544.952.691.952,1.544" fill="#2a1301"/>
            <path id="Trazado_1032158" data-name="Trazado 1032158" d="M62.491,71.91a.276.276,0,1,1-.276-.276.277.277,0,0,1,.276.276" fill="#fff"/>
            <path id="Trazado_1032159" data-name="Trazado 1032159" d="M65.373,69.531a.556.556,0,0,1-.364-.135,3.893,3.893,0,0,0-5.553-.034.556.556,0,1,1-.8-.774,5.053,5.053,0,0,1,7.079-.033.556.556,0,0,1-.364.976" fill="#2a1301"/>
            <path id="Trazado_1032160" data-name="Trazado 1032160" d="M50.813,69.531a.552.552,0,0,1-.379-.149,4.054,4.054,0,0,0-2.911-1.272,4.169,4.169,0,0,0-2.614,1.238.556.556,0,0,1-.825-.745A5.247,5.247,0,0,1,47.463,67a5.1,5.1,0,0,1,3.729,1.57.555.555,0,0,1-.379.962" fill="#2a1301"/>
          </g>
        </g>
      </g>
    </g>
    <g id="Grupo_1174856" data-name="Grupo 1174856" transform="translate(1028 3385.5)">
      <g id="Grupo_1174855" data-name="Grupo 1174855" clip-path="url(#clip-path-7)">
        <g id="Grupo_1174854" data-name="Grupo 1174854">
          <g id="Grupo_1174853" data-name="Grupo 1174853" clip-path="url(#clip-path-7)">
            <path id="Trazado_1032161" data-name="Trazado 1032161" d="M390.034,208.08l-65.971-49.067h-22.87c2.467-1.98,3.849-4.2,3.849-6.536,0-8.418-17.881-15.244-39.94-15.244s-39.938,6.826-39.938,15.244c0,2.339,1.382,4.556,3.85,6.536H160.122c2.469-1.98,3.851-4.2,3.851-6.536,0-8.418-17.883-15.244-39.939-15.244S84.1,144.059,84.1,152.477c0,2.339,1.382,4.556,3.849,6.536H65.969L0,208.08H51.786a10.754,10.754,0,0,0-1.959,6.011c0,4.755,3.555,9.165,9.616,12.793h88.473c6.061-3.628,9.616-8.038,9.616-12.793a10.77,10.77,0,0,0-1.959-6.011h71.991a10.77,10.77,0,0,0-1.959,6.011c0,4.755,3.555,9.165,9.616,12.793h88.473c6.061-3.628,9.616-8.038,9.616-12.793a10.77,10.77,0,0,0-1.959-6.011Z" fill="#5f6275" opacity="0.49"/>
            <path id="Trazado_1032162" data-name="Trazado 1032162" d="M120.125,110.111h0a3.061,3.061,0,0,1-3.061-3.061V69.612a3.061,3.061,0,1,1,6.122,0V107.05a3.061,3.061,0,0,1-3.061,3.061" fill="#9d9d9c"/>
            <path id="Trazado_1032163" data-name="Trazado 1032163" d="M166.916,110.111h0a3.061,3.061,0,0,1-3.061-3.061V69.612a3.061,3.061,0,0,1,6.122,0V107.05a3.061,3.061,0,0,1-3.061,3.061" fill="#9d9d9c"/>
            <path id="Trazado_1032164" data-name="Trazado 1032164" d="M120.125,66.551h0a3.061,3.061,0,0,0-3.061,3.061V107.05a3.062,3.062,0,0,0,3.061,3.061Z" fill="#b2b2b2"/>
            <path id="Trazado_1032165" data-name="Trazado 1032165" d="M166.916,66.551h0a3.061,3.061,0,0,0-3.061,3.061V107.05a3.062,3.062,0,0,0,3.061,3.061Z" fill="#b2b2b2"/>
            <path id="Trazado_1032166" data-name="Trazado 1032166" d="M112.415,157.188h-.524a2.8,2.8,0,0,1-2.8-2.8V113.63h6.12v40.76a2.8,2.8,0,0,1-2.8,2.8" fill="#9d9d9c"/>
            <path id="Trazado_1032167" data-name="Trazado 1032167" d="M175.149,157.188h-.524a2.8,2.8,0,0,1-2.8-2.8V113.63h6.12v40.76a2.8,2.8,0,0,1-2.8,2.8" fill="#9d9d9c"/>
            <path id="Trazado_1032168" data-name="Trazado 1032168" d="M112.154,113.63h-3.06v40.76a2.8,2.8,0,0,0,2.8,2.8h.262Z" fill="#b2b2b2"/>
            <rect id="Rectángulo_415122" data-name="Rectángulo 415122" width="6.119" height="3.899" transform="translate(109.094 113.63)" fill="#706f6f"/>
            <path id="Trazado_1032169" data-name="Trazado 1032169" d="M174.887,113.63h-3.06v40.76a2.8,2.8,0,0,0,2.8,2.8h.262Z" fill="#b2b2b2"/>
            <rect id="Rectángulo_415123" data-name="Rectángulo 415123" width="6.119" height="3.899" transform="translate(171.828 113.63)" fill="#706f6f"/>
            <path id="Trazado_1032170" data-name="Trazado 1032170" d="M165.658,38.476H121.383c-9.151,0-16.569,7.084-16.569,15.826V78.1a15.326,15.326,0,0,0,3.446,9.661,16.661,16.661,0,0,0,14.859,8.817h40.8a16.66,16.66,0,0,0,14.858-8.817,15.314,15.314,0,0,0,3.446-9.661V54.3c0-8.742-7.418-15.826-16.567-15.826" fill="#3e6380"/>
            <path id="Trazado_1032171" data-name="Trazado 1032171" d="M177.54,113.63H109.5a4.686,4.686,0,0,1-4.686-4.686v-1.188a4.687,4.687,0,0,1,4.686-4.687H177.54a4.687,4.687,0,0,1,4.686,4.687v1.188a4.686,4.686,0,0,1-4.686,4.686" fill="#3d4a6a"/>
            <path id="Trazado_1032172" data-name="Trazado 1032172" d="M151.374,131.07h0a5.421,5.421,0,0,0,1.291-3.511l.175-8.071a2.391,2.391,0,0,0-2.342-2.441l-1.881-.037a2.389,2.389,0,0,0-2.43,2.212l-.6,8.118a4.882,4.882,0,0,0,.891,3.192l.241.338a2.955,2.955,0,0,0,4.658.2" fill="#26291f"/>
            <path id="Trazado_1032173" data-name="Trazado 1032173" d="M151.374,129.916h0a5.421,5.421,0,0,0,1.291-3.511l.175-8.071a2.391,2.391,0,0,0-2.342-2.441l-1.881-.037a2.389,2.389,0,0,0-2.43,2.212l-.6,8.118a4.882,4.882,0,0,0,.891,3.192l.241.338a2.955,2.955,0,0,0,4.658.2" fill="#3d4a6a"/>
            <path id="Trazado_1032174" data-name="Trazado 1032174" d="M151.037,88.929a3.138,3.138,0,0,0-3.294,2.979l-1.468,29.283a3.14,3.14,0,0,0,2.98,3.294c.053,0,.106,0,.159,0a3.14,3.14,0,0,0,3.134-2.983l1.468-29.283a3.14,3.14,0,0,0-2.979-3.294" fill="#ffbf94"/>
            <path id="Trazado_1032175" data-name="Trazado 1032175" d="M137.832,129.308h0a5.421,5.421,0,0,0,.9-3.632l-.718-8.041a2.388,2.388,0,0,0-2.6-2.167l-1.874.171a2.388,2.388,0,0,0-2.171,2.466l.3,8.135a4.879,4.879,0,0,0,1.239,3.074l.276.309a2.955,2.955,0,0,0,4.652-.315" fill="#26291f"/>
            <path id="Trazado_1032176" data-name="Trazado 1032176" d="M137.7,128.16h0a5.414,5.414,0,0,0,.9-3.632l-.718-8.041a2.388,2.388,0,0,0-2.6-2.167l-1.874.171a2.388,2.388,0,0,0-2.171,2.466l.3,8.136a4.879,4.879,0,0,0,1.239,3.073l.276.31a2.956,2.956,0,0,0,4.652-.316" fill="#3d4a6a"/>
            <path id="Trazado_1032177" data-name="Trazado 1032177" d="M136.138,90.335a3.14,3.14,0,0,0-6.266.432l2.019,29.313a3.141,3.141,0,0,0,3.13,2.925c.072,0,.146,0,.219-.008a3.14,3.14,0,0,0,2.917-3.348Z" fill="#ffbf94"/>
            <path id="Trazado_1032178" data-name="Trazado 1032178" d="M153.017,53.67l.646-5.7-9.411-1.037L143.6,52.66c-2.8.74-4.791,2.417-4.979,4.523-.28,3.133,3.53,6.025,8.509,6.462s9.243-1.749,9.523-4.881c.177-1.981-1.284-3.865-3.64-5.094" fill="#ffbf94"/>
            <path id="Trazado_1032179" data-name="Trazado 1032179" d="M153.653,47.758l-.452,3.987a11.461,11.461,0,0,1-9.41-1.036l.6-5.316Z" fill="#e5a173"/>
            <path id="Trazado_1032180" data-name="Trazado 1032180" d="M155.432,83.7,160.05,71.21c1.014-2.439,2.085-5.773,1.777-8.4-.519-4.422-2.222-6.6-7.551-8.754a6.819,6.819,0,0,1-6.93,2.646c-2.265-.466-4.577-1.874-5.421-3.794-7.76,1.32-9.865,1.887-11.7,9.185-.575,4.3.613,16.144.8,19.895,0,0-9.858,1.129-14.393,8.582,0,0,23.523,16.329,53.345.124A75.573,75.573,0,0,0,155.432,83.7" fill="#5bc2ef"/>
            <path id="Trazado_1032181" data-name="Trazado 1032181" d="M141.891,52.857a17.136,17.136,0,0,0-3.518.65,11.4,11.4,0,0,0,4.062,6.285,2.044,2.044,0,0,0,2.679-.161l2.873-2.874,2.546,3.431a1.6,1.6,0,0,0,2,.464c2.558-1.317,4.512-2.948,4.961-5.055a19.1,19.1,0,0,0-3.252-1.592c-4.1,2.939-8.216,2.276-12.351-1.148" fill="#fff"/>
            <path id="Trazado_1032182" data-name="Trazado 1032182" d="M177.367,57.077c-4.25-2.272-1.1-16.888-8.85-16.119C183.675,24.7,163.249,1.1,147.8,8.771c-8.633-3.823-24.818,13.758-16.274,27.75C124.612,37.552,115.6,47.6,126.5,54.611c-.458-5.62,10.806-5.615,7.216-14.943,0,0,3.833,7.267,15.007,8.657,13.748,1.711,16.326-5.416,16.326-5.416-3.083,5.943.772,16.621,12.319,14.168" fill="#3c3d42"/>
            <path id="Trazado_1032183" data-name="Trazado 1032183" d="M169.846,36.058c.126-.619.222-1.233.291-1.836.914-8.063-1.895-21.219-17.339-21.543-14.875-.312-19.8,9.289-20.714,17.353-.066.584-.108,1.183-.125,1.793a2.359,2.359,0,1,0-.434,4.7,2.52,2.52,0,0,0,.821-.046c1.3,6.545,5.986,12.984,16.667,14.16,10.65,1.173,16.641-4.025,19.386-10.084a2.547,2.547,0,0,0,.366.071,2.411,2.411,0,0,0,2.692-2.078,2.367,2.367,0,0,0-1.611-2.487" fill="#ffbf94"/>
            <path id="Trazado_1032184" data-name="Trazado 1032184" d="M159.1,18.82c-.6,10.594,12.768,9.633,10.75,17.237,1.921-6.729,2.264-12.879-2.917-20.431-2.549-3.905-9.358-6.284-16.235-6.205A20.451,20.451,0,0,0,140.4,12.483a18.432,18.432,0,0,0-8.716,15.766V31.79c1.389-12.255,23.481-2.056,27.411-12.97" fill="#3c3d42"/>
            <path id="Trazado_1032185" data-name="Trazado 1032185" d="M149.8,36.65a1.086,1.086,0,0,1-.908-.668.3.3,0,0,1,.338-.376,3.2,3.2,0,0,0,1.359.15.293.293,0,0,1,.246.44,1.1,1.1,0,0,1-1.035.454" fill="#e5a173"/>
            <path id="Trazado_1032186" data-name="Trazado 1032186" d="M141.765,35.018c.173-1.012-.806-2.016-2.187-2.243s-2.642.41-2.815,1.422.806,2.017,2.187,2.243,2.642-.41,2.815-1.422" fill="#fc7e72"/>
            <path id="Trazado_1032187" data-name="Trazado 1032187" d="M162.385,37.546c.116-1.02-.919-1.971-2.31-2.125s-2.614.55-2.73,1.57.919,1.971,2.311,2.125,2.613-.55,2.729-1.57" fill="#fc7e72"/>
            <path id="Trazado_1032188" data-name="Trazado 1032188" d="M142.375,30.518c-.048.837.359,1.542.911,1.574s1.038-.62,1.087-1.457-.36-1.543-.911-1.575-1.038.621-1.087,1.458" fill="#1c1c1c"/>
            <path id="Trazado_1032189" data-name="Trazado 1032189" d="M156.867,32.345c-.048.837.36,1.542.911,1.574s1.038-.62,1.087-1.458-.36-1.542-.911-1.574-1.038.621-1.087,1.458" fill="#1c1c1c"/>
            <path id="Trazado_1032190" data-name="Trazado 1032190" d="M160.316,30.273a.287.287,0,0,1-.246-.14,2.978,2.978,0,0,0-2.71-1.539.286.286,0,0,1-.281-.289.289.289,0,0,1,.289-.282,3.555,3.555,0,0,1,3.193,1.818.285.285,0,0,1-.245.432" fill="#3c3d42"/>
            <path id="Trazado_1032191" data-name="Trazado 1032191" d="M141.56,28.049a.286.286,0,0,1-.207-.482,3.57,3.57,0,0,1,3.52-1.078.285.285,0,1,1-.117.558,3,3,0,0,0-2.989.913.286.286,0,0,1-.207.089" fill="#3c3d42"/>
            <path id="Trazado_1032192" data-name="Trazado 1032192" d="M143.685,40.2c1.041,4.215,9.272,5.908,11.787,1.529Z" fill="#fff"/>
            <path id="Trazado_1032193" data-name="Trazado 1032193" d="M150.363,44.583a8.7,8.7,0,0,1-1.2-.084c-2.428-.341-5.148-1.781-5.752-4.228a.285.285,0,0,1,.554-.137c.54,2.188,3.04,3.485,5.277,3.8,2.074.291,4.737-.171,5.986-2.344a.285.285,0,1,1,.495.284,5.927,5.927,0,0,1-5.357,2.709" fill="#fc7e72"/>
            <path id="Trazado_1032194" data-name="Trazado 1032194" d="M109.331,44.982l2.727-1.136c-.322,1.635,3.667,2.194,7.281,3.747,5.914,2.315,9.466,7.571,8.885,13.835l-3.44-.731Z" fill="#fff"/>
            <path id="Trazado_1032195" data-name="Trazado 1032195" d="M107.373,45.745l2.727-1.136c-.322,1.636,3.667,2.194,7.281,3.747,5.914,2.315,9.466,7.571,8.885,13.835l-3.44-.731Z" fill="#edeceb"/>
            <path id="Trazado_1032196" data-name="Trazado 1032196" d="M128.225,60.092c7.8-7.974,17.5-10.242,29-7.168a36.658,36.658,0,0,0,13.029,1.281l-.435,1.873-39.728,5.885Z" fill="#fff"/>
            <path id="Trazado_1032197" data-name="Trazado 1032197" d="M128.225,61.886c7.8-7.973,17.5-10.242,29-7.168A36.658,36.658,0,0,0,170.25,56l-.435,1.873-39.728,5.885Z" fill="#edeceb"/>
            <path id="Trazado_1032198" data-name="Trazado 1032198" d="M107.373,45.745l1.958-.763,16.1,15.422-2.684.376Z" fill="#d8d8d8"/>
            <path id="Trazado_1032199" data-name="Trazado 1032199" d="M130.173,60.9l43.748-5.8-.383,2.226L131.965,62.8l-1.727-1.829Z" fill="#d8d8d8"/>
            <path id="Trazado_1032200" data-name="Trazado 1032200" d="M122.712,60.239A10.557,10.557,0,0,1,133.12,62.8l-4.533.285-3.8-.886-2.07-1.872Z" fill="#b2b2b2"/>
            <path id="Trazado_1032201" data-name="Trazado 1032201" d="M129.137,64.824a11.822,11.822,0,0,1-3.312-.467,8.218,8.218,0,0,1-4.195-2.632,6.875,6.875,0,0,0-.545-.6L106.642,47.251a1.085,1.085,0,0,1,1.5-1.565l14.443,13.869a8.924,8.924,0,0,1,.725.8,6.017,6.017,0,0,0,3.119,1.917,9.953,9.953,0,0,0,4.19.276l43.312-5.885a1.085,1.085,0,0,1,.291,2.15L130.919,64.7a12.83,12.83,0,0,1-1.782.126" fill="#e56d4b"/>
            <path id="Trazado_1032202" data-name="Trazado 1032202" d="M122.494,61.082l-15.473-14.87a.586.586,0,0,0-.984.52l8,47.365a3.14,3.14,0,0,0,1.08,1.887l13.907,11.657c.058.056.118.109.176.165l-6.276-46.255q-.219-.222-.427-.469" fill="#ed854b"/>
            <path id="Trazado_1032203" data-name="Trazado 1032203" d="M183.322,103.188,176.76,59.424a2.059,2.059,0,0,0-2.312-1.735l-41.326,5.574v0l7.066,48.066c.331-.059.669-.126,1.018-.208l40.363-5.589a2.06,2.06,0,0,0,1.754-2.346" fill="#ed854b"/>
            <path id="Trazado_1032204" data-name="Trazado 1032204" d="M122.921,61.551l6.277,46.254c2.68,2.52,5.734,4.458,10.989,3.526L133.12,63.264c-4.957.987-7.971.566-10.2-1.713" fill="#e56d4b"/>
            <path id="Trazado_1032205" data-name="Trazado 1032205" d="M123.806,68.413c2.32,2.161,6.019,1.889,10.233,1.133l.79,5.374c-4.624.93-8.431,1.039-10.283-1.05Z" fill="#fff3de"/>
            <path id="Trazado_1032206" data-name="Trazado 1032206" d="M124.785,75.555c2.32,2.161,6.072,1.727,10.286.971l.318,2.162c-3.457,1.091-8.44,1.331-10.292-.758Z" fill="#fff3de"/>
            <path id="Trazado_1032207" data-name="Trazado 1032207" d="M170.38,67.965a.572.572,0,0,0-.644-.487l-27.33,3.808a.571.571,0,0,0,.078,1.136.7.7,0,0,0,.079,0l27.33-3.808a.57.57,0,0,0,.487-.644" fill="#fff3de"/>
            <path id="Trazado_1032208" data-name="Trazado 1032208" d="M171.451,72.784a.572.572,0,0,0-.644-.487l-27.33,3.808a.571.571,0,0,0,.078,1.136.7.7,0,0,0,.079,0l27.33-3.808a.571.571,0,0,0,.487-.644" fill="#fff3de"/>
            <path id="Trazado_1032209" data-name="Trazado 1032209" d="M172.4,78.015a.573.573,0,0,0-.645-.487l-27.33,3.807a.571.571,0,0,0,.078,1.137.716.716,0,0,0,.08,0l27.329-3.808a.571.571,0,0,0,.488-.644" fill="#fff3de"/>
            <path id="Trazado_1032210" data-name="Trazado 1032210" d="M163.235,84.083,152.15,85.627a.571.571,0,0,0,.078,1.137.526.526,0,0,0,.079-.006l11.085-1.544a.571.571,0,0,0-.157-1.131" fill="#fff3de"/>
            <path id="Trazado_1032211" data-name="Trazado 1032211" d="M245.621,110.111h0a3.061,3.061,0,0,1-3.061-3.061V69.612a3.061,3.061,0,0,1,6.122,0V107.05a3.061,3.061,0,0,1-3.061,3.061" fill="#9d9d9c"/>
            <path id="Trazado_1032212" data-name="Trazado 1032212" d="M292.412,110.111h0a3.06,3.06,0,0,1-3.06-3.061V69.612a3.061,3.061,0,1,1,6.121,0V107.05a3.061,3.061,0,0,1-3.061,3.061" fill="#9d9d9c"/>
            <path id="Trazado_1032213" data-name="Trazado 1032213" d="M245.621,66.551h0a3.061,3.061,0,0,0-3.061,3.061V107.05a3.062,3.062,0,0,0,3.061,3.061Z" fill="#b2b2b2"/>
            <path id="Trazado_1032214" data-name="Trazado 1032214" d="M292.412,66.551h0a3.06,3.06,0,0,0-3.06,3.061V107.05a3.061,3.061,0,0,0,3.06,3.061Z" fill="#b2b2b2"/>
            <path id="Trazado_1032215" data-name="Trazado 1032215" d="M237.911,157.188h-.524a2.8,2.8,0,0,1-2.8-2.8V113.63h6.12v40.76a2.8,2.8,0,0,1-2.8,2.8" fill="#9d9d9c"/>
            <path id="Trazado_1032216" data-name="Trazado 1032216" d="M300.645,157.188h-.524a2.8,2.8,0,0,1-2.8-2.8V113.63h6.12v40.76a2.8,2.8,0,0,1-2.8,2.8" fill="#9d9d9c"/>
            <path id="Trazado_1032217" data-name="Trazado 1032217" d="M237.65,113.63h-3.06v40.76a2.8,2.8,0,0,0,2.8,2.8h.262Z" fill="#b2b2b2"/>
            <rect id="Rectángulo_415124" data-name="Rectángulo 415124" width="6.119" height="3.899" transform="translate(234.59 113.63)" fill="#706f6f"/>
            <path id="Trazado_1032218" data-name="Trazado 1032218" d="M300.383,113.63h-3.06v40.76a2.8,2.8,0,0,0,2.8,2.8h.262Z" fill="#b2b2b2"/>
            <rect id="Rectángulo_415125" data-name="Rectángulo 415125" width="6.119" height="3.899" transform="translate(297.324 113.63)" fill="#706f6f"/>
            <path id="Trazado_1032219" data-name="Trazado 1032219" d="M291.154,38.476H246.88c-9.151,0-16.569,7.084-16.569,15.826V78.1a15.314,15.314,0,0,0,3.446,9.661,16.66,16.66,0,0,0,14.858,8.817h40.8a16.66,16.66,0,0,0,14.858-8.817,15.314,15.314,0,0,0,3.446-9.661V54.3c0-8.742-7.418-15.826-16.567-15.826" fill="#3e6380"/>
            <path id="Trazado_1032220" data-name="Trazado 1032220" d="M303.036,113.63H235a4.686,4.686,0,0,1-4.686-4.686v-1.188A4.687,4.687,0,0,1,235,103.069h68.039a4.687,4.687,0,0,1,4.686,4.687v1.188a4.686,4.686,0,0,1-4.686,4.686" fill="#3d4a6a"/>
            <path id="Trazado_1032221" data-name="Trazado 1032221" d="M299.78,7.6a7.6,7.6,0,0,0-15.1-1.256,12.7,12.7,0,0,0-7.191-.68,26.655,26.655,0,0,0-15.063.1,7.6,7.6,0,1,0-11.048,8.487c-6.667,10.068-5.266,25.407,6.366,32.717,6.116,5.033,15.118,4.471,15.118,4.471a21.159,21.159,0,0,0,15.945-7.167c10.267-10.451,10.03-21.7,5.544-29.393A7.6,7.6,0,0,0,299.78,7.6" fill="#2a1301"/>
            <path id="Trazado_1032222" data-name="Trazado 1032222" d="M278.152,56.08l-10.364.217-.287-6.7,10.364-.218Z" fill="#af5936"/>
            <path id="Trazado_1032223" data-name="Trazado 1032223" d="M267.479,48.665l.171,4.391a12.406,12.406,0,0,0,10.3-.216l-.142-5.857Z" fill="#8c3d22"/>
            <path id="Trazado_1032224" data-name="Trazado 1032224" d="M292.653,32.355c.031-.591.039-1.175.025-1.748-.215-8.882-10.558-19.858-22.13-19.616s-19.992,11.613-19.777,20.5q.021.864.11,1.756a2.6,2.6,0,0,0-2.193,2.6,2.641,2.641,0,0,0,2.735,2.528,2.819,2.819,0,0,0,.541-.065c2.345,6.975,8.377,13.384,20.253,13.135,11.853-.249,17.586-6.917,19.6-13.99a2.767,2.767,0,0,0,.621.059,2.579,2.579,0,0,0,.218-5.151" fill="#af5936"/>
            <path id="Trazado_1032225" data-name="Trazado 1032225" d="M272.495,35.874a1.188,1.188,0,0,0,1.054-.641.322.322,0,0,0-.332-.442,3.484,3.484,0,0,1-1.5.031.321.321,0,0,0-.311.456,1.2,1.2,0,0,0,1.086.6" fill="#9b472a"/>
            <path id="Trazado_1032226" data-name="Trazado 1032226" d="M281.413,34.873c-.091-1.121,1.075-2.121,2.6-2.234s2.841.7,2.932,1.824-1.075,2.121-2.6,2.234-2.841-.7-2.932-1.824" fill="#9b472a"/>
            <path id="Trazado_1032227" data-name="Trazado 1032227" d="M258.679,35.629c-.027-1.124,1.193-2.061,2.726-2.093s2.8.853,2.824,1.977-1.193,2.06-2.726,2.093-2.8-.853-2.824-1.977" fill="#9b472a"/>
            <path id="Trazado_1032228" data-name="Trazado 1032228" d="M281.185,29.906c-.028.918-.542,1.647-1.146,1.629s-1.072-.778-1.044-1.7.542-1.647,1.146-1.628,1.072.777,1.044,1.695" fill="#1c1c1c"/>
            <path id="Trazado_1032229" data-name="Trazado 1032229" d="M265.2,30.493c-.029.918-.543,1.647-1.147,1.629s-1.072-.778-1.043-1.7.542-1.647,1.146-1.629,1.071.778,1.044,1.7" fill="#1c1c1c"/>
            <path id="Trazado_1032230" data-name="Trazado 1032230" d="M261.67,27.984a.4.4,0,0,1-.322-.63,3.974,3.974,0,0,1,3.734-1.709.4.4,0,1,1-.06.793,3.175,3.175,0,0,0-3.029,1.381.4.4,0,0,1-.323.165" fill="#2a1301"/>
            <path id="Trazado_1032231" data-name="Trazado 1032231" d="M282.342,27.378a.394.394,0,0,1-.311-.15,3.2,3.2,0,0,0-3.1-1.254.4.4,0,1,1-.094-.79,4,4,0,0,1,3.811,1.549.4.4,0,0,1-.311.645" fill="#2a1301"/>
            <path id="Trazado_1032232" data-name="Trazado 1032232" d="M278.373,39.553h0a2.121,2.121,0,0,0-.221-.166,2,2,0,0,0-1.542-.241,18.665,18.665,0,0,1-8.026.1,2.319,2.319,0,0,0-2.22.7,2.461,2.461,0,0,0-.237.319h0a2.532,2.532,0,0,0-.339,1.869,4.406,4.406,0,0,0,1.418,2.448,5.545,5.545,0,0,0,.584.453,9.41,9.41,0,0,0,4.684,1.213,10.243,10.243,0,0,0,4.683-1.224,5.256,5.256,0,0,0,.994-.836,3.929,3.929,0,0,0,1.042-2.271,2.545,2.545,0,0,0-.82-2.364" fill="#c63300"/>
            <path id="Trazado_1032233" data-name="Trazado 1032233" d="M272.474,43.635c2.259,0,3.862.437,4.683,1.389a6.616,6.616,0,0,1-.637.369,9.613,9.613,0,0,1-7.82.152,6.367,6.367,0,0,1-.909-.51c.881-.937,2.519-1.4,4.683-1.4" fill="#a52402"/>
            <path id="Trazado_1032234" data-name="Trazado 1032234" d="M266.124,40.266h0a2.557,2.557,0,0,1,.235-.32,2.343,2.343,0,0,1,2.2-.772,18.412,18.412,0,0,0,7.971-.027,1.981,1.981,0,0,1,1.83.4,2.176,2.176,0,0,1,.571.7,7.417,7.417,0,0,1-1.8,1.043,12.86,12.86,0,0,1-9.1.152,7.151,7.151,0,0,1-1.738-.962c-.07-.054-.137-.11-.2-.166l.03-.05" fill="#fff"/>
            <path id="Trazado_1032235" data-name="Trazado 1032235" d="M264.083,15.526c-.378,11.612-14.668,9.192-13.206,17.682a34.488,34.488,0,0,1-.438-9.5c.7-8.13,2.626-16.248,22.275-16.966,10.641-.389,20.327,8.244,20.584,18.889l-.578,6.7c-.326-13.5-25.409-4.52-28.637-16.8" fill="#2a1301"/>
            <path id="Trazado_1032236" data-name="Trazado 1032236" d="M305.351,43.133l1.332-4.693a2.531,2.531,0,0,0-.122-1.554l-2.655-6.465a1.092,1.092,0,0,1,.489-1.367,1.163,1.163,0,0,1,1.617.494l1.165,2.458a.218.218,0,0,0,.41-.057l1.367-8.092a.955.955,0,0,1,1.165-.749.921.921,0,0,1,.722,1.015l-.744,5.512,1.8-6.262a1.023,1.023,0,0,1,1.226-.716.983.983,0,0,1,.754,1.18L312.153,30.3l1.882-5.423a.961.961,0,0,1,1.129-.605.919.919,0,0,1,.7,1.143l-1.612,5.614,1.518-3.653a.838.838,0,0,1,.965-.482.8.8,0,0,1,.6.992l-2.218,7.751a4.289,4.289,0,0,1-1.07,1.705l-.117.115a2.333,2.333,0,0,0-.589.951L311.427,44.4Z" fill="#af5936"/>
            <path id="Trazado_1032237" data-name="Trazado 1032237" d="M285.593,66.852l-.513-7.776c7.627-.5,12.284-1.248,15.047-3.74,2.864-2.583,4.495-7.758,5.454-17.305l7.754.779c-1.186,11.8-3.5,18.265-7.989,22.313-4.9,4.416-11.843,5.207-19.753,5.729" fill="#fc9f9f"/>
            <path id="Trazado_1032238" data-name="Trazado 1032238" d="M283.036,110.492l-7.923.288s.089,13.387.072,22.959l7.931.014c.018-10.057-.08-23.261-.08-23.261" fill="#af5936"/>
            <path id="Trazado_1032239" data-name="Trazado 1032239" d="M283.182,132.88h-8.055v-8.25a7.884,7.884,0,0,0,8.055,0Z" fill="#fff"/>
            <path id="Trazado_1032240" data-name="Trazado 1032240" d="M284.011,132.759c4.745,2.975,4.531,2.949,5.77,4.243a2.6,2.6,0,0,1-.5,4.005,4.729,4.729,0,0,1-3.12.627c-2.082-.251-5.827-2.671-10.36-5.992a2.077,2.077,0,0,1-.8-1.224,3.544,3.544,0,0,1,.233-2.48c1.281.929,4.918,2.295,6.286,2.219a2.753,2.753,0,0,0,1.059-.206.98.98,0,0,0,.316-1.648c-.581-.527,1.218.662,1.112.456" fill="#58585a"/>
            <path id="Trazado_1032241" data-name="Trazado 1032241" d="M283.182,130.442a39.248,39.248,0,0,1,6.6,4.771,2.6,2.6,0,0,1-.492,4.008,4.739,4.739,0,0,1-3.121.627c-2.081-.251-5.823-2.67-10.354-5.989a2.072,2.072,0,0,1-.8-1.215,3.5,3.5,0,0,1,.12-2.384c.6.883,3.846,3,6.809,2.144a1.736,1.736,0,0,0,1.122-.923,2.6,2.6,0,0,0,.124-1.039" fill="#f49292"/>
            <path id="Trazado_1032242" data-name="Trazado 1032242" d="M282.263,134.068a.477.477,0,0,1-.179-.92c1.23-.5,1.564-.966,1.741-1.4a.477.477,0,0,1,.884.361,3.609,3.609,0,0,1-2.268,1.925.466.466,0,0,1-.178.035" fill="#fff"/>
            <path id="Trazado_1032243" data-name="Trazado 1032243" d="M283.571,135.114a.477.477,0,0,1-.179-.92c1.23-.5,1.564-.967,1.741-1.4a.477.477,0,0,1,.884.361,3.609,3.609,0,0,1-2.268,1.925.466.466,0,0,1-.178.035" fill="#fff"/>
            <path id="Trazado_1032244" data-name="Trazado 1032244" d="M262.086,133.369l7.93.126c.142-8.993-.063-22.722-.063-22.722l-7.947-.281s.228,13.516.08,22.877" fill="#af5936"/>
            <path id="Trazado_1032245" data-name="Trazado 1032245" d="M270.164,132.392h-8.056v-8.251a7.886,7.886,0,0,0,8.056,0Z" fill="#fff"/>
            <path id="Trazado_1032246" data-name="Trazado 1032246" d="M261.245,132.5c-4.745,2.975-4.531,2.949-5.769,4.243a2.6,2.6,0,0,0,.495,4.005,4.729,4.729,0,0,0,3.12.627c2.082-.251,5.827-2.671,10.36-5.992a2.08,2.08,0,0,0,.8-1.224,3.55,3.55,0,0,0-.232-2.48c-1.282.929-4.919,2.295-6.287,2.219a2.772,2.772,0,0,1-1.059-.206.98.98,0,0,1-.316-1.648c.581-.527-1.218.662-1.112.456" fill="#58585a"/>
            <path id="Trazado_1032247" data-name="Trazado 1032247" d="M262.113,130.155a39.856,39.856,0,0,0-6.635,4.8,2.6,2.6,0,0,0,.493,4.008,4.735,4.735,0,0,0,3.12.627c2.082-.251,5.824-2.669,10.354-5.989a2.072,2.072,0,0,0,.8-1.214,5.4,5.4,0,0,0-.085-2.451c-.6.883-3.88,3.063-6.843,2.21a1.59,1.59,0,0,1-1.006-.953,2.945,2.945,0,0,1-.2-1.034" fill="#f49292"/>
            <path id="Trazado_1032248" data-name="Trazado 1032248" d="M262.992,133.807a.466.466,0,0,1-.178-.035,3.609,3.609,0,0,1-2.268-1.925.477.477,0,0,1,.884-.361c.177.435.511.905,1.741,1.4a.477.477,0,0,1-.179.92" fill="#fff"/>
            <path id="Trazado_1032249" data-name="Trazado 1032249" d="M261.685,134.853a.466.466,0,0,1-.178-.035,3.609,3.609,0,0,1-2.268-1.925.477.477,0,1,1,.883-.361c.178.435.512.9,1.742,1.4a.477.477,0,0,1-.179.92" fill="#fff"/>
            <path id="Trazado_1032250" data-name="Trazado 1032250" d="M265.919,55.412a16.214,16.214,0,0,1,6.924-1.15,12.073,12.073,0,0,1,6.806,1.444c1.529.961-2.7,3.713-6.638,3.657s-8.75-3.233-7.092-3.951" fill="#af5936"/>
            <path id="Trazado_1032251" data-name="Trazado 1032251" d="M256.51,64.089c1.128-4.8,3.275-6.976,9.409-8.677a7.548,7.548,0,0,0,7.288,3.784c2.551-.227,5.272-1.484,6.442-3.49,6.96,2.641,8.012,2.033,9.111,10.292.091,4.8-3.7,13.649-4.374,17.751,2.079,10.576,18.4,17.625,17.739,26.093-11.632,3.708-48.729,4.831-60.54,0-.95-7.142,19.4-18.923,20.045-26.093l-4.224-10.2c-.808-2.811-1.565-6.613-.9-9.46" fill="#fcbebe"/>
            <path id="Trazado_1032252" data-name="Trazado 1032252" d="M279.649,55.706a19.059,19.059,0,0,1,3.787,1.158,12.624,12.624,0,0,1-5.259,6.4,2.263,2.263,0,0,1-2.927-.515l-2.8-3.523-3.233,3.453a1.768,1.768,0,0,1-2.258.258c-2.648-1.771-4.591-3.811-4.819-6.185a21.058,21.058,0,0,1,3.777-1.341c4.136,3.748,8.75,3.539,13.73.294" fill="#fc9f9f"/>
            <path id="Trazado_1032253" data-name="Trazado 1032253" d="M261.63,83.749c8.522,1.542,13.837,1.351,22.756,0L284.762,85c-8.341,1.187-14.424,1.946-23.493-.105Z" fill="#fc9f9f"/>
            <path id="Trazado_1032254" data-name="Trazado 1032254" d="M273.338,62.436a.964.964,0,1,1-.963-.963.963.963,0,0,1,.963.963" fill="#fc9f9f"/>
            <path id="Trazado_1032255" data-name="Trazado 1032255" d="M273.338,65.922a.964.964,0,1,1-.963-.963.963.963,0,0,1,.963.963" fill="#fc9f9f"/>
            <path id="Trazado_1032256" data-name="Trazado 1032256" d="M273.338,69.409a.964.964,0,1,1-.963-.963.963.963,0,0,1,.963.963" fill="#f49292"/>
            <path id="Trazado_1032257" data-name="Trazado 1032257" d="M301.8,84.709H85.9L33.45,112.066H353.084Z" fill="#9a7759"/>
            <path id="Trazado_1032258" data-name="Trazado 1032258" d="M353.084,112.066H33.451v6.871H59.278v78.45c0,3.972,3.535,7.19,7.895,7.19h2.206c4.36,0,7.894-3.218,7.894-7.19v-78.45H308.7v78.45c0,3.972,3.535,7.19,7.9,7.19h2.2c4.361,0,7.9-3.218,7.9-7.19v-78.45h26.383Z" fill="#644d3b"/>
            <path id="Trazado_1032259" data-name="Trazado 1032259" d="M307.578,65.3c17.444-.159,16.47,39,3.718,29.622l.685-3.417c8.772,9.386,7.13-20.509-1.12-23.509Z" fill="#e0b500"/>
            <path id="Trazado_1032260" data-name="Trazado 1032260" d="M299.512,64.037h-1.59c0-3.116,2.153-4.746,4.281-4.746a3.98,3.98,0,0,1,2.86,1.182,4.737,4.737,0,0,1,1.264,3.415h-1.591c0-2.077-1.272-3.007-2.533-3.007-1.3,0-2.691.988-2.691,3.156" fill="#efc200"/>
            <path id="Trazado_1032261" data-name="Trazado 1032261" d="M300.03,96.365h7.441a5.78,5.78,0,0,0,5.78-5.781V69.012a5.78,5.78,0,0,0-5.78-5.78h-1.955A11.266,11.266,0,0,0,294.249,74.5V90.584a5.781,5.781,0,0,0,5.781,5.781" fill="#efc200"/>
            <path id="Trazado_1032262" data-name="Trazado 1032262" d="M296.287,96.206h7.441a5.781,5.781,0,0,0,5.781-5.781V68.853a5.78,5.78,0,0,0-5.781-5.78h-1.955a11.266,11.266,0,0,0-11.267,11.266V90.425a5.781,5.781,0,0,0,5.781,5.781" fill="#efd400"/>
            <path id="Trazado_1032263" data-name="Trazado 1032263" d="M292.107,80.966h9.9a3.009,3.009,0,0,0,3-3V73.027a3.009,3.009,0,0,0-3-3h-9.9a3.009,3.009,0,0,0-3,3v4.939a3.009,3.009,0,0,0,3,3" fill="#e0b500"/>
            <path id="Trazado_1032264" data-name="Trazado 1032264" d="M302.545,73.329H289.991a1.009,1.009,0,0,1-.884-1.094V79.09a1.009,1.009,0,0,0,.884,1.093h12.554a1.009,1.009,0,0,0,.884-1.093V72.235a1.009,1.009,0,0,1-.884,1.094" fill="#efc200"/>
            <path id="Trazado_1032265" data-name="Trazado 1032265" d="M302.545,70.027H289.991a1.009,1.009,0,0,0-.884,1.093v1.9a1.009,1.009,0,0,0,.884,1.094h12.554a1.009,1.009,0,0,0,.884-1.094v-1.9a1.009,1.009,0,0,0-.884-1.093" fill="#efe100"/>
            <path id="Trazado_1032266" data-name="Trazado 1032266" d="M296.347,76.008h-.665a1.344,1.344,0,0,1-1.341-1.341V74.36a1.344,1.344,0,0,1,1.341-1.341h.665a1.345,1.345,0,0,1,1.341,1.341v.307a1.345,1.345,0,0,1-1.341,1.341" fill="#efd400"/>
            <g id="Grupo_1174837" data-name="Grupo 1174837" opacity="0.5">
              <g id="Grupo_1174836" data-name="Grupo 1174836">
                <g id="Grupo_1174835" data-name="Grupo 1174835" clip-path="url(#clip-path-9)">
                  <path id="Trazado_1032267" data-name="Trazado 1032267" d="M173.218,96.008l5.31,1.263,7.332-.631-3.539-2.194Z"/>
                </g>
              </g>
            </g>
            <path id="Trazado_1032268" data-name="Trazado 1032268" d="M178.529,90.7v6.575l4.257-1.263V90.191Z" fill="#933214"/>
            <path id="Trazado_1032269" data-name="Trazado 1032269" d="M173.218,89.77l5.31.926v6.575l-5.31-1.263Z" fill="#e8431b"/>
            <path id="Trazado_1032270" data-name="Trazado 1032270" d="M173.218,89.77l4.636-.718,4.931,1.139-4.257.505Z" fill="#dc8e76"/>
            <g id="Grupo_1174840" data-name="Grupo 1174840" opacity="0.5">
              <g id="Grupo_1174839" data-name="Grupo 1174839">
                <g id="Grupo_1174838" data-name="Grupo 1174838" clip-path="url(#clip-path-10)">
                  <path id="Trazado_1032271" data-name="Trazado 1032271" d="M165.431,91.655c0,.891-2.652,1.612-5.926,1.612s-5.925-.721-5.925-1.612,2.652-1.611,5.925-1.611,5.926.721,5.926,1.611"/>
                </g>
              </g>
            </g>
            <path id="Trazado_1032272" data-name="Trazado 1032272" d="M163.264,85.482a6.407,6.407,0,1,1-6.406-6.386,6.4,6.4,0,0,1,6.406,6.386" fill="#8476bc"/>
            <path id="Trazado_1032273" data-name="Trazado 1032273" d="M156.858,79.1a6.394,6.394,0,0,0-4.26,1.618,6.4,6.4,0,0,0,9.634,8.24,6.325,6.325,0,0,0,1.032-3.472,6.4,6.4,0,0,0-6.406-6.386" fill="#76bc8b"/>
            <path id="Trazado_1032274" data-name="Trazado 1032274" d="M156.858,79.1a6.392,6.392,0,0,0-3.577,1.088,6.4,6.4,0,0,0,9.129,8.482,6.381,6.381,0,0,0-5.552-9.57" fill="#c4c7b2"/>
            <g id="Grupo_1174843" data-name="Grupo 1174843" opacity="0.2">
              <g id="Grupo_1174842" data-name="Grupo 1174842">
                <g id="Grupo_1174841" data-name="Grupo 1174841" clip-path="url(#clip-path-11)">
                  <path id="Trazado_1032275" data-name="Trazado 1032275" d="M162.4,82.289c-.042,3.221-3.222,5.977-6.579,6.649a21.667,21.667,0,0,1-3.843.684,6.41,6.41,0,0,0,11.282-4.14,6.331,6.331,0,0,0-.86-3.193"/>
                </g>
              </g>
            </g>
            <g id="Grupo_1174846" data-name="Grupo 1174846" opacity="0.5">
              <g id="Grupo_1174845" data-name="Grupo 1174845">
                <g id="Grupo_1174844" data-name="Grupo 1174844" clip-path="url(#clip-path-12)">
                  <path id="Trazado_1032276" data-name="Trazado 1032276" d="M199.7,101.173l10.571,1.171,18-1.171-7.365-2-4.843-.371-1.024,1.092-3.109-.216Z"/>
                </g>
              </g>
            </g>
            <path id="Trazado_1032277" data-name="Trazado 1032277" d="M209.735,101.9,200,101.174V91.153l9.732.71Z" fill="#ffb76a"/>
            <path id="Trazado_1032278" data-name="Trazado 1032278" d="M213.2,99.7l-3.47,2.206V91.883l3.47-.964Z" fill="#843f1b"/>
            <path id="Trazado_1032279" data-name="Trazado 1032279" d="M200,91.152l4.112-.868,9.09.635-3.47.943Z" fill="#f7e8a6"/>
            <g id="Grupo_1174849" data-name="Grupo 1174849" opacity="0.5">
              <g id="Grupo_1174848" data-name="Grupo 1174848">
                <g id="Grupo_1174847" data-name="Grupo 1174847" clip-path="url(#clip-path-13)">
                  <path id="Trazado_1032280" data-name="Trazado 1032280" d="M209.735,91.891l-5.62-.972c1.886.323,3.778,1.679,5.62,2.14Z"/>
                </g>
              </g>
            </g>
            <path id="Trazado_1032281" data-name="Trazado 1032281" d="M208.26,91.794l-4.145-.875V81.978l4.145.681Z" fill="#f4a053"/>
            <path id="Trazado_1032282" data-name="Trazado 1032282" d="M208.26,82.659l6.055-.583v8.609l-6.055,1.109Z" fill="#bf6725"/>
            <path id="Trazado_1032283" data-name="Trazado 1032283" d="M204.115,81.978l5.184-.533,5.016.631-6.055.583Z" fill="#e8d379"/>
            <g id="Grupo_1174852" data-name="Grupo 1174852" opacity="0.5">
              <g id="Grupo_1174851" data-name="Grupo 1174851">
                <g id="Grupo_1174850" data-name="Grupo 1174850" clip-path="url(#clip-path-14)">
                  <path id="Trazado_1032284" data-name="Trazado 1032284" d="M207.687,86.128l.6-2.381V82.288l-4.171-.31v2.439Z"/>
                </g>
              </g>
            </g>
            <path id="Trazado_1032285" data-name="Trazado 1032285" d="M202.813,81.52l4.634,1.334,1.564-12.86Z" fill="#efd565"/>
            <path id="Trazado_1032286" data-name="Trazado 1032286" d="M212.917,81.593l-5.5,1.275,1.565-12.861Z" fill="#d37d42"/>
            <path id="Trazado_1032287" data-name="Trazado 1032287" d="M86.615,191.953s-2.724,11.449-1.323,15.265,15.887,2.492,16.277-.623.545-11.682-1.713-16.355Z" fill="#1e2744" fill-rule="evenodd"/>
            <path id="Trazado_1032288" data-name="Trazado 1032288" d="M125.584,191.209s2.725,11.449,1.325,15.265-15.888,2.493-16.278-.622-.544-11.683,1.714-16.356Z" fill="#1e2744" fill-rule="evenodd"/>
            <path id="Trazado_1032289" data-name="Trazado 1032289" d="M98.295,190.441c.686-6.637,2.612-27.2,1.576-39.47l-16.205-.128c-.29,8.829-.063,25.253,4.275,40.938Z" fill="#f8a185" fill-rule="evenodd"/>
            <path id="Trazado_1032290" data-name="Trazado 1032290" d="M124.748,191.1a198.732,198.732,0,0,0,4.018-40.548l-15.383.357c-.812,5.86-1.58,17.537-.1,38.708Z" fill="#f8a185" fill-rule="evenodd"/>
            <path id="Trazado_1032291" data-name="Trazado 1032291" d="M98.295,190.441c.24-2.329.634-6.374,1-11.173l-13.726,1.738a108.793,108.793,0,0,0,2.374,10.775Z" fill="#fdfdfd" fill-rule="evenodd"/>
            <path id="Trazado_1032292" data-name="Trazado 1032292" d="M124.748,191.1c.489-2.267,1.18-5.81,1.853-10.4l-13.9-1.376q.2,4.725.583,10.291Z" fill="#fdfdfd" fill-rule="evenodd"/>
            <path id="Trazado_1032293" data-name="Trazado 1032293" d="M92.156,186.049H94.08a1.416,1.416,0,0,1,1.413,1.412v7.3a1.416,1.416,0,0,1-1.413,1.412H92.156a1.417,1.417,0,0,1-1.414-1.412v-7.3a1.417,1.417,0,0,1,1.414-1.412" fill="#11588e" fill-rule="evenodd"/>
            <path id="Trazado_1032294" data-name="Trazado 1032294" d="M118.051,185.3h1.926a1.418,1.418,0,0,1,1.413,1.414v7.3a1.417,1.417,0,0,1-1.413,1.412h-1.926a1.416,1.416,0,0,1-1.412-1.412v-7.3a1.417,1.417,0,0,1,1.412-1.414" fill="#1b4872" fill-rule="evenodd"/>
            <path id="Trazado_1032295" data-name="Trazado 1032295" d="M69.705,96.719c-11.8-1.613-13.84-15.973-14.178-19.9a4.427,4.427,0,0,0,.855-3.758,23.21,23.21,0,0,1-.127-9.134A28.128,28.128,0,0,0,57.1,60.1c0-2.052-.157-2.532-1.937-2.567-1.344-.027-2.674,4.494-2.693,5.558-.028,1.495-1.923-2.3-1.967-2.371-1.009-1.791-3.311-6.422-5.651-6.419-4.885.005,2.495,5.519,2.035,6.772-.568,1.551-5.4-5.615-6.359-5.688-2.9-.222-2.047,2.351-1.147,3.086,1.181.964,4.751,3.509,4.751,5.017,0,1.8-3.442-1.765-3.78-2.168-.418-.5-2.389-2.692-2.964-2.7-1.645-.023-.887,1.249-.59,1.96.724,1.739,4.025,4.075,4.025,5.413,0,1.49-1.894.01-2.04-.2-.705-1.037-4.408-3.445-3.835-.893a3.059,3.059,0,0,0,.436,1.214,10.4,10.4,0,0,0,1.566,2.177c.5.441,3.685,3.195,3.853,3.436.7,1,2.073,1.768,2.469,2.314a14.018,14.018,0,0,0,4.475,3.582c-.256,2.843-.049,7.061,1.1,13.325,2.84,15.531,15.669,16.9,21.276,16.736a33.065,33.065,0,0,1-.413-10.961" fill="#ffbda9" fill-rule="evenodd"/>
            <path id="Trazado_1032296" data-name="Trazado 1032296" d="M142.891,156.908c3.288-11.48-.2-34.813-1.5-42.5-3.192,2.576-8,3.67-9.728,4-.11,6.168,1.1,12.408,2.118,17.395,1.323,6.465-.235,20.172-.235,20.172A5.192,5.192,0,0,0,130,158.952c.231,2.465.417,5.265.515,8.377,2.108,2.576,5.826,4.565,9.418,1.573,5.608-4.674,2.96-11.994,2.96-11.994" fill="#ffbda9" fill-rule="evenodd"/>
            <path id="Trazado_1032297" data-name="Trazado 1032297" d="M103.251,30.344c10.47,0,19.2,9.729,21.214,22.657a3.623,3.623,0,0,1,2.12-.313c2.724.446,4.388,4.125,3.717,8.215s-3.424,7.043-6.147,6.6c-.1-.017-.2-.04-.3-.066-2.108,8.526-7.218,15.283-13.7,18.136l.266,3.1,4.614,0c-1.916,3.1-5.97,5.235-10.661,5.235a12.969,12.969,0,0,1-9.811-4.08l2.619-.769.064-3.126c-5.86-2.211-10.7-7.574-13.376-14.6a3.573,3.573,0,0,1-1.755.837c-2.721.447-5.474-2.506-6.145-6.6s.991-7.768,3.716-8.215a3.578,3.578,0,0,1,1.934.234c.44-15.148,9.956-27.251,21.632-27.251" fill="#ffbda9" fill-rule="evenodd"/>
            <path id="Trazado_1032298" data-name="Trazado 1032298" d="M85.965,72.863c-1.922-2.33-.81-13.873-7.8-14.889-1.015-.148-6.769-31.983,26.648-31.983,20.616,0,22.166,24.59,20.616,26.646-6.169,8.188,0,11.6-3.653,17.311-2.021,3.157-5.065,11.953-18.23,11.953-9.25,0-11.96-2.22-17.583-9.038" fill="#2d2a17" fill-rule="evenodd"/>
            <path id="Trazado_1032299" data-name="Trazado 1032299" d="M95.662,26.942S99.3,42.15,101.517,59.829c0,0-1.831-24.713,1.413-33.838a26.543,26.543,0,0,0-7.268.951" fill="#2d2317"/>
            <path id="Trazado_1032300" data-name="Trazado 1032300" d="M81.865,146.012a135.068,135.068,0,0,0,46.106.156s1.667,2.457,2.34,10.827a17.491,17.491,0,0,1-17.341,18.858l-14.936.1a17.488,17.488,0,0,1-17.618-17.8,58.888,58.888,0,0,1,1.449-12.133" fill="#403a48" fill-rule="evenodd"/>
            <path id="Trazado_1032301" data-name="Trazado 1032301" d="M127.971,146.168s1.09-28.9,0-32.477l3.038,4.828s8.177-1.168,11.76-5.452c0,0-7.034-23.088-27.736-24.394-1.915,3.1-5.969,5.236-10.661,5.236a12.967,12.967,0,0,1-9.81-4.08,178.14,178.14,0,0,0-24.536,4.858s-2.023,9.346,1.4,16.978l11.059-.623-.622,34.97a135.066,135.066,0,0,0,46.106.156" fill="#2cccae" fill-rule="evenodd"/>
            <path id="Trazado_1032302" data-name="Trazado 1032302" d="M104.834,99.573c7.493,0,13.659-4.512,14.429-10.3a27.406,27.406,0,0,0-4.229-.595c-1.915,3.1-5.969,5.235-10.661,5.235a12.966,12.966,0,0,1-9.81-4.079c-1.348.171-2.662.356-3.941.547,1.357,5.249,7.2,9.2,14.212,9.2" fill="#14a89c" fill-rule="evenodd"/>
            <path id="Trazado_1032303" data-name="Trazado 1032303" d="M75.695,111.425a21.617,21.617,0,0,1-.452-18.078c-3.289.78-5.217,1.34-5.217,1.34s-.165.764-.321,2.032a33.065,33.065,0,0,0,.413,10.961,21.067,21.067,0,0,0,1.31,3.985Z" fill="#14a89c" fill-rule="evenodd"/>
            <path id="Trazado_1032304" data-name="Trazado 1032304" d="M131.661,118.406c1.732-.325,6.535-1.42,9.728-4a9.911,9.911,0,0,0,1.38-1.342,31.632,31.632,0,0,0-1.128-2.962,26.876,26.876,0,0,1-12.435,5.547l1.8,2.867s.239-.034.652-.114" fill="#14a89c" fill-rule="evenodd"/>
            <path id="Trazado_1032305" data-name="Trazado 1032305" d="M75.156,225.617h-.845a2.637,2.637,0,0,1-2.637-2.637V182.059h6.119V222.98a2.637,2.637,0,0,1-2.637,2.637" fill="#9d9d9c"/>
            <path id="Trazado_1032306" data-name="Trazado 1032306" d="M137.891,225.617h-.847a2.637,2.637,0,0,1-2.637-2.637V182.059h6.121V222.98a2.637,2.637,0,0,1-2.637,2.637" fill="#9d9d9c"/>
            <path id="Trazado_1032307" data-name="Trazado 1032307" d="M74.733,182.059h-3.06V222.98a2.638,2.638,0,0,0,2.638,2.637h.422Z" fill="#b2b2b2"/>
            <path id="Trazado_1032308" data-name="Trazado 1032308" d="M137.467,182.059h-3.06V222.98a2.637,2.637,0,0,0,2.637,2.637h.423Z" fill="#b2b2b2"/>
            <rect id="Rectángulo_415132" data-name="Rectángulo 415132" width="6.119" height="10.25" transform="translate(71.674 177.239)" fill="#706f6f"/>
            <rect id="Rectángulo_415133" data-name="Rectángulo 415133" width="6.119" height="10.25" transform="translate(134.408 177.239)" fill="#706f6f"/>
            <path id="Trazado_1032309" data-name="Trazado 1032309" d="M126.5,112.045H85.7c-9.152,0-16.57,7.084-16.57,15.824v21.315a15.17,15.17,0,0,0,1.711,7.007A16.656,16.656,0,0,0,85.7,165.008h40.8a16.66,16.66,0,0,0,14.859-8.817,15.194,15.194,0,0,0,1.71-7.007V127.869c0-8.74-7.419-15.824-16.569-15.824" fill="#3d4a6a"/>
            <path id="Trazado_1032310" data-name="Trazado 1032310" d="M140.56,182.059H71.642a4.246,4.246,0,0,1-4.246-4.245v-2.07a4.246,4.246,0,0,1,4.246-4.246H140.56a4.245,4.245,0,0,1,4.245,4.246v2.07a4.245,4.245,0,0,1-4.245,4.245" fill="#3d4a6a"/>
            <path id="Trazado_1032311" data-name="Trazado 1032311" d="M82.705,178.539h0a3.061,3.061,0,0,1-3.061-3.061V138.04a3.061,3.061,0,0,1,6.122,0v37.438a3.061,3.061,0,0,1-3.061,3.061" fill="#9d9d9c"/>
            <path id="Trazado_1032312" data-name="Trazado 1032312" d="M129.495,178.539h0a3.061,3.061,0,0,1-3.061-3.061V138.04a3.061,3.061,0,0,1,6.122,0v37.438a3.061,3.061,0,0,1-3.061,3.061" fill="#9d9d9c"/>
            <path id="Trazado_1032313" data-name="Trazado 1032313" d="M82.705,134.979a3.061,3.061,0,0,0-3.061,3.061v37.438a3.062,3.062,0,0,0,3.061,3.061Z" fill="#b2b2b2"/>
            <path id="Trazado_1032314" data-name="Trazado 1032314" d="M129.495,134.979h0a3.061,3.061,0,0,0-3.061,3.061v37.438a3.062,3.062,0,0,0,3.061,3.061Z" fill="#b2b2b2"/>
            <path id="Trazado_1032315" data-name="Trazado 1032315" d="M144.806,122.73c0-8.739-7.418-15.826-16.568-15.826H83.965c-9.15,0-16.568,7.087-16.568,15.826v23.8a15.308,15.308,0,0,0,3.446,9.661,15.171,15.171,0,0,1-1.712-7.007V127.869c0-8.74,7.418-15.824,16.57-15.824h40.8c9.151,0,16.569,7.084,16.569,15.824v21.315a15.194,15.194,0,0,1-1.71,7.007,15.308,15.308,0,0,0,3.446-9.661Z" fill="#3e6380"/>
            <path id="Trazado_1032316" data-name="Trazado 1032316" d="M242.393,225.617h-.845a2.637,2.637,0,0,1-2.637-2.637V182.059h6.119V222.98a2.637,2.637,0,0,1-2.637,2.637" fill="#9d9d9c"/>
            <path id="Trazado_1032317" data-name="Trazado 1032317" d="M305.129,225.617h-.848a2.637,2.637,0,0,1-2.636-2.637V182.059h6.121V222.98a2.637,2.637,0,0,1-2.637,2.637" fill="#9d9d9c"/>
            <path id="Trazado_1032318" data-name="Trazado 1032318" d="M241.971,182.059h-3.059V222.98a2.637,2.637,0,0,0,2.636,2.637h.423Z" fill="#b2b2b2"/>
            <path id="Trazado_1032319" data-name="Trazado 1032319" d="M304.7,182.059h-3.06V222.98a2.637,2.637,0,0,0,2.637,2.637h.423Z" fill="#b2b2b2"/>
            <rect id="Rectángulo_415134" data-name="Rectángulo 415134" width="6.119" height="10.25" transform="translate(238.911 177.239)" fill="#706f6f"/>
            <rect id="Rectángulo_415135" data-name="Rectángulo 415135" width="6.119" height="10.25" transform="translate(301.646 177.239)" fill="#706f6f"/>
            <path id="Trazado_1032320" data-name="Trazado 1032320" d="M293.738,112.045h-40.8c-9.152,0-16.57,7.084-16.57,15.824v21.315a15.158,15.158,0,0,0,1.712,7.007,16.653,16.653,0,0,0,14.858,8.817h40.8a16.659,16.659,0,0,0,14.859-8.817,15.194,15.194,0,0,0,1.71-7.007V127.869c0-8.74-7.419-15.824-16.569-15.824" fill="#3d4a6a"/>
            <path id="Trazado_1032321" data-name="Trazado 1032321" d="M307.8,182.059H238.88a4.246,4.246,0,0,1-4.246-4.245v-2.07a4.246,4.246,0,0,1,4.246-4.246H307.8a4.245,4.245,0,0,1,4.245,4.246v2.07a4.245,4.245,0,0,1-4.245,4.245" fill="#3d4a6a"/>
            <path id="Trazado_1032322" data-name="Trazado 1032322" d="M249.942,178.539h0a3.06,3.06,0,0,1-3.06-3.061V138.04a3.061,3.061,0,1,1,6.121,0v37.438a3.061,3.061,0,0,1-3.061,3.061" fill="#9d9d9c"/>
            <path id="Trazado_1032323" data-name="Trazado 1032323" d="M296.733,178.539h0a3.061,3.061,0,0,1-3.061-3.061V138.04a3.061,3.061,0,1,1,6.121,0v37.438a3.06,3.06,0,0,1-3.06,3.061" fill="#9d9d9c"/>
            <path id="Trazado_1032324" data-name="Trazado 1032324" d="M249.942,134.979a3.06,3.06,0,0,0-3.06,3.061v37.438a3.061,3.061,0,0,0,3.06,3.061Z" fill="#b2b2b2"/>
            <path id="Trazado_1032325" data-name="Trazado 1032325" d="M296.733,134.979h0a3.061,3.061,0,0,0-3.061,3.061v37.438a3.062,3.062,0,0,0,3.061,3.061Z" fill="#b2b2b2"/>
            <path id="Trazado_1032326" data-name="Trazado 1032326" d="M312.043,122.73c0-8.739-7.418-15.826-16.568-15.826H251.2c-9.15,0-16.568,7.087-16.568,15.826v23.8a15.308,15.308,0,0,0,3.446,9.661,15.171,15.171,0,0,1-1.712-7.007V127.869c0-8.74,7.418-15.824,16.57-15.824h40.8c9.151,0,16.569,7.084,16.569,15.824v21.315a15.194,15.194,0,0,1-1.71,7.007,15.308,15.308,0,0,0,3.446-9.661Z" fill="#3e6380"/>
            <path id="Trazado_1032327" data-name="Trazado 1032327" d="M270.908,90.686c.875.232,1.688,1.781,3.709,1.512,1.759-.235,3.95.4,2.759,1.161-1.291.558-2.011,1.041.787,1.841,2.635,1.569,2.538,3.412,1.806,5.372-.324.87-2.646.922-3.567.807-3.352-.417-5.083-3.967-5.415-4.6,0,0-1.475-2.671-2.883-2.724s2.8-3.365,2.8-3.365" fill="#af5936"/>
            <path id="Trazado_1032328" data-name="Trazado 1032328" d="M262.785,66.757c.21-2.518-1.392-7.908-1.968-9.292l-2.488,1.464a8.192,8.192,0,0,0-2.917,5.813c-.13,1.65-.014,3.321-.027,4.46-.191,16.868,6.646,20.114,13.383,27.567l5.78-5.226c-5.634-6.233-12.979-10.2-11.763-24.786" fill="#fc9f9f"/>
          </g>
        </g>
      </g>
    </g>
  </g>
</svg>
